<svg width="195" height="195" viewBox="0 0 195 195" fill="none" xmlns="http://www.w3.org/2000/svg">
<path opacity="0.7" d="M26.493 65.1635C26.493 65.1635 15.621 93.2388 30.8989 121.52C46.1767 149.801 77.6517 164.732 102.842 177.503C128.032 190.274 154.19 184.055 166.62 163.137C179.051 142.218 162.001 127.285 161.98 97.4535C161.96 67.6224 166.445 59.7242 150.295 34.5216C134.145 9.31862 94.5016 3.74084 64.5336 22.4332C34.566 41.1255 26.493 65.1635 26.493 65.1635Z" fill="white"/>
<path d="M25.9432 37.1427C27.2594 35.5725 28.6876 34.1097 30.2281 32.7755C41.3318 23.1585 57.1993 21.3266 70.9141 25.6389C84.6288 29.9511 96.3635 39.7358 105.866 51.1421C110.207 56.3537 114.332 62.0918 120.142 65.2789C127.635 69.3887 136.314 68.5272 144.413 69.7365C173.866 74.1334 183.464 115.441 163.34 136.936C155.407 145.408 144.334 150.187 133.837 153.773C119.298 158.742 104.088 161.997 88.8326 161.389C73.5774 160.78 58.227 156.124 45.9404 146.448C29.8486 133.777 20.1735 113.426 16.1464 92.5129C14.1083 81.9295 13.3844 70.9167 15.4062 60.3298C17.0317 51.8184 20.5448 43.5816 25.9432 37.1427Z" fill="#92E3A9"/>
<path opacity="0.7" d="M144.413 69.7366C136.313 68.5275 127.635 69.3887 120.142 65.2789C114.332 62.0918 110.207 56.3533 105.866 51.1421C96.3632 39.7354 84.6284 29.9511 70.9141 25.6389C57.1993 21.3266 41.3314 23.1585 30.2281 32.7755C28.6876 34.1097 27.2594 35.5729 25.9432 37.1427C20.5448 43.582 17.0317 51.8184 15.4062 60.3301C13.3844 70.9171 14.1083 81.9299 16.1464 92.5133C20.1735 113.426 29.8486 133.778 45.9404 146.449C58.2274 156.124 73.5774 160.781 88.8326 161.389C104.088 161.998 119.298 158.742 133.837 153.774C144.334 150.187 155.407 145.409 163.34 136.936C183.465 115.441 173.866 74.1334 144.413 69.7366Z" fill="white"/>
<path d="M14.2053 172.514H181.273" stroke="#263238" stroke-miterlimit="10" stroke-linecap="round" stroke-linejoin="round"/>
<path d="M98.105 46.72V48.085" stroke="#92E3A9" stroke-width="3" stroke-linejoin="round"/>
<path d="M98.105 51.0818V55.5773" stroke="#92E3A9" stroke-width="3" stroke-linejoin="round" stroke-dasharray="7.68 7.68"/>
<path d="M98.105 57.0759V58.4409H96.74" stroke="#92E3A9" stroke-width="3" stroke-linejoin="round"/>
<path d="M93.983 58.4409H51.2554" stroke="#92E3A9" stroke-width="3" stroke-linejoin="round" stroke-dasharray="7.07 7.07"/>
<path d="M49.8772 58.4409H48.5122V59.8059" stroke="#92E3A9" stroke-width="3" stroke-linejoin="round"/>
<path d="M48.5122 62.0447V65.4026" stroke="#92E3A9" stroke-width="3" stroke-linejoin="round" stroke-dasharray="5.74 5.74"/>
<path d="M48.5122 66.5217V67.8867" stroke="#92E3A9" stroke-width="3" stroke-linejoin="round"/>
<path d="M55.4443 53.2012H60.9851" stroke="#263238" stroke-miterlimit="10" stroke-linecap="round" stroke-linejoin="round"/>
<path d="M56.6611 39.8806C54.974 40.684 53.8079 42.4047 53.8079 44.3976C53.8079 44.9658 53.9073 45.5099 54.0816 46.0188C53.9908 46.0118 53.9003 46.0052 53.8079 46.0052C51.8208 46.0052 50.2097 47.6163 50.2097 49.6033C50.2097 51.5904 51.8204 53.2015 53.8079 53.2015" stroke="#263238" stroke-miterlimit="10" stroke-linecap="round" stroke-linejoin="round"/>
<path d="M67.5772 35.676C66.8927 35.4604 66.1642 35.3438 65.4084 35.3438C62.5567 35.3438 60.0923 37.0005 58.9238 39.4033C58.8848 39.4025 58.847 39.3974 58.8076 39.3974" stroke="#263238" stroke-miterlimit="10" stroke-linecap="round" stroke-linejoin="round"/>
<path d="M73.4452 41.5416C73.1418 41.5416 72.8434 41.565 72.5525 41.6099C72.3068 39.7278 71.3357 38.0738 69.929 36.9385" stroke="#263238" stroke-miterlimit="10" stroke-linecap="round" stroke-linejoin="round"/>
<path d="M64.4614 53.2011H73.4451C76.6645 53.2011 79.2748 50.5912 79.2748 47.3713" stroke="#263238" stroke-miterlimit="10" stroke-linecap="round" stroke-linejoin="round"/>
<path d="M125.328 53.5232H129.087" stroke="#263238" stroke-miterlimit="10" stroke-linecap="round" stroke-linejoin="round"/>
<path d="M126.154 44.4861C125.009 45.0309 124.218 46.1986 124.218 47.5507C124.218 47.936 124.285 48.3054 124.404 48.6505C124.342 48.6458 124.28 48.6411 124.218 48.6411C122.869 48.6411 121.777 49.7339 121.777 51.0822C121.777 52.4304 122.869 53.5232 124.218 53.5232" stroke="#263238" stroke-miterlimit="10" stroke-linecap="round" stroke-linejoin="round"/>
<path d="M133.559 41.6336C133.095 41.4874 132.601 41.4082 132.088 41.4082C130.154 41.4082 128.482 42.5322 127.689 44.1624C127.663 44.1616 127.637 44.1585 127.61 44.1585" stroke="#263238" stroke-miterlimit="10" stroke-linecap="round" stroke-linejoin="round"/>
<path d="M137.54 45.6129C137.334 45.6129 137.132 45.6289 136.935 45.6589C136.768 44.382 136.109 43.26 135.155 42.4897" stroke="#263238" stroke-miterlimit="10" stroke-linecap="round" stroke-linejoin="round"/>
<path d="M131.446 53.5231H137.54C139.725 53.5231 141.495 51.7525 141.495 49.5681" stroke="#263238" stroke-miterlimit="10" stroke-linecap="round" stroke-linejoin="round"/>
<path d="M111.173 27.6552C110.696 27.6552 110.227 27.6919 109.77 27.7621C109.046 22.2077 104.299 17.9177 98.5467 17.9177C94.0664 17.9177 90.1949 20.5206 88.3592 24.2958C88.2979 24.2942 88.2383 24.2864 88.1766 24.2864C83.8379 24.2864 80.3209 27.8034 80.3209 32.1422C80.3209 33.0349 80.4769 33.8894 80.751 34.6893C80.6087 34.6784 80.466 34.6674 80.3209 34.6674C77.1989 34.6674 74.6682 37.1982 74.6682 40.3201C74.6682 43.4421 77.1989 45.9728 80.3209 45.9728H111.173C116.231 45.9728 120.332 41.8723 120.332 36.8136C120.332 31.7549 116.231 27.6552 111.173 27.6552Z" fill="white" stroke="#263238" stroke-miterlimit="10"/>
<path d="M98.1531 36.9353V30.3813" stroke="#263238" stroke-miterlimit="10" stroke-linecap="round" stroke-linejoin="round"/>
<path d="M101.79 32.611L98.153 28.9746L94.5166 32.611" stroke="#263238" stroke-miterlimit="10" stroke-linecap="round" stroke-linejoin="round"/>
<path d="M98.1531 38.4043V39.8804" stroke="#263238" stroke-miterlimit="10" stroke-linecap="round" stroke-linejoin="round"/>
<path d="M98.1531 41.6099V42.7389" stroke="#263238" stroke-miterlimit="10" stroke-linecap="round" stroke-linejoin="round"/>
<path d="M86.464 172.514H78.7377C76.8373 172.514 75.5413 170.977 75.8436 169.082L78.8341 150.33C79.1363 148.434 80.9221 146.898 82.823 146.898H106.521" stroke="#263238" stroke-miterlimit="10" stroke-linecap="round" stroke-linejoin="round"/>
<path d="M82.144 141.695H89.0857C89.5182 141.695 89.9058 141.96 90.0626 142.363L90.889 144.488H105.592C107.107 144.488 108.393 145.467 108.853 146.826L109.678 146.898C111.578 146.898 112.874 148.435 112.572 150.33L109.581 169.083C109.279 170.978 107.493 172.515 105.592 172.515H90.9385" stroke="#263238" stroke-miterlimit="10" stroke-linecap="round" stroke-linejoin="round"/>
<path d="M75.2964 156.124V150.893V147.93C75.2964 146.113 76.7082 144.641 78.492 144.513L79.3282 142.363C79.485 141.96 79.873 141.694 80.3052 141.694" stroke="#263238" stroke-miterlimit="10" stroke-linecap="round" stroke-linejoin="round"/>
<path d="M78.7377 172.514C76.8373 172.514 75.2964 170.973 75.2964 169.073V161.462" stroke="#263238" stroke-miterlimit="10" stroke-linecap="round" stroke-linejoin="round"/>
<path d="M152.296 172.514C151.337 172.514 150.56 171.737 150.56 170.778V160.11C150.56 159.194 151.272 158.451 152.172 158.386L152.594 157.301C152.673 157.098 152.869 156.964 153.087 156.964H157.517C157.735 156.964 157.931 157.098 158.01 157.301L158.427 158.374H165.846C166.61 158.374 167.259 158.868 167.491 159.553" fill="#92E3A9"/>
<mask id="mask0_136_3924" style="mask-type:luminance" maskUnits="userSpaceOnUse" x="150" y="156" width="18" height="17">
<path d="M152.296 172.514C151.337 172.514 150.56 171.737 150.56 170.778V160.11C150.56 159.194 151.272 158.451 152.172 158.386L152.594 157.301C152.673 157.098 152.869 156.964 153.087 156.964H157.517C157.735 156.964 157.931 157.098 158.01 157.301L158.427 158.374H165.846C166.61 158.374 167.259 158.868 167.491 159.553" fill="white"/>
</mask>
<g mask="url(#mask0_136_3924)">
<path opacity="0.3" d="M152.296 172.514C151.337 172.514 150.56 171.737 150.56 170.778V160.11C150.56 159.194 151.272 158.451 152.172 158.386L152.594 157.301C152.673 157.098 152.869 156.964 153.087 156.964H157.517C157.735 156.964 157.931 157.098 158.01 157.301L158.427 158.374H165.846C166.61 158.374 167.259 158.868 167.491 159.553" fill="black" fill-opacity="0.7"/>
</g>
<path d="M152.296 172.514C151.337 172.514 150.56 171.737 150.56 170.778V160.11C150.56 159.194 151.272 158.451 152.172 158.386L152.594 157.301C152.673 157.098 152.869 156.964 153.087 156.964H157.517C157.735 156.964 157.931 157.098 158.01 157.301L158.427 158.374H165.846C166.61 158.374 167.259 158.868 167.491 159.553" stroke="#263238" stroke-miterlimit="10" stroke-linecap="round" stroke-linejoin="round"/>
<path d="M152.296 172.514H165.845C166.804 172.514 167.705 171.739 167.858 170.783L169.367 161.321C169.519 160.365 168.865 159.59 167.906 159.59H154.357C153.398 159.59 152.497 160.365 152.345 161.321L150.836 170.783C150.683 171.739 151.337 172.514 152.296 172.514Z" fill="#92E3A9" stroke="#263238" stroke-miterlimit="10" stroke-linecap="round" stroke-linejoin="round"/>
<path d="M73.3547 172.514C72.3957 172.514 71.6184 171.737 71.6184 170.778V160.11C71.6184 159.194 72.3305 158.451 73.2307 158.386L73.6526 157.301C73.7318 157.098 73.9276 156.964 74.1456 156.964H78.576C78.794 156.964 78.9898 157.098 79.069 157.301L79.4859 158.374H86.9041C87.6685 158.374 88.317 158.868 88.5491 159.553" fill="#92E3A9"/>
<mask id="mask1_136_3924" style="mask-type:luminance" maskUnits="userSpaceOnUse" x="71" y="156" width="18" height="17">
<path d="M73.3547 172.514C72.3957 172.514 71.6184 171.737 71.6184 170.778V160.11C71.6184 159.194 72.3305 158.451 73.2307 158.386L73.6526 157.301C73.7318 157.098 73.9276 156.964 74.1456 156.964H78.576C78.794 156.964 78.9898 157.098 79.069 157.301L79.4859 158.374H86.9041C87.6685 158.374 88.317 158.868 88.5491 159.553" fill="white"/>
</mask>
<g mask="url(#mask1_136_3924)">
<path opacity="0.3" d="M73.3547 172.514C72.3957 172.514 71.6184 171.737 71.6184 170.778V160.11C71.6184 159.194 72.3305 158.451 73.2307 158.386L73.6526 157.301C73.7318 157.098 73.9276 156.964 74.1456 156.964H78.576C78.794 156.964 78.9898 157.098 79.069 157.301L79.4859 158.374H86.9041C87.6685 158.374 88.317 158.868 88.5491 159.553" fill="black" fill-opacity="0.7"/>
</g>
<path d="M73.3547 172.514C72.3957 172.514 71.6184 171.737 71.6184 170.778V160.11C71.6184 159.194 72.3305 158.451 73.2307 158.386L73.6526 157.301C73.7318 157.098 73.9276 156.964 74.1456 156.964H78.576C78.794 156.964 78.9898 157.098 79.069 157.301L79.4859 158.374H86.9041C87.6685 158.374 88.317 158.868 88.5491 159.553" stroke="#263238" stroke-miterlimit="10" stroke-linecap="round" stroke-linejoin="round"/>
<path d="M73.3548 172.514H86.9042C87.8632 172.514 88.7641 171.739 88.9166 170.783L90.4255 161.321C90.578 160.365 89.9243 159.59 88.9653 159.59H75.4159C74.4569 159.59 73.556 160.365 73.4035 161.321L71.8946 170.783C71.7421 171.739 72.3958 172.514 73.3548 172.514Z" fill="#92E3A9" stroke="#263238" stroke-miterlimit="10" stroke-linecap="round" stroke-linejoin="round"/>
<path d="M121.038 167.002C121.038 167.002 121.651 170.76 121.038 172.514H108.607C108.607 172.514 108.081 171.199 108.607 170.37C109.132 169.542 113.072 169.067 114.297 167.947C115.523 166.828 116.836 164.901 116.836 164.901L121.038 167.002Z" fill="#92E3A9" stroke="#263238" stroke-miterlimit="10" stroke-linecap="round" stroke-linejoin="round"/>
<path d="M108.373 171.852H121.201L121.311 172.514H108.373V171.852Z" fill="white" stroke="#263238" stroke-miterlimit="10" stroke-linecap="round" stroke-linejoin="round"/>
<path d="M118.05 166.544C118.05 166.544 116.88 166.827 116.749 166.871C116.617 166.915 115.479 168.666 114.341 168.972C113.203 169.279 112.065 169.22 112.24 169.774" stroke="#263238" stroke-miterlimit="10" stroke-linecap="round" stroke-linejoin="round"/>
<path d="M115.46 166.544L116.792 167.528" stroke="#263238" stroke-miterlimit="10" stroke-linecap="round" stroke-linejoin="round"/>
<path d="M114.842 167.406L116.126 168.349" stroke="#263238" stroke-miterlimit="10" stroke-linecap="round" stroke-linejoin="round"/>
<path d="M114.021 168.159L115.136 169.235" stroke="#263238" stroke-miterlimit="10" stroke-linecap="round" stroke-linejoin="round"/>
<path d="M112.896 168.708L113.378 169.774" stroke="#263238" stroke-miterlimit="10" stroke-linecap="round" stroke-linejoin="round"/>
<path d="M121.239 168.708C121.239 168.708 119.2 168.459 116.967 169.241C114.735 170.023 113.965 170.707 114.022 170.912C114.079 171.117 114.341 171.727 114.341 171.727H115.46C115.46 171.727 115.056 171.013 115.136 170.912C115.216 170.811 119.032 169.322 121.239 169.585V168.708Z" fill="#263238"/>
<path d="M142.106 172.514C142.106 172.514 142.585 170.685 142.025 170.007C141.019 168.79 142.148 167.77 141.138 167.347L140.715 167.838C140.633 167.339 140.868 165.825 138.996 165.627C136.733 165.389 136.69 167.036 136.568 167.579L136.605 166.82C135.64 166.82 136.14 167.784 134.676 169.36C133.56 170.563 133.558 172.105 133.619 172.514H142.106Z" fill="#92E3A9" stroke="#263238" stroke-miterlimit="10" stroke-linecap="round" stroke-linejoin="round"/>
<path d="M150.308 102.938C151.352 103.547 154.047 109.286 152.475 120.679C150.902 132.072 146.19 154.351 145.401 157.758C144.611 161.166 141.843 169.36 141.843 169.36C141.843 169.36 140.784 165.805 135.703 167.705C135.514 167.776 135.321 167.61 135.359 167.412L136.475 161.605C136.475 161.605 136.553 157.358 136.919 156.293C138.295 152.282 138.984 136.79 139.439 134.628C139.893 132.465 139 126.246 139 126.246C139 126.246 132.638 141.47 132.432 142.963C132.226 144.457 128.346 150.675 128.346 150.675L127.678 156.39C127.678 156.39 122.516 165.237 121.607 167.877L115.459 166.545L115.63 162.172L117.286 161.606L120.179 151.664C120.179 151.664 121.27 147.263 123.546 141.517C124.916 138.06 128.796 124.672 128.796 124.672C130.003 123.361 131.136 116.116 131.136 116.116L133 106.977L150.308 102.938Z" fill="#263238"/>
<path d="M124.497 78.7784L111.859 88.2944L103.729 75.4666L100.688 75.8605C100.688 75.8605 106.742 92.4066 110.091 94.054C113.44 95.7013 126.068 86.5554 126.068 86.5554" fill="white"/>
<path d="M124.497 78.7784L111.859 88.2944L103.729 75.4666L100.688 75.8605C100.688 75.8605 106.742 92.4066 110.091 94.054C113.44 95.7013 126.068 86.5554 126.068 86.5554" stroke="#263238" stroke-miterlimit="10" stroke-linecap="round" stroke-linejoin="round"/>
<path d="M127.273 76.8779C127.273 76.8779 123.616 78.1532 121.162 80.2791C118.707 82.405 114.797 85.5788 114.797 85.5788C114.797 85.5788 117.011 90.8516 119.559 93.0278L125.007 90.8423L127.273 76.8779Z" fill="#92E3A9"/>
<mask id="mask2_136_3924" style="mask-type:luminance" maskUnits="userSpaceOnUse" x="114" y="76" width="14" height="18">
<path d="M127.273 76.8779C127.273 76.8779 123.616 78.1532 121.162 80.2791C118.707 82.405 114.797 85.5788 114.797 85.5788C114.797 85.5788 117.011 90.8516 119.559 93.0278L125.007 90.8423L127.273 76.8779Z" fill="white"/>
</mask>
<g mask="url(#mask2_136_3924)">
<path opacity="0.4" d="M119.525 92.9978L121.521 91.2233C120.139 90.7604 119.978 87.9446 120.75 88.7546C121.521 89.5646 122.833 89.8345 122.833 89.8345C121.83 87.0573 122.235 84.4088 122.235 84.4088C122.235 84.4088 122.901 86.2699 123.283 88.1411C123.538 89.3899 124.468 90.2265 124.849 90.6703L127.273 76.8779C127.273 76.8779 123.616 78.1532 121.161 80.2791C118.707 82.405 114.797 85.5788 114.797 85.5788C114.797 85.5788 116.991 90.804 119.525 92.9978Z" fill="white"/>
</g>
<path d="M127.273 76.8779C127.273 76.8779 123.616 78.1532 121.162 80.2791C118.707 82.405 114.797 85.5788 114.797 85.5788C114.797 85.5788 117.011 90.8516 119.559 93.0278L125.007 90.8423L127.273 76.8779Z" stroke="#263238" stroke-miterlimit="10" stroke-linecap="round" stroke-linejoin="round"/>
<path d="M125.007 90.8423C127.131 96.046 130.456 102.548 130.456 102.548L131.925 109.799C131.925 109.799 137.448 114.007 143.78 112.243C151.207 110.174 152.406 105.481 152.406 105.481L149.58 99.8048C148.614 94.353 147.351 81.4565 143.001 78.5128C138.651 75.5691 131.188 75.3175 128.176 76.5101C125.497 77.5713 124.014 78.3775 123.283 79.3579" fill="#92E3A9"/>
<mask id="mask3_136_3924" style="mask-type:luminance" maskUnits="userSpaceOnUse" x="123" y="75" width="30" height="38">
<path d="M125.007 90.8423C127.131 96.046 130.456 102.548 130.456 102.548L131.925 109.799C131.925 109.799 137.448 114.007 143.78 112.243C151.207 110.174 152.406 105.481 152.406 105.481L149.58 99.8048C148.614 94.353 147.351 81.4565 143.001 78.5128C138.651 75.5691 131.188 75.3175 128.176 76.5101C125.497 77.5713 124.014 78.3775 123.283 79.3579" fill="white"/>
</mask>
<g mask="url(#mask3_136_3924)">
<path opacity="0.4" d="M148.151 107.232C141.455 109.393 142.196 107.848 143.726 105.148C145.11 102.705 144.13 99.8551 144.153 99.0864C143.85 99.6784 142.712 101.41 141.302 102.088C139.483 102.962 140.124 103.245 141.72 100.21C143.316 97.1758 143.726 93.7305 143.726 93.7305C141.939 91.9564 140.531 87.6259 140.531 87.6259L146.392 84.0414C145.529 81.5348 144.433 79.4831 143.001 78.5135C138.651 75.5698 131.187 75.3183 128.176 76.5109C125.496 77.5721 124.013 78.3782 123.283 79.3586L125.006 90.8426C127.131 96.0464 130.455 102.549 130.455 102.549L131.925 109.799C131.925 109.799 137.447 114.008 143.779 112.243C151.206 110.174 152.405 105.481 152.405 105.481L152.298 105.265C151.069 106.044 149.683 106.737 148.151 107.232Z" fill="white"/>
</g>
<path d="M125.007 90.8423C127.131 96.046 130.456 102.548 130.456 102.548L131.925 109.799C131.925 109.799 137.448 114.007 143.78 112.243C151.207 110.174 152.406 105.481 152.406 105.481L149.58 99.8048C148.614 94.353 147.351 81.4565 143.001 78.5128C138.651 75.5691 131.188 75.3175 128.176 76.5101C125.497 77.5713 124.014 78.3775 123.283 79.3579" stroke="#263238" stroke-miterlimit="10" stroke-linecap="round" stroke-linejoin="round"/>
<path d="M135.217 77.5163C135.217 77.5163 133.587 80.5427 130.689 80.2619C128.279 80.024 128.349 78.0818 128.349 78.0818C128.349 78.0818 128.872 77.684 129.075 76.9781C129.137 76.7675 129.168 76.5257 129.149 76.2644C129.11 75.6638 128.805 74.9306 127.971 74.0921C127.959 74.0804 127.944 74.0648 127.932 74.0531C127.752 73.8737 127.608 73.6904 127.507 73.5071C126.177 71.1554 130.818 68.519 134.32 70.4651C134.32 70.4651 131.606 72.5594 135.217 77.5163Z" fill="white" stroke="#263238" stroke-miterlimit="10" stroke-linecap="round" stroke-linejoin="round"/>
<path d="M130.1 73.4097C130.1 73.4097 130.034 75.231 129.149 76.2645C129.11 75.6639 128.806 74.9307 127.971 74.0922C128.439 73.5774 129.145 73.2498 130.1 73.4097Z" fill="#263238"/>
<path d="M134.869 68.2154C136.182 62.5869 133.462 60.1482 131.68 59.4107C128.824 58.2294 125.113 60.0862 124.269 63.2128C123.425 66.3395 124.186 67.0512 124.146 68.3304C124.119 69.2274 123.566 69.6693 124.175 71.9208C124.577 73.4059 125.246 75.7896 127.787 75.3625C128.293 75.2775 129.115 75.0766 130.031 74.632" fill="white"/>
<path d="M134.869 68.2154C136.182 62.5869 133.462 60.1482 131.68 59.4107C128.824 58.2294 125.113 60.0862 124.269 63.2128C123.425 66.3395 124.186 67.0512 124.146 68.3304C124.119 69.2274 123.566 69.6693 124.175 71.9208C124.577 73.4059 125.246 75.7896 127.787 75.3625C128.293 75.2775 129.115 75.0766 130.031 74.632" stroke="#263238" stroke-miterlimit="10" stroke-linecap="round" stroke-linejoin="round"/>
<path d="M127.458 66.3862C127.458 66.3862 128.514 65.9938 129.078 67.2321" stroke="#263238" stroke-miterlimit="10" stroke-linecap="round" stroke-linejoin="round"/>
<path d="M123.869 65.7294C123.869 65.7294 124.972 65.4923 125.441 66.291" stroke="#263238" stroke-miterlimit="10" stroke-linecap="round" stroke-linejoin="round"/>
<path d="M125.723 67.887C125.723 67.887 124.638 69.7672 124.655 70.0249C124.709 70.8276 125.733 70.4664 125.733 70.4664" stroke="#263238" stroke-miterlimit="10" stroke-linecap="round" stroke-linejoin="round"/>
<path d="M127.668 68.1463C127.668 68.408 127.785 68.6198 127.93 68.6198C128.074 68.6198 128.191 68.4076 128.191 68.1463C128.191 67.8846 128.074 67.6729 127.93 67.6729C127.785 67.6725 127.668 67.8846 127.668 68.1463Z" fill="#263238" stroke="#263238" stroke-miterlimit="10" stroke-linecap="round" stroke-linejoin="round"/>
<path d="M124.655 67.8869C124.655 68.1486 124.772 68.3604 124.916 68.3604C125.061 68.3604 125.178 68.1482 125.178 67.8869C125.178 67.6252 125.061 67.4131 124.916 67.4131C124.772 67.4135 124.655 67.6252 124.655 67.8869Z" fill="#263238" stroke="#263238" stroke-miterlimit="10" stroke-linecap="round" stroke-linejoin="round"/>
<path d="M127.668 71.2378C127.668 71.2378 126.517 71.8762 125.441 71.5974" stroke="#263238" stroke-miterlimit="10" stroke-linecap="round" stroke-linejoin="round"/>
<path d="M127.458 71.4531C127.458 71.4531 127.334 72.2854 126.555 72.3661C125.775 72.4468 125.733 71.6684 125.733 71.6684" stroke="#263238" stroke-miterlimit="10" stroke-linecap="round" stroke-linejoin="round"/>
<path d="M134.876 61.0319C134.876 61.0319 134.706 58.0144 129.078 58.1225C123.45 58.2305 121.806 62.5802 124.655 63.7595C127.504 64.9389 129.274 64.4229 129.274 64.4229C129.274 64.4229 128.222 64.1117 127.273 63.0509C127.273 63.0509 129.242 64.2053 130.917 64.5352C130.917 64.5352 130.274 65.3761 130.917 66.7793C131.559 68.1825 131.245 68.7827 131.245 68.7827C131.245 68.7827 133.821 69.5151 133.39 72.2767C133.39 72.2767 135.761 72.2319 136.719 66.7793C137.678 61.3267 134.876 61.0319 134.876 61.0319Z" fill="#263238"/>
<path d="M131.679 69.2C131.679 69.2 132.711 67.2769 133.79 67.7461C134.869 68.2153 134.119 70.5132 133.181 71.2639C132.243 72.0143 131.68 71.2639 131.68 71.2639" fill="white"/>
<path d="M131.679 69.2C131.679 69.2 132.711 67.2769 133.79 67.7461C134.869 68.2153 134.119 70.5132 133.181 71.2639C132.243 72.0143 131.68 71.2639 131.68 71.2639" stroke="#263238" stroke-miterlimit="10" stroke-linecap="round" stroke-linejoin="round"/>
<path d="M122.235 84.4092C122.863 86.9383 123.188 88.9312 125.007 90.8426" stroke="#263238" stroke-miterlimit="10" stroke-linecap="round" stroke-linejoin="round"/>
<path d="M121.84 82.3953C121.892 82.7888 121.963 83.1796 122.043 83.5684" stroke="#263238" stroke-miterlimit="10" stroke-linecap="round" stroke-linejoin="round"/>
<path d="M143.726 89.2598C143.726 89.2598 151.252 97.3964 153.102 97.0906C154.953 96.7848 155.913 93.7818 155.507 92.9535C155.102 92.1251 148.319 84.2424 148.319 84.2424L143.726 89.2598Z" fill="white" stroke="#263238" stroke-miterlimit="10" stroke-linecap="round" stroke-linejoin="round"/>
<path d="M140.925 81.6126C140.191 84.1679 139.886 86.9166 141.108 89.0549C141.719 90.8876 145.279 92.6371 146.5 94.1643C150.335 93.2291 151.958 88.3604 151.958 88.3604C151.958 88.3604 149.741 85.2146 147.523 81.9117C145.304 78.6088 140.859 77.3674 140.859 77.3674" fill="#92E3A9"/>
<mask id="mask4_136_3924" style="mask-type:luminance" maskUnits="userSpaceOnUse" x="140" y="77" width="12" height="18">
<path d="M140.925 81.6126C140.191 84.1679 139.886 86.9166 141.108 89.0549C141.719 90.8876 145.279 92.6371 146.5 94.1643C150.335 93.2291 151.958 88.3604 151.958 88.3604C151.958 88.3604 149.741 85.2146 147.523 81.9117C145.304 78.6088 140.859 77.3674 140.859 77.3674" fill="white"/>
</mask>
<g mask="url(#mask4_136_3924)">
<path opacity="0.4" d="M140.925 81.6126C140.191 84.1679 139.886 86.9166 141.108 89.0549C141.719 90.8876 145.279 92.6371 146.5 94.1643C150.335 93.2291 151.958 88.3604 151.958 88.3604C151.958 88.3604 149.741 85.2146 147.523 81.9117C145.304 78.6088 140.859 77.3674 140.859 77.3674" fill="white"/>
</g>
<path d="M140.925 81.6126C140.191 84.1679 139.886 86.9166 141.108 89.0549C141.719 90.8876 145.279 92.6371 146.5 94.1643C150.335 93.2291 151.958 88.3604 151.958 88.3604C151.958 88.3604 149.741 85.2146 147.523 81.9117C145.304 78.6088 140.859 77.3674 140.859 77.3674" stroke="#263238" stroke-miterlimit="10" stroke-linecap="round" stroke-linejoin="round"/>
<path d="M103.821 75.6117C103.821 75.6117 102.574 72.6778 101.789 71.7656C101.039 70.8935 100.223 70.2001 100.011 70.1747C99.4696 70.1096 97.7049 71.0905 97.7049 71.0905C97.7049 71.0905 97.7022 71.6419 98.6588 71.562C98.6588 71.562 97.2786 72.4215 97.2119 73.0974C97.1453 73.7733 98.0029 74.7264 98.1717 75.1004C98.3406 75.4741 98.6659 75.2584 98.6659 75.2584C98.6659 75.2584 100.156 77.2864 101.595 77.4272" fill="white"/>
<path d="M103.821 75.6117C103.821 75.6117 102.574 72.6778 101.789 71.7656C101.039 70.8935 100.223 70.2001 100.011 70.1747C99.4696 70.1096 97.7049 71.0905 97.7049 71.0905C97.7049 71.0905 97.7022 71.6419 98.6588 71.562C98.6588 71.562 97.2786 72.4215 97.2119 73.0974C97.1453 73.7733 98.0029 74.7264 98.1717 75.1004C98.3406 75.4741 98.6659 75.2584 98.6659 75.2584C98.6659 75.2584 100.156 77.2864 101.595 77.4272" stroke="#263238" stroke-miterlimit="10" stroke-linecap="round" stroke-linejoin="round"/>
<path d="M98.6658 75.2579C98.6658 75.2579 98.8323 75.098 98.8596 74.7061C98.8596 74.7061 99.4579 74.708 99.4883 74.1831C99.4883 74.1831 100.367 74.2365 99.9996 73.1211" stroke="#263238" stroke-miterlimit="10" stroke-linecap="round" stroke-linejoin="round"/>
<path d="M99.4888 74.1835C99.4888 74.1835 98.4939 73.1137 98.4351 72.7" stroke="#263238" stroke-miterlimit="10" stroke-linecap="round" stroke-linejoin="round"/>
<path d="M98.8596 74.7063C98.8596 74.7063 97.7684 73.7305 97.828 73.2871" stroke="#263238" stroke-miterlimit="10" stroke-linecap="round" stroke-linejoin="round"/>
<path d="M99.8534 70.9036C99.8534 70.9036 99.4412 71.4468 98.7668 71.4741" stroke="#263238" stroke-miterlimit="10" stroke-linecap="round" stroke-linejoin="round"/>
<path d="M99.6084 71.1433C99.6084 71.1433 99.8915 71.3586 100.116 71.6331" stroke="#263238" stroke-miterlimit="10" stroke-linecap="round" stroke-linejoin="round"/>
<path d="M141.302 80.8042C141.54 80.4029 141.857 80.0476 142.249 79.7917" stroke="#263238" stroke-miterlimit="10" stroke-linecap="round" stroke-linejoin="round"/>
<path d="M133.612 171.852H142.297L142.106 172.514H133.619L133.612 171.852Z" fill="white" stroke="#263238" stroke-miterlimit="10" stroke-linecap="round" stroke-linejoin="round"/>
<path d="M136.399 169.285C136.399 169.285 139.25 168.342 140.626 169.521" stroke="#263238" stroke-miterlimit="10" stroke-linecap="round" stroke-linejoin="round"/>
<path d="M136.399 168.661C136.399 168.661 138.906 167.868 140.626 168.928" stroke="#263238" stroke-miterlimit="10" stroke-linecap="round" stroke-linejoin="round"/>
<path d="M136.547 168.047C136.547 168.047 138.906 167.157 140.626 168.376" stroke="#263238" stroke-miterlimit="10" stroke-linecap="round" stroke-linejoin="round"/>
<path d="M134.677 169.36L134.958 169.637C135.038 169.715 135.051 169.837 134.991 169.931C134.788 170.249 134.372 171.01 134.409 171.852H133.992C133.992 171.852 134.137 170.731 134.594 169.939L134.38 169.723L134.677 169.36Z" fill="#263238"/>
<path d="M144.607 98.3579C144.116 99.0459 137.44 107.106 134.321 106.668" stroke="#263238" stroke-miterlimit="10" stroke-linecap="round" stroke-linejoin="round"/>
<path d="M127.273 91.4678C127.273 91.4678 131 97.2156 136.919 97.0986" stroke="#263238" stroke-miterlimit="10" stroke-linecap="round" stroke-linejoin="round"/>
<g opacity="0.2">
<path d="M136.919 119.882C137.259 119.959 143.816 122.35 145.127 124.742" stroke="white" stroke-miterlimit="10" stroke-linecap="round" stroke-linejoin="round"/>
<path d="M138.513 123.353C138.185 123.816 135.4 132.533 134.208 134.924C133.016 137.316 129.004 148.038 128.079 148.656C128.079 148.656 126.845 154.904 126.073 155.907C125.302 156.91 121.311 164.901 121.311 164.901" stroke="white" stroke-miterlimit="10" stroke-linecap="round" stroke-linejoin="round"/>
<path d="M116.836 164.901L121.676 165.936" stroke="white" stroke-miterlimit="10" stroke-linecap="round" stroke-linejoin="round"/>
<path d="M136.547 165.419C136.547 165.419 140.421 165.07 141.733 166.545" stroke="white" stroke-miterlimit="10" stroke-linecap="round" stroke-linejoin="round"/>
<path d="M141.023 124.356C141.347 126.207 146.207 136.467 147.364 135.31" stroke="white" stroke-miterlimit="10" stroke-linecap="round" stroke-linejoin="round"/>
<path d="M139.14 125.282C139.14 125.282 138.57 122.736 139.11 121.579C139.316 121.137 134.945 122.659 133.479 122.312" stroke="white" stroke-miterlimit="10" stroke-linecap="round" stroke-linejoin="round"/>
<path d="M138.513 112.676C138.513 112.676 139.278 114.867 139.464 115.562C139.65 116.256 138.07 118.956 138.513 119.496" stroke="white" stroke-miterlimit="10" stroke-linecap="round" stroke-linejoin="round"/>
<path d="M149.139 110.625C149.139 110.625 150.219 112.278 150.219 113.496C150.219 114.713 151.684 115.253 151.684 115.253" stroke="white" stroke-miterlimit="10" stroke-linecap="round" stroke-linejoin="round"/>
<path d="M151.441 108.817C151.441 108.817 152.764 113.787 151.684 119.882C150.604 125.976 148.83 138.396 148.136 141.559C147.442 144.721 145.821 151.819 145.821 152.821C145.821 153.824 144.194 159.533 144.194 159.533" stroke="white" stroke-miterlimit="10" stroke-linecap="round" stroke-linejoin="round"/>
<path d="M144.587 150.893C144.356 150.893 140.037 155.059 138.957 155.136" stroke="white" stroke-miterlimit="10" stroke-linecap="round" stroke-linejoin="round"/>
<path d="M125.687 148.347C125.456 148.424 121.83 150.199 121.676 149.659" stroke="white" stroke-miterlimit="10" stroke-linecap="round" stroke-linejoin="round"/>
</g>
<path d="M143.852 116.153C142.897 116.23 142.059 115.517 141.982 114.561L141.125 103.928C141.051 103.015 141.702 102.217 142.594 102.081L142.927 100.966C142.989 100.756 143.174 100.607 143.391 100.59L147.807 100.234C148.024 100.216 148.23 100.334 148.325 100.53L148.827 101.566L156.222 100.97C156.983 100.908 157.67 101.348 157.956 102.013" fill="#92E3A9"/>
<mask id="mask5_136_3924" style="mask-type:luminance" maskUnits="userSpaceOnUse" x="141" y="100" width="17" height="17">
<path d="M143.852 116.153C142.897 116.23 142.059 115.517 141.982 114.561L141.125 103.928C141.051 103.015 141.702 102.217 142.594 102.081L142.927 100.966C142.989 100.756 143.174 100.607 143.391 100.59L147.807 100.234C148.024 100.216 148.23 100.334 148.325 100.53L148.827 101.566L156.222 100.97C156.983 100.908 157.67 101.348 157.956 102.013" fill="white"/>
</mask>
<g mask="url(#mask5_136_3924)">
<path opacity="0.3" d="M143.852 116.153C142.897 116.23 142.059 115.517 141.982 114.561L141.125 103.928C141.051 103.015 141.702 102.217 142.594 102.081L142.927 100.966C142.989 100.756 143.174 100.607 143.391 100.59L147.807 100.234C148.024 100.216 148.23 100.334 148.325 100.53L148.827 101.566L156.222 100.97C156.983 100.908 157.67 101.348 157.956 102.013" fill="black" fill-opacity="0.7"/>
</g>
<path d="M143.852 116.153C142.897 116.23 142.059 115.517 141.982 114.561L141.125 103.928C141.051 103.015 141.702 102.217 142.594 102.081L142.927 100.966C142.989 100.756 143.174 100.607 143.391 100.59L147.807 100.234C148.024 100.216 148.23 100.334 148.325 100.53L148.827 101.566L156.222 100.97C156.983 100.908 157.67 101.348 157.956 102.013" stroke="#263238" stroke-miterlimit="10" stroke-linecap="round" stroke-linejoin="round"/>
<path d="M143.853 116.152L157.358 115.064C158.314 114.987 159.15 114.142 159.225 113.176L159.969 103.624C160.044 102.659 159.33 101.939 158.374 102.015L144.869 103.104C143.913 103.181 143.077 104.026 143.002 104.991L142.258 114.544C142.183 115.509 142.897 116.23 143.853 116.152Z" fill="#92E3A9" stroke="#263238" stroke-miterlimit="10" stroke-linecap="round" stroke-linejoin="round"/>
<path d="M154.301 91.3965C155.698 92.7393 156.417 93.7872 156.315 98.1489C156.212 102.511 155.424 108.817 154.909 113.08L151.199 113.647C151.199 113.647 151.78 106.94 151.199 102.522C150.566 97.7036 151.067 95.0036 151.646 94.6565" fill="white"/>
<path d="M154.301 91.3965C155.698 92.7393 156.417 93.7872 156.315 98.1489C156.212 102.511 155.424 108.817 154.909 113.08L151.199 113.647C151.199 113.647 151.78 106.94 151.199 102.522C150.566 97.7036 151.067 95.0036 151.646 94.6565" stroke="#263238" stroke-miterlimit="10" stroke-linecap="round" stroke-linejoin="round"/>
<path d="M151.41 109.93C151.333 111.18 149.051 111.562 148.881 112.348C148.826 112.604 148.041 114.328 148.041 114.328C148.041 114.328 147.986 115.253 148.146 115.807C148.339 116.477 148.945 116.086 148.945 116.086L149.138 116.565C149.447 117.337 150.026 116.622 151.008 117.105C151.99 117.588 152.466 116.951 152.847 117.105C153.227 117.26 154.462 116.874 154.693 116.411C154.924 115.948 154.558 113.897 154.908 113.08C155.259 112.263 155.268 110.617 155.268 109.931" fill="white"/>
<path d="M151.41 109.93C151.333 111.18 149.051 111.562 148.881 112.348C148.826 112.604 148.041 114.328 148.041 114.328C148.041 114.328 147.986 115.253 148.146 115.807C148.339 116.477 148.945 116.086 148.945 116.086L149.138 116.565C149.447 117.337 150.026 116.622 151.008 117.105C151.99 117.588 152.466 116.951 152.847 117.105C153.227 117.26 154.462 116.874 154.693 116.411C154.924 115.948 154.558 113.897 154.908 113.08C155.259 112.263 155.268 110.617 155.268 109.931" stroke="#263238" stroke-miterlimit="10" stroke-linecap="round" stroke-linejoin="round"/>
<path d="M148.946 116.086C148.946 116.086 148.963 114.829 149.756 114.327L148.946 116.086Z" fill="white"/>
<path d="M148.946 116.086C148.946 116.086 148.963 114.829 149.756 114.327" stroke="#263238" stroke-miterlimit="10" stroke-linecap="round" stroke-linejoin="round"/>
<path d="M98.3788 70.7642H63.6875V77.9308H98.3788V70.7642Z" fill="#999999" stroke="#263238" stroke-miterlimit="10" stroke-linecap="round" stroke-linejoin="round"/>
<path d="M98.3788 80.082H63.6875V87.2487H98.3788V80.082Z" fill="#999999" stroke="#263238" stroke-miterlimit="10" stroke-linecap="round" stroke-linejoin="round"/>
<path d="M98.3788 89.3997H63.6875V96.5663H98.3788V89.3997Z" fill="#999999" stroke="#263238" stroke-miterlimit="10" stroke-linecap="round" stroke-linejoin="round"/>
<path d="M98.3788 98.7175H63.6875V105.884H98.3788V98.7175Z" fill="#999999" stroke="#263238" stroke-miterlimit="10" stroke-linecap="round" stroke-linejoin="round"/>
<path d="M98.3788 108.035H63.6875V115.202H98.3788V108.035Z" fill="#999999" stroke="#263238" stroke-miterlimit="10" stroke-linecap="round" stroke-linejoin="round"/>
<path d="M98.6735 78.7358H70.8766C70.4496 78.7358 70.1033 78.3895 70.1033 77.9624V70.7326C70.1033 70.3055 70.4496 69.9592 70.8766 69.9592H98.6735C99.1006 69.9592 99.4469 70.3055 99.4469 70.7326V77.9624C99.4469 78.3899 99.1006 78.7358 98.6735 78.7358Z" fill="#BFBFBF" stroke="#263238" stroke-miterlimit="10" stroke-linecap="round" stroke-linejoin="round"/>
<path d="M98.6735 88.0537H70.8766C70.4496 88.0537 70.1033 87.7073 70.1033 87.2803V80.0505C70.1033 79.6234 70.4496 79.2771 70.8766 79.2771H98.6735C99.1006 79.2771 99.4469 79.6234 99.4469 80.0505V87.2803C99.4469 87.7073 99.1006 88.0537 98.6735 88.0537Z" fill="#BFBFBF" stroke="#263238" stroke-miterlimit="10" stroke-linecap="round" stroke-linejoin="round"/>
<path d="M98.6735 97.3715H70.8766C70.4496 97.3715 70.1033 97.0252 70.1033 96.5982V89.3683C70.1033 88.9413 70.4496 88.595 70.8766 88.595H98.6735C99.1006 88.595 99.4469 88.9413 99.4469 89.3683V96.5982C99.4469 97.0252 99.1006 97.3715 98.6735 97.3715Z" fill="#BFBFBF" stroke="#263238" stroke-miterlimit="10" stroke-linecap="round" stroke-linejoin="round"/>
<path d="M98.6735 106.689H70.8766C70.4496 106.689 70.1033 106.343 70.1033 105.916V98.686C70.1033 98.2589 70.4496 97.9126 70.8766 97.9126H98.6735C99.1006 97.9126 99.4469 98.2589 99.4469 98.686V105.916C99.4469 106.343 99.1006 106.689 98.6735 106.689Z" fill="#BFBFBF" stroke="#263238" stroke-miterlimit="10" stroke-linecap="round" stroke-linejoin="round"/>
<path d="M98.6735 116.007H70.8766C70.4496 116.007 70.1033 115.661 70.1033 115.234V108.004C70.1033 107.577 70.4496 107.23 70.8766 107.23H98.6735C99.1006 107.23 99.4469 107.577 99.4469 108.004V115.234C99.4469 115.661 99.1006 116.007 98.6735 116.007Z" fill="#BFBFBF" stroke="#263238" stroke-miterlimit="10" stroke-linecap="round" stroke-linejoin="round"/>
<path d="M102.212 75.7223C102.212 75.7223 100.198 74.8218 100.273 73.3959C100.297 72.9326 99.9999 72.3394 99.9999 72.3394C99.9999 72.3394 98.0488 71.878 98.3222 71.0996L100.99 71.3531C100.99 71.3531 102.343 72.0898 102.923 73.6997" fill="white"/>
<path d="M102.212 75.7223C102.212 75.7223 100.198 74.8218 100.273 73.3959C100.297 72.9326 99.9999 72.3394 99.9999 72.3394C99.9999 72.3394 98.0488 71.878 98.3222 71.0996L100.99 71.3531C100.99 71.3531 102.343 72.0898 102.923 73.6997" stroke="#263238" stroke-miterlimit="10" stroke-linecap="round" stroke-linejoin="round"/>
<path d="M67.6153 69.7886H26.7136V172.514H67.6153V69.7886Z" fill="#757575" stroke="#263238" stroke-miterlimit="10" stroke-linecap="round" stroke-linejoin="round"/>
<path d="M53.4823 78.738H25.6855C25.2584 78.738 24.9121 78.3917 24.9121 77.9646V70.7348C24.9121 70.3077 25.2584 69.9614 25.6855 69.9614H53.4823C53.9094 69.9614 54.2557 70.3077 54.2557 70.7348V77.9646C54.2557 78.3917 53.9094 78.738 53.4823 78.738Z" fill="#999999" stroke="#263238" stroke-miterlimit="10" stroke-linecap="round" stroke-linejoin="round"/>
<path d="M68.6435 78.738H40.8466C40.4196 78.738 40.0732 78.3917 40.0732 77.9646V70.7348C40.0732 70.3077 40.4196 69.9614 40.8466 69.9614H68.6435C69.0705 69.9614 69.4168 70.3077 69.4168 70.7348V77.9646C69.4168 78.3917 69.0705 78.738 68.6435 78.738Z" fill="#BFBFBF" stroke="#263238" stroke-miterlimit="10" stroke-linecap="round" stroke-linejoin="round"/>
<path d="M40.8472 77.4256L40.8526 71.2667C40.853 70.973 41.0913 70.7351 41.385 70.7351L68.1113 70.7413C68.4053 70.7413 68.6436 70.98 68.6432 71.2741L68.6378 77.4267C68.6374 77.7204 68.3995 77.9583 68.1054 77.9583H41.3791C41.0851 77.9583 40.8468 77.7196 40.8472 77.4256Z" fill="#263238"/>
<path d="M57.75 77.6335H43.093C42.8091 77.6335 42.5786 77.4034 42.5786 77.119V75.6277C42.5786 75.3438 42.8087 75.1133 43.093 75.1133H57.75C58.0339 75.1133 58.2644 75.3434 58.2644 75.6277V77.119C58.2644 77.403 58.0339 77.6335 57.75 77.6335Z" fill="#92E3A9" stroke="#263238" stroke-miterlimit="10" stroke-linecap="round" stroke-linejoin="round"/>
<path d="M60.8225 74.8564H46.1655C45.8816 74.8564 45.6511 74.6263 45.6511 74.3419V72.8506C45.6511 72.5667 45.8812 72.3362 46.1655 72.3362H60.8225C61.1064 72.3362 61.3369 72.5663 61.3369 72.8506V74.3419C61.3369 74.6259 61.1064 74.8564 60.8225 74.8564Z" fill="#92E3A9" stroke="#263238" stroke-miterlimit="10" stroke-linecap="round" stroke-linejoin="round"/>
<path d="M53.4823 125.327H25.6855C25.2584 125.327 24.9121 124.98 24.9121 124.553V117.323C24.9121 116.896 25.2584 116.55 25.6855 116.55H53.4823C53.9094 116.55 54.2557 116.896 54.2557 117.323V124.553C54.2557 124.98 53.9094 125.327 53.4823 125.327Z" fill="#999999" stroke="#263238" stroke-miterlimit="10" stroke-linecap="round" stroke-linejoin="round"/>
<path d="M68.6435 125.327H40.8466C40.4196 125.327 40.0732 124.98 40.0732 124.553V117.323C40.0732 116.896 40.4196 116.55 40.8466 116.55H68.6435C69.0705 116.55 69.4168 116.896 69.4168 117.323V124.553C69.4168 124.98 69.0705 125.327 68.6435 125.327Z" fill="#BFBFBF" stroke="#263238" stroke-miterlimit="10" stroke-linecap="round" stroke-linejoin="round"/>
<path d="M61.337 120.241H43.9192V121.635H61.337V120.241Z" fill="#757575" stroke="#263238" stroke-miterlimit="10" stroke-linecap="round" stroke-linejoin="round"/>
<path d="M64.3913 120.938C64.3913 121.327 64.0762 121.642 63.6873 121.642C63.2985 121.642 62.9834 121.327 62.9834 120.938C62.9834 120.549 63.2985 120.234 63.6873 120.234C64.0762 120.234 64.3913 120.549 64.3913 120.938Z" fill="#92E3A9" stroke="#263238" stroke-miterlimit="10" stroke-linecap="round" stroke-linejoin="round"/>
<path d="M66.9045 120.938C66.9045 121.327 66.5894 121.642 66.2005 121.642C65.8117 121.642 65.4966 121.327 65.4966 120.938C65.4966 120.549 65.8117 120.234 66.2005 120.234C66.5894 120.234 66.9045 120.549 66.9045 120.938Z" fill="#757575" stroke="#263238" stroke-miterlimit="10" stroke-linecap="round" stroke-linejoin="round"/>
<path d="M54.7451 120.707H44.5544V121.169H54.7451V120.707Z" fill="#92E3A9"/>
<path d="M53.4823 134.644H25.6855C25.2584 134.644 24.9121 134.298 24.9121 133.871V126.641C24.9121 126.214 25.2584 125.867 25.6855 125.867H53.4823C53.9094 125.867 54.2557 126.214 54.2557 126.641V133.871C54.2557 134.298 53.9094 134.644 53.4823 134.644Z" fill="#999999" stroke="#263238" stroke-miterlimit="10" stroke-linecap="round" stroke-linejoin="round"/>
<path d="M68.6435 134.644H40.8466C40.4196 134.644 40.0732 134.298 40.0732 133.871V126.641C40.0732 126.214 40.4196 125.867 40.8466 125.867H68.6435C69.0705 125.867 69.4168 126.214 69.4168 126.641V133.871C69.4168 134.298 69.0705 134.644 68.6435 134.644Z" fill="#BFBFBF" stroke="#263238" stroke-miterlimit="10" stroke-linecap="round" stroke-linejoin="round"/>
<path d="M61.337 129.559H43.9192V130.953H61.337V129.559Z" fill="#757575" stroke="#263238" stroke-miterlimit="10" stroke-linecap="round" stroke-linejoin="round"/>
<path d="M63.6873 130.96C64.0761 130.96 64.3913 130.644 64.3913 130.256C64.3913 129.867 64.0761 129.552 63.6873 129.552C63.2986 129.552 62.9834 129.867 62.9834 130.256C62.9834 130.644 63.2986 130.96 63.6873 130.96Z" fill="#92E3A9" stroke="#263238" stroke-miterlimit="10" stroke-linecap="round" stroke-linejoin="round"/>
<path d="M66.9045 130.256C66.9045 130.645 66.5894 130.96 66.2005 130.96C65.8117 130.96 65.4966 130.645 65.4966 130.256C65.4966 129.867 65.8117 129.552 66.2005 129.552C66.5894 129.552 66.9045 129.867 66.9045 130.256Z" fill="#757575" stroke="#263238" stroke-miterlimit="10" stroke-linecap="round" stroke-linejoin="round"/>
<path d="M54.7451 130.025H44.5544V130.487H54.7451V130.025Z" fill="#92E3A9"/>
<path d="M53.4823 143.962H25.6855C25.2584 143.962 24.9121 143.616 24.9121 143.188V135.959C24.9121 135.532 25.2584 135.185 25.6855 135.185H53.4823C53.9094 135.185 54.2557 135.532 54.2557 135.959V143.188C54.2557 143.616 53.9094 143.962 53.4823 143.962Z" fill="#999999" stroke="#263238" stroke-miterlimit="10" stroke-linecap="round" stroke-linejoin="round"/>
<path d="M68.6435 143.962H40.8466C40.4196 143.962 40.0732 143.616 40.0732 143.188V135.959C40.0732 135.532 40.4196 135.185 40.8466 135.185H68.6435C69.0705 135.185 69.4168 135.532 69.4168 135.959V143.188C69.4168 143.616 69.0705 143.962 68.6435 143.962Z" fill="#BFBFBF" stroke="#263238" stroke-miterlimit="10" stroke-linecap="round" stroke-linejoin="round"/>
<path d="M61.337 138.876H43.9192V140.27H61.337V138.876Z" fill="#757575" stroke="#263238" stroke-miterlimit="10" stroke-linecap="round" stroke-linejoin="round"/>
<path d="M63.6873 140.278C64.0761 140.278 64.3913 139.962 64.3913 139.574C64.3913 139.185 64.0761 138.87 63.6873 138.87C63.2986 138.87 62.9834 139.185 62.9834 139.574C62.9834 139.962 63.2986 140.278 63.6873 140.278Z" fill="#92E3A9" stroke="#263238" stroke-miterlimit="10" stroke-linecap="round" stroke-linejoin="round"/>
<path d="M66.9045 139.574C66.9045 139.962 66.5894 140.278 66.2005 140.278C65.8117 140.278 65.4966 139.962 65.4966 139.574C65.4966 139.185 65.8117 138.87 66.2005 138.87C66.5894 138.869 66.9045 139.185 66.9045 139.574Z" fill="#757575" stroke="#263238" stroke-miterlimit="10" stroke-linecap="round" stroke-linejoin="round"/>
<path d="M54.7451 139.342H44.5544V139.804H54.7451V139.342Z" fill="#92E3A9"/>
<path d="M53.4823 153.28H25.6855C25.2584 153.28 24.9121 152.933 24.9121 152.506V145.277C24.9121 144.849 25.2584 144.503 25.6855 144.503H53.4823C53.9094 144.503 54.2557 144.849 54.2557 145.277V152.506C54.2557 152.933 53.9094 153.28 53.4823 153.28Z" fill="#999999" stroke="#263238" stroke-miterlimit="10" stroke-linecap="round" stroke-linejoin="round"/>
<path d="M68.6435 153.28H40.8466C40.4196 153.28 40.0732 152.933 40.0732 152.506V145.277C40.0732 144.849 40.4196 144.503 40.8466 144.503H68.6435C69.0705 144.503 69.4168 144.849 69.4168 145.277V152.506C69.4168 152.933 69.0705 153.28 68.6435 153.28Z" fill="#BFBFBF" stroke="#263238" stroke-miterlimit="10" stroke-linecap="round" stroke-linejoin="round"/>
<path d="M61.337 148.194H43.9192V149.588H61.337V148.194Z" fill="#757575" stroke="#263238" stroke-miterlimit="10" stroke-linecap="round" stroke-linejoin="round"/>
<path d="M64.3913 148.891C64.3913 149.28 64.0762 149.595 63.6873 149.595C63.2985 149.595 62.9834 149.28 62.9834 148.891C62.9834 148.502 63.2985 148.187 63.6873 148.187C64.0762 148.187 64.3913 148.502 64.3913 148.891Z" fill="#92E3A9" stroke="#263238" stroke-miterlimit="10" stroke-linecap="round" stroke-linejoin="round"/>
<path d="M66.9045 148.891C66.9045 149.28 66.5894 149.595 66.2005 149.595C65.8117 149.595 65.4966 149.28 65.4966 148.891C65.4966 148.502 65.8117 148.187 66.2005 148.187C66.5894 148.187 66.9045 148.502 66.9045 148.891Z" fill="#757575" stroke="#263238" stroke-miterlimit="10" stroke-linecap="round" stroke-linejoin="round"/>
<path d="M54.7451 148.66H44.5544V149.122H54.7451V148.66Z" fill="#92E3A9"/>
<path d="M53.4823 162.597H25.6855C25.2584 162.597 24.9121 162.251 24.9121 161.824V154.594C24.9121 154.167 25.2584 153.821 25.6855 153.821H53.4823C53.9094 153.821 54.2557 154.167 54.2557 154.594V161.824C54.2557 162.251 53.9094 162.597 53.4823 162.597Z" fill="#999999" stroke="#263238" stroke-miterlimit="10" stroke-linecap="round" stroke-linejoin="round"/>
<path d="M68.6435 162.597H40.8466C40.4196 162.597 40.0732 162.251 40.0732 161.824V154.594C40.0732 154.167 40.4196 153.821 40.8466 153.821H68.6435C69.0705 153.821 69.4168 154.167 69.4168 154.594V161.824C69.4168 162.251 69.0705 162.597 68.6435 162.597Z" fill="#BFBFBF" stroke="#263238" stroke-miterlimit="10" stroke-linecap="round" stroke-linejoin="round"/>
<path d="M61.337 157.512H43.9192V158.906H61.337V157.512Z" fill="#757575" stroke="#263238" stroke-miterlimit="10" stroke-linecap="round" stroke-linejoin="round"/>
<path d="M63.6873 158.913C64.0761 158.913 64.3913 158.598 64.3913 158.209C64.3913 157.82 64.0761 157.505 63.6873 157.505C63.2986 157.505 62.9834 157.82 62.9834 158.209C62.9834 158.598 63.2986 158.913 63.6873 158.913Z" fill="#92E3A9" stroke="#263238" stroke-miterlimit="10" stroke-linecap="round" stroke-linejoin="round"/>
<path d="M66.9045 158.209C66.9045 158.598 66.5894 158.913 66.2005 158.913C65.8117 158.913 65.4966 158.598 65.4966 158.209C65.4966 157.82 65.8117 157.505 66.2005 157.505C66.5894 157.505 66.9045 157.82 66.9045 158.209Z" fill="#757575" stroke="#263238" stroke-miterlimit="10" stroke-linecap="round" stroke-linejoin="round"/>
<path d="M54.7451 157.978H44.5544V158.44H54.7451V157.978Z" fill="#92E3A9"/>
<path d="M53.4823 171.915H25.6855C25.2584 171.915 24.9121 171.569 24.9121 171.142V163.912C24.9121 163.485 25.2584 163.139 25.6855 163.139H53.4823C53.9094 163.139 54.2557 163.485 54.2557 163.912V171.142C54.2557 171.569 53.9094 171.915 53.4823 171.915Z" fill="#999999" stroke="#263238" stroke-miterlimit="10" stroke-linecap="round" stroke-linejoin="round"/>
<path d="M68.6435 171.915H40.8466C40.4196 171.915 40.0732 171.569 40.0732 171.142V163.912C40.0732 163.485 40.4196 163.139 40.8466 163.139H68.6435C69.0705 163.139 69.4168 163.485 69.4168 163.912V171.142C69.4168 171.569 69.0705 171.915 68.6435 171.915Z" fill="#BFBFBF" stroke="#263238" stroke-miterlimit="10" stroke-linecap="round" stroke-linejoin="round"/>
<path d="M61.337 166.83H43.9192V168.224H61.337V166.83Z" fill="#757575" stroke="#263238" stroke-miterlimit="10" stroke-linecap="round" stroke-linejoin="round"/>
<path d="M63.6873 168.23C64.0761 168.23 64.3913 167.915 64.3913 167.526C64.3913 167.138 64.0761 166.823 63.6873 166.823C63.2986 166.823 62.9834 167.138 62.9834 167.526C62.9834 167.915 63.2986 168.23 63.6873 168.23Z" fill="#92E3A9" stroke="#263238" stroke-miterlimit="10" stroke-linecap="round" stroke-linejoin="round"/>
<path d="M66.9045 167.526C66.9045 167.915 66.5894 168.23 66.2005 168.23C65.8117 168.23 65.4966 167.915 65.4966 167.526C65.4966 167.138 65.8117 166.823 66.2005 166.823C66.5894 166.823 66.9045 167.138 66.9045 167.526Z" fill="#757575" stroke="#263238" stroke-miterlimit="10" stroke-linecap="round" stroke-linejoin="round"/>
<path d="M54.7451 167.296H44.5544V167.758H54.7451V167.296Z" fill="#92E3A9"/>
<path d="M53.4823 116.009H25.6855C25.2584 116.009 24.9121 115.662 24.9121 115.235V108.006C24.9121 107.578 25.2584 107.232 25.6855 107.232H53.4823C53.9094 107.232 54.2557 107.578 54.2557 108.006V115.235C54.2557 115.662 53.9094 116.009 53.4823 116.009Z" fill="#999999" stroke="#263238" stroke-miterlimit="10" stroke-linecap="round" stroke-linejoin="round"/>
<path d="M68.6435 116.009H40.8466C40.4196 116.009 40.0732 115.662 40.0732 115.235V108.006C40.0732 107.578 40.4196 107.232 40.8466 107.232H68.6435C69.0705 107.232 69.4168 107.578 69.4168 108.006V115.235C69.4168 115.662 69.0705 116.009 68.6435 116.009Z" fill="#BFBFBF" stroke="#263238" stroke-miterlimit="10" stroke-linecap="round" stroke-linejoin="round"/>
<path d="M40.8472 114.696L40.8526 108.537C40.853 108.244 41.0913 108.006 41.385 108.006L68.1113 108.012C68.4053 108.012 68.6436 108.251 68.6432 108.545L68.6378 114.697C68.6374 114.991 68.3995 115.229 68.1054 115.229H41.3791C41.0851 115.229 40.8468 114.99 40.8472 114.696Z" fill="#263238"/>
<path d="M57.75 114.904H43.093C42.8091 114.904 42.5786 114.674 42.5786 114.39V112.898C42.5786 112.615 42.8087 112.384 43.093 112.384H57.75C58.0339 112.384 58.2644 112.614 58.2644 112.898V114.39C58.2644 114.674 58.0339 114.904 57.75 114.904Z" fill="#92E3A9" stroke="#263238" stroke-miterlimit="10" stroke-linecap="round" stroke-linejoin="round"/>
<path d="M66.4119 114.904H59.5549C59.271 114.904 59.0405 114.674 59.0405 114.39V112.898C59.0405 112.615 59.2706 112.384 59.5549 112.384H66.4119C66.6958 112.384 66.9263 112.614 66.9263 112.898V114.39C66.9259 114.674 66.6958 114.904 66.4119 114.904Z" fill="#92E3A9" stroke="#263238" stroke-miterlimit="10" stroke-linecap="round" stroke-linejoin="round"/>
<path d="M51.6392 112.363H44.7822C44.4983 112.363 44.2678 112.133 44.2678 111.848V110.357C44.2678 110.073 44.4979 109.843 44.7822 109.843H51.6392C51.9231 109.843 52.1536 110.073 52.1536 110.357V111.848C52.1532 112.133 51.9231 112.363 51.6392 112.363Z" fill="#92E3A9" stroke="#263238" stroke-miterlimit="10" stroke-linecap="round" stroke-linejoin="round"/>
<path d="M53.4823 106.691H25.6855C25.2584 106.691 24.9121 106.345 24.9121 105.918V98.6879C24.9121 98.2609 25.2584 97.9146 25.6855 97.9146H53.4823C53.9094 97.9146 54.2557 98.2609 54.2557 98.6879V105.918C54.2557 106.345 53.9094 106.691 53.4823 106.691Z" fill="#999999" stroke="#263238" stroke-miterlimit="10" stroke-linecap="round" stroke-linejoin="round"/>
<path d="M68.6435 106.691H40.8466C40.4196 106.691 40.0732 106.345 40.0732 105.918V98.6879C40.0732 98.2609 40.4196 97.9146 40.8466 97.9146H68.6435C69.0705 97.9146 69.4168 98.2609 69.4168 98.6879V105.918C69.4168 106.345 69.0705 106.691 68.6435 106.691Z" fill="#BFBFBF" stroke="#263238" stroke-miterlimit="10" stroke-linecap="round" stroke-linejoin="round"/>
<path d="M40.8472 105.378L40.8526 99.2196C40.853 98.9259 41.0913 98.688 41.385 98.688L68.1113 98.6942C68.4053 98.6942 68.6436 98.9329 68.6432 99.227L68.6378 105.38C68.6374 105.673 68.3995 105.911 68.1054 105.911H41.3791C41.0851 105.911 40.8468 105.673 40.8472 105.378Z" fill="#263238"/>
<path d="M57.9881 105.586H51.1311C50.8472 105.586 50.6167 105.356 50.6167 105.072V103.581C50.6167 103.297 50.8468 103.066 51.1311 103.066H57.9881C58.272 103.066 58.5025 103.296 58.5025 103.581V105.072C58.5025 105.356 58.2724 105.586 57.9881 105.586Z" fill="#92E3A9" stroke="#263238" stroke-miterlimit="10" stroke-linecap="round" stroke-linejoin="round"/>
<path d="M66.4119 105.586H59.5549C59.271 105.586 59.0405 105.356 59.0405 105.072V103.581C59.0405 103.297 59.2706 103.066 59.5549 103.066H66.4119C66.6958 103.066 66.9263 103.296 66.9263 103.581V105.072C66.9259 105.356 66.6958 105.586 66.4119 105.586Z" fill="#92E3A9" stroke="#263238" stroke-miterlimit="10" stroke-linecap="round" stroke-linejoin="round"/>
<path d="M49.7121 105.586H42.8547C42.5708 105.586 42.3403 105.356 42.3403 105.072V103.581C42.3403 103.297 42.5704 103.066 42.8547 103.066H49.7121C49.996 103.066 50.2265 103.296 50.2265 103.581V105.072C50.2261 105.356 49.996 105.586 49.7121 105.586Z" fill="#92E3A9" stroke="#263238" stroke-miterlimit="10" stroke-linecap="round" stroke-linejoin="round"/>
<path d="M55.8836 102.886H49.0266C48.7427 102.886 48.5122 102.656 48.5122 102.372V100.88C48.5122 100.596 48.7423 100.366 49.0266 100.366H55.8836C56.1675 100.366 56.398 100.596 56.398 100.88V102.372C56.3976 102.656 56.1675 102.886 55.8836 102.886Z" fill="#92E3A9" stroke="#263238" stroke-miterlimit="10" stroke-linecap="round" stroke-linejoin="round"/>
<path d="M53.4823 97.3732H25.6855C25.2584 97.3732 24.9121 97.0269 24.9121 96.5999V89.3701C24.9121 88.943 25.2584 88.5967 25.6855 88.5967H53.4823C53.9094 88.5967 54.2557 88.943 54.2557 89.3701V96.5999C54.2557 97.0269 53.9094 97.3732 53.4823 97.3732Z" fill="#999999" stroke="#263238" stroke-miterlimit="10" stroke-linecap="round" stroke-linejoin="round"/>
<path d="M68.6435 97.3732H40.8466C40.4196 97.3732 40.0732 97.0269 40.0732 96.5999V89.3701C40.0732 88.943 40.4196 88.5967 40.8466 88.5967H68.6435C69.0705 88.5967 69.4168 88.943 69.4168 89.3701V96.5999C69.4168 97.0269 69.0705 97.3732 68.6435 97.3732Z" fill="#BFBFBF" stroke="#263238" stroke-miterlimit="10" stroke-linecap="round" stroke-linejoin="round"/>
<path d="M40.8472 96.0608L40.8526 89.9019C40.853 89.6083 41.0913 89.3704 41.385 89.3704L68.1113 89.3766C68.4053 89.3766 68.6436 89.6153 68.6432 89.9093L68.6378 96.062C68.6374 96.3557 68.3995 96.5935 68.1054 96.5935H41.3791C41.0851 96.5935 40.8468 96.3549 40.8472 96.0608Z" fill="#263238"/>
<path d="M62.8201 96.2687H48.1631C47.8792 96.2687 47.6487 96.0386 47.6487 95.7543V94.2629C47.6487 93.979 47.8788 93.7485 48.1631 93.7485H62.8201C63.104 93.7485 63.3345 93.9786 63.3345 94.2629V95.7543C63.3345 96.0382 63.104 96.2687 62.8201 96.2687Z" fill="#92E3A9" stroke="#263238" stroke-miterlimit="10" stroke-linecap="round" stroke-linejoin="round"/>
<path d="M60.8225 93.4917H46.1655C45.8816 93.4917 45.6511 93.2616 45.6511 92.9773V93.0459C45.6511 92.762 45.8812 92.5315 46.1655 92.5315H60.8225C61.1064 92.5315 61.3369 92.7616 61.3369 93.0459V92.9773C61.3369 93.2616 61.1064 93.4917 60.8225 93.4917Z" fill="#92E3A9" stroke="#263238" stroke-miterlimit="10" stroke-linecap="round" stroke-linejoin="round"/>
<path d="M53.4823 88.0559H25.6855C25.2584 88.0559 24.9121 87.7095 24.9121 87.2825V80.0527C24.9121 79.6256 25.2584 79.2793 25.6855 79.2793H53.4823C53.9094 79.2793 54.2557 79.6256 54.2557 80.0527V87.2825C54.2557 87.7095 53.9094 88.0559 53.4823 88.0559Z" fill="#999999" stroke="#263238" stroke-miterlimit="10" stroke-linecap="round" stroke-linejoin="round"/>
<path d="M68.6435 88.0559H40.8466C40.4196 88.0559 40.0732 87.7095 40.0732 87.2825V80.0527C40.0732 79.6256 40.4196 79.2793 40.8466 79.2793H68.6435C69.0705 79.2793 69.4168 79.6256 69.4168 80.0527V87.2825C69.4168 87.7095 69.0705 88.0559 68.6435 88.0559Z" fill="#BFBFBF" stroke="#263238" stroke-miterlimit="10" stroke-linecap="round" stroke-linejoin="round"/>
<path d="M40.8472 86.7432L40.8526 80.5843C40.853 80.2906 41.0913 80.0527 41.385 80.0527L68.1113 80.059C68.4053 80.059 68.6436 80.2977 68.6432 80.5917L68.6378 86.7444C68.6374 87.038 68.3995 87.2759 68.1054 87.2759H41.3791C41.0851 87.2759 40.8468 87.0372 40.8472 86.7432Z" fill="#263238"/>
<path d="M65.5501 86.9511H50.8931C50.6092 86.9511 50.3787 86.721 50.3787 86.4367V84.9453C50.3787 84.6614 50.6088 84.4309 50.8931 84.4309H65.5501C65.834 84.4309 66.0645 84.661 66.0645 84.9453V86.4367C66.0645 86.721 65.834 86.9511 65.5501 86.9511Z" fill="#92E3A9" stroke="#263238" stroke-miterlimit="10" stroke-linecap="round" stroke-linejoin="round"/>
<path d="M60.8226 84.1737H53.9656C53.6817 84.1737 53.4512 83.9436 53.4512 83.6593V82.168C53.4512 81.8841 53.6813 81.6536 53.9656 81.6536H60.8226C61.1065 81.6536 61.337 81.8837 61.337 82.168V83.6593C61.337 83.9436 61.1065 84.1737 60.8226 84.1737Z" fill="#92E3A9" stroke="#263238" stroke-miterlimit="10" stroke-linecap="round" stroke-linejoin="round"/>
<path d="M26.5845 75.5247V77.6334" stroke="#263238" stroke-miterlimit="10" stroke-linecap="round" stroke-linejoin="round"/>
<path d="M27.2529 75.5247V77.6334" stroke="#263238" stroke-miterlimit="10" stroke-linecap="round" stroke-linejoin="round"/>
<path d="M27.9214 75.5247V77.6334" stroke="#263238" stroke-miterlimit="10" stroke-linecap="round" stroke-linejoin="round"/>
<path d="M28.5903 75.5247V77.6334" stroke="#263238" stroke-miterlimit="10" stroke-linecap="round" stroke-linejoin="round"/>
<path d="M29.2588 75.5247V77.6334" stroke="#263238" stroke-miterlimit="10" stroke-linecap="round" stroke-linejoin="round"/>
<path d="M26.5845 168.735V170.843" stroke="#263238" stroke-miterlimit="10" stroke-linecap="round" stroke-linejoin="round"/>
<path d="M27.2529 168.735V170.843" stroke="#263238" stroke-miterlimit="10" stroke-linecap="round" stroke-linejoin="round"/>
<path d="M27.9214 168.735V170.843" stroke="#263238" stroke-miterlimit="10" stroke-linecap="round" stroke-linejoin="round"/>
<path d="M28.5903 168.735V170.843" stroke="#263238" stroke-miterlimit="10" stroke-linecap="round" stroke-linejoin="round"/>
<path d="M29.2588 168.735V170.843" stroke="#263238" stroke-miterlimit="10" stroke-linecap="round" stroke-linejoin="round"/>
<path d="M26.5845 159.414V161.522" stroke="#263238" stroke-miterlimit="10" stroke-linecap="round" stroke-linejoin="round"/>
<path d="M27.2529 159.414V161.522" stroke="#263238" stroke-miterlimit="10" stroke-linecap="round" stroke-linejoin="round"/>
<path d="M27.9214 159.414V161.522" stroke="#263238" stroke-miterlimit="10" stroke-linecap="round" stroke-linejoin="round"/>
<path d="M28.5903 159.414V161.522" stroke="#263238" stroke-miterlimit="10" stroke-linecap="round" stroke-linejoin="round"/>
<path d="M29.2588 159.414V161.522" stroke="#263238" stroke-miterlimit="10" stroke-linecap="round" stroke-linejoin="round"/>
<path d="M26.5845 150.093V152.202" stroke="#263238" stroke-miterlimit="10" stroke-linecap="round" stroke-linejoin="round"/>
<path d="M27.2529 150.093V152.202" stroke="#263238" stroke-miterlimit="10" stroke-linecap="round" stroke-linejoin="round"/>
<path d="M27.9214 150.093V152.202" stroke="#263238" stroke-miterlimit="10" stroke-linecap="round" stroke-linejoin="round"/>
<path d="M28.5903 150.093V152.202" stroke="#263238" stroke-miterlimit="10" stroke-linecap="round" stroke-linejoin="round"/>
<path d="M29.2588 150.093V152.202" stroke="#263238" stroke-miterlimit="10" stroke-linecap="round" stroke-linejoin="round"/>
<path d="M26.5845 140.772V142.88" stroke="#263238" stroke-miterlimit="10" stroke-linecap="round" stroke-linejoin="round"/>
<path d="M27.2529 140.772V142.88" stroke="#263238" stroke-miterlimit="10" stroke-linecap="round" stroke-linejoin="round"/>
<path d="M27.9214 140.772V142.88" stroke="#263238" stroke-miterlimit="10" stroke-linecap="round" stroke-linejoin="round"/>
<path d="M28.5903 140.772V142.88" stroke="#263238" stroke-miterlimit="10" stroke-linecap="round" stroke-linejoin="round"/>
<path d="M29.2588 140.772V142.88" stroke="#263238" stroke-miterlimit="10" stroke-linecap="round" stroke-linejoin="round"/>
<path d="M26.5845 131.451V133.559" stroke="#263238" stroke-miterlimit="10" stroke-linecap="round" stroke-linejoin="round"/>
<path d="M27.2529 131.451V133.559" stroke="#263238" stroke-miterlimit="10" stroke-linecap="round" stroke-linejoin="round"/>
<path d="M27.9214 131.451V133.559" stroke="#263238" stroke-miterlimit="10" stroke-linecap="round" stroke-linejoin="round"/>
<path d="M28.5903 131.451V133.559" stroke="#263238" stroke-miterlimit="10" stroke-linecap="round" stroke-linejoin="round"/>
<path d="M29.2588 131.451V133.559" stroke="#263238" stroke-miterlimit="10" stroke-linecap="round" stroke-linejoin="round"/>
<path d="M26.5845 122.13V124.238" stroke="#263238" stroke-miterlimit="10" stroke-linecap="round" stroke-linejoin="round"/>
<path d="M27.2529 122.13V124.238" stroke="#263238" stroke-miterlimit="10" stroke-linecap="round" stroke-linejoin="round"/>
<path d="M27.9214 122.13V124.238" stroke="#263238" stroke-miterlimit="10" stroke-linecap="round" stroke-linejoin="round"/>
<path d="M28.5903 122.13V124.238" stroke="#263238" stroke-miterlimit="10" stroke-linecap="round" stroke-linejoin="round"/>
<path d="M29.2588 122.13V124.238" stroke="#263238" stroke-miterlimit="10" stroke-linecap="round" stroke-linejoin="round"/>
<path d="M26.5845 112.809V114.917" stroke="#263238" stroke-miterlimit="10" stroke-linecap="round" stroke-linejoin="round"/>
<path d="M27.2529 112.809V114.917" stroke="#263238" stroke-miterlimit="10" stroke-linecap="round" stroke-linejoin="round"/>
<path d="M27.9214 112.809V114.917" stroke="#263238" stroke-miterlimit="10" stroke-linecap="round" stroke-linejoin="round"/>
<path d="M28.5903 112.809V114.917" stroke="#263238" stroke-miterlimit="10" stroke-linecap="round" stroke-linejoin="round"/>
<path d="M29.2588 112.809V114.917" stroke="#263238" stroke-miterlimit="10" stroke-linecap="round" stroke-linejoin="round"/>
<path d="M26.5845 103.488V105.596" stroke="#263238" stroke-miterlimit="10" stroke-linecap="round" stroke-linejoin="round"/>
<path d="M27.2529 103.488V105.596" stroke="#263238" stroke-miterlimit="10" stroke-linecap="round" stroke-linejoin="round"/>
<path d="M27.9214 103.488V105.596" stroke="#263238" stroke-miterlimit="10" stroke-linecap="round" stroke-linejoin="round"/>
<path d="M28.5903 103.488V105.596" stroke="#263238" stroke-miterlimit="10" stroke-linecap="round" stroke-linejoin="round"/>
<path d="M29.2588 103.488V105.596" stroke="#263238" stroke-miterlimit="10" stroke-linecap="round" stroke-linejoin="round"/>
<path d="M26.5845 94.1667V96.2755" stroke="#263238" stroke-miterlimit="10" stroke-linecap="round" stroke-linejoin="round"/>
<path d="M27.2529 94.1667V96.2755" stroke="#263238" stroke-miterlimit="10" stroke-linecap="round" stroke-linejoin="round"/>
<path d="M27.9214 94.1667V96.2755" stroke="#263238" stroke-miterlimit="10" stroke-linecap="round" stroke-linejoin="round"/>
<path d="M28.5903 94.1667V96.2755" stroke="#263238" stroke-miterlimit="10" stroke-linecap="round" stroke-linejoin="round"/>
<path d="M29.2588 94.1667V96.2755" stroke="#263238" stroke-miterlimit="10" stroke-linecap="round" stroke-linejoin="round"/>
<path d="M26.5845 84.8457V86.9544" stroke="#263238" stroke-miterlimit="10" stroke-linecap="round" stroke-linejoin="round"/>
<path d="M27.2529 84.8457V86.9544" stroke="#263238" stroke-miterlimit="10" stroke-linecap="round" stroke-linejoin="round"/>
<path d="M27.9214 84.8457V86.9544" stroke="#263238" stroke-miterlimit="10" stroke-linecap="round" stroke-linejoin="round"/>
<path d="M28.5903 84.8457V86.9544" stroke="#263238" stroke-miterlimit="10" stroke-linecap="round" stroke-linejoin="round"/>
<path d="M29.2588 84.8457V86.9544" stroke="#263238" stroke-miterlimit="10" stroke-linecap="round" stroke-linejoin="round"/>
</svg>
