<svg width="195" height="105" viewBox="0 0 195 105" fill="none" xmlns="http://www.w3.org/2000/svg">
<path d="M39.4839 166.39C72.6865 184.112 126.518 184.112 159.72 166.39C192.922 148.667 192.922 119.933 159.72 102.211C126.517 84.4881 72.6857 84.4881 39.4831 102.21C6.28122 119.933 6.28122 148.667 39.4839 166.39Z" fill="#F0F0F0"/>
<path d="M116.114 100.579L120.022 98.3227C120.489 98.0536 121.245 98.0536 121.711 98.3227L146.214 112.47" stroke="#27DEBF" stroke-miterlimit="10"/>
<path d="M114.529 99.6642L120.022 96.4931C120.488 96.224 121.244 96.224 121.711 96.4931L147.798 111.554" stroke="#27DEBF" stroke-miterlimit="10"/>
<path d="M149.382 110.64L121.711 94.6637C121.244 94.3946 120.488 94.3942 120.022 94.6633L112.946 98.7462" stroke="#27DEBF" stroke-miterlimit="10"/>
<path d="M150.966 109.725L121.711 92.8345C121.244 92.5654 120.489 92.565 120.022 92.8345L111.356 97.8351" stroke="#27DEBF" stroke-miterlimit="10"/>
<path d="M91.5014 17.8409L66.2587 32.4148C65.7922 32.6839 65.4143 33.3388 65.4143 33.8773V103.269C65.4143 103.807 65.7922 104.462 66.2587 104.731L91.5018 119.305C91.9682 119.574 92.7241 119.574 93.1905 119.305L118.432 104.731C118.899 104.462 119.277 103.807 119.277 103.269V33.8777C119.277 33.3391 118.899 32.6843 118.432 32.4152L93.1901 17.8413C92.7237 17.5718 91.9678 17.5718 91.5014 17.8409Z" fill="#37474F"/>
<path d="M119.276 33.8762V103.269C119.276 103.807 118.898 104.462 118.434 104.731L93.1888 119.306C92.9587 119.442 92.6506 119.508 92.3464 119.508V48.1658C92.6506 48.1658 92.9548 48.0956 93.1888 47.963L118.434 33.3887L118.664 33.1976L118.964 32.948C119.155 33.2366 119.276 33.572 119.276 33.8762Z" fill="#263238"/>
<path d="M69.4271 40.7071L88.3335 51.6224C88.8 51.8915 89.1779 52.5463 89.1779 53.0849L89.1775 60.2816C89.1775 60.8202 88.7996 61.0382 88.3331 60.7691L69.4275 49.8538C68.9611 49.5847 68.5832 48.9298 68.5832 48.3912L68.5828 41.1946C68.5828 40.656 68.9607 40.438 69.4271 40.7071Z" fill="#455A64"/>
<path d="M70.167 43.8781C70.167 44.3832 70.5449 45.0111 71.0113 45.2802L86.749 54.366C87.2155 54.6351 87.5934 54.444 87.5934 53.9389C87.5934 53.4339 87.2155 52.806 86.749 52.5369L71.0113 43.4511C70.5449 43.182 70.167 43.3731 70.167 43.8781Z" fill="#27DEBF"/>
<path d="M70.167 47.5368C70.167 48.0418 70.5449 48.6697 71.0113 48.9388L86.749 58.0251C87.2155 58.2942 87.5934 58.1031 87.5934 57.598C87.5934 57.093 87.2155 56.4651 86.749 56.196L71.0113 47.1097C70.5449 46.8406 70.167 47.0317 70.167 47.5368Z" fill="#263238"/>
<path d="M71.0113 47.1097L79.6725 52.1103V53.9394L71.0113 48.9392C70.5449 48.6701 70.167 48.0422 70.167 47.5372C70.167 47.0317 70.5449 46.8406 71.0113 47.1097Z" fill="#27DEBF"/>
<path d="M69.4271 53.512L88.3335 64.4273C88.8 64.6964 89.1779 65.3512 89.1779 65.8898L89.1775 73.0865C89.1775 73.6251 88.7996 73.8431 88.3331 73.574L69.4275 62.6587C68.9611 62.3896 68.5832 61.7348 68.5832 61.1962L68.5828 53.9995C68.5828 53.4609 68.9607 53.2429 69.4271 53.512Z" fill="#455A64"/>
<path d="M70.167 56.683C70.167 57.1881 70.5449 57.816 71.0113 58.0851L86.749 67.1713C87.2155 67.4404 87.5934 67.2493 87.5934 66.7443C87.5934 66.2392 87.2155 65.6113 86.749 65.3422L71.0113 56.256C70.5449 55.9869 70.167 56.178 70.167 56.683Z" fill="#27DEBF"/>
<path d="M70.167 60.3417C70.167 60.8468 70.5449 61.4747 71.0113 61.7438L86.749 70.83C87.2155 71.0991 87.5934 70.908 87.5934 70.4029C87.5934 69.8979 87.2155 69.27 86.749 69.0009L71.0113 59.9147C70.5449 59.6456 70.167 59.8367 70.167 60.3417Z" fill="#263238"/>
<path d="M71.0113 59.9147L84.425 67.6589V69.488L71.0113 61.7438C70.5449 61.4747 70.167 60.8468 70.167 60.3417C70.167 59.8367 70.5449 59.6456 71.0113 59.9147Z" fill="#27DEBF"/>
<path d="M69.4271 66.3167L88.3335 77.232C88.8 77.5011 89.1779 78.1559 89.1779 78.6945L89.1775 85.8912C89.1775 86.4298 88.7996 86.6478 88.3331 86.3787L69.4275 75.4634C68.9611 75.1943 68.5832 74.5395 68.5832 74.0009L68.5828 66.8042C68.5828 66.2656 68.9607 66.0476 69.4271 66.3167Z" fill="#455A64"/>
<path d="M70.167 69.4877C70.167 69.9928 70.5449 70.6207 71.0113 70.8898L86.749 79.976C87.2155 80.2451 87.5934 80.054 87.5934 79.5489C87.5934 79.0439 87.2155 78.416 86.749 78.1469L71.0113 69.0607C70.5449 68.7916 70.167 68.9827 70.167 69.4877Z" fill="#27DEBF"/>
<path d="M70.167 73.1464C70.167 73.6515 70.5449 74.2794 71.0113 74.5485L86.749 83.6347C87.2155 83.9038 87.5934 83.7127 87.5934 83.2076C87.5934 82.7026 87.2155 82.0747 86.749 81.8056L71.0113 72.7194C70.5449 72.4503 70.167 72.6414 70.167 73.1464Z" fill="#263238"/>
<path d="M71.0113 72.7193L76.5037 75.8904V77.7195L71.0113 74.5488C70.5449 74.2797 70.167 73.6518 70.167 73.1467C70.167 72.6417 70.5449 72.4502 71.0113 72.7193Z" fill="#27DEBF"/>
<path d="M69.4271 79.1216L88.3335 90.0369C88.8 90.306 89.1779 90.9609 89.1779 91.4994L89.1775 98.6961C89.1775 99.2347 88.7996 99.4527 88.3331 99.1836L69.4275 88.2683C68.9611 87.9992 68.5832 87.3444 68.5832 86.8058L68.5828 79.6091C68.5828 79.0705 68.9607 78.8525 69.4271 79.1216Z" fill="#455A64"/>
<path d="M70.167 82.2927C70.167 82.7977 70.5449 83.4256 71.0113 83.6947L86.749 92.7809C87.2155 93.05 87.5934 92.8589 87.5934 92.3539C87.5934 91.8488 87.2155 91.2209 86.749 90.9518L71.0113 81.8656C70.5449 81.5965 70.167 81.7876 70.167 82.2927Z" fill="#27DEBF"/>
<path d="M70.167 85.9513C70.167 86.4564 70.5449 87.0843 71.0113 87.3534L86.749 96.4396C87.2155 96.7087 87.5934 96.5176 87.5934 96.0126C87.5934 95.5075 87.2155 94.8796 86.749 94.6105L71.0113 85.5243C70.5449 85.2552 70.167 85.4463 70.167 85.9513Z" fill="#263238"/>
<path d="M71.0113 85.5242L79.6725 90.5248V92.3539L71.0113 87.3537C70.5449 87.0846 70.167 86.4567 70.167 85.9517C70.167 85.4466 70.5449 85.2551 71.0113 85.5242Z" fill="#27DEBF"/>
<path d="M69.4271 91.9265L88.3335 102.842C88.8 103.111 89.1779 103.766 89.1779 104.304L89.1775 111.501C89.1775 112.04 88.7996 112.258 88.3331 111.988L69.4275 101.073C68.9611 100.804 68.5832 100.149 68.5832 99.6107L68.5828 92.414C68.5828 91.8758 68.9607 91.6574 69.4271 91.9265Z" fill="#455A64"/>
<path d="M70.167 95.0976C70.167 95.6026 70.5449 96.2305 71.0113 96.4996L86.749 105.586C87.2155 105.855 87.5934 105.664 87.5934 105.159C87.5934 104.654 87.2155 104.026 86.749 103.757L71.0113 94.6705C70.5449 94.4014 70.167 94.5925 70.167 95.0976Z" fill="#27DEBF"/>
<path d="M70.167 98.7562C70.167 99.2612 70.5449 99.8891 71.0113 100.158L86.749 109.244C87.2155 109.513 87.5934 109.322 87.5934 108.817C87.5934 108.312 87.2155 107.684 86.749 107.415L71.0113 98.3287C70.5449 98.06 70.167 98.2511 70.167 98.7562Z" fill="#263238"/>
<path d="M71.0113 98.3291L82.8408 105.159V106.988L71.0113 100.159C70.5449 99.8895 70.167 99.2616 70.167 98.7566C70.167 98.2515 70.5449 98.06 71.0113 98.3291Z" fill="#27DEBF"/>
<path d="M96.3061 52.5708C97.1809 52.0638 97.8903 52.5256 97.8903 53.6024L97.8907 95.4381C97.8907 96.5149 97.1813 97.7991 96.3065 98.3065C95.4317 98.8139 94.7223 98.3518 94.7223 97.275L94.7219 55.4393C94.7215 54.3625 95.4309 53.0782 96.3061 52.5708Z" fill="#37474F"/>
<path d="M96.3062 97.3805C96.7437 97.1278 97.0982 96.4866 97.0982 95.948L97.0979 53.9953C97.0979 53.4567 96.7433 53.2251 96.3058 53.4778C95.8682 53.7301 95.5137 54.3717 95.5137 54.9103L95.5141 96.8629C95.5141 97.4011 95.869 97.6332 96.3062 97.3805Z" fill="#263238"/>
<path d="M96.3062 97.3806C96.7437 97.1278 97.0982 96.4867 97.0982 95.9481L97.0979 75.8904L95.5137 76.8049L95.5141 96.863C95.5141 97.4012 95.869 97.6333 96.3062 97.3806Z" fill="#27DEBF"/>
<path d="M101.059 49.8272C101.933 49.3202 102.643 49.7819 102.643 50.8587V92.6944C102.643 93.7716 101.933 95.0555 101.059 95.5629C100.184 96.0703 99.4745 95.6081 99.4745 94.5313L99.4741 52.6956C99.4745 51.6185 100.184 50.3342 101.059 49.8272Z" fill="#37474F"/>
<path d="M101.059 94.6368C101.496 94.3841 101.851 93.7429 101.851 93.2043L101.85 51.2517C101.85 50.7131 101.496 50.4814 101.058 50.7341C100.621 50.9868 100.266 51.628 100.266 52.1666L100.267 94.1193C100.267 94.6575 100.621 94.8891 101.059 94.6368Z" fill="#27DEBF"/>
<path d="M105.811 47.0835C106.686 46.5765 107.395 47.0383 107.395 48.1151V89.9508C107.395 91.0276 106.686 92.3118 105.811 92.8192C104.936 93.3266 104.227 92.8645 104.227 91.7877L104.227 49.952C104.227 48.8748 104.936 47.5905 105.811 47.0835Z" fill="#37474F"/>
<path d="M105.812 91.8929C106.249 91.6402 106.604 90.999 106.604 90.4604L106.603 48.5078C106.603 47.9692 106.249 47.7375 105.811 47.9902C105.374 48.2426 105.019 48.8841 105.019 49.4227L105.019 91.3754C105.019 91.914 105.374 92.1456 105.812 91.8929Z" fill="#263238"/>
<path d="M105.812 91.8928C106.249 91.6401 106.604 90.9989 106.604 90.4603L106.603 58.0544L105.019 58.969L105.019 91.3749C105.019 91.9139 105.374 92.1455 105.812 91.8928Z" fill="#27DEBF"/>
<path d="M110.564 44.3394C111.438 43.8324 112.148 44.2941 112.148 45.3709L112.148 87.2066C112.148 88.2838 111.439 89.5677 110.564 90.0751C109.689 90.5825 108.98 90.1203 108.98 89.0435L108.979 47.2078C108.979 46.131 109.689 44.8468 110.564 44.3394Z" fill="#37474F"/>
<path d="M110.564 89.1493C111.002 88.8965 111.356 88.2554 111.356 87.7168L111.356 45.7641C111.356 45.2255 111.001 44.9939 110.564 45.2466C110.126 45.4993 109.772 46.1405 109.772 46.679L109.772 88.6317C109.772 89.1699 110.127 89.402 110.564 89.1493Z" fill="#263238"/>
<path d="M110.564 89.1493C111.002 88.8966 111.356 88.2554 111.356 87.7168V80.636L109.772 81.5505L109.772 88.6314C109.772 89.17 110.126 89.402 110.564 89.1493Z" fill="#27DEBF"/>
<path d="M115.317 41.5957C116.192 41.0887 116.901 41.5505 116.901 42.6273V84.463C116.901 85.5398 116.192 86.824 115.317 87.3314C114.442 87.8388 113.733 87.3767 113.733 86.2999L113.732 44.4642C113.732 43.387 114.442 42.1027 115.317 41.5957Z" fill="#37474F"/>
<path d="M115.317 86.4056C115.754 86.1529 116.109 85.5117 116.109 84.9731L116.108 43.0205C116.108 42.4819 115.754 42.2502 115.316 42.5029C114.879 42.7553 114.524 43.3968 114.524 43.9354L114.525 85.8881C114.525 86.4263 114.879 86.6579 115.317 86.4056Z" fill="#263238"/>
<path d="M115.317 86.4055C115.754 86.1528 116.109 85.5116 116.109 84.973L116.108 63.0854L114.524 64L114.525 85.8876C114.525 86.4262 114.879 86.6578 115.317 86.4055Z" fill="#27DEBF"/>
<path d="M95.3974 103.397L116.225 91.372C116.599 91.1567 116.901 91.3311 116.901 91.762V99.3483C116.901 99.7793 116.599 100.303 116.225 100.518L95.3974 112.543C95.0242 112.758 94.7219 112.584 94.7219 112.153V104.567C94.7219 104.136 95.0246 103.612 95.3974 103.397Z" fill="#37474F"/>
<path d="M96.2539 105.646C96.2539 106.151 96.6322 106.343 97.0986 106.073L114.525 96.0092C114.991 95.7401 115.369 95.1122 115.369 94.6071C115.369 94.1021 114.991 93.911 114.525 94.1801L97.0979 104.244C96.6314 104.513 96.2535 105.141 96.2539 105.646Z" fill="#263238"/>
<path d="M96.2539 105.647C96.2539 106.152 96.6322 106.343 97.0983 106.074L109.772 98.7529L109.772 96.9238L97.0979 104.245C96.6314 104.514 96.2535 105.142 96.2539 105.647Z" fill="#27DEBF"/>
<path d="M96.2539 109.305C96.2539 109.81 96.6322 110.001 97.0986 109.732L114.525 99.6676C114.991 99.3985 115.369 98.7706 115.369 98.2656C115.369 97.7605 114.991 97.5694 114.525 97.8385L97.0979 107.903C96.6314 108.172 96.2535 108.8 96.2539 109.305Z" fill="#263238"/>
<path d="M118.432 32.4151L93.1897 17.8412C92.7233 17.5721 91.9675 17.5721 91.501 17.8412L66.2583 32.4151C65.7918 32.6842 65.7918 33.121 66.2583 33.3901L91.5014 47.964C91.9679 48.2331 92.7237 48.2331 93.1901 47.964L118.432 33.3901C118.899 33.1206 118.899 32.6842 118.432 32.4151Z" fill="#455A64"/>
<path d="M91.8389 44.5002L72.2573 33.1949C71.9777 33.0334 71.7507 32.6403 71.7507 32.3174V31.6579C71.7507 31.335 71.9777 30.9419 72.2573 30.7804L91.8385 19.4751C92.1181 19.3136 92.5721 19.3136 92.8517 19.4751L112.433 30.7804C112.713 30.9419 112.94 31.335 112.94 31.6579V32.317C112.94 32.6399 112.713 33.0331 112.433 33.1945L92.8521 44.4998C92.5724 44.6621 92.1189 44.6621 91.8389 44.5002Z" fill="#263238"/>
<path d="M72.2576 31.3659L91.8391 42.6712C92.1188 42.8327 92.5727 42.8327 92.8524 42.6712L112.433 31.3659C112.713 31.2044 112.713 30.9424 112.433 30.7809L92.852 19.866C92.5723 19.7045 92.1184 19.7045 91.8387 19.866L72.2576 30.7809C71.9776 30.9424 71.9776 31.2044 72.2576 31.3659Z" fill="#455A64"/>
<path d="M92.3466 42.7916V44.6207C92.1633 44.6207 91.98 44.5817 91.8396 44.4998L72.2577 33.1937C71.9769 33.0338 71.7507 32.6399 71.7507 32.3162V31.6571C71.7507 31.3724 71.9262 31.0331 72.1641 30.8459C71.9808 31.0058 72.012 31.2242 72.2577 31.3646L91.8396 42.6707C91.9796 42.7526 92.1633 42.7916 92.3466 42.7916Z" fill="#37474F"/>
<path d="M91.8388 39.0127L78.594 31.366C78.3144 31.2045 78.0874 30.8118 78.0874 30.4885V29.8294C78.0874 29.5065 78.3144 29.1134 78.594 28.9519L87.0859 24.0492C87.3655 23.8877 87.7485 23.5465 87.9411 23.2871L91.9968 17.824C92.1894 17.5647 92.5724 17.4851 92.852 17.6466L106.097 25.2929C106.376 25.4544 106.603 25.8475 106.603 26.1704L106.603 30.4885C106.603 30.8114 106.376 31.2045 106.096 31.366L92.852 39.0127C92.5724 39.1742 92.1188 39.1742 91.8388 39.0127Z" fill="#263238"/>
<path d="M92.852 37.1831L101.344 32.2804C101.478 32.2028 101.637 32.0831 101.787 31.9512C101.948 31.8093 102.099 31.6525 102.199 31.5179L106.255 26.0548C106.447 25.7955 106.377 25.4542 106.097 25.2928L92.852 17.6464C92.5724 17.485 92.1894 17.5641 91.9967 17.8239L87.9411 23.287C87.7485 23.5463 87.4357 23.9184 87.1561 24.0799L78.594 28.9517C78.3144 29.1132 78.3144 29.3753 78.594 29.5367L91.8384 37.1835C92.1188 37.3449 92.5724 37.3449 92.852 37.1831Z" fill="#455A64"/>
<path d="M106.097 25.2928L92.8528 17.6464C92.5732 17.485 92.1902 17.5641 91.9975 17.8235L87.9419 23.2866C87.8417 23.4216 87.6896 23.5764 87.5273 23.7183C87.5273 23.7183 101.782 31.954 101.787 31.9505C101.948 31.8085 102.1 31.6533 102.2 31.5183L106.255 26.0552C106.448 25.7955 106.377 25.4542 106.097 25.2928Z" fill="#37474F"/>
<path d="M81.808 29.086C82.136 28.8965 82.668 28.8965 82.9963 29.086C83.3243 29.2755 83.3243 29.5825 82.9963 29.772C82.6683 29.9616 82.1364 29.9616 81.808 29.772C81.48 29.5825 81.48 29.2752 81.808 29.086Z" fill="#27DEBF"/>
<path d="M84.1843 30.4576C84.5123 30.268 85.0442 30.268 85.3726 30.4576C85.7006 30.6471 85.7006 30.9541 85.3726 31.1436C85.0446 31.3331 84.5127 31.3331 84.1843 31.1436C83.8559 30.9541 83.8559 30.6471 84.1843 30.4576Z" fill="#27DEBF"/>
<path d="M86.5602 31.8297C86.8882 31.6401 87.4202 31.6401 87.7485 31.8297C88.0765 32.0192 88.0765 32.3261 87.7485 32.5157C87.4205 32.7052 86.8886 32.7052 86.5602 32.5157C86.2322 32.3261 86.2322 32.0192 86.5602 31.8297Z" fill="#263238"/>
<path d="M88.9364 33.2015C89.2644 33.0119 89.7964 33.0119 90.1248 33.2015C90.4527 33.391 90.4527 33.6979 90.1248 33.8875C89.7968 34.077 89.2648 34.077 88.9364 33.8875C88.6084 33.6979 88.6084 33.3906 88.9364 33.2015Z" fill="#263238"/>
<path d="M84.1843 28.8851C84.6482 28.8851 85.0244 28.6679 85.0244 28.4C85.0244 28.132 84.6482 27.9148 84.1843 27.9148C83.7203 27.9148 83.3442 28.132 83.3442 28.4C83.3442 28.6679 83.7203 28.8851 84.1843 28.8851Z" fill="#27DEBF"/>
<path d="M85.9662 29.4288C86.2942 29.2392 86.8262 29.2392 87.1545 29.4288C87.4825 29.6183 87.4825 29.9252 87.1545 30.1148C86.8266 30.3043 86.2946 30.3043 85.9662 30.1148C85.6382 29.9252 85.6382 29.6183 85.9662 29.4288Z" fill="#263238"/>
<path d="M88.9365 31.6288C89.4005 31.6288 89.7766 31.4116 89.7766 31.1436C89.7766 30.8757 89.4005 30.6584 88.9365 30.6584C88.4725 30.6584 88.0964 30.8757 88.0964 31.1436C88.0964 31.4116 88.4725 31.6288 88.9365 31.6288Z" fill="#27DEBF"/>
<path d="M90.7186 32.1724C91.0466 31.9829 91.5786 31.9829 91.907 32.1724C92.235 32.362 92.235 32.6689 91.907 32.8584C91.579 33.048 91.047 33.048 90.7186 32.8584C90.3907 32.6693 90.3907 32.362 90.7186 32.1724Z" fill="#263238"/>
<path d="M85.3723 27.0279C85.7003 26.8384 86.2322 26.8384 86.5606 27.0279C86.8886 27.2174 86.8886 27.5244 86.5606 27.7139C86.2326 27.9034 85.7006 27.9034 85.3723 27.7139C85.0439 27.5244 85.0439 27.217 85.3723 27.0279Z" fill="#263238"/>
<path d="M87.7485 28.4C88.0765 28.2104 88.6084 28.2104 88.9368 28.4C89.2648 28.5895 89.2648 28.8964 88.9368 29.086C88.6088 29.2755 88.0769 29.2755 87.7485 29.086C87.4201 28.8964 87.4201 28.5891 87.7485 28.4Z" fill="#27DEBF"/>
<path d="M90.1247 29.7715C90.4527 29.582 90.9847 29.582 91.313 29.7715C91.641 29.9611 91.641 30.268 91.313 30.4576C90.985 30.6471 90.4531 30.6471 90.1247 30.4576C89.7963 30.268 89.7963 29.9611 90.1247 29.7715Z" fill="#263238"/>
<path d="M91.3264 34.546C91.6544 34.3564 92.1863 34.3564 92.5143 34.546C92.8423 34.7355 92.8423 35.0424 92.5143 35.232C92.1863 35.4215 91.6544 35.4215 91.3264 35.232C90.998 35.0424 90.998 34.7355 91.3264 34.546Z" fill="#27DEBF"/>
<path d="M93.1083 33.5172C93.4363 33.3276 93.9682 33.3276 94.2962 33.5172C94.6242 33.7067 94.6242 34.0136 94.2962 34.2032C93.9682 34.3927 93.4363 34.3927 93.1083 34.2032C92.7803 34.0136 92.7803 33.7063 93.1083 33.5172Z" fill="#263238"/>
<path d="M92.5006 31.1446C92.8286 30.9551 93.3606 30.9551 93.689 31.1446C94.017 31.3341 94.017 31.6411 93.689 31.8306C93.361 32.0201 92.829 32.0201 92.5006 31.8306C92.1726 31.6411 92.1726 31.3337 92.5006 31.1446Z" fill="#263238"/>
<path d="M87.1542 25.9998C87.4822 25.8103 88.0141 25.8103 88.3425 25.9998C88.6705 26.1894 88.6705 26.4963 88.3425 26.6858C88.0145 26.8754 87.4826 26.8754 87.1542 26.6858C86.8262 26.4963 86.8262 26.1894 87.1542 25.9998Z" fill="#27DEBF"/>
<path d="M90.1245 28.1998C90.5884 28.1998 90.9645 27.9826 90.9645 27.7147C90.9645 27.4467 90.5884 27.2295 90.1245 27.2295C89.6605 27.2295 89.2844 27.4467 89.2844 27.7147C89.2844 27.9826 89.6605 28.1998 90.1245 28.1998Z" fill="#263238"/>
<path d="M91.9066 28.744C92.2346 28.5544 92.7666 28.5544 93.095 28.744C93.423 28.9335 93.423 29.2404 93.095 29.43C92.767 29.6195 92.235 29.6195 91.9066 29.43C91.5786 29.2404 91.5786 28.9331 91.9066 28.744Z" fill="#27DEBF"/>
<path d="M94.8769 30.944C95.3409 30.944 95.717 30.7267 95.717 30.4588C95.717 30.1908 95.3409 29.9736 94.8769 29.9736C94.413 29.9736 94.0369 30.1908 94.0369 30.4588C94.0369 30.7267 94.413 30.944 94.8769 30.944Z" fill="#263238"/>
<path d="M94.8906 32.4891C95.2186 32.2995 95.7505 32.2995 96.0789 32.4891C96.4069 32.6786 96.4069 32.9855 96.0789 33.1751C95.7509 33.3646 95.219 33.3646 94.8906 33.1751C94.5622 32.9855 94.5622 32.6786 94.8906 32.4891Z" fill="#27DEBF"/>
<path d="M96.6725 31.4603C97.0005 31.2707 97.5325 31.2707 97.8608 31.4603C98.1888 31.6498 98.1888 31.9567 97.8608 32.1463C97.5328 32.3358 97.0009 32.3358 96.6725 32.1463C96.3445 31.9567 96.3445 31.6494 96.6725 31.4603Z" fill="#263238"/>
<path d="M92.3738 37.3043V39.1295C92.1827 39.1334 91.9877 39.0983 91.8395 39.0125L78.5951 31.3646C78.3143 31.2047 78.0881 30.8108 78.0881 30.4871V29.828C78.0881 29.5433 78.2636 29.204 78.5015 29.0168C78.3182 29.1767 78.3494 29.3951 78.5951 29.5355L91.8395 37.1834C91.9873 37.2692 92.1823 37.3082 92.3738 37.3043Z" fill="#37474F"/>
<path d="M89.6929 23.0582L89.7046 23.0422C89.8326 22.869 90.0876 22.816 90.2741 22.9236L101.8 29.5782C101.986 29.6858 102.033 29.9132 101.904 30.086L101.892 30.102C101.763 30.2747 101.508 30.3274 101.321 30.2198L89.7983 23.5667C89.6126 23.4595 89.565 23.2317 89.6929 23.0582Z" fill="#263238"/>
<path d="M89.6929 23.0582L89.7046 23.0422C89.8325 22.869 90.0876 22.816 90.274 22.9236L98.8431 27.8708L98.365 28.5123L89.799 23.5667C89.6126 23.4595 89.565 23.2317 89.6929 23.0582Z" fill="#27DEBF"/>
<path d="M90.6458 21.7794L90.6575 21.7634C90.7855 21.5902 91.0405 21.5372 91.2269 21.6448L102.753 28.2994C102.939 28.407 102.986 28.6344 102.857 28.8072L102.845 28.8232C102.716 28.9959 102.46 29.0486 102.274 28.9409L90.7511 22.2879C90.5655 22.1807 90.5179 21.9529 90.6458 21.7794Z" fill="#263238"/>
<path d="M90.6458 21.7794L90.6575 21.7634C90.7854 21.5902 91.0405 21.5372 91.2269 21.6448L94.0918 23.2984L93.6137 23.94L90.7519 22.2883C90.5654 22.1803 90.5179 21.9529 90.6458 21.7794Z" fill="#27DEBF"/>
<path d="M91.599 20.5006L91.6107 20.4846C91.7386 20.3114 91.9936 20.2584 92.1801 20.366L103.706 27.0206C103.892 27.1282 103.939 27.3556 103.81 27.5284L103.798 27.5444C103.669 27.7171 103.414 27.7698 103.227 27.6621L91.7047 21.0095C91.5182 20.9015 91.4707 20.6737 91.599 20.5006Z" fill="#263238"/>
<path d="M91.5989 20.5006L91.6106 20.4846C91.7385 20.3114 91.9936 20.258 92.1804 20.3657L98.1837 23.8211L97.7055 24.4626L91.7054 21.0092C91.5182 20.9015 91.4706 20.6738 91.5989 20.5006Z" fill="#27DEBF"/>
<path d="M92.5517 19.2218L92.5634 19.2058C92.6913 19.0326 92.9464 18.9796 93.1328 19.0872L104.658 25.7418C104.845 25.8494 104.892 26.0768 104.763 26.2496L104.751 26.2655C104.622 26.4383 104.367 26.491 104.18 26.3833L92.657 19.7303C92.471 19.6227 92.4238 19.3949 92.5517 19.2218Z" fill="#263238"/>
<path d="M92.5517 19.2218L92.5634 19.2058C92.6913 19.0326 92.9463 18.9796 93.1328 19.0872L103.595 25.1275L103.117 25.7691L92.6577 19.7307C92.4709 19.6227 92.4237 19.3949 92.5517 19.2218Z" fill="#27DEBF"/>
<path d="M45.5595 44.3615L20.3168 58.9354C19.8503 59.2045 19.4724 59.8593 19.4724 60.3979V129.789C19.4724 130.328 19.8503 130.983 20.3168 131.252L45.5599 145.826C46.0263 146.095 46.7822 146.095 47.2486 145.826L72.4906 131.252C72.957 130.983 73.3349 130.328 73.3349 129.789V60.3979C73.3349 59.8593 72.957 59.2045 72.4906 58.9354L47.2482 44.3615C46.7822 44.0924 46.026 44.0924 45.5595 44.3615Z" fill="#37474F"/>
<path d="M73.334 60.3965V129.789C73.334 130.327 72.9557 130.983 72.4916 131.252L47.2469 145.826C47.0168 145.962 46.7087 146.029 46.4045 146.029V74.6861C46.7087 74.6861 47.0129 74.6159 47.2469 74.4833L72.4916 59.909L72.7217 59.7179L73.022 59.4683C73.2131 59.7569 73.334 60.0923 73.334 60.3965Z" fill="#263238"/>
<path d="M23.4851 67.2273L42.3911 78.1426C42.8575 78.4117 43.2355 79.0665 43.2355 79.6051L43.2351 86.8018C43.2351 87.3403 42.8572 87.5584 42.3907 87.2893L23.4855 76.3739C23.019 76.1048 22.6411 75.45 22.6411 74.9114V67.7148C22.6407 67.1766 23.0186 66.9582 23.4851 67.2273Z" fill="#455A64"/>
<path d="M24.2249 70.3984C24.2249 70.9034 24.6028 71.5313 25.0692 71.8004L40.8069 80.8862C41.2733 81.1553 41.6512 80.9642 41.6512 80.4592C41.6512 79.9541 41.2733 79.3263 40.8069 79.0572L25.0692 69.9713C24.6028 69.7022 24.2249 69.8933 24.2249 70.3984Z" fill="#27DEBF"/>
<path d="M24.2249 74.0571C24.2249 74.5621 24.6028 75.19 25.0692 75.4591L40.8069 84.5453C41.2733 84.8144 41.6512 84.6233 41.6512 84.1183C41.6512 83.6132 41.2733 82.9853 40.8069 82.7162L25.0692 73.63C24.6028 73.3609 24.2249 73.552 24.2249 74.0571Z" fill="#263238"/>
<path d="M25.0692 73.63L33.7303 78.6306V80.4597L25.0692 75.4595C24.6028 75.1904 24.2249 74.5625 24.2249 74.0574C24.2249 73.552 24.6028 73.3609 25.0692 73.63Z" fill="#27DEBF"/>
<path d="M23.4852 80.032L42.3912 90.9473C42.8577 91.2164 43.2356 91.8712 43.2356 92.4098L43.2352 99.6064C43.2352 100.145 42.8573 100.363 42.3909 100.094L23.4852 89.1786C23.0188 88.9095 22.6409 88.2547 22.6409 87.7161V80.5195C22.6409 79.9813 23.0188 79.7629 23.4852 80.032Z" fill="#455A64"/>
<path d="M24.2251 83.2034C24.2251 83.7085 24.603 84.3364 25.0694 84.6055L40.8071 93.6917C41.2736 93.9608 41.6515 93.7697 41.6515 93.2647C41.6515 92.7596 41.2736 92.1317 40.8071 91.8626L25.0694 82.776C24.603 82.5069 24.2251 82.698 24.2251 83.2034Z" fill="#27DEBF"/>
<path d="M24.2251 86.8621C24.2251 87.3672 24.603 87.9951 25.0694 88.2642L40.8071 97.3504C41.2736 97.6195 41.6515 97.4284 41.6515 96.9233C41.6515 96.4183 41.2736 95.7904 40.8071 95.5213L25.0694 86.4347C24.603 86.1656 24.2251 86.3567 24.2251 86.8621Z" fill="#263238"/>
<path d="M25.0694 86.4347L38.4831 94.1789V96.008L25.0694 88.2642C24.603 87.9951 24.2251 87.3672 24.2251 86.8621C24.2251 86.3567 24.603 86.1656 25.0694 86.4347Z" fill="#27DEBF"/>
<path d="M23.4852 92.8374L42.3912 103.753C42.8577 104.022 43.2356 104.677 43.2356 105.215L43.2352 112.412C43.2352 112.95 42.8573 113.168 42.3909 112.899L23.4852 101.984C23.0188 101.715 22.6409 101.06 22.6409 100.522V93.3249C22.6409 92.7863 23.0188 92.5679 23.4852 92.8374Z" fill="#455A64"/>
<path d="M24.2251 96.0084C24.2251 96.5134 24.603 97.1413 25.0694 97.4104L40.8071 106.496C41.2736 106.765 41.6515 106.574 41.6515 106.069C41.6515 105.564 41.2736 104.936 40.8071 104.667L25.0694 95.5809C24.603 95.3118 24.2251 95.5029 24.2251 96.0084Z" fill="#27DEBF"/>
<path d="M24.2251 99.6671C24.2251 100.172 24.603 100.8 25.0694 101.069L40.8071 110.155C41.2736 110.424 41.6515 110.233 41.6515 109.728C41.6515 109.223 41.2736 108.595 40.8071 108.326L25.0694 99.2396C24.603 98.9705 24.2251 99.1616 24.2251 99.6671Z" fill="#263238"/>
<path d="M25.0694 99.2396L30.5618 102.411V104.24L25.0694 101.069C24.603 100.8 24.2251 100.172 24.2251 99.6671C24.2251 99.1616 24.603 98.9705 25.0694 99.2396Z" fill="#27DEBF"/>
<path d="M50.3644 79.0913C51.2391 78.5839 51.9485 79.046 51.9485 80.1228V121.959C51.9485 123.035 51.2391 124.32 50.3644 124.827C49.4896 125.334 48.7802 124.872 48.7802 123.795L48.7798 81.9597C48.7802 80.8825 49.4892 79.5983 50.3644 79.0913Z" fill="#37474F"/>
<path d="M50.3644 123.901C50.8019 123.648 51.1564 123.007 51.1564 122.468V80.5156C51.1564 79.977 50.8019 79.7453 50.3644 79.998C49.9268 80.2508 49.5723 80.8919 49.5723 81.4305L49.5727 123.383C49.5723 123.922 49.9272 124.153 50.3644 123.901Z" fill="#263238"/>
<path d="M50.3643 123.901C50.8018 123.648 51.1563 123.007 51.1563 122.468L51.156 102.411L49.5718 103.325L49.5722 123.383C49.5722 123.922 49.9271 124.154 50.3643 123.901Z" fill="#27DEBF"/>
<path d="M55.1168 76.3474C55.9916 75.84 56.701 76.3021 56.701 77.3789V119.215C56.701 120.291 55.9916 121.576 55.1168 122.083C54.242 122.59 53.5326 122.128 53.5326 121.052L53.5322 79.2158C53.5326 78.139 54.242 76.8548 55.1168 76.3474Z" fill="#37474F"/>
<path d="M55.1172 121.157C55.5548 120.904 55.9093 120.263 55.9093 119.725L55.9089 77.7719C55.9089 77.2333 55.5544 77.0017 55.1168 77.2544C54.6792 77.5071 54.3247 78.1483 54.3247 78.6869L54.3251 120.64C54.3251 121.178 54.6796 121.41 55.1172 121.157Z" fill="#27DEBF"/>
<path d="M59.8695 73.6036C60.7443 73.0966 61.4537 73.5583 61.4537 74.6351V116.471C61.4537 117.548 60.7443 118.832 59.8695 119.339C58.9947 119.847 58.2853 119.384 58.2853 118.308L58.2849 76.472C58.2853 75.3948 58.9947 74.1106 59.8695 73.6036Z" fill="#37474F"/>
<path d="M59.8699 118.413C60.3075 118.161 60.662 117.52 60.662 116.981L60.6616 75.0283C60.6616 74.4897 60.3071 74.258 59.8695 74.5107C59.4319 74.7635 59.0774 75.4046 59.0774 75.9432L59.0778 117.896C59.0778 118.434 59.4323 118.666 59.8699 118.413Z" fill="#263238"/>
<path d="M59.8699 118.414C60.3075 118.161 60.662 117.52 60.662 116.981L60.6616 84.5752L59.0774 85.4897L59.0778 117.896C59.0778 118.434 59.4323 118.666 59.8699 118.414Z" fill="#27DEBF"/>
<path d="M64.6224 70.8601C65.4972 70.3527 66.2066 70.8148 66.2066 71.8916V113.727C66.2066 114.804 65.4972 116.088 64.6224 116.596C63.7476 117.103 63.0382 116.641 63.0382 115.564L63.0378 73.7285C63.0378 72.6513 63.7473 71.3671 64.6224 70.8601Z" fill="#37474F"/>
<path d="M64.6224 115.669C65.06 115.417 65.4145 114.775 65.4145 114.237V72.2841C65.4145 71.7455 65.06 71.5139 64.6224 71.7666C64.1848 72.0193 63.8303 72.6605 63.8303 73.1991L63.8307 115.152C63.8303 115.69 64.1852 115.922 64.6224 115.669Z" fill="#263238"/>
<path d="M69.3749 68.1159C70.2496 67.6085 70.959 68.0707 70.959 69.1475V110.983C70.959 112.06 70.2496 113.344 69.3749 113.852C68.5001 114.359 67.7907 113.897 67.7907 112.82L67.7903 70.9844C67.7907 69.9076 68.5001 68.6233 69.3749 68.1159Z" fill="#37474F"/>
<path d="M69.3752 112.926C69.8128 112.673 70.1673 112.032 70.1673 111.493L70.1669 69.5405C70.1669 69.0019 69.8124 68.7702 69.3749 69.0229C68.9373 69.2757 68.5828 69.9168 68.5828 70.4554L68.5832 112.408C68.5832 112.946 68.9377 113.178 69.3752 112.926Z" fill="#263238"/>
<path d="M69.3752 112.926C69.8128 112.673 70.1673 112.032 70.1673 111.493L70.1669 89.6057L68.5828 90.5203L68.5832 112.408C68.5832 112.946 68.9377 113.178 69.3752 112.926Z" fill="#27DEBF"/>
<path d="M72.4906 58.9354L47.2478 44.3615C46.7814 44.0924 46.0256 44.0924 45.5591 44.3615L20.3164 58.9354C19.8499 59.2045 19.8499 59.6413 20.3164 59.9104L45.5595 74.4843C46.026 74.7534 46.7818 74.7534 47.2482 74.4843L72.4902 59.9104C72.957 59.6413 72.957 59.2045 72.4906 58.9354Z" fill="#455A64"/>
<path d="M45.8974 71.0207L26.3159 59.7154C26.0363 59.554 25.8093 59.1608 25.8093 58.8379V58.1784C25.8093 57.8555 26.0359 57.4624 26.3159 57.3009L45.8971 45.9956C46.1767 45.8341 46.6306 45.8341 46.9103 45.9956L66.4918 57.3009C66.7714 57.4624 66.9984 57.8555 66.9984 58.1784V58.8375C66.9984 59.1604 66.7714 59.5536 66.4918 59.715L46.9107 71.0203C46.6306 71.1822 46.1771 71.1822 45.8974 71.0207Z" fill="#263238"/>
<path d="M26.3157 57.8859L45.8972 69.1912C46.1769 69.3527 46.6308 69.3527 46.9105 69.1912L66.4916 57.8859C66.7712 57.7245 66.7712 57.4624 66.4916 57.3009L46.9101 46.386C46.6304 46.2245 46.1765 46.2245 45.8968 46.386L26.3157 57.3009C26.0357 57.4624 26.0357 57.7245 26.3157 57.8859Z" fill="#455A64"/>
<path d="M46.4047 69.3117V71.1408C46.2214 71.1408 46.0381 71.1018 45.8977 71.0199L26.3158 59.7138C26.035 59.5539 25.8088 59.16 25.8088 58.8363V58.1772C25.8088 57.8925 25.9843 57.5532 26.2222 57.366C26.0389 57.5259 26.0701 57.7443 26.3158 57.8847L45.8977 69.1908C46.0381 69.2727 46.2214 69.3117 46.4047 69.3117Z" fill="#37474F"/>
<path d="M45.8971 65.5326L32.6524 57.8859C32.3727 57.7244 32.1458 57.3313 32.1458 57.0084V56.3493C32.1458 56.0264 32.3727 55.6333 32.6524 55.4718L41.1442 50.5691C41.4239 50.4077 41.8068 50.0664 41.9995 49.8071L46.0551 44.3439C46.2478 44.0846 46.6307 44.005 46.9104 44.1669L60.1552 51.8132C60.4348 51.9747 60.6618 52.3678 60.6618 52.6907L60.6614 57.0088C60.6614 57.3317 60.4344 57.7248 60.1548 57.8863L46.9104 65.533C46.6303 65.6945 46.1768 65.6945 45.8971 65.5326Z" fill="#263238"/>
<path d="M46.9104 63.7036L55.4022 58.8009C55.5368 58.7233 55.6955 58.6036 55.8453 58.4718C56.0067 58.3298 56.1576 58.173 56.2575 58.0385L60.3131 52.5753C60.5058 52.316 60.4352 51.9747 60.1552 51.8133L46.9104 44.1669C46.6307 44.0055 46.2477 44.0847 46.0551 44.344L41.9995 49.8071C41.8068 50.0665 41.494 50.4385 41.2144 50.6L32.6523 55.4719C32.3727 55.6333 32.3727 55.8954 32.6523 56.0569L45.8967 63.7036C46.1768 63.8651 46.6303 63.8651 46.9104 63.7036Z" fill="#455A64"/>
<path d="M60.1551 51.8128L46.9107 44.1665C46.6306 44.005 46.2477 44.0842 46.0554 44.3435L41.9998 49.8066C41.8995 49.9416 41.7474 50.0964 41.5852 50.238C41.5852 50.238 55.8401 58.4736 55.8444 58.4701C56.0058 58.3281 56.1576 58.1729 56.2574 58.038L60.313 52.5749C60.5057 52.3159 60.4347 51.9746 60.1551 51.8128Z" fill="#37474F"/>
<path d="M35.8659 55.606C36.1939 55.4165 36.7258 55.4165 37.0542 55.606C37.3822 55.7956 37.3822 56.1025 37.0542 56.292C36.7262 56.4816 36.1942 56.4816 35.8659 56.292C35.5379 56.1025 35.5379 55.7956 35.8659 55.606Z" fill="#27DEBF"/>
<path d="M38.2421 56.9781C38.5701 56.7886 39.102 56.7886 39.4304 56.9781C39.7588 57.1676 39.7584 57.4746 39.4304 57.6641C39.1024 57.8536 38.5705 57.8536 38.2421 57.6641C37.9141 57.4746 37.9141 57.1672 38.2421 56.9781Z" fill="#27DEBF"/>
<path d="M40.6184 58.3497C40.9463 58.1601 41.4783 58.1601 41.8067 58.3497C42.1347 58.5392 42.1347 58.8461 41.8067 59.0357C41.4787 59.2252 40.9467 59.2252 40.6184 59.0357C40.29 58.8461 40.29 58.5392 40.6184 58.3497Z" fill="#263238"/>
<path d="M42.9946 59.7217C43.3226 59.5322 43.8545 59.5322 44.1829 59.7217C44.5113 59.9113 44.5109 60.2182 44.1829 60.4078C43.8549 60.5973 43.323 60.5973 42.9946 60.4078C42.6662 60.2182 42.6662 59.9113 42.9946 59.7217Z" fill="#263238"/>
<path d="M37.6481 54.5772C37.9761 54.3877 38.5081 54.3877 38.8365 54.5772C39.1649 54.7668 39.1645 55.0737 38.8365 55.2632C38.5085 55.4528 37.9765 55.4528 37.6481 55.2632C37.3198 55.0737 37.3198 54.7664 37.6481 54.5772Z" fill="#27DEBF"/>
<path d="M40.6184 56.7772C41.0823 56.7772 41.4584 56.56 41.4584 56.292C41.4584 56.0241 41.0823 55.8069 40.6184 55.8069C40.1544 55.8069 39.7783 56.0241 39.7783 56.292C39.7783 56.56 40.1544 56.7772 40.6184 56.7772Z" fill="#263238"/>
<path d="M42.4003 57.3209C42.7283 57.1313 43.2602 57.1313 43.5886 57.3209C43.917 57.5104 43.9166 57.8173 43.5886 58.0069C43.2606 58.1964 42.7287 58.1964 42.4003 58.0069C42.0723 57.8173 42.0723 57.5104 42.4003 57.3209Z" fill="#27DEBF"/>
<path d="M45.3706 59.5209C45.8345 59.5209 46.2106 59.3036 46.2106 59.0357C46.2106 58.7678 45.8345 58.5505 45.3706 58.5505C44.9066 58.5505 44.5305 58.7678 44.5305 59.0357C44.5305 59.3036 44.9066 59.5209 45.3706 59.5209Z" fill="#263238"/>
<path d="M39.4301 53.5479C39.7581 53.3584 40.29 53.3584 40.618 53.5479C40.946 53.7375 40.946 54.0444 40.618 54.2339C40.29 54.4235 39.7581 54.4235 39.4301 54.2339C39.1021 54.0444 39.1021 53.7375 39.4301 53.5479Z" fill="#263238"/>
<path d="M41.8064 54.92C42.1344 54.7304 42.6664 54.7304 42.9948 54.92C43.3228 55.1095 43.3228 55.4165 42.9948 55.606C42.6668 55.7955 42.1348 55.7955 41.8064 55.606C41.4781 55.4165 41.4785 55.1095 41.8064 54.92Z" fill="#27DEBF"/>
<path d="M44.1825 56.2921C44.5105 56.1025 45.0425 56.1025 45.3705 56.2921C45.6984 56.4816 45.6984 56.7885 45.3705 56.9781C45.0425 57.1676 44.5105 57.1676 44.1825 56.9781C43.8545 56.7885 43.8545 56.4812 44.1825 56.2921Z" fill="#263238"/>
<path d="M45.3842 61.066C45.7122 60.8764 46.2441 60.8764 46.5725 61.066C46.9005 61.2555 46.9005 61.5625 46.5725 61.752C46.2445 61.9415 45.7126 61.9415 45.3842 61.752C45.0562 61.5628 45.0562 61.2555 45.3842 61.066Z" fill="#27DEBF"/>
<path d="M47.1662 60.0372C47.4941 59.8476 48.0261 59.8476 48.3545 60.0372C48.6829 60.2267 48.6825 60.5336 48.3545 60.7232C48.0265 60.9127 47.4945 60.9127 47.1662 60.7232C46.8382 60.5336 46.8382 60.2267 47.1662 60.0372Z" fill="#263238"/>
<path d="M46.5588 57.6649C46.8868 57.4753 47.4187 57.4753 47.7471 57.6649C48.0751 57.8544 48.0751 58.1613 47.7471 58.3509C47.4191 58.5404 46.8872 58.5404 46.5588 58.3509C46.2304 58.1613 46.2304 57.8544 46.5588 57.6649Z" fill="#263238"/>
<path d="M41.8064 53.3482C42.2703 53.3482 42.6464 53.131 42.6464 52.8631C42.6464 52.5951 42.2703 52.3779 41.8064 52.3779C41.3424 52.3779 40.9663 52.5951 40.9663 52.8631C40.9663 53.131 41.3424 53.3482 41.8064 53.3482Z" fill="#27DEBF"/>
<path d="M43.5883 53.8919C43.9163 53.7024 44.4482 53.7024 44.7766 53.8919C45.1046 54.0815 45.1046 54.3884 44.7766 54.5779C44.4486 54.7675 43.9167 54.7675 43.5883 54.5779C43.2603 54.3888 43.2603 54.0815 43.5883 53.8919Z" fill="#263238"/>
<path d="M46.5588 56.0919C47.0228 56.0919 47.3989 55.8747 47.3989 55.6067C47.3989 55.3388 47.0228 55.1216 46.5588 55.1216C46.0949 55.1216 45.7188 55.3388 45.7188 55.6067C45.7188 55.8747 46.0949 56.0919 46.5588 56.0919Z" fill="#27DEBF"/>
<path d="M48.3407 56.6361C48.6687 56.4465 49.2007 56.4465 49.5291 56.6361C49.857 56.8256 49.857 57.1325 49.5291 57.3221C49.2011 57.5116 48.6691 57.5116 48.3407 57.3221C48.0127 57.1325 48.0127 56.8252 48.3407 56.6361Z" fill="#263238"/>
<path d="M48.9484 59.0091C49.2764 58.8196 49.8083 58.8196 50.1367 59.0091C50.4647 59.1986 50.4647 59.5056 50.1367 59.6951C49.8087 59.8846 49.2768 59.8846 48.9484 59.6951C48.6204 59.506 48.6204 59.1986 48.9484 59.0091Z" fill="#27DEBF"/>
<path d="M51.3247 58.8087C51.7886 58.8087 52.1647 58.5915 52.1647 58.3235C52.1647 58.0556 51.7886 57.8384 51.3247 57.8384C50.8607 57.8384 50.4846 58.0556 50.4846 58.3235C50.4846 58.5915 50.8607 58.8087 51.3247 58.8087Z" fill="#263238"/>
<path d="M46.4319 63.8244V65.6496C46.2408 65.6535 46.0458 65.6184 45.8976 65.5326L32.6532 57.8847C32.3724 57.7248 32.1462 57.3309 32.1462 57.0072V56.3481C32.1462 56.0634 32.3217 55.7241 32.5596 55.5369C32.3763 55.6968 32.4075 55.9152 32.6532 56.0556L45.8976 63.7035C46.0458 63.7893 46.2408 63.8283 46.4319 63.8244Z" fill="#37474F"/>
<path d="M43.7513 49.5784L43.763 49.5625C43.891 49.3893 44.146 49.3363 44.3324 49.4439L55.8581 56.0985C56.0445 56.2061 56.0913 56.4335 55.9626 56.6062L55.9505 56.6222C55.8218 56.795 55.566 56.8477 55.3796 56.74L43.8566 50.087C43.6706 49.9794 43.623 49.7516 43.7513 49.5784Z" fill="#263238"/>
<path d="M43.7513 49.5784L43.763 49.5625C43.8909 49.3893 44.146 49.3363 44.3324 49.4439L52.9015 54.391L52.4233 55.0326L43.8574 50.087C43.6706 49.9794 43.623 49.7516 43.7513 49.5784Z" fill="#27DEBF"/>
<path d="M44.704 48.2996L44.7157 48.2836C44.8437 48.1105 45.0987 48.0574 45.2851 48.1651L56.8108 54.8197C56.9972 54.9273 57.0444 55.1547 56.9153 55.3274L56.9032 55.3434C56.7745 55.5162 56.5191 55.5688 56.3323 55.4612L44.8093 48.8082C44.6233 48.7006 44.5761 48.4728 44.704 48.2996Z" fill="#263238"/>
<path d="M44.704 48.2996L44.7157 48.2836C44.8436 48.1105 45.0987 48.0574 45.2851 48.1651L48.15 49.8183L47.6719 50.4598L44.8101 48.8082C44.6233 48.7006 44.5761 48.4728 44.704 48.2996Z" fill="#27DEBF"/>
<path d="M45.6569 47.0208L45.6686 47.0048C45.7965 46.8317 46.0516 46.7786 46.238 46.8863L57.7637 53.5408C57.9501 53.6485 57.9969 53.8759 57.8682 54.0486L57.8561 54.0646C57.7274 54.2374 57.4719 54.29 57.2851 54.1824L45.7626 47.5294C45.5762 47.4217 45.529 47.194 45.6569 47.0208Z" fill="#263238"/>
<path d="M45.6568 47.0209L45.6685 47.0049C45.7964 46.8317 46.0514 46.7783 46.2382 46.8859L52.2415 50.3409L51.7634 50.9825L45.7632 47.529C45.5764 47.4214 45.5288 47.194 45.6568 47.0209Z" fill="#27DEBF"/>
<path d="M46.6096 45.742L46.6213 45.726C46.7492 45.5529 47.0042 45.4998 47.1907 45.6075L58.7163 52.262C58.9027 52.3697 58.9495 52.5971 58.8208 52.7698L58.8088 52.7858C58.6801 52.9586 58.4246 53.0112 58.2378 52.9036L46.7149 46.2506C46.5288 46.1429 46.4816 45.9152 46.6096 45.742Z" fill="#263238"/>
<path d="M46.6098 45.742L46.6215 45.726C46.7494 45.5529 47.0044 45.4998 47.1909 45.6075L57.6534 51.6478L57.1753 52.2893L46.7158 46.2506C46.529 46.1429 46.4818 45.9152 46.6098 45.742Z" fill="#27DEBF"/>
<path d="M140.817 95.9581V117.317C140.817 117.479 140.93 117.675 141.07 117.756L162.352 130.033C162.492 130.114 162.719 130.114 162.859 130.033L163.54 129.64C163.68 129.559 163.794 129.362 163.794 129.201V107.842C163.794 107.68 163.662 107.549 163.501 107.549L141.11 95.666C140.948 95.6656 140.817 95.7967 140.817 95.9581Z" fill="#E0E0E0"/>
<path d="M98.0476 119.762V119.56C98.0476 119.238 98.2746 118.844 98.5542 118.683L141.502 93.8867C141.782 93.7253 142.236 93.7253 142.515 93.8867L165.265 107.021C165.545 107.183 165.772 107.576 165.772 107.899V108.101C165.772 108.424 165.545 108.817 165.265 108.978L122.317 133.774C122.038 133.936 121.584 133.936 121.304 133.774L98.5542 120.64C98.2746 120.478 98.0476 120.086 98.0476 119.762Z" fill="#F5F5F5"/>
<path d="M98.5542 119.268L121.304 132.403C121.584 132.564 122.038 132.564 122.317 132.403L165.265 107.607C165.545 107.445 165.545 107.183 165.265 107.022L142.515 93.8872C142.236 93.7257 141.782 93.7257 141.502 93.8872L98.5542 118.683C98.2746 118.845 98.2746 119.107 98.5542 119.268Z" fill="#FAFAFA"/>
<path d="M135.22 110.098L148.082 102.658C148.312 102.525 148.684 102.525 148.914 102.658L152.986 105.036C153.216 105.169 153.216 105.384 152.986 105.516L140.125 112.957C139.895 113.09 139.522 113.09 139.292 112.957L135.22 110.579C134.991 110.446 134.991 110.231 135.22 110.098Z" fill="#EBEBEB"/>
<path d="M137.501 105.483L137.489 105.476L136.126 104.688C135.94 104.581 135.94 104.405 136.126 104.298L146.814 98.126C147 98.0184 147 97.8437 146.814 97.736L146.705 97.6733C146.518 97.5656 146.216 97.5656 146.029 97.6733L135.643 103.67C135.457 103.777 135.284 103.787 135.278 103.688C135.275 103.627 135.278 103.568 135.289 103.51L135.878 100.461C135.919 100.25 135.801 99.9918 135.614 99.8849L135.507 99.8237C135.32 99.7169 135.136 99.8015 135.095 100.013L134.416 103.553C134.391 103.679 134.391 103.813 134.41 103.946C134.441 104.159 134.365 104.408 134.178 104.516L127.695 108.259C127.508 108.366 127.508 108.541 127.695 108.649L127.805 108.713C127.992 108.82 128.294 108.82 128.481 108.713L134.676 105.135C134.863 105.027 135.026 104.948 135.04 104.958C135.049 104.965 135.058 104.971 135.067 104.976L137.174 106.193C137.36 106.301 137.663 106.302 137.85 106.194C138.774 105.663 141.334 104.188 142.258 103.656C142.445 103.548 142.506 103.411 142.395 103.348C142.284 103.285 142.036 103.31 141.842 103.404L137.864 105.319C137.67 105.413 137.507 105.486 137.501 105.483Z" fill="#EBEBEB"/>
<path d="M148.86 101.673L152.712 103.897C152.942 104.03 153.128 104.339 153.128 104.588C153.128 104.837 152.942 105.146 152.712 105.279L140.271 112.462C140.041 112.595 139.668 112.595 139.438 112.462L135.586 110.238C135.356 110.105 135.17 109.796 135.17 109.547C135.17 109.298 135.356 108.988 135.586 108.856L148.027 101.673C148.258 101.54 148.63 101.54 148.86 101.673Z" fill="#37474F"/>
<path d="M135.584 108.855L148.025 101.672C148.255 101.54 148.628 101.54 148.857 101.672L152.71 103.896C152.94 104.029 152.94 104.244 152.71 104.377L140.269 111.56C140.039 111.692 139.666 111.692 139.436 111.56L135.584 109.336C135.354 109.203 135.354 108.988 135.584 108.855Z" fill="#455A64"/>
<path d="M146.956 104.987L147.348 104.76C147.364 104.751 147.363 104.735 147.345 104.724L146.893 104.462C146.875 104.452 146.847 104.451 146.83 104.461L146.438 104.687C146.421 104.697 146.423 104.713 146.441 104.723L146.893 104.985C146.911 104.996 146.939 104.996 146.956 104.987ZM146.183 104.088L145.792 104.314C145.775 104.324 145.776 104.34 145.794 104.35L146.247 104.612C146.265 104.622 146.293 104.623 146.309 104.613L146.701 104.387C146.717 104.377 146.716 104.361 146.698 104.351L146.246 104.09C146.228 104.079 146.2 104.078 146.183 104.088ZM144.918 104.818L144.255 105.201C144.238 105.211 144.239 105.227 144.257 105.237L144.71 105.499C144.728 105.509 144.756 105.51 144.772 105.5L145.435 105.117C145.452 105.107 145.451 105.091 145.433 105.081L144.98 104.819C144.962 104.809 144.934 104.809 144.918 104.818ZM145.611 104.418L145.219 104.645C145.202 104.654 145.203 104.67 145.221 104.68L145.674 104.942C145.692 104.952 145.72 104.953 145.736 104.943L146.128 104.717C146.145 104.707 146.143 104.691 146.125 104.681L145.673 104.419C145.655 104.409 145.627 104.409 145.611 104.418ZM144.074 105.306L143.682 105.532C143.665 105.542 143.666 105.558 143.684 105.568L144.137 105.829C144.155 105.839 144.183 105.84 144.2 105.83L144.592 105.604C144.608 105.595 144.607 105.579 144.589 105.568L144.136 105.307C144.118 105.297 144.09 105.296 144.074 105.306ZM143.501 105.636L143.11 105.862C143.093 105.872 143.094 105.888 143.112 105.898L143.565 106.16C143.583 106.17 143.61 106.171 143.627 106.161L144.019 105.935C144.035 105.925 144.034 105.909 144.016 105.899L143.564 105.637C143.546 105.627 143.518 105.627 143.501 105.636ZM145.283 106.7L145.675 106.474C145.691 106.464 145.69 106.448 145.672 106.438L145.219 106.176C145.202 106.166 145.173 106.165 145.157 106.175L144.765 106.401C144.749 106.411 144.75 106.427 144.768 106.437L145.221 106.699C145.238 106.709 145.266 106.709 145.283 106.7ZM144.711 107.03L145.102 106.804C145.119 106.794 145.118 106.778 145.1 106.768L144.647 106.506C144.629 106.496 144.601 106.495 144.585 106.505L144.193 106.731C144.176 106.741 144.177 106.757 144.195 106.767L144.648 107.029C144.666 107.039 144.694 107.04 144.711 107.03ZM144.138 107.361L144.53 107.135C144.546 107.125 144.545 107.109 144.527 107.099L144.074 106.837C144.056 106.827 144.028 106.826 144.012 106.836L143.62 107.062C143.604 107.072 143.605 107.088 143.623 107.098L144.076 107.36C144.093 107.37 144.121 107.37 144.138 107.361ZM143.565 107.691L143.957 107.465C143.974 107.455 143.973 107.439 143.955 107.429L143.502 107.167C143.484 107.157 143.457 107.157 143.44 107.166L143.048 107.392C143.032 107.402 143.033 107.418 143.051 107.428L143.503 107.69C143.521 107.701 143.549 107.701 143.565 107.691ZM146.384 105.317L146.775 105.091C146.792 105.081 146.791 105.065 146.773 105.055L146.32 104.793C146.302 104.783 146.274 104.782 146.258 104.792L145.866 105.018C145.849 105.028 145.85 105.044 145.868 105.054L146.321 105.316C146.339 105.326 146.367 105.327 146.384 105.317ZM145.856 106.369L146.73 105.864C146.746 105.855 146.745 105.839 146.727 105.829L145.627 105.193C145.609 105.183 145.581 105.182 145.565 105.192L145.113 105.453C145.096 105.463 145.097 105.479 145.115 105.489L145.698 105.825C145.716 105.836 145.716 105.852 145.7 105.862L145.338 106.07C145.322 106.08 145.323 106.096 145.341 106.106L145.794 106.368C145.811 106.378 145.839 106.379 145.856 106.369ZM142.929 105.967L142.537 106.193C142.52 106.203 142.521 106.219 142.539 106.229L142.992 106.49C143.01 106.501 143.037 106.501 143.054 106.492L143.446 106.265C143.463 106.256 143.461 106.24 143.443 106.229L142.991 105.968C142.973 105.958 142.945 105.957 142.929 105.967ZM142.356 106.297L141.965 106.524C141.948 106.533 141.949 106.549 141.967 106.56L142.42 106.821C142.438 106.832 142.465 106.832 142.482 106.823L142.874 106.596C142.89 106.587 142.889 106.571 142.871 106.561L142.418 106.299C142.401 106.288 142.373 106.288 142.356 106.297ZM139.495 110.004C139.513 110.014 139.541 110.015 139.558 110.005L139.949 109.779C139.966 109.769 139.965 109.753 139.947 109.743L139.494 109.481C139.476 109.471 139.448 109.47 139.432 109.48L139.04 109.706C139.024 109.716 139.025 109.732 139.043 109.742L139.495 110.004ZM137.776 108.942L137.384 109.168C137.368 109.177 137.369 109.193 137.387 109.204L137.839 109.465C137.857 109.475 137.886 109.476 137.902 109.466L138.293 109.24C138.31 109.231 138.309 109.215 138.291 109.204L137.838 108.943C137.821 108.933 137.793 108.932 137.776 108.942ZM138.697 109.717C138.715 109.728 138.743 109.728 138.76 109.718L139.152 109.492C139.169 109.482 139.167 109.466 139.15 109.456L138.697 109.195C138.679 109.184 138.651 109.184 138.634 109.193L138.243 109.42C138.226 109.429 138.227 109.445 138.245 109.456L138.697 109.717ZM140.506 110.205L140.898 109.979C140.915 109.969 140.913 109.953 140.896 109.943L140.443 109.681C140.425 109.671 140.397 109.67 140.38 109.68L139.989 109.906C139.972 109.916 139.973 109.932 139.991 109.942L140.444 110.204C140.461 110.214 140.49 110.214 140.506 110.205ZM139.871 110.534C139.889 110.544 139.917 110.545 139.933 110.535L140.325 110.309C140.342 110.299 140.341 110.283 140.323 110.273L139.87 110.011C139.852 110.001 139.824 110 139.808 110.01L139.416 110.236C139.399 110.246 139.401 110.262 139.419 110.272L139.871 110.534ZM138.348 108.611L137.957 108.837C137.94 108.847 137.941 108.863 137.959 108.873L138.412 109.135C138.43 109.145 138.458 109.146 138.474 109.136L138.866 108.91C138.883 108.9 138.882 108.884 138.864 108.874L138.411 108.612C138.393 108.602 138.365 108.601 138.348 108.611ZM141.211 106.958L140.819 107.185C140.803 107.194 140.804 107.21 140.822 107.22L141.275 107.482C141.293 107.492 141.321 107.493 141.337 107.483L141.729 107.257C141.745 107.247 141.744 107.231 141.726 107.221L141.273 106.96C141.256 106.949 141.228 106.949 141.211 106.958ZM138.921 108.28L138.529 108.507C138.513 108.516 138.514 108.532 138.532 108.543L138.985 108.804C139.002 108.814 139.03 108.815 139.047 108.805L139.438 108.579C139.455 108.569 139.454 108.553 139.436 108.543L138.983 108.282C138.966 108.272 138.938 108.271 138.921 108.28ZM141.784 106.628L141.392 106.854C141.375 106.864 141.376 106.88 141.394 106.89L141.847 107.152C141.865 107.162 141.893 107.163 141.91 107.153L142.301 106.927C142.318 106.917 142.317 106.901 142.299 106.891L141.846 106.629C141.828 106.619 141.8 106.618 141.784 106.628ZM140.639 107.289L140.247 107.515C140.23 107.525 140.231 107.541 140.249 107.552L140.702 107.813C140.72 107.823 140.748 107.824 140.764 107.814L141.156 107.588C141.173 107.578 141.172 107.562 141.154 107.552L140.701 107.29C140.683 107.28 140.655 107.279 140.639 107.289ZM140.066 107.619L139.674 107.846C139.658 107.855 139.659 107.871 139.677 107.882L140.13 108.143C140.148 108.153 140.176 108.154 140.192 108.144L140.584 107.918C140.601 107.908 140.6 107.892 140.582 107.882L140.129 107.62C140.111 107.61 140.083 107.61 140.066 107.619ZM139.493 107.95L139.102 108.176C139.085 108.186 139.086 108.202 139.104 108.212L139.557 108.474C139.575 108.484 139.603 108.485 139.619 108.475L140.011 108.249C140.028 108.239 140.027 108.223 140.009 108.213L139.556 107.951C139.538 107.941 139.51 107.94 139.493 107.95ZM142.42 108.353L142.812 108.126C142.829 108.117 142.828 108.101 142.81 108.091L142.357 107.829C142.339 107.819 142.311 107.818 142.294 107.828L141.903 108.054C141.886 108.064 141.887 108.08 141.905 108.09L142.358 108.351C142.376 108.362 142.404 108.362 142.42 108.353ZM147.449 103.357L147.057 103.583C147.04 103.593 147.042 103.609 147.059 103.619L147.512 103.881C147.53 103.891 147.558 103.892 147.575 103.882L147.966 103.656C147.983 103.646 147.982 103.63 147.964 103.62L147.511 103.358C147.493 103.348 147.465 103.348 147.449 103.357ZM146.756 103.757L146.364 103.983C146.347 103.993 146.349 104.009 146.366 104.019L146.819 104.281C146.837 104.291 146.865 104.292 146.882 104.282L147.273 104.056C147.29 104.046 147.289 104.03 147.271 104.02L146.818 103.758C146.8 103.748 146.772 103.748 146.756 103.757ZM148.021 103.027L147.63 103.253C147.613 103.263 147.614 103.279 147.632 103.289L148.085 103.551C148.103 103.561 148.131 103.561 148.147 103.552L148.539 103.326C148.556 103.316 148.555 103.3 148.537 103.289L148.084 103.028C148.066 103.018 148.038 103.017 148.021 103.027ZM145.058 106.082L145.449 105.856C145.466 105.846 145.465 105.831 145.447 105.82L144.994 105.558C144.976 105.548 144.948 105.547 144.932 105.557L144.54 105.783C144.523 105.793 144.524 105.809 144.542 105.819L144.995 106.081C145.013 106.091 145.041 106.092 145.058 106.082ZM148.656 102.697C148.638 102.687 148.61 102.686 148.594 102.696L148.202 102.922C148.185 102.932 148.187 102.948 148.205 102.958L148.657 103.22C148.675 103.23 148.703 103.231 148.72 103.221L149.111 102.995C149.128 102.985 149.127 102.969 149.109 102.959L148.656 102.697ZM142.993 108.022L143.385 107.796C143.401 107.786 143.4 107.77 143.382 107.76L142.929 107.498C142.911 107.488 142.884 107.487 142.867 107.497L142.475 107.723C142.459 107.733 142.46 107.749 142.478 107.759L142.931 108.021C142.948 108.031 142.976 108.032 142.993 108.022ZM150.014 103.968L150.405 103.742C150.422 103.732 150.421 103.716 150.403 103.706L149.95 103.444C149.932 103.434 149.905 103.433 149.888 103.443L149.496 103.669C149.479 103.679 149.481 103.695 149.499 103.705L149.951 103.967C149.969 103.977 149.997 103.978 150.014 103.968ZM148.794 103.925L149.186 103.699C149.203 103.689 149.201 103.673 149.183 103.663L148.731 103.402C148.713 103.391 148.685 103.391 148.668 103.4L148.277 103.627C148.26 103.636 148.261 103.652 148.279 103.662L148.732 103.924C148.749 103.934 148.777 103.935 148.794 103.925ZM149.303 103.071C149.285 103.061 149.258 103.06 149.241 103.07L148.849 103.296C148.832 103.306 148.834 103.322 148.852 103.332L149.304 103.593C149.322 103.604 149.35 103.604 149.367 103.595L149.758 103.368C149.775 103.359 149.774 103.343 149.756 103.333L149.303 103.071ZM149.424 103.001L150.523 103.637C150.541 103.647 150.569 103.648 150.586 103.638L150.977 103.412C150.994 103.402 150.993 103.386 150.975 103.375L149.875 102.74C149.857 102.73 149.829 102.729 149.812 102.739L149.421 102.965C149.405 102.975 149.406 102.991 149.424 103.001ZM148.096 103.731L147.704 103.957C147.687 103.967 147.689 103.983 147.706 103.993L148.16 104.255C148.178 104.265 148.206 104.265 148.222 104.256L148.614 104.029C148.63 104.02 148.629 104.004 148.611 103.994L148.159 103.732C148.14 103.722 148.112 103.721 148.096 103.731ZM143.787 106.219L143.395 106.445C143.378 106.455 143.379 106.47 143.397 106.481L143.85 106.742C143.868 106.752 143.896 106.753 143.913 106.743L144.305 106.517C144.321 106.508 144.32 106.492 144.302 106.481L143.849 106.219C143.831 106.21 143.803 106.209 143.787 106.219ZM149.379 104.298C149.397 104.308 149.424 104.309 149.441 104.299L149.833 104.073C149.85 104.063 149.849 104.047 149.831 104.037L149.378 103.775C149.36 103.765 149.332 103.764 149.316 103.774L148.924 104C148.907 104.01 148.908 104.026 148.926 104.036L149.379 104.298ZM144.359 105.888L143.968 106.114C143.951 106.124 143.952 106.14 143.97 106.151L144.423 106.412C144.441 106.423 144.469 106.423 144.485 106.414L144.877 106.187C144.893 106.178 144.892 106.162 144.874 106.151L144.422 105.89C144.404 105.879 144.376 105.878 144.359 105.888ZM140.068 109.673C140.086 109.684 140.114 109.684 140.13 109.674L140.522 109.448C140.538 109.438 140.537 109.422 140.519 109.412L140.066 109.15C140.048 109.14 140.021 109.139 140.004 109.149L139.612 109.375C139.596 109.385 139.597 109.401 139.615 109.411L140.068 109.673ZM139.206 108.863L138.815 109.089C138.798 109.098 138.799 109.115 138.817 109.125L139.27 109.387C139.288 109.397 139.316 109.397 139.332 109.388L139.724 109.161C139.741 109.152 139.74 109.136 139.722 109.125L139.269 108.864C139.251 108.854 139.223 108.853 139.206 108.863ZM140.703 109.344L141.094 109.118C141.111 109.108 141.11 109.092 141.092 109.082L140.639 108.82C140.621 108.81 140.593 108.809 140.577 108.819L140.185 109.045C140.169 109.055 140.17 109.071 140.188 109.081L140.64 109.343C140.658 109.353 140.686 109.354 140.703 109.344ZM141.275 109.014L141.667 108.787C141.684 108.778 141.683 108.762 141.665 108.752L141.212 108.49C141.194 108.48 141.166 108.479 141.149 108.489L140.757 108.715C140.741 108.725 140.742 108.741 140.76 108.751L141.213 109.013C141.231 109.023 141.259 109.023 141.275 109.014ZM141.848 108.683L142.239 108.457C142.256 108.447 142.255 108.431 142.237 108.42L141.784 108.159C141.766 108.149 141.738 108.148 141.722 108.158L141.33 108.384C141.314 108.394 141.315 108.41 141.333 108.42L141.786 108.681C141.803 108.692 141.831 108.693 141.848 108.683ZM139.779 108.532L139.387 108.759C139.371 108.768 139.372 108.784 139.39 108.795L139.843 109.057C139.86 109.067 139.889 109.068 139.905 109.058L140.296 108.832C140.313 108.822 140.312 108.806 140.294 108.796L139.841 108.534C139.824 108.523 139.796 108.523 139.779 108.532ZM140.351 108.202L139.96 108.428C139.943 108.438 139.944 108.454 139.962 108.464L140.415 108.725C140.433 108.736 140.461 108.736 140.477 108.727L140.869 108.5C140.886 108.491 140.885 108.475 140.867 108.465L140.414 108.203C140.396 108.193 140.368 108.192 140.351 108.202ZM142.642 106.88L142.25 107.106C142.233 107.116 142.234 107.132 142.252 107.142L142.705 107.403C142.723 107.414 142.751 107.414 142.768 107.405L143.159 107.178C143.176 107.169 143.175 107.153 143.157 107.142L142.704 106.88C142.686 106.871 142.658 106.87 142.642 106.88ZM142.069 107.21L141.677 107.437C141.661 107.446 141.662 107.462 141.68 107.472L142.133 107.734C142.151 107.745 142.179 107.745 142.195 107.735L142.587 107.509C142.603 107.499 142.602 107.483 142.584 107.473L142.131 107.211C142.114 107.201 142.086 107.201 142.069 107.21ZM143.214 106.549L142.823 106.775C142.806 106.785 142.807 106.801 142.825 106.811L143.278 107.073C143.296 107.084 143.324 107.084 143.34 107.074L143.732 106.848C143.748 106.838 143.747 106.822 143.729 106.812L143.276 106.55C143.259 106.54 143.231 106.54 143.214 106.549ZM140.924 107.871L140.532 108.098C140.515 108.107 140.516 108.123 140.534 108.133L140.987 108.395C141.005 108.405 141.033 108.406 141.05 108.396L141.441 108.17C141.458 108.16 141.457 108.144 141.439 108.134L140.986 107.873C140.969 107.862 140.941 107.862 140.924 107.871ZM141.497 107.541L141.105 107.767C141.088 107.777 141.089 107.793 141.107 107.803L141.56 108.064C141.578 108.075 141.606 108.075 141.622 108.066L142.014 107.839C142.031 107.83 142.03 107.814 142.012 107.804L141.559 107.542C141.541 107.532 141.513 107.531 141.497 107.541ZM141.079 109.874L141.47 109.648C141.487 109.638 141.486 109.622 141.468 109.612L141.015 109.35C140.997 109.34 140.969 109.339 140.953 109.349L140.561 109.575C140.545 109.585 140.546 109.601 140.564 109.612L141.016 109.873C141.034 109.883 141.062 109.884 141.079 109.874ZM137.719 109.535L137.266 109.273C137.248 109.263 137.22 109.263 137.204 109.272L136.812 109.498C136.795 109.508 136.797 109.524 136.815 109.534L137.267 109.796C137.285 109.807 137.313 109.807 137.33 109.797L137.721 109.571C137.738 109.562 137.737 109.545 137.719 109.535ZM138.577 109.787L138.124 109.525C138.106 109.515 138.078 109.514 138.062 109.524L137.459 109.872C137.442 109.882 137.444 109.898 137.462 109.908L137.914 110.17C137.932 110.18 137.96 110.181 137.977 110.171L138.579 109.823C138.596 109.813 138.595 109.797 138.577 109.787ZM137.024 109.029L136.571 108.768C136.553 108.758 136.525 108.757 136.509 108.767L136.027 109.045C136.01 109.055 136.011 109.071 136.029 109.081L136.482 109.343C136.5 109.353 136.528 109.354 136.544 109.344L137.026 109.066C137.043 109.056 137.042 109.04 137.024 109.029ZM137.394 108.816C137.412 108.826 137.439 108.827 137.456 108.817L137.848 108.591C137.864 108.581 137.863 108.565 137.845 108.555L137.393 108.293C137.375 108.283 137.347 108.282 137.33 108.292L136.939 108.518C136.922 108.528 136.923 108.544 136.941 108.555L137.394 108.816ZM139.375 110.073L138.922 109.812C138.904 109.801 138.876 109.801 138.859 109.81L138.106 110.245C138.089 110.255 138.09 110.271 138.108 110.281L138.561 110.543C138.579 110.553 138.607 110.554 138.623 110.544L139.377 110.109C139.394 110.1 139.392 110.084 139.375 110.073ZM139.75 110.604L139.298 110.342C139.28 110.332 139.252 110.331 139.235 110.341L138.753 110.619C138.736 110.629 138.738 110.645 138.756 110.655L139.208 110.917C139.226 110.927 139.254 110.928 139.271 110.918L139.753 110.64C139.77 110.63 139.768 110.614 139.75 110.604ZM141.651 106.359C141.669 106.369 141.696 106.369 141.713 106.36L142.105 106.134C142.121 106.124 142.12 106.108 142.102 106.098L141.649 105.836C141.631 105.826 141.603 105.825 141.587 105.835L141.195 106.061C141.179 106.071 141.18 106.087 141.198 106.097L141.651 106.359ZM140.506 107.02C140.523 107.03 140.551 107.031 140.568 107.021L140.96 106.795C140.977 106.785 140.975 106.769 140.958 106.759L140.505 106.497C140.487 106.487 140.459 106.486 140.442 106.496L140.051 106.722C140.034 106.732 140.035 106.748 140.053 106.758L140.506 107.02ZM137.966 108.486C137.984 108.496 138.012 108.497 138.029 108.487L138.42 108.261C138.437 108.251 138.436 108.235 138.418 108.225L137.965 107.963C137.947 107.953 137.919 107.952 137.903 107.962L137.511 108.188C137.494 108.198 137.496 108.214 137.513 108.224L137.966 108.486ZM141.078 106.689C141.096 106.699 141.124 106.7 141.14 106.69L141.532 106.464C141.548 106.454 141.547 106.438 141.529 106.428L141.076 106.166C141.059 106.156 141.031 106.155 141.014 106.165L140.623 106.391C140.606 106.401 140.607 106.417 140.625 106.428L141.078 106.689ZM139.933 107.35C139.951 107.36 139.979 107.361 139.995 107.351L140.387 107.125C140.404 107.115 140.403 107.099 140.385 107.089L139.932 106.827C139.914 106.817 139.886 106.816 139.869 106.826L139.478 107.052C139.461 107.062 139.462 107.078 139.48 107.088L139.933 107.35ZM140.065 110.646C140.047 110.636 140.019 110.635 140.003 110.645L139.4 110.993C139.384 111.003 139.385 111.019 139.403 111.029L139.855 111.29C139.873 111.301 139.901 111.301 139.918 111.292L140.52 110.944C140.537 110.934 140.536 110.918 140.518 110.908L140.065 110.646ZM139.111 107.825C139.129 107.835 139.157 107.835 139.174 107.826L139.565 107.6C139.582 107.59 139.581 107.574 139.563 107.564L139.11 107.302C139.092 107.291 139.064 107.291 139.048 107.301L138.656 107.527C138.639 107.537 138.641 107.553 138.658 107.563L139.111 107.825ZM138.539 108.155C138.557 108.165 138.585 108.166 138.601 108.156L138.993 107.93C139.009 107.92 139.008 107.904 138.99 107.894L138.538 107.632C138.52 107.622 138.492 107.621 138.475 107.631L138.084 107.857C138.067 107.867 138.068 107.883 138.086 107.893L138.539 108.155ZM150.672 104.522C150.654 104.512 150.626 104.512 150.61 104.521L149.646 105.078C149.629 105.088 149.63 105.104 149.648 105.114L150.101 105.375C150.119 105.386 150.147 105.386 150.163 105.377L151.128 104.82C151.144 104.81 151.143 104.794 151.125 104.784L150.672 104.522ZM149.406 105.253C149.389 105.243 149.36 105.242 149.344 105.252L148.953 105.478C148.936 105.488 148.937 105.504 148.955 105.514L149.408 105.776C149.426 105.786 149.454 105.787 149.47 105.777L149.862 105.551C149.878 105.541 149.877 105.525 149.859 105.515L149.406 105.253ZM141.651 109.544L142.043 109.317C142.06 109.308 142.059 109.292 142.041 109.281L141.588 109.02C141.57 109.009 141.542 109.009 141.525 109.018L141.134 109.245C141.117 109.254 141.118 109.27 141.136 109.28L141.589 109.542C141.607 109.553 141.635 109.553 141.651 109.544ZM148.261 105.914C148.244 105.904 148.215 105.903 148.199 105.913L147.808 106.139C147.791 106.149 147.792 106.165 147.81 106.175L148.263 106.437C148.281 106.447 148.309 106.448 148.325 106.438L148.717 106.212C148.733 106.202 148.732 106.186 148.714 106.176L148.261 105.914ZM151.245 104.192C151.227 104.181 151.199 104.181 151.182 104.191L150.791 104.417C150.774 104.426 150.775 104.442 150.793 104.453L151.246 104.714C151.264 104.724 151.292 104.725 151.308 104.715L151.7 104.489C151.716 104.48 151.715 104.464 151.697 104.453L151.245 104.192ZM152.27 104.123L151.17 103.487C151.152 103.477 151.124 103.476 151.107 103.486L150.716 103.712C150.699 103.722 150.7 103.738 150.718 103.748L151.818 104.384C151.836 104.394 151.864 104.395 151.881 104.385L152.272 104.159C152.289 104.149 152.288 104.133 152.27 104.123ZM146.122 107.149C146.104 107.139 146.076 107.138 146.06 107.148L145.577 107.426C145.561 107.436 145.562 107.452 145.58 107.463L146.033 107.724C146.051 107.734 146.078 107.735 146.095 107.726L146.577 107.447C146.594 107.437 146.593 107.421 146.575 107.411L146.122 107.149ZM147.568 106.314C147.55 106.304 147.522 106.303 147.506 106.313L146.903 106.661C146.887 106.671 146.888 106.687 146.906 106.697L147.359 106.958C147.377 106.969 147.404 106.969 147.421 106.96L148.024 106.612C148.04 106.602 148.039 106.586 148.021 106.576L147.568 106.314ZM144.796 107.915C144.778 107.905 144.75 107.904 144.734 107.913L141.51 109.775C141.493 109.785 141.494 109.801 141.512 109.811L141.965 110.073C141.983 110.083 142.011 110.083 142.027 110.074L145.251 108.212C145.268 108.202 145.267 108.186 145.249 108.176L144.796 107.915ZM141.391 109.881C141.373 109.871 141.345 109.87 141.329 109.879L140.847 110.158C140.83 110.168 140.831 110.184 140.849 110.194L141.302 110.456C141.32 110.466 141.348 110.466 141.364 110.457L141.846 110.178C141.863 110.168 141.862 110.152 141.844 110.142L141.391 109.881ZM145.459 107.532C145.441 107.522 145.413 107.521 145.397 107.531L144.914 107.809C144.898 107.819 144.899 107.835 144.917 107.845L145.37 108.107C145.388 108.117 145.416 108.118 145.432 108.108L145.914 107.83C145.931 107.82 145.93 107.804 145.912 107.794L145.459 107.532ZM140.728 110.263C140.71 110.253 140.683 110.252 140.666 110.262L140.184 110.541C140.167 110.55 140.168 110.566 140.186 110.577L140.639 110.838C140.657 110.849 140.685 110.849 140.701 110.84L141.183 110.561C141.2 110.551 141.199 110.535 141.181 110.525L140.728 110.263ZM146.785 106.767C146.767 106.756 146.739 106.756 146.723 106.765L146.24 107.044C146.224 107.054 146.225 107.07 146.243 107.08L146.696 107.341C146.714 107.352 146.742 107.352 146.758 107.343L147.24 107.064C147.257 107.054 147.256 107.038 147.238 107.028L146.785 106.767ZM148.834 105.584C148.816 105.573 148.788 105.573 148.772 105.582L148.38 105.809C148.363 105.818 148.364 105.834 148.382 105.845L148.835 106.106C148.853 106.116 148.881 106.117 148.898 106.107L149.289 105.881C149.306 105.871 149.305 105.855 149.287 105.845L148.834 105.584ZM150.088 104.673L150.48 104.446C150.497 104.437 150.495 104.421 150.477 104.411L150.025 104.149C150.007 104.139 149.979 104.138 149.962 104.148L149.571 104.374C149.554 104.384 149.555 104.4 149.573 104.41L150.026 104.671C150.044 104.682 150.072 104.682 150.088 104.673ZM147.529 104.656L147.92 104.43C147.937 104.42 147.936 104.404 147.918 104.393L147.465 104.132C147.447 104.122 147.419 104.121 147.403 104.131L147.011 104.357C146.994 104.367 146.996 104.383 147.013 104.393L147.466 104.654C147.484 104.665 147.512 104.666 147.529 104.656ZM146.232 106.899L147.377 106.238C147.393 106.228 147.392 106.212 147.374 106.202L146.921 105.94C146.903 105.93 146.876 105.93 146.859 105.939L145.714 106.6C145.697 106.61 145.698 106.626 145.716 106.636L146.169 106.898C146.187 106.908 146.215 106.909 146.232 106.899ZM149.453 105.002C149.471 105.012 149.499 105.013 149.516 105.003L149.907 104.777C149.924 104.767 149.923 104.751 149.905 104.74L149.452 104.479C149.434 104.469 149.406 104.468 149.39 104.478L148.998 104.704C148.981 104.714 148.982 104.73 149 104.74L149.453 105.002ZM148.869 104.629L149.26 104.403C149.277 104.393 149.276 104.377 149.258 104.367L148.805 104.106C148.787 104.095 148.759 104.095 148.743 104.104L148.351 104.331C148.334 104.34 148.336 104.356 148.354 104.366L148.806 104.628C148.824 104.638 148.852 104.639 148.869 104.629ZM145.659 107.23L146.051 107.004C146.067 106.994 146.066 106.978 146.048 106.968L145.595 106.706C145.577 106.696 145.549 106.695 145.533 106.705L145.141 106.931C145.125 106.941 145.126 106.957 145.144 106.967L145.597 107.229C145.614 107.239 145.642 107.24 145.659 107.23ZM148.188 105.732C148.206 105.743 148.234 105.743 148.25 105.733L148.642 105.507C148.658 105.497 148.657 105.481 148.639 105.471L148.187 105.21C148.169 105.199 148.141 105.199 148.124 105.208L147.733 105.435C147.716 105.444 147.717 105.46 147.735 105.471L148.188 105.732ZM142.796 108.883L143.188 108.656C143.205 108.647 143.204 108.631 143.186 108.621L142.733 108.359C142.715 108.349 142.687 108.348 142.67 108.358L142.279 108.584C142.262 108.594 142.263 108.61 142.281 108.62L142.734 108.881C142.752 108.892 142.78 108.892 142.796 108.883ZM143.369 108.552L143.76 108.326C143.777 108.316 143.776 108.3 143.758 108.29L143.305 108.028C143.287 108.018 143.26 108.017 143.243 108.027L142.851 108.253C142.835 108.263 142.836 108.279 142.854 108.289L143.307 108.551C143.324 108.561 143.352 108.562 143.369 108.552ZM142.224 109.213L142.615 108.987C142.632 108.977 142.631 108.961 142.613 108.951L142.16 108.689C142.142 108.679 142.114 108.678 142.098 108.688L141.706 108.914C141.69 108.924 141.691 108.94 141.709 108.95L142.161 109.212C142.179 109.222 142.207 109.223 142.224 109.213ZM144.514 107.891L144.905 107.665C144.922 107.655 144.921 107.639 144.903 107.628L144.45 107.367C144.432 107.357 144.404 107.356 144.388 107.366L143.996 107.592C143.979 107.601 143.98 107.617 143.998 107.628L144.451 107.889C144.469 107.9 144.497 107.901 144.514 107.891ZM143.941 108.222L144.333 107.995C144.349 107.986 144.348 107.97 144.33 107.96L143.877 107.698C143.86 107.688 143.831 107.687 143.815 107.697L143.424 107.923C143.407 107.933 143.408 107.949 143.426 107.959L143.879 108.22C143.897 108.231 143.925 108.231 143.941 108.222ZM145.086 107.561L145.478 107.334C145.495 107.325 145.494 107.309 145.476 107.298L145.023 107.037C145.005 107.027 144.977 107.026 144.96 107.036L144.569 107.262C144.552 107.272 144.553 107.288 144.571 107.298L145.024 107.559C145.042 107.57 145.07 107.57 145.086 107.561ZM147.706 102.671C147.724 102.681 147.752 102.682 147.768 102.672L148.16 102.446C148.176 102.436 148.175 102.42 148.157 102.41L148.037 102.34C148.019 102.33 147.991 102.329 147.974 102.339L147.583 102.565C147.566 102.575 147.567 102.591 147.585 102.601L147.706 102.671ZM144.889 104.489C144.907 104.499 144.935 104.5 144.951 104.49L145.343 104.264C145.359 104.254 145.358 104.238 145.34 104.228L144.888 103.966C144.87 103.956 144.842 103.955 144.825 103.965L144.434 104.191C144.417 104.201 144.418 104.217 144.436 104.227L144.889 104.489ZM146.034 103.828C146.052 103.838 146.079 103.839 146.096 103.829L146.488 103.603C146.505 103.593 146.503 103.577 146.485 103.567L146.033 103.305C146.015 103.295 145.987 103.294 145.97 103.304L145.578 103.53C145.561 103.54 145.563 103.556 145.581 103.566L146.034 103.828ZM144.189 104.893C144.207 104.903 144.235 104.903 144.252 104.894L144.643 104.668C144.66 104.658 144.659 104.642 144.641 104.631L144.188 104.37C144.17 104.359 144.142 104.359 144.126 104.368L143.734 104.595C143.718 104.604 143.719 104.62 143.737 104.631L144.189 104.893ZM145.461 104.158C145.479 104.168 145.507 104.169 145.524 104.159L145.915 103.933C145.932 103.923 145.931 103.907 145.913 103.897L145.46 103.636C145.442 103.625 145.414 103.625 145.398 103.634L145.006 103.861C144.989 103.87 144.991 103.886 145.008 103.897L145.461 104.158ZM143.044 105.554C143.062 105.564 143.09 105.565 143.107 105.555L143.498 105.329C143.515 105.319 143.514 105.303 143.496 105.292L143.043 105.031C143.025 105.02 142.997 105.02 142.981 105.029L142.589 105.256C142.573 105.265 142.574 105.281 142.592 105.292L143.044 105.554ZM143.617 105.223C143.635 105.233 143.663 105.234 143.679 105.224L144.071 104.998C144.088 104.988 144.087 104.972 144.069 104.962L143.616 104.7C143.598 104.69 143.57 104.689 143.553 104.699L143.162 104.925C143.145 104.935 143.146 104.951 143.164 104.962L143.617 105.223ZM146.561 103.332C146.579 103.342 146.607 103.343 146.623 103.333L147.015 103.107C147.031 103.097 147.03 103.081 147.012 103.071L146.892 103.001C146.874 102.991 146.846 102.991 146.829 103L146.438 103.226C146.421 103.236 146.422 103.252 146.44 103.262L146.561 103.332ZM148.278 102.34C148.296 102.35 148.324 102.351 148.341 102.341L148.732 102.115C148.749 102.105 148.748 102.089 148.73 102.079L148.609 102.009C148.591 101.999 148.563 101.998 148.547 102.008L148.155 102.234C148.139 102.244 148.14 102.26 148.158 102.271L148.278 102.34ZM149.229 102.89C149.247 102.9 149.275 102.9 149.292 102.891L149.683 102.664C149.7 102.655 149.699 102.639 149.681 102.629L149.228 102.367C149.21 102.357 149.182 102.356 149.166 102.366L148.774 102.592C148.758 102.602 148.759 102.618 148.777 102.628L149.229 102.89ZM150.661 104.342L151.052 104.116C151.069 104.106 151.068 104.09 151.05 104.08L150.597 103.818C150.579 103.808 150.551 103.807 150.535 103.817L150.143 104.043C150.126 104.053 150.128 104.069 150.146 104.079L150.598 104.341C150.616 104.351 150.644 104.352 150.661 104.342ZM147.133 103.001C147.151 103.012 147.179 103.012 147.196 103.002L147.588 102.776C147.604 102.766 147.603 102.75 147.585 102.74L147.465 102.67C147.447 102.66 147.419 102.659 147.402 102.669L147.011 102.895C146.994 102.905 146.995 102.921 147.013 102.931L147.133 103.001ZM142.472 105.884C142.49 105.894 142.518 105.895 142.534 105.885L142.926 105.659C142.943 105.649 142.941 105.633 142.924 105.623L142.471 105.361C142.453 105.351 142.425 105.35 142.408 105.36L142.016 105.586C142 105.596 142.001 105.612 142.019 105.622L142.472 105.884Z" fill="#27DEBF"/>
<path d="M142.193 102.334L137.512 105.038L137.489 105.026L135.722 104.004C135.418 103.829 135.223 103.403 135.289 103.06L135.952 99.6282L139.852 96.4731L140.632 96.9255L139.973 100.358C139.907 100.701 140.098 101.126 140.402 101.301L142.193 102.334Z" fill="#455A64"/>
<path d="M137.512 105.038V105.938L135.067 104.527C134.607 104.265 134.314 103.622 134.416 103.103L135.168 99.1797L135.952 99.6282L135.289 103.06C135.223 103.403 135.418 103.828 135.722 104.004L137.489 105.026L137.512 105.038Z" fill="#263238"/>
<path d="M142.193 102.334L137.512 105.038L137.513 105.94L142.194 103.235L142.193 102.334Z" fill="#37474F"/>
<path d="M146.492 79.5686C146.708 79.693 146.882 80.0093 146.882 80.2745V94.6406C146.882 94.9058 146.696 95.2287 146.466 95.3613L128.559 105.7C128.33 105.832 127.969 105.839 127.753 105.715C127.537 105.59 127.363 105.274 127.363 105.009V90.6427C127.363 90.3775 127.549 90.0546 127.779 89.922L145.686 79.5834C145.915 79.4508 146.276 79.4442 146.492 79.5686Z" fill="#455A64"/>
<path d="M128.559 105.7C128.329 105.832 127.968 105.839 127.752 105.715C127.537 105.59 127.362 105.274 127.362 105.009V90.6427C127.362 90.5101 127.409 90.3631 127.484 90.2324L141.416 98.2762L128.559 105.7Z" fill="#263238"/>
<path d="M146.882 94.6407V80.2746C146.882 80.009 146.696 79.9018 146.466 80.0344L128.559 90.3729C128.329 90.5055 128.143 90.8284 128.143 91.0936V105.46C128.143 105.725 128.329 105.832 128.559 105.7L146.466 95.3614C146.696 95.2288 146.882 94.9059 146.882 94.6407Z" fill="#37474F"/>
<path d="M145.862 80.8369L128.866 90.6466C128.683 90.7526 128.533 91.0108 128.533 91.2234V103.978C128.533 104.19 128.682 104.277 128.866 104.171L145.863 94.3609C146.047 94.2548 146.196 93.9967 146.196 93.7841V81.0292C146.196 80.8166 146.047 80.7304 145.862 80.8369Z" fill="white"/>
<path d="M152.168 99.9864C151.463 100.729 150.793 101.972 151.088 105.119C151.412 108.568 152.443 109.488 152.877 109.69C153.526 109.992 155.734 109.463 156.453 108.934C157.351 108.272 159.044 106.623 159.485 104.592C160.004 102.201 159.34 99.4849 157.593 98.9357C155.135 98.162 152.765 99.3581 152.168 99.9864Z" fill="#FFA8A7"/>
<path d="M150.559 101.684C150.977 102.474 151.769 104.438 154.01 104.995C154.01 104.995 154.134 103.656 155.243 103.643C156.36 103.63 156.732 104.996 156.181 105.952C155.629 106.907 154.937 106.687 154.937 106.687C154.937 106.687 155.048 108.568 156.406 109.24C156.406 109.24 158.036 109.982 159.524 109.033C160.194 108.606 160.967 106.755 161.367 105.268C162.211 102.123 162.061 99.7151 160.061 99.226C159.641 97.907 158.963 97.4835 157.705 97.4004C154.998 97.2218 153.248 99.226 150.997 99.226C149.822 99.2256 150.08 100.781 150.559 101.684Z" fill="#263238"/>
<path d="M160.011 99.4495L161.366 98.8692C161.206 98.4948 160.773 98.3216 160.398 98.4819C160.024 98.6418 159.851 99.0751 160.011 99.4495Z" fill="#263238"/>
</svg>
