<svg width="92" height="32" viewBox="0 0 92 32" fill="none" xmlns="http://www.w3.org/2000/svg">
<rect width="92" height="32" rx="16" fill="#E5EBF7"/>
<path d="M28.4736 22H25.3316V11.8182H28.6128C29.6005 11.8182 30.4457 12.022 31.1483 12.4297C31.851 12.834 32.3896 13.4157 32.7641 14.1747C33.1386 14.9304 33.3259 15.8352 33.3259 16.8892C33.3259 17.9498 33.137 18.8629 32.7591 19.6286C32.3813 20.3909 31.8311 20.9775 31.1086 21.3885C30.386 21.7962 29.5077 22 28.4736 22ZM26.5645 20.9062H28.3941C29.2359 20.9062 29.9336 20.7438 30.4871 20.419C31.0406 20.0942 31.4533 19.6319 31.7251 19.032C31.9968 18.4321 32.1327 17.7178 32.1327 16.8892C32.1327 16.0672 31.9985 15.3596 31.73 14.7663C31.4616 14.1697 31.0605 13.7124 30.5269 13.3942C29.9933 13.0727 29.3287 12.9119 28.5333 12.9119H26.5645V20.9062ZM38.3373 22.1591C37.6479 22.1591 37.043 21.995 36.5226 21.6669C36.0056 21.3388 35.6012 20.8797 35.3096 20.2898C35.0212 19.6998 34.877 19.0104 34.877 18.2216C34.877 17.4261 35.0212 16.7318 35.3096 16.1385C35.6012 15.5452 36.0056 15.0845 36.5226 14.7564C37.043 14.4283 37.6479 14.2642 38.3373 14.2642C39.0267 14.2642 39.6299 14.4283 40.1469 14.7564C40.6673 15.0845 41.0716 15.5452 41.36 16.1385C41.6517 16.7318 41.7975 17.4261 41.7975 18.2216C41.7975 19.0104 41.6517 19.6998 41.36 20.2898C41.0716 20.8797 40.6673 21.3388 40.1469 21.6669C39.6299 21.995 39.0267 22.1591 38.3373 22.1591ZM38.3373 21.1051C38.8609 21.1051 39.2918 20.9709 39.6299 20.7024C39.968 20.4339 40.2182 20.081 40.3806 19.6435C40.543 19.206 40.6242 18.732 40.6242 18.2216C40.6242 17.7112 40.543 17.2356 40.3806 16.7947C40.2182 16.3539 39.968 15.9976 39.6299 15.7259C39.2918 15.4541 38.8609 15.3182 38.3373 15.3182C37.8136 15.3182 37.3827 15.4541 37.0447 15.7259C36.7066 15.9976 36.4564 16.3539 36.2939 16.7947C36.1315 17.2356 36.0503 17.7112 36.0503 18.2216C36.0503 18.732 36.1315 19.206 36.2939 19.6435C36.4564 20.081 36.7066 20.4339 37.0447 20.7024C37.3827 20.9709 37.8136 21.1051 38.3373 21.1051ZM46.6908 22.1591C45.9749 22.1591 45.3584 21.9901 44.8414 21.652C44.3243 21.3139 43.9266 20.8482 43.6482 20.255C43.3698 19.6617 43.2306 18.9839 43.2306 18.2216C43.2306 17.446 43.3731 16.7616 43.6581 16.1683C43.9465 15.5717 44.3475 15.1061 44.8612 14.7713C45.3783 14.4332 45.9815 14.2642 46.6709 14.2642C47.2078 14.2642 47.6917 14.3636 48.1226 14.5625C48.5535 14.7614 48.9065 15.0398 49.1816 15.3977C49.4566 15.7557 49.6273 16.1733 49.6936 16.6506H48.5203C48.4308 16.3026 48.232 15.9943 47.9237 15.7259C47.6188 15.4541 47.2078 15.3182 46.6908 15.3182C46.2334 15.3182 45.8324 15.4375 45.4877 15.6761C45.1463 15.9115 44.8795 16.2446 44.6872 16.6754C44.4983 17.103 44.4039 17.6051 44.4039 18.1818C44.4039 18.7718 44.4967 19.2855 44.6823 19.723C44.8712 20.1605 45.1363 20.5002 45.4777 20.7422C45.8224 20.9841 46.2268 21.1051 46.6908 21.1051C46.9957 21.1051 47.2725 21.0521 47.521 20.946C47.7696 20.84 47.9801 20.6875 48.1524 20.4886C48.3248 20.2898 48.4474 20.0511 48.5203 19.7727H49.6936C49.6273 20.2235 49.4633 20.6295 49.2014 20.9908C48.9429 21.3487 48.5999 21.6338 48.1723 21.8459C47.7481 22.0547 47.2542 22.1591 46.6908 22.1591ZM54.7298 14.3636V15.358H50.7725V14.3636H54.7298ZM51.9259 12.5341H53.0992V19.8125C53.0992 20.1439 53.1472 20.3925 53.2433 20.5582C53.3428 20.7206 53.4687 20.83 53.6212 20.8864C53.777 20.9394 53.941 20.9659 54.1134 20.9659C54.2426 20.9659 54.3487 20.9593 54.4316 20.946C54.5144 20.9295 54.5807 20.9162 54.6304 20.9062L54.8691 21.9602C54.7895 21.9901 54.6785 22.0199 54.536 22.0497C54.3934 22.0829 54.2128 22.0994 53.9941 22.0994C53.6626 22.0994 53.3378 22.0282 53.0196 21.8857C52.7048 21.7431 52.4429 21.526 52.2341 21.2344C52.0286 20.9427 51.9259 20.5748 51.9259 20.1307V12.5341ZM59.515 22.1591C58.8256 22.1591 58.2207 21.995 57.7004 21.6669C57.1833 21.3388 56.779 20.8797 56.4873 20.2898C56.199 19.6998 56.0548 19.0104 56.0548 18.2216C56.0548 17.4261 56.199 16.7318 56.4873 16.1385C56.779 15.5452 57.1833 15.0845 57.7004 14.7564C58.2207 14.4283 58.8256 14.2642 59.515 14.2642C60.2044 14.2642 60.8076 14.4283 61.3247 14.7564C61.845 15.0845 62.2494 15.5452 62.5377 16.1385C62.8294 16.7318 62.9752 17.4261 62.9752 18.2216C62.9752 19.0104 62.8294 19.6998 62.5377 20.2898C62.2494 20.8797 61.845 21.3388 61.3247 21.6669C60.8076 21.995 60.2044 22.1591 59.515 22.1591ZM59.515 21.1051C60.0387 21.1051 60.4695 20.9709 60.8076 20.7024C61.1457 20.4339 61.3959 20.081 61.5583 19.6435C61.7207 19.206 61.8019 18.732 61.8019 18.2216C61.8019 17.7112 61.7207 17.2356 61.5583 16.7947C61.3959 16.3539 61.1457 15.9976 60.8076 15.7259C60.4695 15.4541 60.0387 15.3182 59.515 15.3182C58.9913 15.3182 58.5605 15.4541 58.2224 15.7259C57.8843 15.9976 57.6341 16.3539 57.4717 16.7947C57.3093 17.2356 57.2281 17.7112 57.2281 18.2216C57.2281 18.732 57.3093 19.206 57.4717 19.6435C57.6341 20.081 57.8843 20.4339 58.2224 20.7024C58.5605 20.9709 58.9913 21.1051 59.515 21.1051ZM64.7662 22V14.3636H65.8998V15.517H65.9793C66.1185 15.1392 66.3704 14.8326 66.735 14.5973C67.0996 14.362 67.5106 14.2443 67.968 14.2443C68.0541 14.2443 68.1618 14.246 68.2911 14.2493C68.4204 14.2526 68.5181 14.2576 68.5844 14.2642V15.4574C68.5447 15.4474 68.4535 15.4325 68.311 15.4126C68.1718 15.3894 68.0243 15.3778 67.8685 15.3778C67.4973 15.3778 67.1659 15.4557 66.8742 15.6115C66.5858 15.764 66.3572 15.9761 66.1881 16.2479C66.0224 16.5163 65.9395 16.8229 65.9395 17.1676V22H64.7662Z" fill="#007AFF"/>
</svg>
