<svg width="49" height="49" viewBox="0 0 49 49" fill="none" xmlns="http://www.w3.org/2000/svg">
<rect width="49" height="49" rx="4" fill="#E5EBF7"/>
<g clip-path="url(#clip0_157_2781)">
<path d="M12.2739 39.115V41.7875H35.821V39.115C35.821 35.0157 30.0409 32.935 24.1366 32.9431C18.2674 32.9512 12.2739 34.7752 12.2739 39.115Z" fill="#424242"/>
<path d="M24.0474 31.592H21.5938V34.1835C21.5938 35.3562 22.5936 36.3074 23.8258 36.3074H24.2716C25.5038 36.3074 26.5037 35.3562 26.5037 34.1835V31.592H24.0474Z" fill="#F7B184"/>
<path d="M26.7064 41.7928H21.3884V33.0647L24.0474 36.3073L26.7064 33.0647V41.7928Z" fill="#424242"/>
<path d="M32.7595 21.3479C32.7595 21.3479 34.3511 21.6235 34.3511 23.3394C34.3511 24.8527 33.1891 25.4498 32.0272 25.4498V21.3479H32.7595ZM15.3897 21.3479C15.3897 21.3479 13.7981 21.6235 13.7981 23.3394C13.7981 24.8527 14.96 25.4498 16.122 25.4498V21.3479H15.3897Z" fill="#F7B184"/>
<path d="M24.0744 10.1147C17.2108 10.1147 15.4165 15.4354 15.4165 22.9097C15.4165 30.6596 20.3967 32.6647 24.0744 32.6647C27.698 32.6647 32.7322 30.7191 32.7322 22.9097C32.7349 15.4354 30.938 10.1147 24.0744 10.1147Z" fill="#F7B184"/>
<path d="M21.2237 23.6043C21.2237 24.3772 20.7076 25.0014 20.0672 25.0014C19.4295 25.0014 18.908 24.3745 18.908 23.6043C18.908 22.8315 19.4268 22.2046 20.0672 22.2046C20.7076 22.2046 21.2237 22.8288 21.2237 23.6043ZM26.9254 23.6043C26.9254 24.3772 27.4415 25.0014 28.0846 25.0014C28.7224 25.0014 29.2412 24.3745 29.2412 23.6043C29.2412 22.8315 28.7224 22.2046 28.0846 22.2046C27.4415 22.2046 26.9254 22.8288 26.9254 23.6043Z" fill="#444444"/>
<path d="M26.582 28.325H21.5721C21.2857 28.325 21.1614 28.5168 21.3506 28.8086C21.6154 29.214 22.6044 29.9922 24.0771 29.9922C25.5498 29.9922 26.5388 29.214 26.8036 28.8086C26.9928 28.5168 26.8685 28.325 26.582 28.325Z" fill="#513F35"/>
<path d="M25.285 26.1957C24.858 26.3173 24.4149 26.3741 24.0744 26.3741C23.7339 26.3741 23.2908 26.3146 22.8638 26.1957C22.6828 26.1444 22.6098 26.3173 22.6747 26.4308C22.8098 26.6686 23.3556 27.1496 24.0744 27.1496C24.7932 27.1496 25.339 26.6686 25.4741 26.4308C25.539 26.3146 25.4687 26.1417 25.285 26.1957Z" fill="#E39400"/>
<path d="M24.2825 9.13945C24.2825 9.13945 24.1474 9.13404 24.0906 9.13674C24.0339 9.13674 23.8988 9.13945 23.8988 9.13945C16.492 9.28266 14.26 13.7386 14.26 16.8272C14.26 19.8294 14.2627 22.0371 14.2627 22.0371C14.2627 22.0371 14.3816 21.9155 14.5978 21.7452C14.8302 21.5642 15.0869 21.4642 15.0869 21.4642L15.4598 23.9719L17.9269 18.8161C17.9431 18.7836 17.9755 18.7647 18.0107 18.7701L19.4726 18.9322C20.9426 19.0944 22.4207 19.1754 23.8961 19.1781V19.1808C23.9609 19.1808 24.0231 19.1781 24.0879 19.1781C24.1528 19.1781 24.2149 19.1808 24.2798 19.1808V19.1754C25.7552 19.17 27.2333 19.0917 28.7033 18.9295L30.1652 18.7674C30.2003 18.7647 30.2328 18.7836 30.249 18.8133L32.7161 23.9692L33.089 21.4615C33.089 21.4615 33.3457 21.5642 33.5781 21.7425C33.797 21.9128 33.9132 22.0344 33.9132 22.0344C33.9132 22.0344 33.9159 19.8294 33.9159 16.8245C33.9213 13.7386 31.6892 9.28266 24.2825 9.13945Z" fill="#6D4C41"/>
<path d="M24.0555 7.20459L10.5823 9.69602L24.0906 7.20999L24.0555 7.20459Z" fill="#262626"/>
<path d="M24.1187 7.20646L24.1131 7.20459L24.0906 7.20834L24.1187 7.21396V7.20646Z" fill="#424143"/>
<path d="M24.207 7.20459L37.6829 9.69602L24.1746 7.20999L24.207 7.20459Z" fill="#262626"/>
<path d="M37.6881 10.3824L37.6827 9.69604L24.142 11.6578H24.1258L10.5823 9.69604L10.5769 10.3824L16.0002 11.3309L15.5355 12.6442C16.5299 13.0819 20.1319 14.5357 24.1312 14.6411C28.1304 14.533 31.6055 13.0819 32.5999 12.6442L32.1351 11.3309L37.6881 10.3824Z" fill="#262626"/>
<path d="M24.1311 7.20646L24.1386 7.20459L24.1611 7.20834L24.1311 7.21396V7.20646Z" fill="#424143"/>
<path d="M24.1744 7.20996L24.1311 7.21807L24.0906 7.20996L10.5823 9.69599L24.123 11.6578L24.1311 11.6551L24.1419 11.6578L37.6827 9.69599L24.1744 7.20996Z" fill="#424143"/>
<path d="M37.9288 19.6077C37.6559 19.6077 37.437 19.8292 37.437 20.0995V22.2153C37.437 22.3457 37.4888 22.4708 37.581 22.563C37.6732 22.6553 37.7983 22.7071 37.9288 22.7071C38.0592 22.7071 38.1843 22.6553 38.2765 22.563C38.3688 22.4708 38.4206 22.3457 38.4206 22.2153V20.0995C38.4206 19.8292 38.2017 19.6077 37.9288 19.6077ZM36.9452 19.6077C36.6722 19.6077 36.4534 19.8292 36.4534 20.0995V22.2153C36.4534 22.3457 36.5052 22.4708 36.5974 22.563C36.6896 22.6553 36.8147 22.7071 36.9452 22.7071C37.0756 22.7071 37.2007 22.6553 37.2929 22.563C37.3852 22.4708 37.437 22.3457 37.437 22.2153V20.0995C37.437 19.8292 37.2181 19.6077 36.9452 19.6077Z" fill="#FBC11B"/>
<path d="M37.2586 19.6077C36.9857 19.6077 36.7668 19.8292 36.7668 20.0995V22.2153C36.7668 22.3457 36.8187 22.4708 36.9109 22.563C37.0031 22.6553 37.1282 22.7071 37.2586 22.7071C37.3891 22.7071 37.5142 22.6553 37.6064 22.563C37.6986 22.4708 37.7504 22.3457 37.7504 22.2153V20.0995C37.7504 19.8292 37.5316 19.6077 37.2586 19.6077Z" fill="#E49500"/>
<path d="M37.6341 19.6077C37.3612 19.6077 37.1423 19.8292 37.1423 20.0995V22.2153C37.1423 22.4882 37.3639 22.7071 37.6341 22.7071C37.9044 22.7071 38.1259 22.4855 38.1259 22.2153V20.0995C38.1259 19.8292 37.9071 19.6077 37.6341 19.6077Z" fill="#E49500"/>
<path d="M37.4369 19.6077C37.1639 19.6077 36.9451 19.8292 36.9451 20.0995V22.672C36.9451 22.8024 36.9969 22.9275 37.0891 23.0197C37.1813 23.112 37.3064 23.1638 37.4369 23.1638C37.5673 23.1638 37.6924 23.112 37.7846 23.0197C37.8769 22.9275 37.9287 22.8024 37.9287 22.672V20.0995C37.9287 19.8292 37.7098 19.6077 37.4369 19.6077Z" fill="#FBC11B"/>
<path d="M37.4368 20.024C37.7442 20.024 37.9934 19.7747 37.9934 19.4673C37.9934 19.1599 37.7442 18.9106 37.4368 18.9106C37.1293 18.9106 36.8801 19.1599 36.8801 19.4673C36.8801 19.7747 37.1293 20.024 37.4368 20.024Z" fill="#E49500"/>
<path d="M37.4368 19.8806C37.7442 19.8806 37.9934 19.6314 37.9934 19.324C37.9934 19.0166 37.7442 18.7673 37.4368 18.7673C37.1293 18.7673 36.8801 19.0166 36.8801 19.324C36.8801 19.6314 37.1293 19.8806 37.4368 19.8806Z" fill="#FBC11B"/>
<path d="M37.1936 9.75806V19.2023H37.199C37.2098 19.3266 37.3125 19.4265 37.4395 19.4265C37.5665 19.4265 37.6692 19.3293 37.68 19.2023H37.6854V9.75806H37.1936Z" fill="#262626"/>
</g>
<defs>
<clipPath id="clip0_157_2781">
<rect width="34.5882" height="34.5882" fill="white" transform="translate(7.20459 7.20459)"/>
</clipPath>
</defs>
</svg>
