<svg width="97" height="13" viewBox="0 0 97 13" fill="none" xmlns="http://www.w3.org/2000/svg">
<path d="M2.38636 12H0.522727L4.71023 0.363636H6.73864L10.9261 12H9.0625L5.77273 2.47727H5.68182L2.38636 12ZM2.69886 7.44318H8.74432V8.92045H2.69886V7.44318ZM18.9474 5.40341L17.4077 5.67614C17.3433 5.47917 17.241 5.29167 17.1009 5.11364C16.9645 4.93561 16.7789 4.78977 16.544 4.67614C16.3092 4.5625 16.0156 4.50568 15.6634 4.50568C15.1823 4.50568 14.7808 4.61364 14.4588 4.82955C14.1368 5.04167 13.9759 5.31629 13.9759 5.65341C13.9759 5.94508 14.0838 6.17992 14.2997 6.35795C14.5156 6.53598 14.8641 6.68182 15.3452 6.79545L16.7315 7.11364C17.5346 7.29924 18.133 7.58523 18.527 7.97159C18.9209 8.35795 19.1179 8.85985 19.1179 9.47727C19.1179 10 18.9664 10.4659 18.6634 10.875C18.3641 11.2803 17.9455 11.5985 17.4077 11.8295C16.8736 12.0606 16.2543 12.1761 15.5497 12.1761C14.5724 12.1761 13.7751 11.9678 13.1577 11.5511C12.5402 11.1307 12.1615 10.5341 12.0213 9.76136L13.6634 9.51136C13.7656 9.93939 13.9759 10.2633 14.294 10.483C14.6122 10.6989 15.027 10.8068 15.5384 10.8068C16.0952 10.8068 16.5402 10.6913 16.8736 10.4602C17.2069 10.2254 17.3736 9.93939 17.3736 9.60227C17.3736 9.32955 17.2713 9.10038 17.0668 8.91477C16.866 8.72917 16.5573 8.58902 16.1406 8.49432L14.6634 8.17045C13.849 7.98485 13.2467 7.68939 12.8565 7.28409C12.4702 6.87879 12.277 6.36553 12.277 5.74432C12.277 5.22917 12.4209 4.77841 12.7088 4.39205C12.9967 4.00568 13.3944 3.70455 13.902 3.48864C14.4096 3.26894 14.991 3.15909 15.6463 3.15909C16.5895 3.15909 17.3319 3.36364 17.8736 3.77273C18.4152 4.17803 18.7732 4.72159 18.9474 5.40341ZM20.9858 12V3.27273H22.6165V4.69318H22.7244C22.9063 4.21212 23.2036 3.83712 23.6165 3.56818C24.0294 3.29545 24.5237 3.15909 25.0994 3.15909C25.6828 3.15909 26.1714 3.29545 26.5653 3.56818C26.9631 3.84091 27.2566 4.21591 27.446 4.69318H27.5369C27.7453 4.22727 28.0767 3.85606 28.5312 3.57955C28.9858 3.29924 29.5275 3.15909 30.1562 3.15909C30.9479 3.15909 31.5938 3.4072 32.0938 3.90341C32.5975 4.39962 32.8494 5.14773 32.8494 6.14773V12H31.1506V6.30682C31.1506 5.71591 30.9896 5.28788 30.6676 5.02273C30.3456 4.75758 29.9612 4.625 29.5142 4.625C28.9612 4.625 28.5312 4.79545 28.2244 5.13636C27.9176 5.47348 27.7642 5.9072 27.7642 6.4375V12H26.071V6.19886C26.071 5.72538 25.9233 5.3447 25.6278 5.05682C25.3324 4.76894 24.9479 4.625 24.4744 4.625C24.1525 4.625 23.8551 4.71023 23.5824 4.88068C23.3134 5.04735 23.0956 5.2803 22.929 5.57955C22.7661 5.87879 22.6847 6.22538 22.6847 6.61932V12H20.9858ZM37.6662 12.1932C37.1132 12.1932 36.6132 12.0909 36.1662 11.8864C35.7192 11.678 35.3651 11.3769 35.1037 10.983C34.8461 10.589 34.7173 10.1061 34.7173 9.53409C34.7173 9.04167 34.812 8.63636 35.0014 8.31818C35.1908 8 35.4465 7.74811 35.7685 7.5625C36.0904 7.37689 36.4503 7.23674 36.848 7.14205C37.2457 7.04735 37.651 6.97538 38.0639 6.92614C38.5866 6.86553 39.0109 6.81629 39.3366 6.77841C39.6624 6.73674 39.8991 6.67045 40.0469 6.57955C40.1946 6.48864 40.2685 6.34091 40.2685 6.13636V6.09659C40.2685 5.60038 40.1283 5.21591 39.848 4.94318C39.5715 4.67045 39.1586 4.53409 38.6094 4.53409C38.0374 4.53409 37.5866 4.66098 37.2571 4.91477C36.9313 5.16477 36.706 5.44318 36.581 5.75L34.9844 5.38636C35.1738 4.85606 35.4503 4.42803 35.8139 4.10227C36.1813 3.77273 36.6037 3.53409 37.081 3.38636C37.5582 3.23485 38.0601 3.15909 38.5866 3.15909C38.9351 3.15909 39.3045 3.20076 39.6946 3.28409C40.0885 3.36364 40.456 3.51136 40.7969 3.72727C41.1416 3.94318 41.4238 4.25189 41.6435 4.65341C41.8632 5.05114 41.973 5.56818 41.973 6.20455V12H40.3139V10.8068H40.2457C40.1359 11.0265 39.9711 11.2424 39.7514 11.4545C39.5317 11.6667 39.2495 11.8428 38.9048 11.983C38.5601 12.1231 38.1473 12.1932 37.6662 12.1932ZM38.0355 10.8295C38.5052 10.8295 38.9067 10.7367 39.2401 10.5511C39.5772 10.3655 39.8329 10.1231 40.0071 9.82386C40.1851 9.52083 40.2741 9.19697 40.2741 8.85227V7.72727C40.2135 7.78788 40.0961 7.8447 39.9219 7.89773C39.7514 7.94697 39.5563 7.99053 39.3366 8.02841C39.117 8.0625 38.9029 8.0947 38.6946 8.125C38.4863 8.15152 38.312 8.17424 38.1719 8.19318C37.8423 8.23485 37.5412 8.30492 37.2685 8.40341C36.9995 8.50189 36.7836 8.64394 36.6207 8.82955C36.4616 9.01136 36.3821 9.25379 36.3821 9.55682C36.3821 9.97727 36.5374 10.2955 36.848 10.5114C37.1586 10.7235 37.5545 10.8295 38.0355 10.8295ZM46.7756 12.1932C46.2225 12.1932 45.7225 12.0909 45.2756 11.8864C44.8286 11.678 44.4744 11.3769 44.2131 10.983C43.9555 10.589 43.8267 10.1061 43.8267 9.53409C43.8267 9.04167 43.9214 8.63636 44.1108 8.31818C44.3002 8 44.5559 7.74811 44.8778 7.5625C45.1998 7.37689 45.5597 7.23674 45.9574 7.14205C46.3551 7.04735 46.7604 6.97538 47.1733 6.92614C47.696 6.86553 48.1203 6.81629 48.446 6.77841C48.7718 6.73674 49.0085 6.67045 49.1562 6.57955C49.304 6.48864 49.3778 6.34091 49.3778 6.13636V6.09659C49.3778 5.60038 49.2377 5.21591 48.9574 4.94318C48.6809 4.67045 48.268 4.53409 47.7188 4.53409C47.1468 4.53409 46.696 4.66098 46.3665 4.91477C46.0407 5.16477 45.8153 5.44318 45.6903 5.75L44.0938 5.38636C44.2831 4.85606 44.5597 4.42803 44.9233 4.10227C45.2907 3.77273 45.7131 3.53409 46.1903 3.38636C46.6676 3.23485 47.1695 3.15909 47.696 3.15909C48.0445 3.15909 48.4138 3.20076 48.804 3.28409C49.1979 3.36364 49.5653 3.51136 49.9062 3.72727C50.2509 3.94318 50.5331 4.25189 50.7528 4.65341C50.9725 5.05114 51.0824 5.56818 51.0824 6.20455V12H49.4233V10.8068H49.3551C49.2453 11.0265 49.0805 11.2424 48.8608 11.4545C48.6411 11.6667 48.3589 11.8428 48.0142 11.983C47.6695 12.1231 47.2566 12.1932 46.7756 12.1932ZM47.1449 10.8295C47.6146 10.8295 48.0161 10.7367 48.3494 10.5511C48.6866 10.3655 48.9422 10.1231 49.1165 9.82386C49.2945 9.52083 49.3835 9.19697 49.3835 8.85227V7.72727C49.3229 7.78788 49.2055 7.8447 49.0312 7.89773C48.8608 7.94697 48.6657 7.99053 48.446 8.02841C48.2263 8.0625 48.0123 8.0947 47.804 8.125C47.5956 8.15152 47.4214 8.17424 47.2812 8.19318C46.9517 8.23485 46.6506 8.30492 46.3778 8.40341C46.1089 8.50189 45.893 8.64394 45.7301 8.82955C45.571 9.01136 45.4915 9.25379 45.4915 9.55682C45.4915 9.97727 45.6468 10.2955 45.9574 10.5114C46.268 10.7235 46.6638 10.8295 47.1449 10.8295ZM60.1193 12.1932C59.5663 12.1932 59.0663 12.0909 58.6193 11.8864C58.1723 11.678 57.8182 11.3769 57.5568 10.983C57.2992 10.589 57.1705 10.1061 57.1705 9.53409C57.1705 9.04167 57.2652 8.63636 57.4545 8.31818C57.6439 8 57.8996 7.74811 58.2216 7.5625C58.5436 7.37689 58.9034 7.23674 59.3011 7.14205C59.6989 7.04735 60.1042 6.97538 60.517 6.92614C61.0398 6.86553 61.464 6.81629 61.7898 6.77841C62.1155 6.73674 62.3523 6.67045 62.5 6.57955C62.6477 6.48864 62.7216 6.34091 62.7216 6.13636V6.09659C62.7216 5.60038 62.5814 5.21591 62.3011 4.94318C62.0246 4.67045 61.6117 4.53409 61.0625 4.53409C60.4905 4.53409 60.0398 4.66098 59.7102 4.91477C59.3845 5.16477 59.1591 5.44318 59.0341 5.75L57.4375 5.38636C57.6269 4.85606 57.9034 4.42803 58.267 4.10227C58.6345 3.77273 59.0568 3.53409 59.5341 3.38636C60.0114 3.23485 60.5133 3.15909 61.0398 3.15909C61.3883 3.15909 61.7576 3.20076 62.1477 3.28409C62.5417 3.36364 62.9091 3.51136 63.25 3.72727C63.5947 3.94318 63.8769 4.25189 64.0966 4.65341C64.3163 5.05114 64.4261 5.56818 64.4261 6.20455V12H62.767V10.8068H62.6989C62.589 11.0265 62.4242 11.2424 62.2045 11.4545C61.9848 11.6667 61.7027 11.8428 61.358 11.983C61.0133 12.1231 60.6004 12.1932 60.1193 12.1932ZM60.4886 10.8295C60.9583 10.8295 61.3598 10.7367 61.6932 10.5511C62.0303 10.3655 62.286 10.1231 62.4602 9.82386C62.6383 9.52083 62.7273 9.19697 62.7273 8.85227V7.72727C62.6667 7.78788 62.5492 7.8447 62.375 7.89773C62.2045 7.94697 62.0095 7.99053 61.7898 8.02841C61.5701 8.0625 61.3561 8.0947 61.1477 8.125C60.9394 8.15152 60.7652 8.17424 60.625 8.19318C60.2955 8.23485 59.9943 8.30492 59.7216 8.40341C59.4527 8.50189 59.2367 8.64394 59.0739 8.82955C58.9148 9.01136 58.8352 9.25379 58.8352 9.55682C58.8352 9.97727 58.9905 10.2955 59.3011 10.5114C59.6117 10.7235 60.0076 10.8295 60.4886 10.8295ZM68.581 12L66.0128 3.27273H67.7685L69.4787 9.68182H69.5639L71.2798 3.27273H73.0355L74.7401 9.65341H74.8253L76.5241 3.27273H78.2798L75.7173 12H73.9844L72.2116 5.69886H72.081L70.3082 12H68.581ZM82.4318 12.1932C81.8788 12.1932 81.3788 12.0909 80.9318 11.8864C80.4848 11.678 80.1307 11.3769 79.8693 10.983C79.6117 10.589 79.483 10.1061 79.483 9.53409C79.483 9.04167 79.5777 8.63636 79.767 8.31818C79.9564 8 80.2121 7.74811 80.5341 7.5625C80.8561 7.37689 81.2159 7.23674 81.6136 7.14205C82.0114 7.04735 82.4167 6.97538 82.8295 6.92614C83.3523 6.86553 83.7765 6.81629 84.1023 6.77841C84.428 6.73674 84.6648 6.67045 84.8125 6.57955C84.9602 6.48864 85.0341 6.34091 85.0341 6.13636V6.09659C85.0341 5.60038 84.8939 5.21591 84.6136 4.94318C84.3371 4.67045 83.9242 4.53409 83.375 4.53409C82.803 4.53409 82.3523 4.66098 82.0227 4.91477C81.697 5.16477 81.4716 5.44318 81.3466 5.75L79.75 5.38636C79.9394 4.85606 80.2159 4.42803 80.5795 4.10227C80.947 3.77273 81.3693 3.53409 81.8466 3.38636C82.3239 3.23485 82.8258 3.15909 83.3523 3.15909C83.7008 3.15909 84.0701 3.20076 84.4602 3.28409C84.8542 3.36364 85.2216 3.51136 85.5625 3.72727C85.9072 3.94318 86.1894 4.25189 86.4091 4.65341C86.6288 5.05114 86.7386 5.56818 86.7386 6.20455V12H85.0795V10.8068H85.0114C84.9015 11.0265 84.7367 11.2424 84.517 11.4545C84.2973 11.6667 84.0152 11.8428 83.6705 11.983C83.3258 12.1231 82.9129 12.1932 82.4318 12.1932ZM82.8011 10.8295C83.2708 10.8295 83.6723 10.7367 84.0057 10.5511C84.3428 10.3655 84.5985 10.1231 84.7727 9.82386C84.9508 9.52083 85.0398 9.19697 85.0398 8.85227V7.72727C84.9792 7.78788 84.8617 7.8447 84.6875 7.89773C84.517 7.94697 84.322 7.99053 84.1023 8.02841C83.8826 8.0625 83.6686 8.0947 83.4602 8.125C83.2519 8.15152 83.0777 8.17424 82.9375 8.19318C82.608 8.23485 82.3068 8.30492 82.0341 8.40341C81.7652 8.50189 81.5492 8.64394 81.3864 8.82955C81.2273 9.01136 81.1477 9.25379 81.1477 9.55682C81.1477 9.97727 81.303 10.2955 81.6136 10.5114C81.9242 10.7235 82.3201 10.8295 82.8011 10.8295ZM92.2685 12.1705C91.5639 12.1705 90.9351 11.9905 90.3821 11.6307C89.8329 11.267 89.401 10.75 89.0866 10.0795C88.776 9.4053 88.6207 8.59659 88.6207 7.65341C88.6207 6.71023 88.7779 5.90341 89.0923 5.23295C89.4105 4.5625 89.8461 4.04924 90.3991 3.69318C90.9522 3.33712 91.5791 3.15909 92.2798 3.15909C92.8215 3.15909 93.2571 3.25 93.5866 3.43182C93.92 3.60985 94.1776 3.81818 94.3594 4.05682C94.545 4.29545 94.6889 4.50568 94.7912 4.6875H94.8935V0.363636H96.5923V12H94.9332V10.642H94.7912C94.6889 10.8277 94.5412 11.0398 94.348 11.2784C94.1586 11.517 93.8973 11.7254 93.5639 11.9034C93.2306 12.0814 92.7988 12.1705 92.2685 12.1705ZM92.6435 10.7216C93.1321 10.7216 93.545 10.5928 93.8821 10.3352C94.223 10.0739 94.4806 9.71212 94.6548 9.25C94.8329 8.78788 94.9219 8.25 94.9219 7.63636C94.9219 7.0303 94.8348 6.5 94.6605 6.04545C94.4863 5.59091 94.2306 5.23674 93.8935 4.98295C93.5563 4.72917 93.1397 4.60227 92.6435 4.60227C92.1321 4.60227 91.706 4.73485 91.3651 5C91.0241 5.26515 90.7666 5.62689 90.5923 6.08523C90.4219 6.54356 90.3366 7.06061 90.3366 7.63636C90.3366 8.2197 90.4238 8.74432 90.598 9.21023C90.7723 9.67614 91.0298 10.0455 91.3707 10.3182C91.7154 10.5871 92.1397 10.7216 92.6435 10.7216Z" fill="black"/>
</svg>
