<svg width="54" height="29" viewBox="0 0 54 29" fill="none" xmlns="http://www.w3.org/2000/svg">
<rect width="54" height="29" rx="14.5" fill="#007AFF"/>
<path d="M27.0021 20.1591C26.2218 20.1591 25.5324 20.0208 24.9339 19.7443C24.3393 19.464 23.8752 19.0795 23.5419 18.5909C23.2086 18.0985 23.0438 17.5379 23.0476 16.9091C23.0438 16.4167 23.1404 15.9621 23.3374 15.5455C23.5343 15.125 23.8033 14.7746 24.1442 14.4943C24.4889 14.2102 24.8733 14.0303 25.2976 13.9545V13.8864C24.7408 13.7424 24.2976 13.4299 23.968 12.9489C23.6385 12.464 23.4756 11.9129 23.4794 11.2955C23.4756 10.7045 23.6252 10.1761 23.9283 9.71023C24.2313 9.24432 24.648 8.87689 25.1783 8.60795C25.7124 8.33901 26.3203 8.20455 27.0021 8.20455C27.6764 8.20455 28.2786 8.33901 28.8089 8.60795C29.3393 8.87689 29.7559 9.24432 30.0589 9.71023C30.3658 10.1761 30.5211 10.7045 30.5249 11.2955C30.5211 11.9129 30.3525 12.464 30.0192 12.9489C29.6896 13.4299 29.2521 13.7424 28.7067 13.8864V13.9545C29.1271 14.0303 29.5059 14.2102 29.843 14.4943C30.1802 14.7746 30.4491 15.125 30.6499 15.5455C30.8506 15.9621 30.9529 16.4167 30.9567 16.9091C30.9529 17.5379 30.7824 18.0985 30.4453 18.5909C30.112 19.0795 29.648 19.464 29.0533 19.7443C28.4624 20.0208 27.7786 20.1591 27.0021 20.1591ZM27.0021 18.9091C27.5286 18.9091 27.9832 18.8239 28.3658 18.6534C28.7483 18.483 29.0438 18.2424 29.2521 17.9318C29.4605 17.6212 29.5665 17.2576 29.5703 16.8409C29.5665 16.4015 29.4529 16.0133 29.2294 15.6761C29.0059 15.339 28.701 15.0739 28.3146 14.8807C27.9321 14.6875 27.4946 14.5909 27.0021 14.5909C26.5059 14.5909 26.0627 14.6875 25.6726 14.8807C25.2862 15.0739 24.9813 15.339 24.7578 15.6761C24.5381 16.0133 24.4302 16.4015 24.4339 16.8409C24.4302 17.2576 24.5305 17.6212 24.7351 17.9318C24.9434 18.2424 25.2408 18.483 25.6271 18.6534C26.0135 18.8239 26.4718 18.9091 27.0021 18.9091ZM27.0021 13.3864C27.4188 13.3864 27.7881 13.303 28.1101 13.1364C28.4358 12.9697 28.6915 12.7367 28.8771 12.4375C29.0627 12.1383 29.1574 11.7879 29.1612 11.3864C29.1574 10.9924 29.0646 10.6496 28.8828 10.358C28.701 10.0625 28.4491 9.83523 28.1271 9.67614C27.8052 9.51326 27.4302 9.43182 27.0021 9.43182C26.5665 9.43182 26.1858 9.51326 25.8601 9.67614C25.5343 9.83523 25.2824 10.0625 25.1044 10.358C24.9264 10.6496 24.8393 10.9924 24.843 11.3864C24.8393 11.7879 24.9283 12.1383 25.1101 12.4375C25.2957 12.7367 25.5514 12.9697 25.8771 13.1364C26.2029 13.303 26.5779 13.3864 27.0021 13.3864Z" fill="white"/>
</svg>
