<svg width="187" height="58" viewBox="0 0 187 58" fill="none" xmlns="http://www.w3.org/2000/svg">
<path d="M0.5 10C0.5 4.75329 4.75329 0.5 10 0.5H177C182.247 0.5 186.5 4.75329 186.5 10V48C186.5 53.2467 182.247 57.5 177 57.5H10C4.75329 57.5 0.5 53.2467 0.5 48V10Z" stroke="#CACACA"/>
<path d="M5 11C5 7.13401 8.13401 4 12 4H46C49.866 4 53 7.13401 53 11V47C53 50.866 49.866 54 46 54H12C8.13401 54 5 50.866 5 47V11Z" fill="#E5EBF7"/>
<path d="M61.7727 24.6136V23.3636H70.5V24.6136H66.8409V35H65.4318V24.6136H61.7727ZM73.8736 35.2045C73.3205 35.2045 72.8187 35.1004 72.3679 34.892C71.9171 34.6799 71.5592 34.375 71.294 33.9773C71.0289 33.5758 70.8963 33.0909 70.8963 32.5227C70.8963 32.0227 70.9948 31.6174 71.1918 31.3068C71.3887 30.9924 71.652 30.7462 71.9815 30.5682C72.3111 30.3902 72.6747 30.2576 73.0724 30.1705C73.474 30.0795 73.8774 30.0076 74.2827 29.9545C74.813 29.8864 75.2429 29.8352 75.5724 29.8011C75.9058 29.7633 76.1482 29.7008 76.2997 29.6136C76.455 29.5265 76.5327 29.375 76.5327 29.1591V29.1136C76.5327 28.553 76.3793 28.1174 76.0724 27.8068C75.7694 27.4962 75.3092 27.3409 74.6918 27.3409C74.0516 27.3409 73.5497 27.4811 73.1861 27.7614C72.8224 28.0417 72.5668 28.3409 72.419 28.6591L71.1463 28.2045C71.3736 27.6742 71.6766 27.2614 72.0554 26.9659C72.438 26.6667 72.8546 26.4583 73.3054 26.3409C73.7599 26.2197 74.2069 26.1591 74.6463 26.1591C74.9266 26.1591 75.2486 26.1932 75.6122 26.2614C75.9796 26.3258 76.3338 26.4602 76.6747 26.6648C77.0194 26.8693 77.3054 27.178 77.5327 27.5909C77.7599 28.0038 77.8736 28.5568 77.8736 29.25V35H76.5327V33.8182H76.4645C76.3736 34.0076 76.2221 34.2102 76.0099 34.4261C75.7978 34.642 75.5156 34.8258 75.1634 34.9773C74.8111 35.1288 74.3812 35.2045 73.8736 35.2045ZM74.0781 34C74.6084 34 75.0554 33.8958 75.419 33.6875C75.7865 33.4792 76.063 33.2102 76.2486 32.8807C76.438 32.5511 76.5327 32.2045 76.5327 31.8409V30.6136C76.4759 30.6818 76.3509 30.7443 76.1577 30.8011C75.9683 30.8542 75.7486 30.9015 75.4986 30.9432C75.2524 30.9811 75.0118 31.0152 74.777 31.0455C74.5459 31.072 74.3584 31.0947 74.2145 31.1136C73.866 31.1591 73.5402 31.233 73.2372 31.3352C72.938 31.4337 72.6955 31.5833 72.5099 31.7841C72.3281 31.9811 72.2372 32.25 72.2372 32.5909C72.2372 33.0568 72.4096 33.4091 72.7543 33.6477C73.1027 33.8826 73.544 34 74.0781 34ZM80.5028 35V23.3636H81.8438V27.6591H81.9574C82.0559 27.5076 82.1922 27.3144 82.3665 27.0795C82.5445 26.8409 82.7983 26.6288 83.1278 26.4432C83.4612 26.2538 83.9119 26.1591 84.4801 26.1591C85.215 26.1591 85.8627 26.3428 86.4233 26.7102C86.9839 27.0777 87.4214 27.5985 87.7358 28.2727C88.0502 28.947 88.2074 29.7424 88.2074 30.6591C88.2074 31.5833 88.0502 32.3845 87.7358 33.0625C87.4214 33.7367 86.9858 34.2595 86.429 34.6307C85.8722 34.9981 85.2301 35.1818 84.5028 35.1818C83.9422 35.1818 83.4934 35.089 83.1562 34.9034C82.8191 34.714 82.5597 34.5 82.3778 34.2614C82.196 34.0189 82.0559 33.8182 81.9574 33.6591H81.7983V35H80.5028ZM81.821 30.6364C81.821 31.2955 81.9176 31.8769 82.1108 32.3807C82.304 32.8807 82.5862 33.2727 82.9574 33.5568C83.3286 33.8371 83.7831 33.9773 84.321 33.9773C84.8816 33.9773 85.3494 33.8295 85.7244 33.5341C86.1032 33.2348 86.3873 32.8333 86.5767 32.3295C86.7699 31.822 86.8665 31.2576 86.8665 30.6364C86.8665 30.0227 86.7718 29.4697 86.5824 28.9773C86.3968 28.4811 86.1146 28.089 85.7358 27.8011C85.3608 27.5095 84.8892 27.3636 84.321 27.3636C83.7756 27.3636 83.3172 27.5019 82.946 27.7784C82.5748 28.0511 82.2945 28.4337 82.1051 28.9261C81.9157 29.4148 81.821 29.9848 81.821 30.6364ZM91.5994 23.3636V35H90.2585V23.3636H91.5994ZM97.7145 35.1818C96.8736 35.1818 96.1482 34.9962 95.5384 34.625C94.9323 34.25 94.4645 33.7273 94.1349 33.0568C93.8092 32.3826 93.6463 31.5985 93.6463 30.7045C93.6463 29.8106 93.8092 29.0227 94.1349 28.3409C94.4645 27.6553 94.9228 27.1212 95.5099 26.7386C96.1009 26.3523 96.7902 26.1591 97.5781 26.1591C98.0327 26.1591 98.4815 26.2348 98.9247 26.3864C99.3679 26.5379 99.7713 26.7841 100.135 27.125C100.499 27.4621 100.788 27.9091 101.004 28.4659C101.22 29.0227 101.328 29.7083 101.328 30.5227V31.0909H94.6009V29.9318H99.9645C99.9645 29.4394 99.866 29 99.669 28.6136C99.4759 28.2273 99.1993 27.9223 98.8395 27.6989C98.4834 27.4754 98.063 27.3636 97.5781 27.3636C97.044 27.3636 96.5819 27.4962 96.1918 27.7614C95.8054 28.0227 95.508 28.3636 95.2997 28.7841C95.0914 29.2045 94.9872 29.6553 94.9872 30.1364V30.9091C94.9872 31.5682 95.1009 32.1269 95.3281 32.5852C95.5592 33.0398 95.8793 33.3864 96.2884 33.625C96.6974 33.8598 97.1728 33.9773 97.7145 33.9773C98.0668 33.9773 98.3849 33.928 98.669 33.8295C98.9569 33.7273 99.205 33.5758 99.4134 33.375C99.6217 33.1705 99.7827 32.9167 99.8963 32.6136L101.192 32.9773C101.055 33.4167 100.826 33.803 100.504 34.1364C100.182 34.4659 99.7846 34.7235 99.3111 34.9091C98.8376 35.0909 98.3054 35.1818 97.7145 35.1818ZM109.55 28.2273L108.345 28.5682C108.269 28.3674 108.158 28.1723 108.01 27.983C107.866 27.7898 107.669 27.6307 107.419 27.5057C107.169 27.3807 106.849 27.3182 106.459 27.3182C105.925 27.3182 105.48 27.4413 105.124 27.6875C104.771 27.9299 104.595 28.2386 104.595 28.6136C104.595 28.947 104.716 29.2102 104.959 29.4034C105.201 29.5966 105.58 29.7576 106.095 29.8864L107.391 30.2045C108.171 30.3939 108.752 30.6837 109.135 31.0739C109.518 31.4602 109.709 31.9583 109.709 32.5682C109.709 33.0682 109.565 33.5152 109.277 33.9091C108.993 34.303 108.595 34.6136 108.084 34.8409C107.572 35.0682 106.978 35.1818 106.3 35.1818C105.41 35.1818 104.673 34.9886 104.089 34.6023C103.506 34.2159 103.137 33.6515 102.982 32.9091L104.254 32.5909C104.375 33.0606 104.605 33.4129 104.942 33.6477C105.283 33.8826 105.728 34 106.277 34C106.902 34 107.398 33.8674 107.766 33.6023C108.137 33.3333 108.322 33.0114 108.322 32.6364C108.322 32.3333 108.216 32.0795 108.004 31.875C107.792 31.6667 107.466 31.5114 107.027 31.4091L105.572 31.0682C104.773 30.8788 104.186 30.5852 103.811 30.1875C103.44 29.786 103.254 29.2841 103.254 28.6818C103.254 28.1894 103.393 27.7538 103.669 27.375C103.949 26.9962 104.33 26.6989 104.811 26.483C105.296 26.267 105.845 26.1591 106.459 26.1591C107.322 26.1591 108 26.3485 108.493 26.7273C108.989 27.1061 109.341 27.6061 109.55 28.2273Z" fill="black"/>
<path d="M19 26C19 24.114 19 23.172 19.586 22.586C20.172 22 21.114 22 23 22H35C36.886 22 37.828 22 38.414 22.586C39 23.172 39 24.114 39 26C39 26.471 39 26.707 38.854 26.854C38.707 27 38.47 27 38 27H20C19.529 27 19.293 27 19.146 26.854C19 26.707 19 26.47 19 26ZM19 35C19 36.886 19 37.828 19.586 38.414C20.172 39 21.114 39 23 39H35C36.886 39 37.828 39 38.414 38.414C39 37.828 39 36.886 39 35V30C39 29.529 39 29.293 38.854 29.146C38.707 29 38.47 29 38 29H20C19.529 29 19.293 29 19.146 29.146C19 29.293 19 29.53 19 30V35Z" fill="#2F3FFF"/>
<path d="M24 20V23M34 20V23" stroke="#2F3FFF" stroke-width="2" stroke-linecap="round"/>
</svg>
