<svg width="145" height="39" viewBox="0 0 145 39" fill="none" xmlns="http://www.w3.org/2000/svg">
<rect width="39" height="39" rx="5" fill="white"/>
<path d="M48.3423 16H46.7116L52.0661 5.81818H53.8409L55.8146 16H54.1839L52.6974 7.66761H52.6179L48.3423 16ZM49.277 12.0128H54.5668L54.348 13.3054H49.0582L49.277 12.0128ZM59.4029 11.4659L58.6571 16H57.1706L58.861 5.81818H60.3276L59.7012 9.60653H59.7956C60.0376 9.19223 60.3624 8.86577 60.7701 8.62713C61.181 8.38518 61.6848 8.2642 62.2814 8.2642C62.8051 8.2642 63.2443 8.37192 63.5989 8.58736C63.9569 8.80279 64.2087 9.12429 64.3546 9.55185C64.5037 9.97609 64.5269 10.5064 64.4242 11.1428L63.6088 16H62.1223L62.8979 11.3217C62.9907 10.7616 62.9178 10.3274 62.6792 10.0192C62.4405 9.70762 62.0676 9.55185 61.5605 9.55185C61.2059 9.55185 60.8778 9.62642 60.5762 9.77557C60.2779 9.92472 60.026 10.1435 59.8205 10.4318C59.615 10.7169 59.4758 11.0616 59.4029 11.4659ZM65.5925 16L66.8652 8.36364H68.2921L68.0833 9.60653H68.1777C68.4097 9.18561 68.7246 8.85748 69.1223 8.62216C69.5234 8.38352 69.9775 8.2642 70.4846 8.2642C70.9883 8.2642 71.3944 8.38352 71.7026 8.62216C72.0141 8.8608 72.218 9.18892 72.3141 9.60653H72.3936C72.6389 9.19555 72.9819 8.86908 73.4228 8.62713C73.8636 8.38518 74.3591 8.2642 74.9093 8.2642C75.5953 8.2642 76.1223 8.48295 76.4902 8.92045C76.8614 9.35464 76.9741 10.0076 76.8283 10.8793L75.9732 16H74.4817L75.3169 11.0185C75.3998 10.4981 75.3203 10.1236 75.0783 9.89489C74.8364 9.66288 74.5198 9.54688 74.1287 9.54688C73.6448 9.54688 73.2438 9.69602 72.9256 9.99432C72.6074 10.2893 72.4119 10.6688 72.339 11.1328L71.5186 16H70.0421L70.8922 10.924C70.9585 10.5064 70.8823 10.1733 70.6635 9.92472C70.4481 9.67282 70.1332 9.54688 69.7189 9.54688C69.4372 9.54688 69.1638 9.62145 68.8986 9.7706C68.6368 9.91974 68.4131 10.1252 68.2275 10.3871C68.0418 10.6489 67.9209 10.9505 67.8645 11.2919L67.079 16H65.5925ZM81.2319 16.1541C80.4828 16.1541 79.863 15.9934 79.3725 15.6719C78.8853 15.3471 78.5439 14.8913 78.3484 14.3047C78.1528 13.7147 78.1213 13.0237 78.2539 12.2315C78.3832 11.4493 78.6433 10.7599 79.0344 10.1634C79.4255 9.56676 79.9128 9.10109 80.4961 8.76633C81.0827 8.43158 81.7307 8.2642 82.44 8.2642C82.8709 8.2642 83.2769 8.33546 83.658 8.47798C84.0425 8.6205 84.369 8.84422 84.6374 9.14915C84.9059 9.45407 85.0915 9.85014 85.1942 10.3374C85.3003 10.8213 85.297 11.4096 85.1843 12.1023L85.0998 12.6293H79.0245L79.1985 11.5156H83.8121C83.8817 11.1245 83.8635 10.7782 83.7575 10.4766C83.6514 10.1716 83.4691 9.93134 83.2106 9.75568C82.9554 9.58002 82.6339 9.49219 82.2461 9.49219C81.8484 9.49219 81.4772 9.59659 81.1325 9.8054C80.7878 10.0142 80.4994 10.281 80.2674 10.6058C80.0387 10.9273 79.8945 11.2588 79.8349 11.6001L79.6609 12.6193C79.5747 13.1761 79.5896 13.6236 79.7056 13.9616C79.8249 14.2997 80.0337 14.545 80.332 14.6974C80.6303 14.8499 81.0032 14.9261 81.4506 14.9261C81.739 14.9261 82.0058 14.8864 82.2511 14.8068C82.4996 14.724 82.7201 14.603 82.9123 14.4439C83.1045 14.2815 83.2653 14.0793 83.3945 13.8374L84.7567 14.0909C84.5745 14.5052 84.3126 14.8681 83.9712 15.1797C83.6299 15.4879 83.2272 15.7282 82.7631 15.9006C82.3024 16.0696 81.792 16.1541 81.2319 16.1541ZM89.0534 16.1491C88.4337 16.1491 87.9083 15.9917 87.4775 15.6768C87.0499 15.3587 86.7466 14.9062 86.5676 14.3196C86.392 13.7296 86.3721 13.022 86.508 12.1967C86.6472 11.3714 86.9041 10.6655 87.2786 10.0788C87.6531 9.49219 88.1072 9.04309 88.6408 8.73153C89.1744 8.41998 89.7495 8.2642 90.3659 8.2642C90.8399 8.2642 91.2078 8.34375 91.4696 8.50284C91.7348 8.65862 91.9303 8.84091 92.0563 9.04972C92.1822 9.25852 92.2767 9.44247 92.3397 9.60156H92.4242L93.0556 5.81818H94.5421L92.8517 16H91.4L91.6039 14.8118H91.4796C91.3636 14.9742 91.2028 15.1598 90.9973 15.3686C90.7952 15.5774 90.5366 15.7597 90.2218 15.9155C89.9069 16.0713 89.5175 16.1491 89.0534 16.1491ZM89.5556 14.8814C89.9831 14.8814 90.3659 14.7687 90.704 14.5433C91.0454 14.3146 91.3288 13.9981 91.5542 13.5938C91.7828 13.1894 91.9419 12.7187 92.0314 12.1818C92.1209 11.6515 92.1193 11.1875 92.0265 10.7898C91.9337 10.392 91.7547 10.0821 91.4895 9.86009C91.2244 9.63802 90.8747 9.52699 90.4405 9.52699C89.9931 9.52699 89.6036 9.64299 89.2722 9.875C88.9408 10.107 88.669 10.4235 88.4569 10.8246C88.248 11.2256 88.1022 11.678 88.0194 12.1818C87.9332 12.6922 87.9299 13.1513 88.0094 13.5589C88.089 13.9666 88.2563 14.2898 88.5115 14.5284C88.7667 14.7637 89.1148 14.8814 89.5556 14.8814ZM98.7928 16L100.483 5.81818H106.797L106.578 7.14062H101.801L101.284 10.2429H105.609L105.39 11.5604H101.065L100.329 16H98.7928ZM109.052 16.169C108.568 16.169 108.145 16.0795 107.784 15.9006C107.423 15.7183 107.156 15.4548 106.983 15.1101C106.811 14.7654 106.766 14.3428 106.849 13.8423C106.922 13.4115 107.065 13.0568 107.277 12.7784C107.492 12.5 107.754 12.2796 108.062 12.1172C108.371 11.9515 108.705 11.8272 109.067 11.7443C109.428 11.6615 109.792 11.6001 110.16 11.5604C110.624 11.5073 111.001 11.4626 111.289 11.4261C111.581 11.3897 111.799 11.3333 111.945 11.2571C112.091 11.1776 112.179 11.0483 112.209 10.8693V10.8345C112.278 10.4036 112.215 10.0689 112.02 9.83026C111.827 9.5883 111.493 9.46733 111.015 9.46733C110.518 9.46733 110.101 9.5767 109.763 9.79545C109.428 10.0142 109.181 10.2595 109.022 10.5312L107.689 10.2131C107.928 9.74905 108.231 9.37453 108.599 9.08949C108.97 8.80114 109.376 8.59233 109.817 8.46307C110.258 8.33049 110.709 8.2642 111.17 8.2642C111.474 8.2642 111.791 8.30066 112.119 8.37358C112.447 8.44318 112.746 8.57244 113.014 8.76136C113.286 8.95028 113.488 9.22041 113.621 9.57173C113.753 9.91974 113.773 10.3722 113.68 10.929L112.84 16H111.388L111.567 14.956H111.508C111.382 15.1482 111.206 15.3371 110.981 15.5227C110.759 15.7083 110.487 15.8625 110.165 15.9851C109.844 16.1077 109.473 16.169 109.052 16.169ZM109.559 14.9759C109.973 14.9759 110.339 14.8946 110.657 14.7322C110.979 14.5698 111.239 14.3577 111.438 14.0959C111.637 13.8307 111.761 13.5473 111.811 13.2457L111.975 12.2614C111.912 12.3144 111.801 12.3625 111.642 12.4055C111.486 12.4486 111.31 12.4867 111.115 12.5199C110.919 12.553 110.727 12.5812 110.538 12.6044C110.353 12.6276 110.198 12.6491 110.076 12.669C109.784 12.7055 109.511 12.7668 109.256 12.853C109.004 12.9392 108.793 13.0634 108.624 13.2259C108.455 13.3849 108.349 13.5971 108.306 13.8622C108.246 14.2301 108.334 14.5085 108.569 14.6974C108.808 14.883 109.138 14.9759 109.559 14.9759ZM114.82 16L116.093 8.36364H117.529L117.326 9.5767H117.405C117.611 9.16572 117.911 8.84257 118.305 8.60724C118.699 8.36861 119.12 8.24929 119.568 8.24929C119.664 8.24929 119.773 8.2526 119.896 8.25923C120.019 8.26255 120.118 8.27083 120.194 8.28409L119.956 9.70597C119.899 9.68939 119.797 9.67116 119.647 9.65128C119.498 9.62808 119.344 9.61648 119.185 9.61648C118.837 9.61648 118.514 9.69105 118.216 9.8402C117.917 9.98603 117.667 10.1899 117.465 10.4517C117.263 10.7102 117.132 11.0052 117.072 11.3366L116.306 16H114.82ZM123.198 16.1541C122.472 16.1541 121.866 15.9884 121.379 15.657C120.892 15.3222 120.548 14.8549 120.35 14.255C120.154 13.6518 120.121 12.9508 120.25 12.152C120.376 11.3698 120.63 10.687 121.011 10.1037C121.395 9.52036 121.876 9.06794 122.453 8.74645C123.033 8.42495 123.677 8.2642 124.387 8.2642C125.112 8.2642 125.717 8.43158 126.201 8.76633C126.688 9.10109 127.031 9.57008 127.23 10.1733C127.429 10.7765 127.464 11.4792 127.335 12.2812C127.209 13.0568 126.952 13.7363 126.564 14.3196C126.18 14.8996 125.699 15.3504 125.122 15.6719C124.546 15.9934 123.904 16.1541 123.198 16.1541ZM123.283 14.9062C123.76 14.9062 124.176 14.7803 124.531 14.5284C124.889 14.2765 125.18 13.9418 125.406 13.5241C125.631 13.1065 125.785 12.6491 125.868 12.152C125.944 11.6714 125.943 11.2322 125.863 10.8345C125.787 10.4335 125.621 10.112 125.366 9.87003C125.111 9.62808 124.756 9.5071 124.302 9.5071C123.825 9.5071 123.405 9.63471 123.044 9.88991C122.686 10.1418 122.395 10.4782 122.169 10.8991C121.947 11.3201 121.796 11.7791 121.717 12.2763C121.641 12.7536 121.641 13.1927 121.717 13.5938C121.793 13.9915 121.959 14.3097 122.214 14.5483C122.469 14.7869 122.825 14.9062 123.283 14.9062ZM133.747 12.8331L134.493 8.36364H135.984L134.711 16H133.25L133.473 14.6776H133.394C133.155 15.0852 132.817 15.425 132.38 15.6967C131.945 15.9652 131.442 16.0994 130.868 16.0994C130.378 16.0994 129.962 15.9917 129.62 15.7763C129.282 15.5575 129.042 15.2344 128.9 14.8068C128.757 14.3793 128.737 13.8506 128.84 13.2209L129.655 8.36364H131.142L130.361 13.0419C130.278 13.5623 130.356 13.9766 130.595 14.2848C130.833 14.593 131.181 14.7472 131.639 14.7472C131.917 14.7472 132.206 14.6776 132.504 14.5384C132.802 14.3991 133.066 14.1887 133.294 13.907C133.526 13.6252 133.677 13.2673 133.747 12.8331ZM138.503 13.4098L138.787 11.5952H139.05L142.64 8.36364H144.42L140.343 12.0426H140.109L138.503 13.4098ZM136.709 16L138.399 5.81818H139.885L138.195 16H136.709ZM141.531 16L139.403 12.3707L140.591 11.3317L143.356 16H141.531Z" fill="white"/>
<path d="M48.1591 33V24.2727H48.9219V27.7031H48.9901C49.0753 27.5071 49.1974 27.3054 49.3565 27.098C49.5185 26.8906 49.7301 26.7173 49.9915 26.5781C50.2557 26.4361 50.5881 26.3651 50.9886 26.3651C51.5256 26.3651 51.9972 26.5071 52.4034 26.7912C52.8097 27.0724 53.1264 27.4673 53.3537 27.9759C53.581 28.4815 53.6946 29.071 53.6946 29.7443C53.6946 30.4205 53.581 31.0128 53.3537 31.5213C53.1293 32.0298 52.8139 32.4261 52.4077 32.7102C52.0043 32.9943 51.5355 33.1364 51.0014 33.1364C50.6037 33.1364 50.2713 33.0653 50.0043 32.9233C49.7401 32.7812 49.527 32.6065 49.3651 32.3991C49.2031 32.1889 49.0781 31.9844 48.9901 31.7855H48.8963V33H48.1591ZM48.9091 29.7315C48.9091 30.2599 48.9872 30.7287 49.1435 31.1378C49.3026 31.544 49.5298 31.8636 49.8253 32.0966C50.1236 32.3267 50.4844 32.4418 50.9077 32.4418C51.3423 32.4418 51.7102 32.3224 52.0114 32.0838C52.3125 31.8423 52.5412 31.517 52.6974 31.108C52.8537 30.6989 52.9318 30.2401 52.9318 29.7315C52.9318 29.2287 52.8537 28.7756 52.6974 28.3722C52.544 27.9687 52.3168 27.6491 52.0156 27.4134C51.7145 27.1747 51.3452 27.0554 50.9077 27.0554C50.4815 27.0554 50.1193 27.1705 49.821 27.4006C49.5256 27.6278 49.2997 27.9432 49.1435 28.3466C48.9872 28.7472 48.9091 29.2088 48.9091 29.7315ZM57.1889 33.1491C56.794 33.1491 56.4332 33.0724 56.1065 32.919C55.7798 32.7628 55.5199 32.5384 55.3267 32.2457C55.1335 31.9503 55.0369 31.5923 55.0369 31.1719C55.0369 30.848 55.098 30.5753 55.2202 30.3537C55.3423 30.1321 55.5156 29.9503 55.7401 29.8082C55.9645 29.6662 56.2301 29.554 56.5369 29.4716C56.8438 29.3892 57.1818 29.3253 57.5511 29.2798C57.9176 29.2344 58.2273 29.1946 58.4801 29.1605C58.7358 29.1264 58.9304 29.0724 59.0639 28.9986C59.1974 28.9247 59.2642 28.8054 59.2642 28.6406V28.4872C59.2642 28.0412 59.1307 27.6903 58.8636 27.4347C58.5994 27.1761 58.2188 27.0469 57.7216 27.0469C57.25 27.0469 56.8651 27.1506 56.5668 27.358C56.2713 27.5653 56.0639 27.8097 55.9446 28.0909L55.2244 27.831C55.3722 27.473 55.5767 27.1875 55.8381 26.9744C56.0994 26.7585 56.392 26.6037 56.7159 26.5099C57.0398 26.4134 57.3679 26.3651 57.7003 26.3651C57.9503 26.3651 58.2102 26.3977 58.4801 26.4631C58.7528 26.5284 59.0057 26.642 59.2386 26.804C59.4716 26.9631 59.6605 27.1861 59.8054 27.473C59.9503 27.7571 60.0227 28.1179 60.0227 28.5554V33H59.2642V31.9645H59.2173C59.1264 32.1577 58.9915 32.3452 58.8125 32.527C58.6335 32.7088 58.4091 32.858 58.1392 32.9744C57.8693 33.0909 57.5526 33.1491 57.1889 33.1491ZM57.2912 32.4545C57.6946 32.4545 58.044 32.3651 58.3395 32.1861C58.6349 32.0071 58.8622 31.7699 59.0213 31.4744C59.1832 31.1761 59.2642 30.848 59.2642 30.4901V29.544C59.2074 29.598 59.1122 29.6463 58.9787 29.6889C58.848 29.7315 58.696 29.7699 58.5227 29.804C58.3523 29.8352 58.1818 29.8622 58.0114 29.8849C57.8409 29.9077 57.6875 29.9276 57.5511 29.9446C57.1818 29.9901 56.8665 30.0611 56.6051 30.1577C56.3438 30.2543 56.1435 30.3878 56.0043 30.5582C55.8651 30.7259 55.7955 30.9418 55.7955 31.206C55.7955 31.6037 55.9375 31.9119 56.2216 32.1307C56.5057 32.3466 56.8622 32.4545 57.2912 32.4545ZM64.5973 33.1364C64.0121 33.1364 63.5021 32.9901 63.0675 32.6974C62.6357 32.4048 62.3004 32.0043 62.0618 31.4957C61.8232 30.9872 61.7038 30.4077 61.7038 29.7571C61.7038 29.1009 61.8246 28.517 62.0661 28.0057C62.3104 27.4943 62.6484 27.0937 63.0803 26.804C63.5121 26.5114 64.0135 26.3651 64.5845 26.3651C65.022 26.3651 65.4183 26.4503 65.7734 26.6207C66.1286 26.7884 66.4212 27.0256 66.6513 27.3324C66.8842 27.6364 67.0305 27.9915 67.0902 28.3977H66.3232C66.2436 28.0284 66.0518 27.7131 65.7479 27.4517C65.4467 27.1875 65.0632 27.0554 64.5973 27.0554C64.1797 27.0554 63.8104 27.169 63.4893 27.3963C63.1683 27.6207 62.9169 27.9347 62.7351 28.3381C62.5561 28.7386 62.4666 29.2031 62.4666 29.7315C62.4666 30.2628 62.5547 30.733 62.7308 31.142C62.907 31.5483 63.1541 31.8665 63.4723 32.0966C63.7933 32.3267 64.1683 32.4418 64.5973 32.4418C64.8871 32.4418 65.1513 32.3878 65.3899 32.2798C65.6314 32.169 65.8331 32.0128 65.995 31.8111C66.1598 31.6094 66.2706 31.3693 66.3274 31.0909H67.0945C67.0376 31.4858 66.897 31.8381 66.6726 32.1477C66.451 32.4545 66.1626 32.696 65.8075 32.8722C65.4553 33.0483 65.0518 33.1364 64.5973 33.1364ZM69.4105 30.5284L69.402 29.5355H69.5724L72.6406 26.4545H73.5994L70.5696 29.4886L70.5014 29.5014L69.4105 30.5284ZM68.7202 33V24.2727H69.4787V33H68.7202ZM72.7983 33L70.1392 29.6378L70.6847 29.1136L73.7699 33H72.7983ZM78.0067 28.9006V29.6165H74.3761V28.9006H78.0067ZM82.5579 33.1364C81.9471 33.1364 81.4187 32.9943 80.9727 32.7102C80.5266 32.4233 80.1815 32.027 79.9371 31.5213C79.6957 31.0128 79.5749 30.4276 79.5749 29.7656C79.5749 29.1065 79.6957 28.5213 79.9371 28.0099C80.1815 27.4957 80.5181 27.0937 80.9471 26.804C81.3789 26.5114 81.8775 26.3651 82.4428 26.3651C82.7979 26.3651 83.1403 26.4304 83.4698 26.5611C83.7994 26.6889 84.0948 26.8864 84.3562 27.1534C84.6204 27.4176 84.8292 27.7514 84.9826 28.1548C85.136 28.5554 85.2127 29.0298 85.2127 29.5781V29.9531H80.0991V29.2841H84.4371C84.4371 28.8636 84.3519 28.4858 84.1815 28.1506C84.0138 27.8125 83.7795 27.5455 83.4783 27.3494C83.18 27.1534 82.8349 27.0554 82.4428 27.0554C82.0281 27.0554 81.663 27.1662 81.3477 27.3878C81.0323 27.6094 80.7852 27.902 80.6062 28.2656C80.43 28.6293 80.3406 29.027 80.3377 29.4588V29.8594C80.3377 30.3793 80.4272 30.8338 80.6062 31.223C80.788 31.6094 81.0451 31.9091 81.3775 32.1222C81.7099 32.3352 82.1033 32.4418 82.5579 32.4418C82.8675 32.4418 83.1388 32.3935 83.3718 32.2969C83.6076 32.2003 83.805 32.071 83.9641 31.9091C84.1261 31.7443 84.2482 31.5639 84.3306 31.3679L85.0508 31.6023C84.9513 31.8778 84.788 32.1321 84.5607 32.3651C84.3363 32.598 84.055 32.7855 83.717 32.9276C83.3817 33.0668 82.9954 33.1364 82.5579 33.1364ZM87.6428 28.9091V33H86.8842V26.4545H87.6214V27.4815H87.6896C87.843 27.1463 88.0817 26.8778 88.4055 26.6761C88.7322 26.4716 89.1357 26.3693 89.6158 26.3693C90.0561 26.3693 90.4425 26.4616 90.7749 26.6463C91.1101 26.8281 91.37 27.0966 91.5547 27.4517C91.7422 27.8068 91.8359 28.2429 91.8359 28.7599V33H91.0774V28.8068C91.0774 28.2699 90.9268 27.8452 90.6257 27.5327C90.3274 27.2202 89.9268 27.0639 89.424 27.0639C89.0803 27.0639 88.7749 27.1378 88.5078 27.2855C88.2408 27.4332 88.0291 27.6463 87.8729 27.9247C87.7195 28.2003 87.6428 28.5284 87.6428 28.9091ZM96.19 33.1364C95.6531 33.1364 95.1829 32.9943 94.7795 32.7102C94.3761 32.4261 94.0607 32.0298 93.8335 31.5213C93.609 31.0128 93.4968 30.4205 93.4968 29.7443C93.4968 29.071 93.609 28.4815 93.8335 27.9759C94.0607 27.4673 94.3775 27.0724 94.7837 26.7912C95.19 26.5071 95.663 26.3651 96.2028 26.3651C96.6005 26.3651 96.9315 26.4361 97.1957 26.5781C97.4599 26.7173 97.6715 26.8906 97.8306 27.098C97.9897 27.3054 98.1133 27.5071 98.2013 27.7031H98.2695V24.2727H99.0323V33H98.2908V31.7855H98.2013C98.1133 31.9844 97.9883 32.1889 97.8263 32.3991C97.6644 32.6065 97.4499 32.7812 97.1829 32.9233C96.9187 33.0653 96.5877 33.1364 96.19 33.1364ZM96.2795 32.4418C96.7028 32.4418 97.0636 32.3267 97.3619 32.0966C97.6602 31.8636 97.8874 31.544 98.0437 31.1378C98.2028 30.7287 98.2823 30.2599 98.2823 29.7315C98.2823 29.2088 98.2042 28.7472 98.0479 28.3466C97.8917 27.9432 97.6644 27.6278 97.3661 27.4006C97.0678 27.1705 96.7056 27.0554 96.2795 27.0554C95.842 27.0554 95.4727 27.1747 95.1715 27.4134C94.8732 27.6491 94.646 27.9687 94.4897 28.3722C94.3363 28.7756 94.2596 29.2287 94.2596 29.7315C94.2596 30.2401 94.3377 30.6989 94.494 31.108C94.6502 31.517 94.8775 31.8423 95.1758 32.0838C95.4769 32.3224 95.8448 32.4418 96.2795 32.4418Z" fill="white"/>
</svg>
