<svg width="93" height="159" viewBox="0 0 93 159" fill="none" xmlns="http://www.w3.org/2000/svg">
<g filter="url(#filter0_d_747_1872)">
<rect x="4" width="85" height="151" rx="10" fill="#2F3FFF"/>
<circle cx="46.5" cy="39.5" r="28.5" fill="white"/>
<path d="M43.4215 24.0094C43.248 24.0352 43.0823 24.0989 42.9361 24.1959C42.9361 24.1959 41.4236 25.1476 39.7975 26.1771C38.1715 27.2053 36.3625 28.3388 35.9488 28.5684C35.9232 28.5794 35.8981 28.5914 35.8734 28.6042C34.3717 29.5309 34.0596 31.0445 34.0058 31.8935C34.0023 31.9329 34.0058 31.9652 34.0058 32.007C33.9927 32.3251 34.0058 32.5295 34.0058 32.5295V48.1482C34.0058 50.4176 36.6518 51.5092 39.1627 51.5092C39.9996 51.5092 40.8366 51.3741 41.5539 51.135C42.0322 50.8958 42.3753 50.4176 42.3753 49.9393V37.385C42.3753 34.6351 42.9732 33.3438 44.7666 32.2677C45.2449 32.0286 50.2594 28.5672 50.2594 28.5672C50.4986 28.328 50.7449 27.8426 50.7449 27.4839V27.3715C50.7449 26.8933 50.5057 26.5274 50.147 26.2883C49.7883 26.0492 49.3101 26.0492 48.9514 26.2883C48.8318 26.4078 41.5384 31.3184 39.9841 32.1553C38.4297 33.1118 36.9794 33.3426 36.6207 32.8643C36.5095 32.7531 36.4127 32.4124 36.3971 32.08V32.0047C36.3983 31.6794 36.482 31.0673 37.1444 30.6596C37.8164 30.2853 39.4843 29.22 41.1056 28.1941C41.7907 27.7601 41.8756 27.7135 42.4124 27.3715C42.4831 27.6636 42.6612 27.9184 42.9112 28.0851C43.1612 28.2518 43.4648 28.3183 43.7617 28.2713C44.0585 28.2242 44.3267 28.0672 44.5129 27.8313C44.6991 27.5955 44.7897 27.2981 44.7666 26.9985V25.205C44.768 25.0346 44.7329 24.8659 44.6637 24.7101C44.5944 24.5544 44.4927 24.4152 44.3654 24.302C44.238 24.1888 44.0879 24.1041 43.9251 24.0536C43.7623 24.0032 43.5906 23.9881 43.4215 24.0094ZM52.9867 28.1941C52.7966 28.2258 52.6169 28.3029 52.463 28.4189C52.463 28.4189 46.4441 32.4686 45.4015 33.1632C45.3889 33.1757 45.3765 33.1885 45.3645 33.2015C44.4988 33.8507 43.9859 34.6231 43.7575 35.3297C43.6296 35.7284 43.5666 36.145 43.571 36.5636V36.9379C43.5693 36.9749 43.5693 37.012 43.571 37.0491V51.5092C43.571 53.7809 46.1871 55.0961 48.5783 55.0961C49.6544 55.0961 50.6253 54.8642 51.3427 54.3859C52.7774 53.549 59.7122 48.147 59.7122 48.147C60.0709 47.9079 60.31 47.5707 60.31 47.212V31.6687C60.31 31.0709 60.078 30.7122 59.5998 30.473C59.2411 30.2339 58.6516 30.3463 58.2929 30.5854C56.3799 32.0202 51.2303 36.071 50.0346 36.7884C48.3607 37.7449 46.7837 37.9841 46.1859 37.3862C45.9467 37.1471 45.9623 36.9223 45.9623 36.5636C45.9695 36.358 45.9922 36.181 46.0376 36.0399C46.1046 35.8319 46.2409 35.576 46.7466 35.1815C46.7705 35.1623 46.7586 35.1635 46.7837 35.1444C47.6481 34.5669 50.2917 32.7651 52.0158 31.5934C52.1135 31.8554 52.2999 32.0749 52.5427 32.2137C52.7855 32.3525 53.0693 32.4018 53.3446 32.3531C53.62 32.3043 53.8696 32.1606 54.0499 31.9468C54.2303 31.7331 54.33 31.4629 54.3318 31.1832V29.3898C54.3331 29.2194 54.298 29.0506 54.2288 28.8949C54.1596 28.7391 54.0579 28.6 53.9305 28.4868C53.8031 28.3735 53.653 28.2889 53.4902 28.2384C53.3275 28.1879 53.1558 28.1728 52.9867 28.1941ZM57.9187 36.9379V39.3292L51.9405 43.9611V41.5698L57.9187 36.9379Z" fill="black"/>
<path d="M18.877 129.877C18.6628 129.954 18.4736 130.016 18.3096 130.062C18.1501 130.112 17.9678 130.137 17.7627 130.137C17.4072 130.137 17.1224 130.055 16.9082 129.891C16.6986 129.722 16.5641 129.478 16.5049 129.159H16.4639C16.1676 129.487 15.8486 129.738 15.5068 129.911C15.1696 130.084 14.7617 130.171 14.2832 130.171C13.7773 130.171 13.3604 130.016 13.0322 129.706C12.7087 129.396 12.5469 128.991 12.5469 128.489C12.5469 128.229 12.5833 127.997 12.6562 127.792C12.7292 127.587 12.8385 127.402 12.9844 127.238C13.0983 127.102 13.2487 126.981 13.4355 126.876C13.6224 126.767 13.7979 126.68 13.9619 126.616C14.167 126.539 14.5817 126.395 15.2061 126.186C15.835 125.976 16.2588 125.812 16.4775 125.693V125.017C16.4775 124.957 16.4639 124.843 16.4365 124.675C16.4137 124.506 16.3613 124.347 16.2793 124.196C16.1882 124.028 16.0583 123.882 15.8896 123.759C15.7256 123.631 15.4909 123.567 15.1855 123.567C14.9759 123.567 14.7799 123.604 14.5977 123.677C14.4199 123.745 14.2946 123.818 14.2217 123.896C14.2217 123.987 14.2422 124.121 14.2832 124.299C14.3288 124.477 14.3516 124.641 14.3516 124.791C14.3516 124.951 14.2786 125.096 14.1328 125.229C13.9915 125.361 13.7933 125.427 13.5381 125.427C13.3102 125.427 13.1416 125.347 13.0322 125.188C12.9274 125.023 12.875 124.841 12.875 124.641C12.875 124.431 12.9479 124.23 13.0938 124.039C13.2441 123.848 13.4378 123.677 13.6748 123.526C13.8799 123.399 14.1283 123.292 14.4199 123.205C14.7116 123.114 14.9964 123.068 15.2744 123.068C15.6572 123.068 15.9899 123.096 16.2725 123.15C16.5596 123.201 16.8193 123.312 17.0518 123.485C17.2842 123.654 17.4596 123.884 17.5781 124.176C17.7012 124.463 17.7627 124.834 17.7627 125.29C17.7627 125.942 17.7559 126.521 17.7422 127.026C17.7285 127.528 17.7217 128.077 17.7217 128.674C17.7217 128.852 17.7513 128.993 17.8105 129.098C17.8743 129.202 17.9701 129.291 18.0977 129.364C18.166 129.405 18.2731 129.428 18.4189 129.433C18.5693 129.437 18.722 129.439 18.877 129.439V129.877ZM16.4912 126.268C16.1038 126.382 15.7643 126.493 15.4727 126.603C15.181 126.712 14.9098 126.849 14.6592 127.013C14.4313 127.168 14.2513 127.352 14.1191 127.566C13.987 127.776 13.9209 128.027 13.9209 128.318C13.9209 128.697 14.0189 128.975 14.2148 129.152C14.4154 129.33 14.6683 129.419 14.9736 129.419C15.2972 129.419 15.582 129.341 15.8281 129.187C16.0742 129.027 16.2816 128.84 16.4502 128.626L16.4912 126.268ZM23.71 129.706C23.4137 129.829 23.1335 129.932 22.8691 130.014C22.6048 130.1 22.2812 130.144 21.8984 130.144C21.3333 130.144 20.9346 130.002 20.7021 129.72C20.4743 129.433 20.3604 129.029 20.3604 128.51V123.943H19.1436V123.287H20.3877V121.188H21.6318V123.287H23.5664V123.943H21.6455V127.71C21.6455 127.993 21.6546 128.229 21.6729 128.421C21.6956 128.608 21.7458 128.772 21.8232 128.913C21.8962 129.045 22.0055 129.146 22.1514 129.214C22.2972 129.282 22.4932 129.316 22.7393 129.316C22.8532 129.316 23.0195 129.307 23.2383 129.289C23.4616 129.266 23.6188 129.239 23.71 129.207V129.706ZM28.5498 129.706C28.2536 129.829 27.9733 129.932 27.709 130.014C27.4447 130.1 27.1211 130.144 26.7383 130.144C26.1732 130.144 25.7744 130.002 25.542 129.72C25.3141 129.433 25.2002 129.029 25.2002 128.51V123.943H23.9834V123.287H25.2275V121.188H26.4717V123.287H28.4062V123.943H26.4854V127.71C26.4854 127.993 26.4945 128.229 26.5127 128.421C26.5355 128.608 26.5856 128.772 26.6631 128.913C26.736 129.045 26.8454 129.146 26.9912 129.214C27.137 129.282 27.333 129.316 27.5791 129.316C27.693 129.316 27.8594 129.307 28.0781 129.289C28.3014 129.266 28.4587 129.239 28.5498 129.207V129.706ZM35.2148 128.414C34.9323 128.952 34.554 129.38 34.0801 129.699C33.6061 130.018 33.0615 130.178 32.4463 130.178C31.904 130.178 31.4277 130.082 31.0176 129.891C30.612 129.699 30.277 129.439 30.0127 129.111C29.7484 128.783 29.5501 128.4 29.418 127.963C29.2904 127.525 29.2266 127.063 29.2266 126.575C29.2266 126.138 29.2949 125.709 29.4316 125.29C29.5729 124.866 29.778 124.486 30.0469 124.148C30.3066 123.825 30.6279 123.565 31.0107 123.369C31.3981 123.169 31.8311 123.068 32.3096 123.068C32.8018 123.068 33.2233 123.146 33.5742 123.301C33.9251 123.456 34.21 123.668 34.4287 123.937C34.6383 124.192 34.7933 124.493 34.8936 124.839C34.9984 125.185 35.0508 125.561 35.0508 125.967V126.418H30.5869C30.5869 126.86 30.6279 127.261 30.71 127.621C30.7965 127.981 30.931 128.298 31.1133 128.571C31.291 128.836 31.5234 129.045 31.8105 129.2C32.0977 129.351 32.4395 129.426 32.8359 129.426C33.2415 129.426 33.5902 129.332 33.8818 129.146C34.1781 128.954 34.4629 128.612 34.7363 128.12L35.2148 128.414ZM33.7041 125.844C33.7041 125.589 33.6813 125.315 33.6357 125.023C33.5947 124.732 33.5264 124.488 33.4307 124.292C33.3258 124.082 33.1823 123.911 33 123.779C32.8177 123.647 32.583 123.581 32.2959 123.581C31.8174 123.581 31.4186 123.782 31.0996 124.183C30.7852 124.579 30.6143 125.133 30.5869 125.844H33.7041ZM43.4385 130H40.1367V129.549C40.2415 129.54 40.3555 129.531 40.4785 129.521C40.6061 129.512 40.7109 129.494 40.793 129.467C40.9206 129.426 41.014 129.355 41.0732 129.255C41.137 129.15 41.1689 129.016 41.1689 128.852V125.386C41.1689 124.907 41.055 124.538 40.8271 124.278C40.6038 124.019 40.3304 123.889 40.0068 123.889C39.7653 123.889 39.5443 123.927 39.3438 124.005C39.1432 124.078 38.9655 124.169 38.8105 124.278C38.6602 124.383 38.5394 124.497 38.4482 124.62C38.3617 124.739 38.2979 124.834 38.2568 124.907V128.783C38.2568 128.938 38.2887 129.066 38.3525 129.166C38.4163 129.266 38.512 129.344 38.6396 129.398C38.7354 129.444 38.8379 129.478 38.9473 129.501C39.0612 129.524 39.1774 129.54 39.2959 129.549V130H35.9941V129.549C36.099 129.54 36.2061 129.531 36.3154 129.521C36.4294 129.512 36.5273 129.494 36.6094 129.467C36.737 129.426 36.8304 129.355 36.8896 129.255C36.9535 129.15 36.9854 129.016 36.9854 128.852V124.688C36.9854 124.534 36.9512 124.392 36.8828 124.265C36.819 124.132 36.7279 124.025 36.6094 123.943C36.5228 123.889 36.4202 123.85 36.3018 123.827C36.1833 123.8 36.0557 123.782 35.9189 123.772V123.328L38.1611 123.178L38.2568 123.273V124.224H38.291C38.4004 124.114 38.5371 123.984 38.7012 123.834C38.8652 123.679 39.0202 123.554 39.166 123.458C39.3346 123.349 39.5352 123.257 39.7676 123.185C40 123.112 40.262 123.075 40.5537 123.075C41.2008 123.075 41.6794 123.278 41.9893 123.684C42.3037 124.085 42.4609 124.62 42.4609 125.29V128.797C42.4609 128.956 42.4883 129.086 42.543 129.187C42.5977 129.282 42.6911 129.357 42.8232 129.412C42.9326 129.458 43.026 129.49 43.1035 129.508C43.1855 129.526 43.2972 129.54 43.4385 129.549V130ZM51.6484 129.877L49.2969 130.027L49.1943 129.932V129.303L49.1396 129.289C48.9027 129.553 48.6087 129.77 48.2578 129.938C47.9115 130.107 47.5537 130.191 47.1846 130.191C46.8018 130.191 46.4303 130.107 46.0703 129.938C45.7148 129.765 45.4049 129.524 45.1406 129.214C44.8717 128.899 44.6576 128.521 44.498 128.079C44.3431 127.637 44.2656 127.149 44.2656 126.616C44.2656 126.129 44.3499 125.666 44.5186 125.229C44.6872 124.791 44.9196 124.408 45.2158 124.08C45.4938 123.775 45.8333 123.531 46.2344 123.349C46.64 123.166 47.0524 123.075 47.4717 123.075C47.7861 123.075 48.0938 123.116 48.3945 123.198C48.6999 123.276 48.9619 123.376 49.1807 123.499V121.154C49.1807 120.963 49.1488 120.79 49.085 120.635C49.0212 120.475 48.9323 120.354 48.8184 120.272C48.6908 120.186 48.5176 120.124 48.2988 120.088C48.0846 120.047 47.8522 120.017 47.6016 119.999V119.575L50.3564 119.418L50.459 119.521V128.612C50.459 128.772 50.4886 128.909 50.5479 129.022C50.6117 129.132 50.7028 129.225 50.8213 129.303C50.9079 129.357 51.0332 129.392 51.1973 129.405C51.3613 129.419 51.5117 129.428 51.6484 129.433V129.877ZM49.1807 128.694V124.75C49.1442 124.632 49.085 124.504 49.0029 124.367C48.9209 124.23 48.8184 124.105 48.6953 123.991C48.5632 123.877 48.4082 123.784 48.2305 123.711C48.0527 123.633 47.8454 123.595 47.6084 123.595C47.335 123.595 47.082 123.665 46.8496 123.807C46.6217 123.948 46.4189 124.151 46.2412 124.415C46.0726 124.67 45.9382 124.996 45.8379 125.393C45.7422 125.785 45.6943 126.22 45.6943 126.698C45.6943 127.081 45.7308 127.43 45.8037 127.744C45.8766 128.054 45.9997 128.343 46.1729 128.612C46.3324 128.868 46.5352 129.073 46.7812 129.228C47.0319 129.382 47.3281 129.46 47.6699 129.46C48.0345 129.46 48.3353 129.38 48.5723 129.221C48.8138 129.061 49.0166 128.886 49.1807 128.694ZM58.6895 129.877C58.4753 129.954 58.2861 130.016 58.1221 130.062C57.9626 130.112 57.7803 130.137 57.5752 130.137C57.2197 130.137 56.9349 130.055 56.7207 129.891C56.5111 129.722 56.3766 129.478 56.3174 129.159H56.2764C55.9801 129.487 55.6611 129.738 55.3193 129.911C54.9821 130.084 54.5742 130.171 54.0957 130.171C53.5898 130.171 53.1729 130.016 52.8447 129.706C52.5212 129.396 52.3594 128.991 52.3594 128.489C52.3594 128.229 52.3958 127.997 52.4688 127.792C52.5417 127.587 52.651 127.402 52.7969 127.238C52.9108 127.102 53.0612 126.981 53.248 126.876C53.4349 126.767 53.6104 126.68 53.7744 126.616C53.9795 126.539 54.3942 126.395 55.0186 126.186C55.6475 125.976 56.0713 125.812 56.29 125.693V125.017C56.29 124.957 56.2764 124.843 56.249 124.675C56.2262 124.506 56.1738 124.347 56.0918 124.196C56.0007 124.028 55.8708 123.882 55.7021 123.759C55.5381 123.631 55.3034 123.567 54.998 123.567C54.7884 123.567 54.5924 123.604 54.4102 123.677C54.2324 123.745 54.1071 123.818 54.0342 123.896C54.0342 123.987 54.0547 124.121 54.0957 124.299C54.1413 124.477 54.1641 124.641 54.1641 124.791C54.1641 124.951 54.0911 125.096 53.9453 125.229C53.804 125.361 53.6058 125.427 53.3506 125.427C53.1227 125.427 52.9541 125.347 52.8447 125.188C52.7399 125.023 52.6875 124.841 52.6875 124.641C52.6875 124.431 52.7604 124.23 52.9062 124.039C53.0566 123.848 53.2503 123.677 53.4873 123.526C53.6924 123.399 53.9408 123.292 54.2324 123.205C54.5241 123.114 54.8089 123.068 55.0869 123.068C55.4697 123.068 55.8024 123.096 56.085 123.15C56.3721 123.201 56.6318 123.312 56.8643 123.485C57.0967 123.654 57.2721 123.884 57.3906 124.176C57.5137 124.463 57.5752 124.834 57.5752 125.29C57.5752 125.942 57.5684 126.521 57.5547 127.026C57.541 127.528 57.5342 128.077 57.5342 128.674C57.5342 128.852 57.5638 128.993 57.623 129.098C57.6868 129.202 57.7826 129.291 57.9102 129.364C57.9785 129.405 58.0856 129.428 58.2314 129.433C58.3818 129.437 58.5345 129.439 58.6895 129.439V129.877ZM56.3037 126.268C55.9163 126.382 55.5768 126.493 55.2852 126.603C54.9935 126.712 54.7223 126.849 54.4717 127.013C54.2438 127.168 54.0638 127.352 53.9316 127.566C53.7995 127.776 53.7334 128.027 53.7334 128.318C53.7334 128.697 53.8314 128.975 54.0273 129.152C54.2279 129.33 54.4808 129.419 54.7861 129.419C55.1097 129.419 55.3945 129.341 55.6406 129.187C55.8867 129.027 56.0941 128.84 56.2627 128.626L56.3037 126.268ZM66.8037 130H63.502V129.549C63.6068 129.54 63.7207 129.531 63.8438 129.521C63.9714 129.512 64.0762 129.494 64.1582 129.467C64.2858 129.426 64.3792 129.355 64.4385 129.255C64.5023 129.15 64.5342 129.016 64.5342 128.852V125.386C64.5342 124.907 64.4202 124.538 64.1924 124.278C63.9691 124.019 63.6956 123.889 63.3721 123.889C63.1305 123.889 62.9095 123.927 62.709 124.005C62.5085 124.078 62.3307 124.169 62.1758 124.278C62.0254 124.383 61.9046 124.497 61.8135 124.62C61.7269 124.739 61.6631 124.834 61.6221 124.907V128.783C61.6221 128.938 61.654 129.066 61.7178 129.166C61.7816 129.266 61.8773 129.344 62.0049 129.398C62.1006 129.444 62.2031 129.478 62.3125 129.501C62.4264 129.524 62.5426 129.54 62.6611 129.549V130H59.3594V129.549C59.4642 129.54 59.5713 129.531 59.6807 129.521C59.7946 129.512 59.8926 129.494 59.9746 129.467C60.1022 129.426 60.1956 129.355 60.2549 129.255C60.3187 129.15 60.3506 129.016 60.3506 128.852V124.688C60.3506 124.534 60.3164 124.392 60.248 124.265C60.1842 124.132 60.0931 124.025 59.9746 123.943C59.888 123.889 59.7855 123.85 59.667 123.827C59.5485 123.8 59.4209 123.782 59.2842 123.772V123.328L61.5264 123.178L61.6221 123.273V124.224H61.6562C61.7656 124.114 61.9023 123.984 62.0664 123.834C62.2305 123.679 62.3854 123.554 62.5312 123.458C62.6999 123.349 62.9004 123.257 63.1328 123.185C63.3652 123.112 63.6273 123.075 63.9189 123.075C64.5661 123.075 65.0446 123.278 65.3545 123.684C65.6689 124.085 65.8262 124.62 65.8262 125.29V128.797C65.8262 128.956 65.8535 129.086 65.9082 129.187C65.9629 129.282 66.0563 129.357 66.1885 129.412C66.2979 129.458 66.3913 129.49 66.4688 129.508C66.5508 129.526 66.6624 129.54 66.8037 129.549V130ZM70.748 130.178C69.7728 130.178 69.0094 129.854 68.458 129.207C67.9066 128.56 67.6309 127.692 67.6309 126.603C67.6309 126.129 67.7038 125.687 67.8496 125.276C68 124.862 68.2165 124.486 68.499 124.148C68.7679 123.825 69.1051 123.565 69.5107 123.369C69.9163 123.169 70.3584 123.068 70.8369 123.068C71.4977 123.068 72.0355 123.228 72.4502 123.547C72.8649 123.861 73.0723 124.292 73.0723 124.839C73.0723 125.067 73.0176 125.27 72.9082 125.447C72.7988 125.62 72.6188 125.707 72.3682 125.707C72.0993 125.707 71.8896 125.639 71.7393 125.502C71.5934 125.365 71.5205 125.213 71.5205 125.044C71.5205 124.839 71.5479 124.629 71.6025 124.415C71.6572 124.196 71.6891 124.037 71.6982 123.937C71.6162 123.795 71.4932 123.702 71.3291 123.656C71.1696 123.606 70.9964 123.581 70.8096 123.581C70.5908 123.581 70.3812 123.629 70.1807 123.725C69.9847 123.816 69.7933 123.987 69.6064 124.237C69.4378 124.465 69.3011 124.773 69.1963 125.16C69.0915 125.548 69.0391 126.01 69.0391 126.548C69.0391 127.396 69.2259 128.088 69.5996 128.626C69.9779 129.159 70.4723 129.426 71.083 129.426C71.5251 129.426 71.8942 129.319 72.1904 129.104C72.4912 128.89 72.7692 128.569 73.0244 128.141L73.4619 128.428C73.1611 128.965 72.7646 129.392 72.2725 129.706C71.7803 130.021 71.2721 130.178 70.748 130.178ZM79.9766 128.414C79.694 128.952 79.3158 129.38 78.8418 129.699C78.3678 130.018 77.8232 130.178 77.208 130.178C76.6657 130.178 76.1895 130.082 75.7793 129.891C75.3737 129.699 75.0387 129.439 74.7744 129.111C74.5101 128.783 74.3118 128.4 74.1797 127.963C74.0521 127.525 73.9883 127.063 73.9883 126.575C73.9883 126.138 74.0566 125.709 74.1934 125.29C74.3346 124.866 74.5397 124.486 74.8086 124.148C75.0684 123.825 75.3896 123.565 75.7725 123.369C76.1598 123.169 76.5928 123.068 77.0713 123.068C77.5635 123.068 77.985 123.146 78.3359 123.301C78.6868 123.456 78.9717 123.668 79.1904 123.937C79.4001 124.192 79.555 124.493 79.6553 124.839C79.7601 125.185 79.8125 125.561 79.8125 125.967V126.418H75.3486C75.3486 126.86 75.3896 127.261 75.4717 127.621C75.5583 127.981 75.6927 128.298 75.875 128.571C76.0527 128.836 76.2852 129.045 76.5723 129.2C76.8594 129.351 77.2012 129.426 77.5977 129.426C78.0033 129.426 78.3519 129.332 78.6436 129.146C78.9398 128.954 79.2246 128.612 79.498 128.12L79.9766 128.414ZM78.4658 125.844C78.4658 125.589 78.443 125.315 78.3975 125.023C78.3564 124.732 78.2881 124.488 78.1924 124.292C78.0876 124.082 77.944 123.911 77.7617 123.779C77.5794 123.647 77.3447 123.581 77.0576 123.581C76.5791 123.581 76.1803 123.782 75.8613 124.183C75.5469 124.579 75.376 125.133 75.3486 125.844H78.4658Z" fill="white"/>
</g>
<defs>
<filter id="filter0_d_747_1872" x="0" y="0" width="93" height="159" filterUnits="userSpaceOnUse" color-interpolation-filters="sRGB">
<feFlood flood-opacity="0" result="BackgroundImageFix"/>
<feColorMatrix in="SourceAlpha" type="matrix" values="0 0 0 0 0 0 0 0 0 0 0 0 0 0 0 0 0 0 127 0" result="hardAlpha"/>
<feOffset dy="4"/>
<feGaussianBlur stdDeviation="2"/>
<feComposite in2="hardAlpha" operator="out"/>
<feColorMatrix type="matrix" values="0 0 0 0 0 0 0 0 0 0 0 0 0 0 0 0 0 0 0.25 0"/>
<feBlend mode="normal" in2="BackgroundImageFix" result="effect1_dropShadow_747_1872"/>
<feBlend mode="normal" in="SourceGraphic" in2="effect1_dropShadow_747_1872" result="shape"/>
</filter>
</defs>
</svg>
