<svg width="139" height="39" viewBox="0 0 139 39" fill="none" xmlns="http://www.w3.org/2000/svg">
<rect width="39" height="39" rx="5" fill="white"/>
<path d="M48.3423 16H46.7116L52.0661 5.81818H53.8409L55.8146 16H54.1839L52.6974 7.66761H52.6179L48.3423 16ZM49.277 12.0128H54.5668L54.348 13.3054H49.0582L49.277 12.0128ZM63.7978 10.228L62.4107 10.4666C62.3809 10.291 62.3195 10.1252 62.2267 9.96946C62.1373 9.81368 61.9997 9.68774 61.8141 9.59162C61.6285 9.49219 61.3816 9.44247 61.0733 9.44247C60.6458 9.44247 60.2712 9.54025 59.9498 9.7358C59.6316 9.93134 59.4493 10.1799 59.4029 10.4815C59.3598 10.7268 59.4178 10.9257 59.5769 11.0781C59.736 11.2273 60.016 11.3516 60.4171 11.451L61.5904 11.7294C62.2665 11.8918 62.7504 12.1454 63.0421 12.4901C63.3371 12.8314 63.4398 13.2756 63.3503 13.8224C63.2741 14.2765 63.0752 14.6792 62.7537 15.0305C62.4355 15.3819 62.0279 15.657 61.5307 15.8558C61.0336 16.0547 60.4801 16.1541 59.8702 16.1541C59.0018 16.1541 58.3257 15.9702 57.8418 15.6023C57.3579 15.2344 57.1093 14.714 57.0961 14.0412L58.5676 13.8224C58.5942 14.197 58.7284 14.4804 58.9703 14.6726C59.2156 14.8615 59.5553 14.956 59.9895 14.956C60.4867 14.9593 60.9026 14.8549 61.2374 14.6428C61.5721 14.4306 61.7627 14.1738 61.8091 13.8722C61.8489 13.6368 61.7959 13.4413 61.65 13.2855C61.5075 13.1297 61.2556 13.0104 60.8944 12.9276L59.6614 12.6442C58.972 12.4818 58.4848 12.2199 58.1998 11.8587C57.9147 11.4974 57.8186 11.0433 57.9114 10.4964C57.9843 10.049 58.1732 9.65956 58.4782 9.32812C58.7864 8.99337 59.1758 8.73319 59.6465 8.54758C60.1171 8.35866 60.6375 8.2642 61.2076 8.2642C62.0395 8.2642 62.6642 8.44318 63.0819 8.80114C63.4995 9.15578 63.7381 9.63139 63.7978 10.228ZM66.854 11.4659L66.1083 16H64.6218L66.3121 5.81818H67.7788L67.1523 9.60653H67.2468C67.4888 9.19223 67.8136 8.86577 68.2212 8.62713C68.6322 8.38518 69.136 8.2642 69.7326 8.2642C70.2563 8.2642 70.6954 8.37192 71.0501 8.58736C71.408 8.80279 71.6599 9.12429 71.8058 9.55185C71.9549 9.97609 71.9781 10.5064 71.8754 11.1428L71.06 16H69.5735L70.3491 11.3217C70.4419 10.7616 70.369 10.3274 70.1303 10.0192C69.8917 9.70762 69.5188 9.55185 69.0117 9.55185C68.6571 9.55185 68.329 9.62642 68.0273 9.77557C67.729 9.92472 67.4772 10.1435 67.2717 10.4318C67.0662 10.7169 66.927 11.0616 66.854 11.4659ZM73.0387 16L74.3114 8.36364H75.7482L75.5444 9.5767H75.6239C75.8294 9.16572 76.1294 8.84257 76.5238 8.60724C76.9182 8.36861 77.3391 8.24929 77.7866 8.24929C77.8827 8.24929 77.9921 8.2526 78.1147 8.25923C78.2373 8.26255 78.3368 8.27083 78.413 8.28409L78.1744 9.70597C78.118 9.68939 78.0153 9.67116 77.8661 9.65128C77.717 9.62808 77.5629 9.61648 77.4038 9.61648C77.0558 9.61648 76.7326 9.69105 76.4343 9.8402C76.136 9.98603 75.8858 10.1899 75.6836 10.4517C75.4814 10.7102 75.3505 11.0052 75.2908 11.3366L74.5252 16H73.0387ZM80.5732 16.169C80.0893 16.169 79.6667 16.0795 79.3054 15.9006C78.9441 15.7183 78.6773 15.4548 78.505 15.1101C78.3326 14.7654 78.2879 14.3428 78.3707 13.8423C78.4437 13.4115 78.5862 13.0568 78.7983 12.7784C79.0137 12.5 79.2756 12.2796 79.5838 12.1172C79.892 11.9515 80.2268 11.8272 80.5881 11.7443C80.9493 11.6615 81.3139 11.6001 81.6818 11.5604C82.1458 11.5073 82.522 11.4626 82.8104 11.4261C83.102 11.3897 83.3208 11.3333 83.4666 11.2571C83.6125 11.1776 83.7003 11.0483 83.7301 10.8693V10.8345C83.7997 10.4036 83.7367 10.0689 83.5412 9.83026C83.349 9.5883 83.0142 9.46733 82.5369 9.46733C82.0398 9.46733 81.6222 9.5767 81.2841 9.79545C80.9493 10.0142 80.7024 10.2595 80.5433 10.5312L79.2109 10.2131C79.4496 9.74905 79.7528 9.37453 80.1207 9.08949C80.492 8.80114 80.898 8.59233 81.3388 8.46307C81.7796 8.33049 82.2304 8.2642 82.6911 8.2642C82.996 8.2642 83.3125 8.30066 83.6406 8.37358C83.9688 8.44318 84.267 8.57244 84.5355 8.76136C84.8073 8.95028 85.0095 9.22041 85.142 9.57173C85.2746 9.91974 85.2945 10.3722 85.2017 10.929L84.3615 16H82.9098L83.0888 14.956H83.0291C82.9032 15.1482 82.7275 15.3371 82.5021 15.5227C82.2801 15.7083 82.0083 15.8625 81.6868 15.9851C81.3653 16.1077 80.9941 16.169 80.5732 16.169ZM81.0803 14.9759C81.4946 14.9759 81.8608 14.8946 82.179 14.7322C82.5005 14.5698 82.7607 14.3577 82.9595 14.0959C83.1584 13.8307 83.2827 13.5473 83.3324 13.2457L83.4964 12.2614C83.4335 12.3144 83.3224 12.3625 83.1634 12.4055C83.0076 12.4486 82.8319 12.4867 82.6364 12.5199C82.4408 12.553 82.2486 12.5812 82.0597 12.6044C81.8741 12.6276 81.7199 12.6491 81.5973 12.669C81.3056 12.7055 81.0322 12.7668 80.777 12.853C80.5251 12.9392 80.3146 13.0634 80.1456 13.2259C79.9766 13.3849 79.8705 13.5971 79.8274 13.8622C79.7678 14.2301 79.8556 14.5085 80.0909 14.6974C80.3295 14.883 80.6593 14.9759 81.0803 14.9759ZM91.2484 8.36364L91.0545 9.55682H86.7392L86.9331 8.36364H91.2484ZM86.8436 16L88.2654 7.47869C88.3384 7.00142 88.5057 6.60535 88.7676 6.29048C89.0294 5.9723 89.3459 5.73532 89.7172 5.57955C90.0884 5.42045 90.4761 5.34091 90.8805 5.34091C91.1788 5.34091 91.429 5.36577 91.6312 5.41548C91.8367 5.46188 91.9859 5.50497 92.0787 5.54474L91.5368 6.74787C91.4705 6.72798 91.3859 6.70478 91.2832 6.67827C91.1805 6.64844 91.0512 6.63352 90.8954 6.63352C90.5342 6.63352 90.2607 6.72301 90.0751 6.90199C89.8928 7.08097 89.7702 7.33949 89.7072 7.67756L88.3301 16H86.8436ZM95.3338 16L97.0241 5.81818H98.5604L97.8246 10.2429H102.901L103.636 5.81818H105.178L103.487 16H101.946L102.682 11.5604H97.6058L96.87 16H95.3338ZM107.808 16.169C107.324 16.169 106.901 16.0795 106.54 15.9006C106.179 15.7183 105.912 15.4548 105.739 15.1101C105.567 14.7654 105.522 14.3428 105.605 13.8423C105.678 13.4115 105.821 13.0568 106.033 12.7784C106.248 12.5 106.51 12.2796 106.818 12.1172C107.126 11.9515 107.461 11.8272 107.822 11.7443C108.184 11.6615 108.548 11.6001 108.916 11.5604C109.38 11.5073 109.756 11.4626 110.045 11.4261C110.336 11.3897 110.555 11.3333 110.701 11.2571C110.847 11.1776 110.935 11.0483 110.964 10.8693V10.8345C111.034 10.4036 110.971 10.0689 110.776 9.83026C110.583 9.5883 110.249 9.46733 109.771 9.46733C109.274 9.46733 108.857 9.5767 108.518 9.79545C108.184 10.0142 107.937 10.2595 107.778 10.5312L106.445 10.2131C106.684 9.74905 106.987 9.37453 107.355 9.08949C107.726 8.80114 108.132 8.59233 108.573 8.46307C109.014 8.33049 109.465 8.2642 109.925 8.2642C110.23 8.2642 110.547 8.30066 110.875 8.37358C111.203 8.44318 111.501 8.57244 111.77 8.76136C112.042 8.95028 112.244 9.22041 112.376 9.57173C112.509 9.91974 112.529 10.3722 112.436 10.929L111.596 16H110.144L110.323 14.956H110.263C110.138 15.1482 109.962 15.3371 109.737 15.5227C109.514 15.7083 109.243 15.8625 108.921 15.9851C108.6 16.1077 108.228 16.169 107.808 16.169ZM108.315 14.9759C108.729 14.9759 109.095 14.8946 109.413 14.7322C109.735 14.5698 109.995 14.3577 110.194 14.0959C110.393 13.8307 110.517 13.5473 110.567 13.2457L110.731 12.2614C110.668 12.3144 110.557 12.3625 110.398 12.4055C110.242 12.4486 110.066 12.4867 109.871 12.5199C109.675 12.553 109.483 12.5812 109.294 12.6044C109.108 12.6276 108.954 12.6491 108.832 12.669C108.54 12.7055 108.267 12.7668 108.011 12.853C107.759 12.9392 107.549 13.0634 107.38 13.2259C107.211 13.3849 107.105 13.5971 107.062 13.8622C107.002 14.2301 107.09 14.5085 107.325 14.6974C107.564 14.883 107.894 14.9759 108.315 14.9759ZM118.413 8.36364L118.219 9.55682H114.048L114.242 8.36364H118.413ZM115.659 6.53409H117.145L115.942 13.7578C115.896 14.0462 115.904 14.2633 115.967 14.4091C116.03 14.5516 116.126 14.6494 116.256 14.7024C116.388 14.7521 116.536 14.777 116.698 14.777C116.817 14.777 116.922 14.7687 117.011 14.7521C117.101 14.7356 117.172 14.7223 117.225 14.7124L117.305 15.9403C117.205 15.9735 117.071 16.0066 116.902 16.0398C116.736 16.0762 116.534 16.0961 116.295 16.0994C115.904 16.1061 115.551 16.0365 115.236 15.8906C114.921 15.7415 114.686 15.5161 114.53 15.2145C114.375 14.9096 114.336 14.5268 114.416 14.0661L115.659 6.53409ZM121.974 16.1541C121.225 16.1541 120.605 15.9934 120.115 15.6719C119.627 15.3471 119.286 14.8913 119.091 14.3047C118.895 13.7147 118.864 13.0237 118.996 12.2315C119.125 11.4493 119.386 10.7599 119.777 10.1634C120.168 9.56676 120.655 9.10109 121.238 8.76633C121.825 8.43158 122.473 8.2642 123.182 8.2642C123.613 8.2642 124.019 8.33546 124.4 8.47798C124.785 8.6205 125.111 8.84422 125.38 9.14915C125.648 9.45407 125.834 9.85014 125.936 10.3374C126.042 10.8213 126.039 11.4096 125.926 12.1023L125.842 12.6293H119.767L119.941 11.5156H124.554C124.624 11.1245 124.606 10.7782 124.5 10.4766C124.394 10.1716 124.211 9.93134 123.953 9.75568C123.698 9.58002 123.376 9.49219 122.988 9.49219C122.591 9.49219 122.219 9.59659 121.875 9.8054C121.53 10.0142 121.242 10.281 121.01 10.6058C120.781 10.9273 120.637 11.2588 120.577 11.6001L120.403 12.6193C120.317 13.1761 120.332 13.6236 120.448 13.9616C120.567 14.2997 120.776 14.545 121.074 14.6974C121.373 14.8499 121.745 14.9261 122.193 14.9261C122.481 14.9261 122.748 14.8864 122.993 14.8068C123.242 14.724 123.462 14.603 123.654 14.4439C123.847 14.2815 124.007 14.0793 124.137 13.8374L125.499 14.0909C125.317 14.5052 125.055 14.8681 124.713 15.1797C124.372 15.4879 123.969 15.7282 123.505 15.9006C123.045 16.0696 122.534 16.1541 121.974 16.1541ZM126.952 16L128.225 8.36364H129.651L129.443 9.60653H129.537C129.769 9.18561 130.084 8.85748 130.482 8.62216C130.883 8.38352 131.337 8.2642 131.844 8.2642C132.348 8.2642 132.754 8.38352 133.062 8.62216C133.374 8.8608 133.577 9.18892 133.673 9.60653H133.753C133.998 9.19555 134.341 8.86908 134.782 8.62713C135.223 8.38518 135.718 8.2642 136.269 8.2642C136.955 8.2642 137.482 8.48295 137.85 8.92045C138.221 9.35464 138.334 10.0076 138.188 10.8793L137.333 16H135.841L136.676 11.0185C136.759 10.4981 136.68 10.1236 136.438 9.89489C136.196 9.66288 135.879 9.54688 135.488 9.54688C135.004 9.54688 134.603 9.69602 134.285 9.99432C133.967 10.2893 133.771 10.6688 133.698 11.1328L132.878 16H131.401L132.252 10.924C132.318 10.5064 132.242 10.1733 132.023 9.92472C131.807 9.67282 131.493 9.54688 131.078 9.54688C130.797 9.54688 130.523 9.62145 130.258 9.7706C129.996 9.91974 129.772 10.1252 129.587 10.3871C129.401 10.6489 129.28 10.9505 129.224 11.2919L128.438 16H126.952Z" fill="white"/>
<path d="M53.9759 24.2727H54.7727V30.0511C54.7727 30.6449 54.6335 31.1761 54.3551 31.6449C54.0767 32.1108 53.6889 32.4787 53.1918 32.7486C52.6974 33.0156 52.1222 33.1491 51.4659 33.1491C50.8125 33.1491 50.2372 33.0142 49.7401 32.7443C49.2429 32.4744 48.8551 32.1065 48.5767 31.6406C48.2983 31.1747 48.1591 30.6449 48.1591 30.0511V24.2727H48.956V29.9957C48.956 30.4588 49.0597 30.8722 49.267 31.2358C49.4744 31.5966 49.7656 31.8807 50.1406 32.0881C50.5185 32.2955 50.9602 32.3991 51.4659 32.3991C51.9716 32.3991 52.4134 32.2955 52.7912 32.0881C53.169 31.8807 53.4602 31.5966 53.6648 31.2358C53.8722 30.8722 53.9759 30.4588 53.9759 29.9957V24.2727ZM56.9396 33V26.4545H57.7024V33H56.9396ZM57.3274 25.3295C57.1712 25.3295 57.0376 25.277 56.9268 25.1719C56.8161 25.0639 56.7607 24.9347 56.7607 24.7841C56.7607 24.6335 56.8161 24.5057 56.9268 24.4006C57.0376 24.2926 57.1712 24.2386 57.3274 24.2386C57.4837 24.2386 57.6172 24.2926 57.728 24.4006C57.8388 24.5057 57.8942 24.6335 57.8942 24.7841C57.8942 24.9347 57.8388 25.0639 57.728 25.1719C57.6172 25.277 57.4837 25.3295 57.3274 25.3295ZM65.9173 23.8636L63.1048 34.3125H62.3931L65.2056 23.8636H65.9173ZM74.766 30.4986V26.4545H75.5245V33H74.766V31.9134H74.7063C74.5529 32.2486 74.31 32.5284 73.9776 32.7528C73.6452 32.9744 73.239 33.0852 72.7589 33.0852C72.3413 33.0852 71.9705 32.9943 71.6467 32.8125C71.3228 32.6278 71.0685 32.358 70.8839 32.0028C70.6992 31.6477 70.6069 31.2116 70.6069 30.6946V26.4545H71.3654V30.6477C71.3654 31.1591 71.516 31.571 71.8171 31.8835C72.1183 32.1932 72.5046 32.348 72.9762 32.348C73.2717 32.348 73.5558 32.277 73.8285 32.1349C74.1012 31.9929 74.3256 31.7855 74.5018 31.5128C74.6779 31.2372 74.766 30.8991 74.766 30.4986ZM78.0014 26.4545L79.6889 29.2457L81.3764 26.4545H82.2585L80.1534 29.7273L82.2585 33H81.3764L79.6889 30.2983L78.0014 33H77.1236L79.2031 29.7273L77.1236 26.4545H78.0014Z" fill="white"/>
</svg>
