<svg width="90" height="120" viewBox="0 0 90 120" fill="none" xmlns="http://www.w3.org/2000/svg">
<path d="M26.4225 78.1801C27.4725 77.5651 28.62 76.9651 29.865 76.3951C28.8132 77.9631 27.687 79.4799 26.49 80.9401C24.39 83.4676 22.755 84.8101 21.7275 85.2301C21.6422 85.2661 21.5545 85.2962 21.465 85.3201C21.3901 85.2162 21.3249 85.1057 21.27 84.9901C20.85 84.1651 20.865 83.3701 21.57 82.2901C22.365 81.0526 23.9625 79.6351 26.4225 78.1801ZM44.835 65.8276C43.9425 66.0151 43.0575 66.2026 42.165 66.4126C43.4873 63.8226 44.7378 61.1966 45.915 58.5376C47.0999 60.7348 48.376 62.8817 49.74 64.9726C48.1125 65.2126 46.47 65.4976 44.835 65.8276ZM63.7725 72.8701C62.6077 71.9303 61.517 70.9023 60.51 69.7951C62.22 69.8326 63.765 69.9601 65.1 70.2001C67.4775 70.6276 68.595 71.3026 68.985 71.7676C69.1079 71.8974 69.1775 72.0688 69.18 72.2476C69.1537 72.7766 68.9993 73.2914 68.73 73.7476C68.5787 74.113 68.3359 74.4332 68.025 74.6776C67.8702 74.7725 67.6877 74.8122 67.5075 74.7901C66.8325 74.7676 65.5725 74.2951 63.7725 72.8701ZM47.085 37.2751C46.785 39.1051 46.275 41.2051 45.585 43.4926C45.3307 42.636 45.1081 41.7704 44.9175 40.8976C44.3475 38.2501 44.265 36.1726 44.5725 34.7326C44.8575 33.4051 45.3975 32.8726 46.0425 32.6101C46.3884 32.4576 46.7548 32.3565 47.13 32.3101C47.2275 32.5351 47.34 33.0001 47.37 33.7951C47.4075 34.7101 47.3175 35.8726 47.085 37.2826V37.2751Z" fill="#444444"/>
<path fill-rule="evenodd" clip-rule="evenodd" d="M15 0H75C78.9782 0 82.7936 1.58035 85.6066 4.3934C88.4196 7.20644 90 11.0218 90 15V105C90 108.978 88.4196 112.794 85.6066 115.607C82.7936 118.42 78.9782 120 75 120H15C11.0218 120 7.20644 118.42 4.3934 115.607C1.58035 112.794 0 108.978 0 105V15C0 11.0218 1.58035 7.20644 4.3934 4.3934C7.20644 1.58035 11.0218 0 15 0ZM16.2375 87.51C16.9125 88.86 17.9625 90.0825 19.5225 90.6525C21.075 91.215 22.6125 90.9525 23.8725 90.4275C26.2575 89.4525 28.635 87.1575 30.8175 84.5325C33.315 81.525 35.94 77.58 38.475 73.2075C43.3689 71.7566 48.3806 70.7377 53.4525 70.1625C55.7025 73.035 58.0275 75.51 60.2775 77.2875C62.3775 78.9375 64.8 80.31 67.2825 80.415C68.6347 80.482 69.9735 80.1197 71.1075 79.38C72.27 78.6225 73.1325 77.5275 73.7625 76.26C74.4375 74.9025 74.85 73.485 74.7975 72.0375C74.75 70.6104 74.2214 69.2412 73.2975 68.1525C71.6025 66.1275 68.8275 65.1525 66.0975 64.665C62.7858 64.1521 59.4257 64.0262 56.085 64.29C53.2639 60.3019 50.8042 56.0701 48.735 51.645C50.61 46.695 52.0125 42.015 52.635 38.19C52.905 36.555 53.0475 34.995 52.995 33.585C52.9857 32.1854 52.6601 30.806 52.0425 29.55C51.6867 28.8568 51.1811 28.2515 50.5623 27.778C49.9435 27.3046 49.2271 26.9747 48.465 26.8125C46.95 26.49 45.39 26.8125 43.9575 27.39C41.13 28.515 39.6375 30.915 39.075 33.5625C38.5275 36.1125 38.775 39.0825 39.42 42.0825C40.08 45.1275 41.205 48.4425 42.645 51.795C40.3415 57.5234 37.6813 63.1018 34.68 68.4975C30.8148 69.7136 27.0891 71.3351 23.565 73.335C20.79 74.985 18.3225 76.935 16.8375 79.2375C15.2625 81.6825 14.775 84.5925 16.2375 87.51Z" fill="#444444"/>
</svg>
