<svg width="86" height="39" viewBox="0 0 86 39" fill="none" xmlns="http://www.w3.org/2000/svg">
<rect width="39" height="39" rx="5" fill="white"/>
<path d="M47.4822 16L49.1726 5.81818H55.4865L55.2678 7.14062H50.4901L49.973 10.2429H54.2983L54.0795 11.5604H49.7543L49.0185 16H47.4822ZM57.7411 16.169C57.2572 16.169 56.8346 16.0795 56.4734 15.9006C56.1121 15.7183 55.8453 15.4548 55.6729 15.1101C55.5006 14.7654 55.4558 14.3428 55.5387 13.8423C55.6116 13.4115 55.7541 13.0568 55.9663 12.7784C56.1817 12.5 56.4435 12.2796 56.7518 12.1172C57.06 11.9515 57.3948 11.8272 57.756 11.7443C58.1173 11.6615 58.4819 11.6001 58.8498 11.5604C59.3138 11.5073 59.69 11.4626 59.9783 11.4261C60.27 11.3897 60.4888 11.3333 60.6346 11.2571C60.7804 11.1776 60.8683 11.0483 60.8981 10.8693V10.8345C60.9677 10.4036 60.9047 10.0689 60.7092 9.83026C60.5169 9.5883 60.1822 9.46733 59.7049 9.46733C59.2077 9.46733 58.7901 9.5767 58.4521 9.79545C58.1173 10.0142 57.8704 10.2595 57.7113 10.5312L56.3789 10.2131C56.6175 9.74905 56.9208 9.37453 57.2887 9.08949C57.6599 8.80114 58.0659 8.59233 58.5067 8.46307C58.9476 8.33049 59.3983 8.2642 59.859 8.2642C60.1639 8.2642 60.4805 8.30066 60.8086 8.37358C61.1367 8.44318 61.435 8.57244 61.7035 8.76136C61.9753 8.95028 62.1774 9.22041 62.31 9.57173C62.4426 9.91974 62.4625 10.3722 62.3697 10.929L61.5295 16H60.0778L60.2567 14.956H60.1971C60.0711 15.1482 59.8955 15.3371 59.6701 15.5227C59.448 15.7083 59.1763 15.8625 58.8548 15.9851C58.5333 16.1077 58.1621 16.169 57.7411 16.169ZM58.2482 14.9759C58.6625 14.9759 59.0288 14.8946 59.3469 14.7322C59.6684 14.5698 59.9286 14.3577 60.1275 14.0959C60.3263 13.8307 60.4506 13.5473 60.5004 13.2457L60.6644 12.2614C60.6014 12.3144 60.4904 12.3625 60.3313 12.4055C60.1755 12.4486 59.9999 12.4867 59.8043 12.5199C59.6088 12.553 59.4165 12.5812 59.2276 12.6044C59.042 12.6276 58.8879 12.6491 58.7653 12.669C58.4736 12.7055 58.2002 12.7668 57.945 12.853C57.6931 12.9392 57.4826 13.0634 57.3136 13.2259C57.1445 13.3849 57.0385 13.5971 56.9954 13.8622C56.9357 14.2301 57.0236 14.5085 57.2589 14.6974C57.4975 14.883 57.8273 14.9759 58.2482 14.9759ZM63.5094 16L64.7821 8.36364H66.2686L64.9959 16H63.5094ZM65.8361 7.17045C65.5776 7.17045 65.3588 7.08428 65.1799 6.91193C65.0042 6.73627 64.923 6.52746 64.9363 6.28551C64.9495 6.04025 65.0523 5.83144 65.2445 5.65909C65.4367 5.48343 65.6605 5.3956 65.9157 5.3956C66.1742 5.3956 66.3913 5.48343 66.5669 5.65909C66.7426 5.83144 66.8255 6.04025 66.8155 6.28551C66.8023 6.52746 66.6995 6.73627 66.5073 6.91193C66.3184 7.08428 66.0946 7.17045 65.8361 7.17045ZM73.6825 10.228L72.2955 10.4666C72.2656 10.291 72.2043 10.1252 72.1115 9.96946C72.022 9.81368 71.8845 9.68774 71.6989 9.59162C71.5133 9.49219 71.2663 9.44247 70.9581 9.44247C70.5305 9.44247 70.156 9.54025 69.8345 9.7358C69.5163 9.93134 69.334 10.1799 69.2876 10.4815C69.2446 10.7268 69.3026 10.9257 69.4616 11.0781C69.6207 11.2273 69.9008 11.3516 70.3018 11.451L71.4751 11.7294C72.1513 11.8918 72.6352 12.1454 72.9268 12.4901C73.2218 12.8314 73.3246 13.2756 73.2351 13.8224C73.1589 14.2765 72.96 14.6792 72.6385 15.0305C72.3203 15.3819 71.9126 15.657 71.4155 15.8558C70.9183 16.0547 70.3648 16.1541 69.755 16.1541C68.8866 16.1541 68.2105 15.9702 67.7266 15.6023C67.2427 15.2344 66.9941 14.714 66.9808 14.0412L68.4524 13.8224C68.4789 14.197 68.6132 14.4804 68.8551 14.6726C69.1004 14.8615 69.4401 14.956 69.8743 14.956C70.3714 14.9593 70.7874 14.8549 71.1222 14.6428C71.4569 14.4306 71.6475 14.1738 71.6939 13.8722C71.7337 13.6368 71.6806 13.4413 71.5348 13.2855C71.3923 13.1297 71.1404 13.0104 70.7791 12.9276L69.5462 12.6442C68.8568 12.4818 68.3696 12.2199 68.0845 11.8587C67.7995 11.4974 67.7034 11.0433 67.7962 10.4964C67.8691 10.049 68.058 9.65956 68.3629 9.32812C68.6712 8.99337 69.0606 8.73319 69.5312 8.54758C70.0019 8.35866 70.5223 8.2642 71.0923 8.2642C71.9242 8.2642 72.549 8.44318 72.9666 8.80114C73.3842 9.15578 73.6229 9.63139 73.6825 10.228ZM77.7729 16.1541C77.0239 16.1541 76.4041 15.9934 75.9135 15.6719C75.4263 15.3471 75.0849 14.8913 74.8894 14.3047C74.6938 13.7147 74.6623 13.0237 74.7949 12.2315C74.9242 11.4493 75.1844 10.7599 75.5755 10.1634C75.9666 9.56676 76.4538 9.10109 77.0371 8.76633C77.6238 8.43158 78.2717 8.2642 78.981 8.2642C79.4119 8.2642 79.8179 8.33546 80.199 8.47798C80.5835 8.6205 80.91 8.84422 81.1784 9.14915C81.4469 9.45407 81.6325 9.85014 81.7353 10.3374C81.8413 10.8213 81.838 11.4096 81.7253 12.1023L81.6408 12.6293H75.5655L75.7395 11.5156H80.3532C80.4228 11.1245 80.4045 10.7782 80.2985 10.4766C80.1924 10.1716 80.0101 9.93134 79.7516 9.75568C79.4964 9.58002 79.1749 9.49219 78.7871 9.49219C78.3894 9.49219 78.0182 9.59659 77.6735 9.8054C77.3288 10.0142 77.0404 10.281 76.8084 10.6058C76.5797 10.9273 76.4355 11.2588 76.3759 11.6001L76.2019 12.6193C76.1157 13.1761 76.1306 13.6236 76.2466 13.9616C76.3659 14.2997 76.5748 14.545 76.873 14.6974C77.1713 14.8499 77.5442 14.9261 77.9917 14.9261C78.28 14.9261 78.5468 14.8864 78.7921 14.8068C79.0407 14.724 79.2611 14.603 79.4533 14.4439C79.6455 14.2815 79.8063 14.0793 79.9355 13.8374L81.2978 14.0909C81.1155 14.5052 80.8536 14.8681 80.5123 15.1797C80.1709 15.4879 79.7682 15.7282 79.3042 15.9006C78.8435 16.0696 78.333 16.1541 77.7729 16.1541ZM85.9226 5.81818L84.2322 16H82.7457L84.4361 5.81818H85.9226Z" fill="white"/>
<path d="M50.6946 26.4545V27.1151H47.4773V26.4545H50.6946ZM48.483 33V25.4957C48.483 25.1435 48.5639 24.8466 48.7259 24.6051C48.8906 24.3636 49.1051 24.1804 49.3693 24.0554C49.6335 23.9304 49.9134 23.8679 50.2088 23.8679C50.4077 23.8679 50.5724 23.8849 50.7031 23.919C50.8366 23.9503 50.9418 23.9815 51.0185 24.0128L50.7969 24.6776C50.7401 24.6605 50.6705 24.6406 50.5881 24.6179C50.5057 24.5952 50.402 24.5838 50.277 24.5838C49.9474 24.5838 49.6932 24.6761 49.5142 24.8608C49.3352 25.0455 49.2457 25.3097 49.2457 25.6534L49.2415 33H48.483ZM52.967 24.2727V33H52.2085V24.2727H52.967ZM59.1332 30.4986V26.4545H59.8917V33H59.1332V31.9134H59.0735C58.9201 32.2486 58.6772 32.5284 58.3448 32.7528C58.0124 32.9744 57.6062 33.0852 57.1261 33.0852C56.7085 33.0852 56.3377 32.9943 56.0138 32.8125C55.69 32.6278 55.4357 32.358 55.2511 32.0028C55.0664 31.6477 54.9741 31.2116 54.9741 30.6946V26.4545H55.7326V30.6477C55.7326 31.1591 55.8832 31.571 56.1843 31.8835C56.4854 32.1932 56.8718 32.348 57.3434 32.348C57.6388 32.348 57.9229 32.277 58.1957 32.1349C58.4684 31.9929 58.6928 31.7855 58.869 31.5128C59.0451 31.2372 59.1332 30.8991 59.1332 30.4986ZM64.478 26.4545V27.1151H61.3544V26.4545H64.478ZM62.3303 24.8864H63.093V31.2912C63.093 31.5639 63.1399 31.7784 63.2337 31.9347C63.3274 32.0881 63.4496 32.1974 63.6001 32.2628C63.7507 32.3253 63.9112 32.3565 64.0817 32.3565C64.1811 32.3565 64.2663 32.3509 64.3374 32.3395C64.4084 32.3253 64.4709 32.3111 64.5249 32.2969L64.6868 32.983C64.6129 33.0114 64.522 33.0369 64.4141 33.0597C64.3061 33.0852 64.1726 33.098 64.0135 33.098C63.7351 33.098 63.4666 33.0369 63.2081 32.9148C62.9524 32.7926 62.7422 32.6108 62.5774 32.3693C62.4126 32.1278 62.3303 31.8281 62.3303 31.4702V24.8864ZM68.7788 26.4545V27.1151H65.6552V26.4545H68.7788ZM66.631 24.8864H67.3938V31.2912C67.3938 31.5639 67.4407 31.7784 67.5344 31.9347C67.6282 32.0881 67.7504 32.1974 67.9009 32.2628C68.0515 32.3253 68.212 32.3565 68.3825 32.3565C68.4819 32.3565 68.5671 32.3509 68.6381 32.3395C68.7092 32.3253 68.7717 32.3111 68.8256 32.2969L68.9876 32.983C68.9137 33.0114 68.8228 33.0369 68.7148 33.0597C68.6069 33.0852 68.4734 33.098 68.3143 33.098C68.0359 33.098 67.7674 33.0369 67.5089 32.9148C67.2532 32.7926 67.043 32.6108 66.8782 32.3693C66.7134 32.1278 66.631 31.8281 66.631 31.4702V24.8864ZM73.0774 33.1364C72.4666 33.1364 71.9382 32.9943 71.4922 32.7102C71.0462 32.4233 70.701 32.027 70.4567 31.5213C70.2152 31.0128 70.0945 30.4276 70.0945 29.7656C70.0945 29.1065 70.2152 28.5213 70.4567 28.0099C70.701 27.4957 71.0376 27.0937 71.4666 26.804C71.8984 26.5114 72.397 26.3651 72.9624 26.3651C73.3175 26.3651 73.6598 26.4304 73.9893 26.5611C74.3189 26.6889 74.6143 26.8864 74.8757 27.1534C75.1399 27.4176 75.3487 27.7514 75.5021 28.1548C75.6555 28.5554 75.7322 29.0298 75.7322 29.5781V29.9531H70.6186V29.2841H74.9567C74.9567 28.8636 74.8714 28.4858 74.701 28.1506C74.5334 27.8125 74.299 27.5455 73.9979 27.3494C73.6996 27.1534 73.3544 27.0554 72.9624 27.0554C72.5476 27.0554 72.1825 27.1662 71.8672 27.3878C71.5518 27.6094 71.3047 27.902 71.1257 28.2656C70.9496 28.6293 70.8601 29.027 70.8572 29.4588V29.8594C70.8572 30.3793 70.9467 30.8338 71.1257 31.223C71.3075 31.6094 71.5646 31.9091 71.897 32.1222C72.2294 32.3352 72.6229 32.4418 73.0774 32.4418C73.3871 32.4418 73.6584 32.3935 73.8913 32.2969C74.1271 32.2003 74.3246 32.071 74.4837 31.9091C74.6456 31.7443 74.7678 31.5639 74.8501 31.3679L75.5703 31.6023C75.4709 31.8778 75.3075 32.1321 75.0803 32.3651C74.8558 32.598 74.5746 32.7855 74.2365 32.9276C73.9013 33.0668 73.5149 33.1364 73.0774 33.1364ZM77.4038 33V26.4545H78.141V27.4602H78.1964C78.3271 27.1307 78.5543 26.8651 78.8782 26.6634C79.2049 26.4588 79.5742 26.3565 79.9862 26.3565C80.0487 26.3565 80.1183 26.358 80.195 26.3608C80.2717 26.3636 80.3356 26.3665 80.3867 26.3693V27.1406C80.3526 27.1349 80.293 27.1264 80.2077 27.1151C80.1225 27.1037 80.0302 27.098 79.9308 27.098C79.5898 27.098 79.2859 27.1705 79.0188 27.3153C78.7546 27.4574 78.5458 27.6548 78.3924 27.9077C78.239 28.1605 78.1623 28.4489 78.1623 28.7727V33H77.4038Z" fill="white"/>
</svg>
