<svg width="85" height="151" viewBox="0 0 85 151" fill="none" xmlns="http://www.w3.org/2000/svg">
<rect width="85" height="151" rx="10" fill="#2F3FFF"/>
<circle cx="43.5" cy="42.5" r="28.5" fill="white"/>
<path d="M28.6553 129.706C28.359 129.829 28.0788 129.932 27.8145 130.014C27.5501 130.1 27.2266 130.144 26.8438 130.144C26.2786 130.144 25.8799 130.002 25.6475 129.72C25.4196 129.433 25.3057 129.029 25.3057 128.51V123.943H24.0889V123.287H25.333V121.188H26.5771V123.287H28.5117V123.943H26.5908V127.71C26.5908 127.993 26.5999 128.229 26.6182 128.421C26.641 128.608 26.6911 128.772 26.7686 128.913C26.8415 129.045 26.9508 129.146 27.0967 129.214C27.2425 129.282 27.4385 129.316 27.6846 129.316C27.7985 129.316 27.9648 129.307 28.1836 129.289C28.4069 129.266 28.5641 129.239 28.6553 129.207V129.706ZM35.7168 129.877C35.5026 129.954 35.3135 130.016 35.1494 130.062C34.9899 130.112 34.8076 130.137 34.6025 130.137C34.2471 130.137 33.9622 130.055 33.748 129.891C33.5384 129.722 33.404 129.478 33.3447 129.159H33.3037C33.0075 129.487 32.6885 129.738 32.3467 129.911C32.0094 130.084 31.6016 130.171 31.123 130.171C30.6172 130.171 30.2002 130.016 29.8721 129.706C29.5485 129.396 29.3867 128.991 29.3867 128.489C29.3867 128.229 29.4232 127.997 29.4961 127.792C29.569 127.587 29.6784 127.402 29.8242 127.238C29.9382 127.102 30.0885 126.981 30.2754 126.876C30.4622 126.767 30.6377 126.68 30.8018 126.616C31.0068 126.539 31.4215 126.395 32.0459 126.186C32.6748 125.976 33.0986 125.812 33.3174 125.693V125.017C33.3174 124.957 33.3037 124.843 33.2764 124.675C33.2536 124.506 33.2012 124.347 33.1191 124.196C33.028 124.028 32.8981 123.882 32.7295 123.759C32.5654 123.631 32.3307 123.567 32.0254 123.567C31.8158 123.567 31.6198 123.604 31.4375 123.677C31.2598 123.745 31.1344 123.818 31.0615 123.896C31.0615 123.987 31.082 124.121 31.123 124.299C31.1686 124.477 31.1914 124.641 31.1914 124.791C31.1914 124.951 31.1185 125.096 30.9727 125.229C30.8314 125.361 30.6331 125.427 30.3779 125.427C30.1501 125.427 29.9814 125.347 29.8721 125.188C29.7673 125.023 29.7148 124.841 29.7148 124.641C29.7148 124.431 29.7878 124.23 29.9336 124.039C30.084 123.848 30.2777 123.677 30.5146 123.526C30.7197 123.399 30.9681 123.292 31.2598 123.205C31.5514 123.114 31.8363 123.068 32.1143 123.068C32.4971 123.068 32.8298 123.096 33.1123 123.15C33.3994 123.201 33.6592 123.312 33.8916 123.485C34.124 123.654 34.2995 123.884 34.418 124.176C34.541 124.463 34.6025 124.834 34.6025 125.29C34.6025 125.942 34.5957 126.521 34.582 127.026C34.5684 127.528 34.5615 128.077 34.5615 128.674C34.5615 128.852 34.5911 128.993 34.6504 129.098C34.7142 129.202 34.8099 129.291 34.9375 129.364C35.0059 129.405 35.113 129.428 35.2588 129.433C35.4092 129.437 35.5618 129.439 35.7168 129.439V129.877ZM33.3311 126.268C32.9437 126.382 32.6042 126.493 32.3125 126.603C32.0208 126.712 31.7497 126.849 31.499 127.013C31.2712 127.168 31.0911 127.352 30.959 127.566C30.8268 127.776 30.7607 128.027 30.7607 128.318C30.7607 128.697 30.8587 128.975 31.0547 129.152C31.2552 129.33 31.5081 129.419 31.8135 129.419C32.137 129.419 32.4219 129.341 32.668 129.187C32.9141 129.027 33.1214 128.84 33.29 128.626L33.3311 126.268ZM43.2295 126.623C43.2295 127.635 42.9105 128.485 42.2725 129.173C41.6344 129.861 40.8939 130.205 40.0508 130.205C39.6816 130.205 39.3171 130.148 38.957 130.034C38.6016 129.92 38.2666 129.768 37.9521 129.576L37.4463 130.362L37.0225 130.267C37.0452 129.929 37.0612 129.524 37.0703 129.05C37.0794 128.576 37.084 128.118 37.084 127.676V121.004C37.084 120.849 37.0475 120.694 36.9746 120.539C36.9062 120.384 36.8174 120.272 36.708 120.204C36.6214 120.145 36.4756 120.102 36.2705 120.074C36.07 120.042 35.9082 120.022 35.7852 120.013V119.575L38.2598 119.418L38.3555 119.521V123.964L38.4033 123.978C38.6859 123.677 38.9935 123.451 39.3262 123.301C39.6634 123.15 39.9938 123.075 40.3174 123.075C41.1468 123.075 41.8395 123.403 42.3955 124.06C42.9515 124.716 43.2295 125.57 43.2295 126.623ZM41.8008 126.671C41.8008 126.334 41.7643 125.99 41.6914 125.639C41.6185 125.288 41.5046 124.982 41.3496 124.723C41.1947 124.458 40.9919 124.244 40.7412 124.08C40.4906 123.916 40.1898 123.834 39.8389 123.834C39.5199 123.834 39.2396 123.898 38.998 124.025C38.7611 124.148 38.5469 124.317 38.3555 124.531V128.455C38.3828 128.564 38.4352 128.692 38.5127 128.838C38.5947 128.984 38.7041 129.123 38.8408 129.255C38.9775 129.382 39.1325 129.487 39.3057 129.569C39.4788 129.647 39.6908 129.686 39.9414 129.686C40.4974 129.686 40.9463 129.417 41.2881 128.879C41.6299 128.341 41.8008 127.605 41.8008 126.671ZM47.3926 130H44.1045V129.549C44.2093 129.54 44.321 129.531 44.4395 129.521C44.5579 129.508 44.6559 129.49 44.7334 129.467C44.861 129.426 44.9567 129.355 45.0205 129.255C45.0843 129.15 45.1162 129.016 45.1162 128.852V121.045C45.1162 120.881 45.0798 120.728 45.0068 120.587C44.9385 120.441 44.8473 120.327 44.7334 120.245C44.6514 120.19 44.501 120.14 44.2822 120.095C44.0635 120.049 43.888 120.022 43.7559 120.013V119.575L46.292 119.418L46.3877 119.521V128.77C46.3877 128.929 46.4173 129.061 46.4766 129.166C46.5358 129.266 46.6315 129.344 46.7637 129.398C46.8639 129.444 46.9619 129.478 47.0576 129.501C47.1579 129.524 47.2695 129.54 47.3926 129.549V130ZM54.2285 128.414C53.946 128.952 53.5677 129.38 53.0938 129.699C52.6198 130.018 52.0752 130.178 51.46 130.178C50.9176 130.178 50.4414 130.082 50.0312 129.891C49.6257 129.699 49.2907 129.439 49.0264 129.111C48.762 128.783 48.5638 128.4 48.4316 127.963C48.304 127.525 48.2402 127.063 48.2402 126.575C48.2402 126.138 48.3086 125.709 48.4453 125.29C48.5866 124.866 48.7917 124.486 49.0605 124.148C49.3203 123.825 49.6416 123.565 50.0244 123.369C50.4118 123.169 50.8447 123.068 51.3232 123.068C51.8154 123.068 52.237 123.146 52.5879 123.301C52.9388 123.456 53.2236 123.668 53.4424 123.937C53.652 124.192 53.807 124.493 53.9072 124.839C54.012 125.185 54.0645 125.561 54.0645 125.967V126.418H49.6006C49.6006 126.86 49.6416 127.261 49.7236 127.621C49.8102 127.981 49.9447 128.298 50.127 128.571C50.3047 128.836 50.5371 129.045 50.8242 129.2C51.1113 129.351 51.4531 129.426 51.8496 129.426C52.2552 129.426 52.6038 129.332 52.8955 129.146C53.1917 128.954 53.4766 128.612 53.75 128.12L54.2285 128.414ZM52.7178 125.844C52.7178 125.589 52.695 125.315 52.6494 125.023C52.6084 124.732 52.54 124.488 52.4443 124.292C52.3395 124.082 52.196 123.911 52.0137 123.779C51.8314 123.647 51.5967 123.581 51.3096 123.581C50.8311 123.581 50.4323 123.782 50.1133 124.183C49.7988 124.579 49.6279 125.133 49.6006 125.844H52.7178ZM59.458 126.698C59.6449 126.862 59.7884 127.051 59.8887 127.266C59.9889 127.48 60.0391 127.742 60.0391 128.052C60.0391 128.676 59.8044 129.187 59.335 129.583C58.8701 129.979 58.2663 130.178 57.5234 130.178C57.1315 130.178 56.7692 130.107 56.4365 129.966C56.1084 129.825 55.8737 129.695 55.7324 129.576L55.5957 130.021H55.083L55.0146 127.676H55.4863C55.5228 127.854 55.6003 128.061 55.7188 128.298C55.8372 128.535 55.9808 128.749 56.1494 128.94C56.3271 129.141 56.5391 129.31 56.7852 129.446C57.0358 129.583 57.3161 129.651 57.626 129.651C58.0635 129.651 58.4007 129.553 58.6377 129.357C58.8747 129.157 58.9932 128.872 58.9932 128.503C58.9932 128.312 58.9544 128.147 58.877 128.011C58.804 127.869 58.6947 127.746 58.5488 127.642C58.3984 127.537 58.2139 127.443 57.9951 127.361C57.7764 127.275 57.5326 127.19 57.2637 127.108C57.0495 127.045 56.8102 126.958 56.5459 126.849C56.2861 126.735 56.0628 126.603 55.876 126.452C55.6755 126.293 55.5114 126.097 55.3838 125.864C55.2562 125.632 55.1924 125.358 55.1924 125.044C55.1924 124.493 55.3975 124.025 55.8076 123.643C56.2178 123.26 56.7669 123.068 57.4551 123.068C57.7194 123.068 57.9883 123.103 58.2617 123.171C58.5397 123.239 58.7653 123.321 58.9385 123.417L59.0957 123.062H59.5879L59.6904 125.229H59.2188C59.123 124.745 58.9157 124.354 58.5967 124.053C58.2822 123.747 57.8971 123.595 57.4414 123.595C57.0677 123.595 56.7738 123.688 56.5596 123.875C56.3454 124.062 56.2383 124.287 56.2383 124.552C56.2383 124.757 56.2725 124.928 56.3408 125.064C56.4137 125.201 56.5208 125.317 56.6621 125.413C56.7988 125.504 56.9697 125.591 57.1748 125.673C57.3844 125.75 57.6419 125.839 57.9473 125.939C58.248 126.035 58.5306 126.147 58.7949 126.274C59.0638 126.402 59.2848 126.543 59.458 126.698Z" fill="white"/>
</svg>
