<svg width="388" height="48" viewBox="0 0 388 48" fill="none" xmlns="http://www.w3.org/2000/svg">
<rect y="0.000488281" width="388" height="48" rx="23.5" fill="#2F3FFF"/>
<path d="M174.87 21.5631C174.817 21.0669 174.593 20.6805 174.199 20.404C173.809 20.1275 173.302 19.9892 172.677 19.9892C172.237 19.9892 171.86 20.0555 171.546 20.1881C171.232 20.3207 170.991 20.5006 170.824 20.7279C170.658 20.9551 170.573 21.2146 170.569 21.5063C170.569 21.7487 170.624 21.9589 170.734 22.137C170.847 22.315 171.001 22.4665 171.194 22.5915C171.387 22.7127 171.601 22.815 171.836 22.8983C172.071 22.9817 172.307 23.0517 172.546 23.1085L173.637 23.3813C174.076 23.4835 174.499 23.6218 174.904 23.796C175.313 23.9703 175.679 24.19 176.001 24.4551C176.326 24.7203 176.584 25.0404 176.773 25.4154C176.963 25.7904 177.057 26.2298 177.057 26.7335C177.057 27.4154 176.883 28.0157 176.535 28.5347C176.186 29.0498 175.682 29.4532 175.023 29.7449C174.368 30.0328 173.574 30.1767 172.643 30.1767C171.737 30.1767 170.951 30.0366 170.285 29.7563C169.622 29.476 169.103 29.0669 168.728 28.529C168.357 27.9911 168.156 27.3358 168.126 26.5631H170.199C170.23 26.9684 170.355 27.3055 170.574 27.5745C170.794 27.8434 171.08 28.0442 171.432 28.1767C171.788 28.3093 172.186 28.3756 172.626 28.3756C173.084 28.3756 173.485 28.3074 173.83 28.171C174.179 28.0309 174.451 27.8377 174.648 27.5915C174.845 27.3415 174.946 27.0498 174.949 26.7165C174.946 26.4135 174.857 26.1635 174.682 25.9665C174.508 25.7657 174.264 25.5991 173.949 25.4665C173.639 25.3301 173.275 25.2089 172.859 25.1029L171.535 24.762C170.576 24.5157 169.819 24.1426 169.262 23.6426C168.709 23.1389 168.432 22.4703 168.432 21.637C168.432 20.9514 168.618 20.351 168.989 19.8358C169.364 19.3207 169.874 18.921 170.518 18.637C171.162 18.3491 171.891 18.2051 172.705 18.2051C173.531 18.2051 174.254 18.3491 174.876 18.637C175.501 18.921 175.991 19.3169 176.347 19.8245C176.703 20.3282 176.887 20.9078 176.898 21.5631H174.87ZM178.846 30.0006V21.2733H180.903V30.0006H178.846ZM179.88 20.0347C179.554 20.0347 179.274 19.9267 179.039 19.7108C178.804 19.4911 178.687 19.2279 178.687 18.921C178.687 18.6104 178.804 18.3472 179.039 18.1313C179.274 17.9116 179.554 17.8017 179.88 17.8017C180.209 17.8017 180.49 17.9116 180.721 18.1313C180.956 18.3472 181.073 18.6104 181.073 18.921C181.073 19.2279 180.956 19.4911 180.721 19.7108C180.49 19.9267 180.209 20.0347 179.88 20.0347ZM186.813 33.4551C186.074 33.4551 185.44 33.3548 184.91 33.154C184.379 32.957 183.953 32.6919 183.631 32.3585C183.309 32.0252 183.086 31.6559 182.961 31.2506L184.813 30.8017C184.896 30.9722 185.018 31.1407 185.177 31.3074C185.336 31.4779 185.55 31.618 185.819 31.7279C186.091 31.8415 186.434 31.8983 186.847 31.8983C187.431 31.8983 187.913 31.7563 188.296 31.4722C188.679 31.1919 188.87 30.7298 188.87 30.0858V28.4324H188.768C188.662 28.6445 188.506 28.8623 188.302 29.0858C188.101 29.3093 187.834 29.4968 187.501 29.6483C187.171 29.7998 186.756 29.8756 186.256 29.8756C185.586 29.8756 184.978 29.7184 184.432 29.404C183.891 29.0858 183.459 28.6123 183.137 27.9835C182.819 27.351 182.66 26.5593 182.66 25.6085C182.66 24.6502 182.819 23.8415 183.137 23.1824C183.459 22.5195 183.893 22.0176 184.438 21.6767C184.984 21.332 185.591 21.1597 186.262 21.1597C186.773 21.1597 187.194 21.2468 187.523 21.421C187.857 21.5915 188.122 21.7979 188.319 22.0404C188.516 22.279 188.665 22.5044 188.768 22.7165H188.881V21.2733H190.91V30.1426C190.91 30.8889 190.732 31.5063 190.376 31.9949C190.02 32.4835 189.533 32.8491 188.915 33.0915C188.298 33.3339 187.597 33.4551 186.813 33.4551ZM186.83 28.262C187.266 28.262 187.637 28.1559 187.944 27.9438C188.251 27.7317 188.484 27.4267 188.643 27.029C188.802 26.6313 188.881 26.154 188.881 25.5972C188.881 25.0479 188.802 24.5669 188.643 24.154C188.487 23.7411 188.256 23.421 187.949 23.1938C187.646 22.9627 187.273 22.8472 186.83 22.8472C186.372 22.8472 185.989 22.9665 185.682 23.2051C185.376 23.4438 185.145 23.7714 184.989 24.1881C184.834 24.601 184.756 25.0707 184.756 25.5972C184.756 26.1313 184.834 26.5991 184.989 27.0006C185.148 27.3983 185.381 27.7089 185.688 27.9324C185.999 28.1521 186.379 28.262 186.83 28.262ZM195.074 24.887V30.0006H193.018V21.2733H194.984V22.7563H195.086C195.287 22.2676 195.607 21.8794 196.046 21.5915C196.489 21.3036 197.037 21.1597 197.688 21.1597C198.29 21.1597 198.815 21.2885 199.262 21.546C199.713 21.8036 200.061 22.1767 200.307 22.6654C200.557 23.154 200.681 23.7468 200.677 24.4438V30.0006H198.62V24.762C198.62 24.1786 198.468 23.7222 198.165 23.3926C197.866 23.0631 197.451 22.8983 196.921 22.8983C196.561 22.8983 196.241 22.9779 195.961 23.137C195.684 23.2923 195.466 23.5176 195.307 23.8131C195.152 24.1085 195.074 24.4665 195.074 24.887ZM206.736 30.0006V21.2733H208.793V30.0006H206.736ZM207.77 20.0347C207.445 20.0347 207.164 19.9267 206.93 19.7108C206.695 19.4911 206.577 19.2279 206.577 18.921C206.577 18.6104 206.695 18.3472 206.93 18.1313C207.164 17.9116 207.445 17.8017 207.77 17.8017C208.1 17.8017 208.38 17.9116 208.611 18.1313C208.846 18.3472 208.964 18.6104 208.964 18.921C208.964 19.2279 208.846 19.4911 208.611 19.7108C208.38 19.9267 208.1 20.0347 207.77 20.0347ZM212.965 24.887V30.0006H210.908V21.2733H212.874V22.7563H212.976C213.177 22.2676 213.497 21.8794 213.937 21.5915C214.38 21.3036 214.927 21.1597 215.579 21.1597C216.181 21.1597 216.706 21.2885 217.153 21.546C217.603 21.8036 217.952 22.1767 218.198 22.6654C218.448 23.154 218.571 23.7468 218.567 24.4438V30.0006H216.511V24.762C216.511 24.1786 216.359 23.7222 216.056 23.3926C215.757 23.0631 215.342 22.8983 214.812 22.8983C214.452 22.8983 214.132 22.9779 213.851 23.137C213.575 23.2923 213.357 23.5176 213.198 23.8131C213.043 24.1085 212.965 24.4665 212.965 24.887Z" fill="white"/>
</svg>
