<svg width="161" height="39" viewBox="0 0 161 39" fill="none" xmlns="http://www.w3.org/2000/svg">
<rect width="39" height="39" rx="5" fill="white"/>
<path d="M47.4822 16L49.1726 5.81818H50.7088L49.9084 10.6804H50.0327L55.1037 5.81818H57.0376L52.1804 10.402L55.3622 16H53.5128L50.9872 11.451L49.5554 12.8381L49.0185 16H47.4822ZM58.897 11.4659L58.1513 16H56.6648L58.3551 5.81818H59.8217L59.1953 9.60653H59.2898C59.5317 9.19223 59.8565 8.86577 60.2642 8.62713C60.6752 8.38518 61.179 8.2642 61.7756 8.2642C62.2992 8.2642 62.7384 8.37192 63.093 8.58736C63.451 8.80279 63.7029 9.12429 63.8487 9.55185C63.9979 9.97609 64.0211 10.5064 63.9183 11.1428L63.103 16H61.6165L62.392 11.3217C62.4848 10.7616 62.4119 10.3274 62.1733 10.0192C61.9347 9.70762 61.5618 9.55185 61.0547 9.55185C60.7 9.55185 60.3719 9.62642 60.0703 9.77557C59.772 9.92472 59.5201 10.1435 59.3146 10.4318C59.1091 10.7169 58.9699 11.0616 58.897 11.4659ZM67.2841 16.169C66.8002 16.169 66.3776 16.0795 66.0163 15.9006C65.6551 15.7183 65.3883 15.4548 65.2159 15.1101C65.0436 14.7654 64.9988 14.3428 65.0817 13.8423C65.1546 13.4115 65.2971 13.0568 65.5092 12.7784C65.7247 12.5 65.9865 12.2796 66.2947 12.1172C66.603 11.9515 66.9377 11.8272 67.299 11.7443C67.6603 11.6615 68.0249 11.6001 68.3928 11.5604C68.8568 11.5073 69.233 11.4626 69.5213 11.4261C69.813 11.3897 70.0317 11.3333 70.1776 11.2571C70.3234 11.1776 70.4112 11.0483 70.4411 10.8693V10.8345C70.5107 10.4036 70.4477 10.0689 70.2521 9.83026C70.0599 9.5883 69.7251 9.46733 69.2479 9.46733C68.7507 9.46733 68.3331 9.5767 67.995 9.79545C67.6603 10.0142 67.4134 10.2595 67.2543 10.5312L65.9219 10.2131C66.1605 9.74905 66.4638 9.37453 66.8317 9.08949C67.2029 8.80114 67.6089 8.59233 68.0497 8.46307C68.4905 8.33049 68.9413 8.2642 69.402 8.2642C69.7069 8.2642 70.0234 8.30066 70.3516 8.37358C70.6797 8.44318 70.978 8.57244 71.2464 8.76136C71.5182 8.95028 71.7204 9.22041 71.853 9.57173C71.9856 9.91974 72.0054 10.3722 71.9126 10.929L71.0724 16H69.6207L69.7997 14.956H69.7401C69.6141 15.1482 69.4384 15.3371 69.2131 15.5227C68.991 15.7083 68.7192 15.8625 68.3977 15.9851C68.0762 16.1077 67.705 16.169 67.2841 16.169ZM67.7912 14.9759C68.2055 14.9759 68.5717 14.8946 68.8899 14.7322C69.2114 14.5698 69.4716 14.3577 69.6705 14.0959C69.8693 13.8307 69.9936 13.5473 70.0433 13.2457L70.2074 12.2614C70.1444 12.3144 70.0334 12.3625 69.8743 12.4055C69.7185 12.4486 69.5429 12.4867 69.3473 12.5199C69.1518 12.553 68.9595 12.5812 68.7706 12.6044C68.585 12.6276 68.4309 12.6491 68.3082 12.669C68.0166 12.7055 67.7431 12.7668 67.4879 12.853C67.236 12.9392 67.0256 13.0634 66.8565 13.2259C66.6875 13.3849 66.5814 13.5971 66.5384 13.8622C66.4787 14.2301 66.5665 14.5085 66.8018 14.6974C67.0405 14.883 67.3703 14.9759 67.7912 14.9759ZM76.2292 5.81818L74.5389 16H73.0524L74.7427 5.81818H76.2292ZM79.81 16.1541C79.061 16.1541 78.4412 15.9934 77.9506 15.6719C77.4634 15.3471 77.122 14.8913 76.9265 14.3047C76.7309 13.7147 76.6995 13.0237 76.832 12.2315C76.9613 11.4493 77.2215 10.7599 77.6126 10.1634C78.0037 9.56676 78.4909 9.10109 79.0742 8.76633C79.6609 8.43158 80.3088 8.2642 81.0181 8.2642C81.449 8.2642 81.855 8.33546 82.2362 8.47798C82.6206 8.6205 82.9471 8.84422 83.2156 9.14915C83.484 9.45407 83.6696 9.85014 83.7724 10.3374C83.8784 10.8213 83.8751 11.4096 83.7624 12.1023L83.6779 12.6293H77.6026L77.7766 11.5156H82.3903C82.4599 11.1245 82.4416 10.7782 82.3356 10.4766C82.2295 10.1716 82.0472 9.93134 81.7887 9.75568C81.5335 9.58002 81.212 9.49219 80.8242 9.49219C80.4265 9.49219 80.0553 9.59659 79.7106 9.8054C79.3659 10.0142 79.0775 10.281 78.8455 10.6058C78.6168 10.9273 78.4727 11.2588 78.413 11.6001L78.239 12.6193C78.1528 13.1761 78.1677 13.6236 78.2837 13.9616C78.4031 14.2997 78.6119 14.545 78.9102 14.6974C79.2085 14.8499 79.5813 14.9261 80.0288 14.9261C80.3171 14.9261 80.5839 14.8864 80.8292 14.8068C81.0778 14.724 81.2982 14.603 81.4904 14.4439C81.6826 14.2815 81.8434 14.0793 81.9727 13.8374L83.3349 14.0909C83.1526 14.5052 82.8907 14.8681 82.5494 15.1797C82.208 15.4879 81.8053 15.7282 81.3413 15.9006C80.8806 16.0696 80.3701 16.1541 79.81 16.1541ZM87.6316 16.1491C87.0118 16.1491 86.4864 15.9917 86.0556 15.6768C85.628 15.3587 85.3248 14.9062 85.1458 14.3196C84.9701 13.7296 84.9502 13.022 85.0861 12.1967C85.2253 11.3714 85.4822 10.6655 85.8567 10.0788C86.2312 9.49219 86.6853 9.04309 87.2189 8.73153C87.7525 8.41998 88.3276 8.2642 88.9441 8.2642C89.418 8.2642 89.7859 8.34375 90.0478 8.50284C90.3129 8.65862 90.5085 8.84091 90.6344 9.04972C90.7604 9.25852 90.8548 9.44247 90.9178 9.60156H91.0023L91.6337 5.81818H93.1202L91.4299 16H89.9782L90.182 14.8118H90.0577C89.9417 14.9742 89.781 15.1598 89.5755 15.3686C89.3733 15.5774 89.1148 15.7597 88.7999 15.9155C88.485 16.0713 88.0956 16.1491 87.6316 16.1491ZM88.1337 14.8814C88.5613 14.8814 88.9441 14.7687 89.2821 14.5433C89.6235 14.3146 89.9069 13.9981 90.1323 13.5938C90.361 13.1894 90.5201 12.7187 90.6096 12.1818C90.699 11.6515 90.6974 11.1875 90.6046 10.7898C90.5118 10.392 90.3328 10.0821 90.0676 9.86009C89.8025 9.63802 89.4528 9.52699 89.0186 9.52699C88.5712 9.52699 88.1818 9.64299 87.8503 9.875C87.5189 10.107 87.2471 10.4235 87.035 10.8246C86.8262 11.2256 86.6803 11.678 86.5975 12.1818C86.5113 12.6922 86.508 13.1513 86.5875 13.5589C86.6671 13.9666 86.8345 14.2898 87.0897 14.5284C87.3449 14.7637 87.6929 14.8814 88.1337 14.8814ZM100.523 16.1541C99.7739 16.1541 99.1541 15.9934 98.6635 15.6719C98.1763 15.3471 97.8349 14.8913 97.6394 14.3047C97.4438 13.7147 97.4123 13.0237 97.5449 12.2315C97.6742 11.4493 97.9344 10.7599 98.3255 10.1634C98.7166 9.56676 99.2038 9.10109 99.7871 8.76633C100.374 8.43158 101.022 8.2642 101.731 8.2642C102.162 8.2642 102.568 8.33546 102.949 8.47798C103.334 8.6205 103.66 8.84422 103.928 9.14915C104.197 9.45407 104.383 9.85014 104.485 10.3374C104.591 10.8213 104.588 11.4096 104.475 12.1023L104.391 12.6293H98.3155L98.4895 11.5156H103.103C103.173 11.1245 103.155 10.7782 103.048 10.4766C102.942 10.1716 102.76 9.93134 102.502 9.75568C102.246 9.58002 101.925 9.49219 101.537 9.49219C101.139 9.49219 100.768 9.59659 100.423 9.8054C100.079 10.0142 99.7904 10.281 99.5584 10.6058C99.3297 10.9273 99.1855 11.2588 99.1259 11.6001L98.9519 12.6193C98.8657 13.1761 98.8806 13.6236 98.9966 13.9616C99.1159 14.2997 99.3248 14.545 99.623 14.6974C99.9213 14.8499 100.294 14.9261 100.742 14.9261C101.03 14.9261 101.297 14.8864 101.542 14.8068C101.791 14.724 102.011 14.603 102.203 14.4439C102.396 14.2815 102.556 14.0793 102.686 13.8374L104.048 14.0909C103.865 14.5052 103.604 14.8681 103.262 15.1797C102.921 15.4879 102.518 15.7282 102.054 15.9006C101.593 16.0696 101.083 16.1541 100.523 16.1541ZM108.673 5.81818L106.982 16H105.496L107.186 5.81818H108.673ZM114.307 11.0533L114.093 12.3409H109.574L109.787 11.0533H114.307ZM119.173 16L120.445 8.36364H121.872L121.663 9.60653H121.758C121.99 9.18561 122.305 8.85748 122.702 8.62216C123.103 8.38352 123.558 8.2642 124.065 8.2642C124.568 8.2642 124.974 8.38352 125.283 8.62216C125.594 8.8608 125.798 9.18892 125.894 9.60653H125.974C126.219 9.19555 126.562 8.86908 127.003 8.62713C127.444 8.38518 127.939 8.2642 128.489 8.2642C129.175 8.2642 129.702 8.48295 130.07 8.92045C130.442 9.35464 130.554 10.0076 130.408 10.8793L129.553 16H128.062L128.897 11.0185C128.98 10.4981 128.9 10.1236 128.658 9.89489C128.416 9.66288 128.1 9.54688 127.709 9.54688C127.225 9.54688 126.824 9.69602 126.506 9.99432C126.188 10.2893 125.992 10.6688 125.919 11.1328L125.099 16H123.622L124.472 10.924C124.539 10.5064 124.462 10.1733 124.244 9.92472C124.028 9.67282 123.713 9.54688 123.299 9.54688C123.017 9.54688 122.744 9.62145 122.479 9.7706C122.217 9.91974 121.993 10.1252 121.808 10.3871C121.622 10.6489 121.501 10.9505 121.445 11.2919L120.659 16H119.173ZM134.792 16.1541C134.066 16.1541 133.46 15.9884 132.972 15.657C132.485 15.3222 132.142 14.8549 131.943 14.255C131.748 13.6518 131.715 12.9508 131.844 12.152C131.97 11.3698 132.223 10.687 132.605 10.1037C132.989 9.52036 133.47 9.06794 134.046 8.74645C134.626 8.42495 135.271 8.2642 135.98 8.2642C136.706 8.2642 137.311 8.43158 137.795 8.76633C138.282 9.10109 138.625 9.57008 138.824 10.1733C139.023 10.7765 139.058 11.4792 138.928 12.2812C138.802 13.0568 138.546 13.7363 138.158 14.3196C137.773 14.8996 137.293 15.3504 136.716 15.6719C136.139 15.9934 135.498 16.1541 134.792 16.1541ZM134.877 14.9062C135.354 14.9062 135.77 14.7803 136.124 14.5284C136.482 14.2765 136.774 13.9418 136.999 13.5241C137.225 13.1065 137.379 12.6491 137.462 12.152C137.538 11.6714 137.536 11.2322 137.457 10.8345C137.381 10.4335 137.215 10.112 136.96 9.87003C136.704 9.62808 136.35 9.5071 135.896 9.5071C135.419 9.5071 134.999 9.63471 134.638 9.88991C134.28 10.1418 133.988 10.4782 133.763 10.8991C133.541 11.3201 133.39 11.7791 133.311 12.2763C133.234 12.7536 133.234 13.1927 133.311 13.5938C133.387 13.9915 133.552 14.3097 133.808 14.5483C134.063 14.7869 134.419 14.9062 134.877 14.9062ZM139.976 16L141.249 8.36364H142.686L142.482 9.5767H142.561C142.767 9.16572 143.067 8.84257 143.461 8.60724C143.856 8.36861 144.277 8.24929 144.724 8.24929C144.82 8.24929 144.93 8.2526 145.052 8.25923C145.175 8.26255 145.274 8.27083 145.35 8.28409L145.112 9.70597C145.056 9.68939 144.953 9.67116 144.804 9.65128C144.654 9.62808 144.5 9.61648 144.341 9.61648C143.993 9.61648 143.67 9.69105 143.372 9.8402C143.074 9.98603 142.823 10.1899 142.621 10.4517C142.419 10.7102 142.288 11.0052 142.228 11.3366L141.463 16H139.976ZM152.063 10.228L150.676 10.4666C150.646 10.291 150.585 10.1252 150.492 9.96946C150.403 9.81368 150.265 9.68774 150.08 9.59162C149.894 9.49219 149.647 9.44247 149.339 9.44247C148.911 9.44247 148.537 9.54025 148.215 9.7358C147.897 9.93134 147.715 10.1799 147.669 10.4815C147.625 10.7268 147.683 10.9257 147.843 11.0781C148.002 11.2273 148.282 11.3516 148.683 11.451L149.856 11.7294C150.532 11.8918 151.016 12.1454 151.308 12.4901C151.603 12.8314 151.705 13.2756 151.616 13.8224C151.54 14.2765 151.341 14.6792 151.019 15.0305C150.701 15.3819 150.294 15.657 149.796 15.8558C149.299 16.0547 148.746 16.1541 148.136 16.1541C147.267 16.1541 146.591 15.9702 146.107 15.6023C145.624 15.2344 145.375 14.714 145.362 14.0412L146.833 13.8224C146.86 14.197 146.994 14.4804 147.236 14.6726C147.481 14.8615 147.821 14.956 148.255 14.956C148.752 14.9593 149.168 14.8549 149.503 14.6428C149.838 14.4306 150.028 14.1738 150.075 13.8722C150.115 13.6368 150.061 13.4413 149.916 13.2855C149.773 13.1297 149.521 13.0104 149.16 12.9276L147.927 12.6442C147.238 12.4818 146.75 12.2199 146.465 11.8587C146.18 11.4974 146.084 11.0433 146.177 10.4964C146.25 10.049 146.439 9.65956 146.744 9.32812C147.052 8.99337 147.441 8.73319 147.912 8.54758C148.383 8.35866 148.903 8.2642 149.473 8.2642C150.305 8.2642 150.93 8.44318 151.347 8.80114C151.765 9.15578 152.004 9.63139 152.063 10.228ZM153.355 18.8636C153.129 18.8636 152.929 18.8454 152.753 18.8089C152.578 18.7758 152.447 18.7393 152.36 18.6996L152.927 17.4815C153.189 17.5545 153.423 17.5826 153.628 17.5661C153.837 17.5495 154.033 17.4633 154.215 17.3075C154.397 17.1518 154.583 16.9065 154.772 16.5717L155.05 16.0696L153.554 8.36364H155.085L156.029 14.3047H156.109L159.032 8.36364H160.688L156.109 17.0092C155.894 17.4202 155.648 17.7616 155.373 18.0334C155.101 18.3085 154.797 18.5156 154.458 18.6548C154.124 18.794 153.756 18.8636 153.355 18.8636Z" fill="white"/>
<path d="M48.1591 33V24.2727H48.9219V27.7031H48.9901C49.0753 27.5071 49.1974 27.3054 49.3565 27.098C49.5185 26.8906 49.7301 26.7173 49.9915 26.5781C50.2557 26.4361 50.5881 26.3651 50.9886 26.3651C51.5256 26.3651 51.9972 26.5071 52.4034 26.7912C52.8097 27.0724 53.1264 27.4673 53.3537 27.9759C53.581 28.4815 53.6946 29.071 53.6946 29.7443C53.6946 30.4205 53.581 31.0128 53.3537 31.5213C53.1293 32.0298 52.8139 32.4261 52.4077 32.7102C52.0043 32.9943 51.5355 33.1364 51.0014 33.1364C50.6037 33.1364 50.2713 33.0653 50.0043 32.9233C49.7401 32.7812 49.527 32.6065 49.3651 32.3991C49.2031 32.1889 49.0781 31.9844 48.9901 31.7855H48.8963V33H48.1591ZM48.9091 29.7315C48.9091 30.2599 48.9872 30.7287 49.1435 31.1378C49.3026 31.544 49.5298 31.8636 49.8253 32.0966C50.1236 32.3267 50.4844 32.4418 50.9077 32.4418C51.3423 32.4418 51.7102 32.3224 52.0114 32.0838C52.3125 31.8423 52.5412 31.517 52.6974 31.108C52.8537 30.6989 52.9318 30.2401 52.9318 29.7315C52.9318 29.2287 52.8537 28.7756 52.6974 28.3722C52.544 27.9687 52.3168 27.6491 52.0156 27.4134C51.7145 27.1747 51.3452 27.0554 50.9077 27.0554C50.4815 27.0554 50.1193 27.1705 49.821 27.4006C49.5256 27.6278 49.2997 27.9432 49.1435 28.3466C48.9872 28.7472 48.9091 29.2088 48.9091 29.7315ZM57.1889 33.1491C56.794 33.1491 56.4332 33.0724 56.1065 32.919C55.7798 32.7628 55.5199 32.5384 55.3267 32.2457C55.1335 31.9503 55.0369 31.5923 55.0369 31.1719C55.0369 30.848 55.098 30.5753 55.2202 30.3537C55.3423 30.1321 55.5156 29.9503 55.7401 29.8082C55.9645 29.6662 56.2301 29.554 56.5369 29.4716C56.8438 29.3892 57.1818 29.3253 57.5511 29.2798C57.9176 29.2344 58.2273 29.1946 58.4801 29.1605C58.7358 29.1264 58.9304 29.0724 59.0639 28.9986C59.1974 28.9247 59.2642 28.8054 59.2642 28.6406V28.4872C59.2642 28.0412 59.1307 27.6903 58.8636 27.4347C58.5994 27.1761 58.2188 27.0469 57.7216 27.0469C57.25 27.0469 56.8651 27.1506 56.5668 27.358C56.2713 27.5653 56.0639 27.8097 55.9446 28.0909L55.2244 27.831C55.3722 27.473 55.5767 27.1875 55.8381 26.9744C56.0994 26.7585 56.392 26.6037 56.7159 26.5099C57.0398 26.4134 57.3679 26.3651 57.7003 26.3651C57.9503 26.3651 58.2102 26.3977 58.4801 26.4631C58.7528 26.5284 59.0057 26.642 59.2386 26.804C59.4716 26.9631 59.6605 27.1861 59.8054 27.473C59.9503 27.7571 60.0227 28.1179 60.0227 28.5554V33H59.2642V31.9645H59.2173C59.1264 32.1577 58.9915 32.3452 58.8125 32.527C58.6335 32.7088 58.4091 32.858 58.1392 32.9744C57.8693 33.0909 57.5526 33.1491 57.1889 33.1491ZM57.2912 32.4545C57.6946 32.4545 58.044 32.3651 58.3395 32.1861C58.6349 32.0071 58.8622 31.7699 59.0213 31.4744C59.1832 31.1761 59.2642 30.848 59.2642 30.4901V29.544C59.2074 29.598 59.1122 29.6463 58.9787 29.6889C58.848 29.7315 58.696 29.7699 58.5227 29.804C58.3523 29.8352 58.1818 29.8622 58.0114 29.8849C57.8409 29.9077 57.6875 29.9276 57.5511 29.9446C57.1818 29.9901 56.8665 30.0611 56.6051 30.1577C56.3438 30.2543 56.1435 30.3878 56.0043 30.5582C55.8651 30.7259 55.7955 30.9418 55.7955 31.206C55.7955 31.6037 55.9375 31.9119 56.2216 32.1307C56.5057 32.3466 56.8622 32.4545 57.2912 32.4545ZM64.5973 33.1364C64.0121 33.1364 63.5021 32.9901 63.0675 32.6974C62.6357 32.4048 62.3004 32.0043 62.0618 31.4957C61.8232 30.9872 61.7038 30.4077 61.7038 29.7571C61.7038 29.1009 61.8246 28.517 62.0661 28.0057C62.3104 27.4943 62.6484 27.0937 63.0803 26.804C63.5121 26.5114 64.0135 26.3651 64.5845 26.3651C65.022 26.3651 65.4183 26.4503 65.7734 26.6207C66.1286 26.7884 66.4212 27.0256 66.6513 27.3324C66.8842 27.6364 67.0305 27.9915 67.0902 28.3977H66.3232C66.2436 28.0284 66.0518 27.7131 65.7479 27.4517C65.4467 27.1875 65.0632 27.0554 64.5973 27.0554C64.1797 27.0554 63.8104 27.169 63.4893 27.3963C63.1683 27.6207 62.9169 27.9347 62.7351 28.3381C62.5561 28.7386 62.4666 29.2031 62.4666 29.7315C62.4666 30.2628 62.5547 30.733 62.7308 31.142C62.907 31.5483 63.1541 31.8665 63.4723 32.0966C63.7933 32.3267 64.1683 32.4418 64.5973 32.4418C64.8871 32.4418 65.1513 32.3878 65.3899 32.2798C65.6314 32.169 65.8331 32.0128 65.995 31.8111C66.1598 31.6094 66.2706 31.3693 66.3274 31.0909H67.0945C67.0376 31.4858 66.897 31.8381 66.6726 32.1477C66.451 32.4545 66.1626 32.696 65.8075 32.8722C65.4553 33.0483 65.0518 33.1364 64.5973 33.1364ZM69.4105 30.5284L69.402 29.5355H69.5724L72.6406 26.4545H73.5994L70.5696 29.4886L70.5014 29.5014L69.4105 30.5284ZM68.7202 33V24.2727H69.4787V33H68.7202ZM72.7983 33L70.1392 29.6378L70.6847 29.1136L73.7699 33H72.7983ZM78.0067 28.9006V29.6165H74.3761V28.9006H78.0067ZM82.5579 33.1364C81.9471 33.1364 81.4187 32.9943 80.9727 32.7102C80.5266 32.4233 80.1815 32.027 79.9371 31.5213C79.6957 31.0128 79.5749 30.4276 79.5749 29.7656C79.5749 29.1065 79.6957 28.5213 79.9371 28.0099C80.1815 27.4957 80.5181 27.0937 80.9471 26.804C81.3789 26.5114 81.8775 26.3651 82.4428 26.3651C82.7979 26.3651 83.1403 26.4304 83.4698 26.5611C83.7994 26.6889 84.0948 26.8864 84.3562 27.1534C84.6204 27.4176 84.8292 27.7514 84.9826 28.1548C85.136 28.5554 85.2127 29.0298 85.2127 29.5781V29.9531H80.0991V29.2841H84.4371C84.4371 28.8636 84.3519 28.4858 84.1815 28.1506C84.0138 27.8125 83.7795 27.5455 83.4783 27.3494C83.18 27.1534 82.8349 27.0554 82.4428 27.0554C82.0281 27.0554 81.663 27.1662 81.3477 27.3878C81.0323 27.6094 80.7852 27.902 80.6062 28.2656C80.43 28.6293 80.3406 29.027 80.3377 29.4588V29.8594C80.3377 30.3793 80.4272 30.8338 80.6062 31.223C80.788 31.6094 81.0451 31.9091 81.3775 32.1222C81.7099 32.3352 82.1033 32.4418 82.5579 32.4418C82.8675 32.4418 83.1388 32.3935 83.3718 32.2969C83.6076 32.2003 83.805 32.071 83.9641 31.9091C84.1261 31.7443 84.2482 31.5639 84.3306 31.3679L85.0508 31.6023C84.9513 31.8778 84.788 32.1321 84.5607 32.3651C84.3363 32.598 84.055 32.7855 83.717 32.9276C83.3817 33.0668 82.9954 33.1364 82.5579 33.1364ZM87.6428 28.9091V33H86.8842V26.4545H87.6214V27.4815H87.6896C87.843 27.1463 88.0817 26.8778 88.4055 26.6761C88.7322 26.4716 89.1357 26.3693 89.6158 26.3693C90.0561 26.3693 90.4425 26.4616 90.7749 26.6463C91.1101 26.8281 91.37 27.0966 91.5547 27.4517C91.7422 27.8068 91.8359 28.2429 91.8359 28.7599V33H91.0774V28.8068C91.0774 28.2699 90.9268 27.8452 90.6257 27.5327C90.3274 27.2202 89.9268 27.0639 89.424 27.0639C89.0803 27.0639 88.7749 27.1378 88.5078 27.2855C88.2408 27.4332 88.0291 27.6463 87.8729 27.9247C87.7195 28.2003 87.6428 28.5284 87.6428 28.9091ZM96.19 33.1364C95.6531 33.1364 95.1829 32.9943 94.7795 32.7102C94.3761 32.4261 94.0607 32.0298 93.8335 31.5213C93.609 31.0128 93.4968 30.4205 93.4968 29.7443C93.4968 29.071 93.609 28.4815 93.8335 27.9759C94.0607 27.4673 94.3775 27.0724 94.7837 26.7912C95.19 26.5071 95.663 26.3651 96.2028 26.3651C96.6005 26.3651 96.9315 26.4361 97.1957 26.5781C97.4599 26.7173 97.6715 26.8906 97.8306 27.098C97.9897 27.3054 98.1133 27.5071 98.2013 27.7031H98.2695V24.2727H99.0323V33H98.2908V31.7855H98.2013C98.1133 31.9844 97.9883 32.1889 97.8263 32.3991C97.6644 32.6065 97.4499 32.7812 97.1829 32.9233C96.9187 33.0653 96.5877 33.1364 96.19 33.1364ZM96.2795 32.4418C96.7028 32.4418 97.0636 32.3267 97.3619 32.0966C97.6602 31.8636 97.8874 31.544 98.0437 31.1378C98.2028 30.7287 98.2823 30.2599 98.2823 29.7315C98.2823 29.2088 98.2042 28.7472 98.0479 28.3466C97.8917 27.9432 97.6644 27.6278 97.3661 27.4006C97.0678 27.1705 96.7056 27.0554 96.2795 27.0554C95.842 27.0554 95.4727 27.1747 95.1715 27.4134C94.8732 27.6491 94.646 27.9687 94.4897 28.3722C94.3363 28.7756 94.2596 29.2287 94.2596 29.7315C94.2596 30.2401 94.3377 30.6989 94.494 31.108C94.6502 31.517 94.8775 31.8423 95.1758 32.0838C95.4769 32.3224 95.8448 32.4418 96.2795 32.4418Z" fill="white"/>
</svg>
