<svg width="180" height="24" viewBox="0 0 180 24" fill="none" xmlns="http://www.w3.org/2000/svg">
<path d="M40.0185 9.06201C39.9654 8.5658 39.742 8.17944 39.348 7.90292C38.9579 7.62641 38.4503 7.48815 37.8253 7.48815C37.3859 7.48815 37.009 7.55444 36.6946 7.68701C36.3802 7.81959 36.1397 7.99951 35.973 8.22678C35.8063 8.45406 35.7211 8.71353 35.7173 9.00519C35.7173 9.24762 35.7723 9.45784 35.8821 9.63588C35.9957 9.81391 36.1491 9.96542 36.3423 10.0904C36.5355 10.2116 36.7495 10.3139 36.9844 10.3972C37.2192 10.4806 37.456 10.5506 37.6946 10.6075L38.7855 10.8802C39.2249 10.9825 39.6473 11.1207 40.0526 11.295C40.4616 11.4692 40.8272 11.6889 41.1491 11.9541C41.4749 12.2192 41.7325 12.5393 41.9219 12.9143C42.1113 13.2893 42.206 13.7287 42.206 14.2325C42.206 14.9143 42.0317 15.5147 41.6832 16.0336C41.3348 16.5488 40.831 16.9522 40.1719 17.2438C39.5166 17.5317 38.723 17.6756 37.7912 17.6756C36.8859 17.6756 36.0999 17.5355 35.4332 17.2552C34.7704 16.9749 34.2514 16.5658 33.8764 16.0279C33.5052 15.49 33.3045 14.8347 33.2741 14.062H35.348C35.3783 14.4673 35.5033 14.8044 35.723 15.0734C35.9427 15.3423 36.2287 15.5431 36.581 15.6756C36.937 15.8082 37.3348 15.8745 37.7741 15.8745C38.2325 15.8745 38.634 15.8063 38.9787 15.67C39.3272 15.5298 39.5999 15.3366 39.7969 15.0904C39.9938 14.8404 40.0942 14.5488 40.098 14.2154C40.0942 13.9124 40.0052 13.6624 39.831 13.4654C39.6567 13.2647 39.4124 13.098 39.098 12.9654C38.7874 12.8291 38.4238 12.7078 38.0071 12.6018L36.6832 12.2609C35.7249 12.0147 34.9673 11.6416 34.4105 11.1416C33.8575 10.6378 33.581 9.96921 33.581 9.13587C33.581 8.45027 33.7666 7.84989 34.1378 7.33474C34.5128 6.81959 35.0223 6.41997 35.6662 6.13587C36.3101 5.848 37.0393 5.70406 37.8537 5.70406C38.6795 5.70406 39.4029 5.848 40.0241 6.13587C40.6491 6.41997 41.1397 6.8158 41.4957 7.32337C41.8518 7.82716 42.0355 8.40671 42.0469 9.06201H40.0185ZM43.9943 17.4995V8.77224H46.0511V17.4995H43.9943ZM45.0284 7.5336C44.7027 7.5336 44.4223 7.42565 44.1875 7.20974C43.9527 6.99004 43.8352 6.72678 43.8352 6.41997C43.8352 6.10936 43.9527 5.8461 44.1875 5.63019C44.4223 5.4105 44.7027 5.30065 45.0284 5.30065C45.358 5.30065 45.6383 5.4105 45.8693 5.63019C46.1042 5.8461 46.2216 6.10936 46.2216 6.41997C46.2216 6.72678 46.1042 6.99004 45.8693 7.20974C45.6383 7.42565 45.358 7.5336 45.0284 7.5336ZM51.9616 20.9541C51.223 20.9541 50.5885 20.8537 50.0582 20.6529C49.5279 20.456 49.1018 20.1908 48.7798 19.8575C48.4579 19.5241 48.2344 19.1548 48.1094 18.7495L49.9616 18.3006C50.045 18.4711 50.1662 18.6397 50.3253 18.8063C50.4844 18.9768 50.6984 19.1169 50.9673 19.2268C51.2401 19.3404 51.5829 19.3972 51.9957 19.3972C52.5791 19.3972 53.062 19.2552 53.4446 18.9711C53.8272 18.6908 54.0185 18.2287 54.0185 17.5847V15.9313H53.9162C53.8101 16.1435 53.6548 16.3613 53.4503 16.5847C53.2495 16.8082 52.9825 16.9957 52.6491 17.1472C52.3196 17.2988 51.9048 17.3745 51.4048 17.3745C50.7344 17.3745 50.1264 17.2173 49.581 16.9029C49.0393 16.5847 48.6075 16.1113 48.2855 15.4825C47.9673 14.8499 47.8082 14.0582 47.8082 13.1075C47.8082 12.1491 47.9673 11.3404 48.2855 10.6813C48.6075 10.0185 49.0412 9.51656 49.5866 9.17565C50.1321 8.83095 50.7401 8.6586 51.4105 8.6586C51.9219 8.6586 52.3423 8.74572 52.6719 8.91997C53.0052 9.09042 53.2704 9.29686 53.4673 9.53928C53.6643 9.77792 53.8139 10.0033 53.9162 10.2154H54.0298V8.77224H56.0582V17.6416C56.0582 18.3878 55.8802 19.0052 55.5241 19.4938C55.1681 19.9825 54.6813 20.348 54.0639 20.5904C53.4465 20.8328 52.7457 20.9541 51.9616 20.9541ZM51.9787 15.7609C52.4143 15.7609 52.7855 15.6548 53.0923 15.4427C53.3991 15.2306 53.6321 14.9256 53.7912 14.5279C53.9503 14.1302 54.0298 13.6529 54.0298 13.0961C54.0298 12.5469 53.9503 12.0658 53.7912 11.6529C53.6359 11.24 53.4048 10.92 53.098 10.6927C52.795 10.4616 52.4219 10.3461 51.9787 10.3461C51.5204 10.3461 51.1378 10.4654 50.831 10.7041C50.5241 10.9427 50.2931 11.2703 50.1378 11.687C49.9825 12.0999 49.9048 12.5696 49.9048 13.0961C49.9048 13.6302 49.9825 14.098 50.1378 14.4995C50.2969 14.8972 50.5298 15.2078 50.8366 15.4313C51.1473 15.651 51.5279 15.7609 51.9787 15.7609ZM60.223 12.3859V17.4995H58.1662V8.77224H60.1321V10.2552H60.2344C60.4351 9.76656 60.7552 9.3783 61.1946 9.09042C61.6378 8.80254 62.1851 8.6586 62.8366 8.6586C63.4389 8.6586 63.9635 8.78739 64.4105 9.04497C64.8613 9.30254 65.2098 9.67565 65.456 10.1643C65.706 10.6529 65.8291 11.2457 65.8253 11.9427V17.4995H63.7685V12.2609C63.7685 11.6775 63.617 11.2211 63.3139 10.8916C63.0147 10.562 62.5999 10.3972 62.0696 10.3972C61.7098 10.3972 61.3897 10.4768 61.1094 10.6359C60.8329 10.7912 60.6151 11.0166 60.456 11.312C60.3007 11.6075 60.223 11.9654 60.223 12.3859ZM71.8849 17.4995V8.77224H73.9418V17.4995H71.8849ZM72.919 7.5336C72.5933 7.5336 72.313 7.42565 72.0781 7.20974C71.8433 6.99004 71.7259 6.72678 71.7259 6.41997C71.7259 6.10936 71.8433 5.8461 72.0781 5.63019C72.313 5.4105 72.5933 5.30065 72.919 5.30065C73.2486 5.30065 73.5289 5.4105 73.7599 5.63019C73.9948 5.8461 74.1122 6.10936 74.1122 6.41997C74.1122 6.72678 73.9948 6.99004 73.7599 7.20974C73.5289 7.42565 73.2486 7.5336 72.919 7.5336ZM78.1136 12.3859V17.4995H76.0568V8.77224H78.0227V10.2552H78.125C78.3258 9.76656 78.6458 9.3783 79.0852 9.09042C79.5284 8.80254 80.0758 8.6586 80.7273 8.6586C81.3295 8.6586 81.8542 8.78739 82.3011 9.04497C82.7519 9.30254 83.1004 9.67565 83.3466 10.1643C83.5966 10.6529 83.7197 11.2457 83.7159 11.9427V17.4995H81.6591V12.2609C81.6591 11.6775 81.5076 11.2211 81.2045 10.8916C80.9053 10.562 80.4905 10.3972 79.9602 10.3972C79.6004 10.3972 79.2803 10.4768 79 10.6359C78.7235 10.7912 78.5057 11.0166 78.3466 11.312C78.1913 11.6075 78.1136 11.9654 78.1136 12.3859ZM91.5767 17.4995L89.1108 8.77224H91.2074L92.7415 14.9086H92.821L94.3892 8.77224H96.4631L98.0312 14.8745H98.1165L99.6278 8.77224H101.73L99.2585 17.4995H97.1165L95.4801 11.6018H95.3608L93.7244 17.4995H91.5767ZM103.166 17.4995V8.77224H105.223V17.4995H103.166ZM104.2 7.5336C103.875 7.5336 103.594 7.42565 103.359 7.20974C103.125 6.99004 103.007 6.72678 103.007 6.41997C103.007 6.10936 103.125 5.8461 103.359 5.63019C103.594 5.4105 103.875 5.30065 104.2 5.30065C104.53 5.30065 104.81 5.4105 105.041 5.63019C105.276 5.8461 105.393 6.10936 105.393 6.41997C105.393 6.72678 105.276 6.99004 105.041 7.20974C104.81 7.42565 104.53 7.5336 104.2 7.5336ZM111.696 8.77224V10.3631H106.679V8.77224H111.696ZM107.918 6.68133H109.974V14.8745C109.974 15.151 110.016 15.3631 110.099 15.5109C110.187 15.6548 110.3 15.7533 110.44 15.8063C110.58 15.8594 110.736 15.8859 110.906 15.8859C111.035 15.8859 111.152 15.8764 111.259 15.8575C111.368 15.8385 111.452 15.8215 111.509 15.8063L111.855 17.4143C111.745 17.4522 111.588 17.4938 111.384 17.5393C111.183 17.5847 110.937 17.6113 110.645 17.6188C110.13 17.634 109.666 17.5563 109.253 17.3859C108.84 17.2116 108.512 16.9427 108.27 16.5791C108.031 16.2154 107.914 15.7609 107.918 15.2154V6.68133ZM115.661 12.3859V17.4995H113.604V5.86315H115.615V10.2552H115.717C115.922 9.76277 116.238 9.37451 116.666 9.09042C117.098 8.80254 117.647 8.6586 118.314 8.6586C118.92 8.6586 119.448 8.7855 119.899 9.03928C120.35 9.29307 120.698 9.66428 120.945 10.1529C121.195 10.6416 121.32 11.2381 121.32 11.9427V17.4995H119.263V12.2609C119.263 11.6738 119.111 11.2173 118.808 10.8916C118.509 10.562 118.089 10.3972 117.547 10.3972C117.183 10.3972 116.857 10.4768 116.57 10.6359C116.286 10.7912 116.062 11.0166 115.899 11.312C115.74 11.6075 115.661 11.9654 115.661 12.3859ZM131.18 20.9541C130.442 20.9541 129.807 20.8537 129.277 20.6529C128.747 20.456 128.321 20.1908 127.999 19.8575C127.677 19.5241 127.453 19.1548 127.328 18.7495L129.18 18.3006C129.264 18.4711 129.385 18.6397 129.544 18.8063C129.703 18.9768 129.917 19.1169 130.186 19.2268C130.459 19.3404 130.802 19.3972 131.214 19.3972C131.798 19.3972 132.281 19.2552 132.663 18.9711C133.046 18.6908 133.237 18.2287 133.237 17.5847V15.9313H133.135C133.029 16.1435 132.874 16.3613 132.669 16.5847C132.468 16.8082 132.201 16.9957 131.868 17.1472C131.538 17.2988 131.124 17.3745 130.624 17.3745C129.953 17.3745 129.345 17.2173 128.8 16.9029C128.258 16.5847 127.826 16.1113 127.504 15.4825C127.186 14.8499 127.027 14.0582 127.027 13.1075C127.027 12.1491 127.186 11.3404 127.504 10.6813C127.826 10.0185 128.26 9.51656 128.805 9.17565C129.351 8.83095 129.959 8.6586 130.629 8.6586C131.141 8.6586 131.561 8.74572 131.891 8.91997C132.224 9.09042 132.489 9.29686 132.686 9.53928C132.883 9.77792 133.033 10.0033 133.135 10.2154H133.249V8.77224H135.277V17.6416C135.277 18.3878 135.099 19.0052 134.743 19.4938C134.387 19.9825 133.9 20.348 133.283 20.5904C132.665 20.8328 131.964 20.9541 131.18 20.9541ZM131.197 15.7609C131.633 15.7609 132.004 15.6548 132.311 15.4427C132.618 15.2306 132.851 14.9256 133.01 14.5279C133.169 14.1302 133.249 13.6529 133.249 13.0961C133.249 12.5469 133.169 12.0658 133.01 11.6529C132.855 11.24 132.624 10.92 132.317 10.6927C132.014 10.4616 131.641 10.3461 131.197 10.3461C130.739 10.3461 130.357 10.4654 130.05 10.7041C129.743 10.9427 129.512 11.2703 129.357 11.687C129.201 12.0999 129.124 12.5696 129.124 13.0961C129.124 13.6302 129.201 14.098 129.357 14.4995C129.516 14.8972 129.749 15.2078 130.055 15.4313C130.366 15.651 130.747 15.7609 131.197 15.7609ZM141.192 17.67C140.339 17.67 139.601 17.4825 138.976 17.1075C138.351 16.7325 137.866 16.2078 137.521 15.5336C137.18 14.8594 137.01 14.0715 137.01 13.17C137.01 12.2685 137.18 11.4787 137.521 10.8006C137.866 10.1226 138.351 9.5961 138.976 9.2211C139.601 8.8461 140.339 8.6586 141.192 8.6586C142.044 8.6586 142.783 8.8461 143.408 9.2211C144.033 9.5961 144.516 10.1226 144.857 10.8006C145.201 11.4787 145.374 12.2685 145.374 13.17C145.374 14.0715 145.201 14.8594 144.857 15.5336C144.516 16.2078 144.033 16.7325 143.408 17.1075C142.783 17.4825 142.044 17.67 141.192 17.67ZM141.203 16.0222C141.665 16.0222 142.052 15.8953 142.362 15.6416C142.673 15.384 142.904 15.0393 143.055 14.6075C143.211 14.1756 143.288 13.6946 143.288 13.1643C143.288 12.6302 143.211 12.1472 143.055 11.7154C142.904 11.2798 142.673 10.9332 142.362 10.6756C142.052 10.4181 141.665 10.2893 141.203 10.2893C140.73 10.2893 140.336 10.4181 140.021 10.6756C139.711 10.9332 139.478 11.2798 139.322 11.7154C139.171 12.1472 139.095 12.6302 139.095 13.1643C139.095 13.6946 139.171 14.1756 139.322 14.6075C139.478 15.0393 139.711 15.384 140.021 15.6416C140.336 15.8953 140.73 16.0222 141.203 16.0222ZM150.926 17.67C150.074 17.67 149.335 17.4825 148.71 17.1075C148.085 16.7325 147.6 16.2078 147.256 15.5336C146.915 14.8594 146.744 14.0715 146.744 13.17C146.744 12.2685 146.915 11.4787 147.256 10.8006C147.6 10.1226 148.085 9.5961 148.71 9.2211C149.335 8.8461 150.074 8.6586 150.926 8.6586C151.778 8.6586 152.517 8.8461 153.142 9.2211C153.767 9.5961 154.25 10.1226 154.591 10.8006C154.936 11.4787 155.108 12.2685 155.108 13.17C155.108 14.0715 154.936 14.8594 154.591 15.5336C154.25 16.2078 153.767 16.7325 153.142 17.1075C152.517 17.4825 151.778 17.67 150.926 17.67ZM150.938 16.0222C151.4 16.0222 151.786 15.8953 152.097 15.6416C152.407 15.384 152.638 15.0393 152.79 14.6075C152.945 14.1756 153.023 13.6946 153.023 13.1643C153.023 12.6302 152.945 12.1472 152.79 11.7154C152.638 11.2798 152.407 10.9332 152.097 10.6756C151.786 10.4181 151.4 10.2893 150.938 10.2893C150.464 10.2893 150.07 10.4181 149.756 10.6756C149.445 10.9332 149.212 11.2798 149.057 11.7154C148.905 12.1472 148.83 12.6302 148.83 13.1643C148.83 13.6946 148.905 14.1756 149.057 14.6075C149.212 15.0393 149.445 15.384 149.756 15.6416C150.07 15.8953 150.464 16.0222 150.938 16.0222ZM160.649 20.9541C159.911 20.9541 159.276 20.8537 158.746 20.6529C158.215 20.456 157.789 20.1908 157.467 19.8575C157.145 19.5241 156.922 19.1548 156.797 18.7495L158.649 18.3006C158.732 18.4711 158.854 18.6397 159.013 18.8063C159.172 18.9768 159.386 19.1169 159.655 19.2268C159.928 19.3404 160.27 19.3972 160.683 19.3972C161.267 19.3972 161.75 19.2552 162.132 18.9711C162.515 18.6908 162.706 18.2287 162.706 17.5847V15.9313H162.604C162.498 16.1435 162.342 16.3613 162.138 16.5847C161.937 16.8082 161.67 16.9957 161.337 17.1472C161.007 17.2988 160.592 17.3745 160.092 17.3745C159.422 17.3745 158.814 17.2173 158.268 16.9029C157.727 16.5847 157.295 16.1113 156.973 15.4825C156.655 14.8499 156.496 14.0582 156.496 13.1075C156.496 12.1491 156.655 11.3404 156.973 10.6813C157.295 10.0185 157.729 9.51656 158.274 9.17565C158.82 8.83095 159.428 8.6586 160.098 8.6586C160.609 8.6586 161.03 8.74572 161.359 8.91997C161.693 9.09042 161.958 9.29686 162.155 9.53928C162.352 9.77792 162.501 10.0033 162.604 10.2154H162.717V8.77224H164.746V17.6416C164.746 18.3878 164.568 19.0052 164.212 19.4938C163.856 19.9825 163.369 20.348 162.751 20.5904C162.134 20.8328 161.433 20.9541 160.649 20.9541ZM160.666 15.7609C161.102 15.7609 161.473 15.6548 161.78 15.4427C162.087 15.2306 162.32 14.9256 162.479 14.5279C162.638 14.1302 162.717 13.6529 162.717 13.0961C162.717 12.5469 162.638 12.0658 162.479 11.6529C162.323 11.24 162.092 10.92 161.786 10.6927C161.482 10.4616 161.109 10.3461 160.666 10.3461C160.208 10.3461 159.825 10.4654 159.518 10.7041C159.212 10.9427 158.981 11.2703 158.825 11.687C158.67 12.0999 158.592 12.5696 158.592 13.0961C158.592 13.6302 158.67 14.098 158.825 14.4995C158.984 14.8972 159.217 15.2078 159.524 15.4313C159.835 15.651 160.215 15.7609 160.666 15.7609ZM168.911 5.86315V17.4995H166.854V5.86315H168.911ZM174.889 17.67C174.014 17.67 173.259 17.4881 172.622 17.1245C171.99 16.7571 171.503 16.2381 171.162 15.5677C170.821 14.8935 170.651 14.0999 170.651 13.187C170.651 12.2893 170.821 11.5014 171.162 10.8234C171.507 10.1416 171.988 9.61125 172.605 9.23247C173.223 8.84989 173.948 8.6586 174.781 8.6586C175.319 8.6586 175.827 8.74572 176.304 8.91997C176.785 9.09042 177.209 9.35557 177.577 9.71542C177.948 10.0753 178.24 10.5336 178.452 11.0904C178.664 11.6435 178.77 12.3025 178.77 13.0677V13.6984H171.616V12.312H176.798C176.795 11.9181 176.709 11.5677 176.543 11.2609C176.376 10.9503 176.143 10.706 175.844 10.5279C175.548 10.3499 175.204 10.2609 174.81 10.2609C174.389 10.2609 174.02 10.3631 173.702 10.5677C173.384 10.7685 173.135 11.0336 172.957 11.3631C172.783 11.6889 172.694 12.0469 172.69 12.437V13.6472C172.69 14.1548 172.783 14.5904 172.969 14.9541C173.154 15.3139 173.414 15.5904 173.747 15.7836C174.08 15.973 174.471 16.0677 174.918 16.0677C175.217 16.0677 175.488 16.026 175.73 15.9427C175.973 15.8556 176.183 15.7287 176.361 15.562C176.539 15.3953 176.673 15.1889 176.764 14.9427L178.685 15.1586C178.563 15.6662 178.332 16.1094 177.991 16.4881C177.654 16.8631 177.223 17.1548 176.696 17.3631C176.17 17.5677 175.567 17.67 174.889 17.67Z" fill="#2F3FFF"/>
<g clip-path="url(#clip0_227_4718)">
<path d="M12.4998 9.81815V14.4654H18.9579C18.6743 15.96 17.8233 17.2255 16.547 18.0764L20.4415 21.0982C22.7106 19.0037 24.0197 15.9273 24.0197 12.2728C24.0197 11.4219 23.9433 10.6037 23.8015 9.81828L12.4998 9.81815Z" fill="#4285F4"/>
<path d="M5.77461 14.284L4.89625 14.9564L1.78711 17.3782C3.76165 21.2945 7.80862 24 12.4995 24C15.7394 24 18.4557 22.9309 20.4412 21.0982L16.5467 18.0764C15.4776 18.7964 14.114 19.2328 12.4995 19.2328C9.37951 19.2328 6.72868 17.1273 5.77952 14.291L5.77461 14.284Z" fill="#34A853"/>
<path d="M1.78718 6.62183C0.969042 8.23631 0.5 10.0581 0.5 11.9999C0.5 13.9417 0.969042 15.7636 1.78718 17.378C1.78718 17.3889 5.77997 14.2799 5.77997 14.2799C5.53998 13.5599 5.39812 12.7963 5.39812 11.9998C5.39812 11.2033 5.53998 10.4398 5.77997 9.71976L1.78718 6.62183Z" fill="#FBBC05"/>
<path d="M12.4997 4.77818C14.267 4.77818 15.8379 5.38907 17.0925 6.56727L20.5288 3.13095C18.4452 1.18917 15.7398 0 12.4997 0C7.80887 0 3.76165 2.69454 1.78711 6.62183L5.77978 9.72001C6.72882 6.88362 9.37976 4.77818 12.4997 4.77818Z" fill="#EA4335"/>
</g>
<defs>
<clipPath id="clip0_227_4718">
<rect width="24" height="24" fill="white" transform="translate(0.5)"/>
</clipPath>
</defs>
</svg>
