<svg width="27" height="25" viewBox="0 0 27 25" fill="none" xmlns="http://www.w3.org/2000/svg">
<path d="M0 8.27243C0 5.98643 -8.04663e-08 4.84464 0.7911 4.13436C1.5822 3.42407 2.8539 3.42407 5.4 3.42407H21.6C24.1461 3.42407 25.4178 3.42407 26.2089 4.13436C27 4.84464 27 5.98643 27 8.27243C27 8.84332 27 9.12937 26.8029 9.30755C26.6045 9.48452 26.2845 9.48452 25.65 9.48452H1.35C0.71415 9.48452 0.39555 9.48452 0.1971 9.30755C-1.20699e-07 9.12937 0 8.84211 0 8.27243ZM0 19.1812C0 21.4672 -8.04663e-08 22.609 0.7911 23.3193C1.5822 24.0296 2.8539 24.0296 5.4 24.0296H21.6C24.1461 24.0296 25.4178 24.0296 26.2089 23.3193C27 22.609 27 21.4672 27 19.1812V13.1208C27 12.5499 27 12.2638 26.8029 12.0857C26.6045 11.9087 26.2845 11.9087 25.65 11.9087H1.35C0.71415 11.9087 0.39555 11.9087 0.1971 12.0857C-1.20699e-07 12.2638 0 12.5511 0 13.1208V19.1812Z" fill="black"/>
<path d="M6.75 1V4.63627M20.25 1V4.63627" stroke="black" stroke-width="2" stroke-linecap="round"/>
</svg>
