<svg width="159" height="39" viewBox="0 0 159 39" fill="none" xmlns="http://www.w3.org/2000/svg">
<rect width="39" height="39" rx="5" fill="white"/>
<path d="M48.3423 16H46.7116L52.0661 5.81818H53.8409L55.8146 16H54.1839L52.6974 7.66761H52.6179L48.3423 16ZM49.277 12.0128H54.5668L54.348 13.3054H49.0582L49.277 12.0128ZM59.4029 11.4659L58.6571 16H57.1706L58.861 5.81818H60.3276L59.7012 9.60653H59.7956C60.0376 9.19223 60.3624 8.86577 60.7701 8.62713C61.181 8.38518 61.6848 8.2642 62.2814 8.2642C62.8051 8.2642 63.2443 8.37192 63.5989 8.58736C63.9569 8.80279 64.2087 9.12429 64.3546 9.55185C64.5037 9.97609 64.5269 10.5064 64.4242 11.1428L63.6088 16H62.1223L62.8979 11.3217C62.9907 10.7616 62.9178 10.3274 62.6792 10.0192C62.4405 9.70762 62.0676 9.55185 61.5605 9.55185C61.2059 9.55185 60.8778 9.62642 60.5762 9.77557C60.2779 9.92472 60.026 10.1435 59.8205 10.4318C59.615 10.7169 59.4758 11.0616 59.4029 11.4659ZM65.5925 16L66.8652 8.36364H68.2921L68.0833 9.60653H68.1777C68.4097 9.18561 68.7246 8.85748 69.1223 8.62216C69.5234 8.38352 69.9775 8.2642 70.4846 8.2642C70.9883 8.2642 71.3944 8.38352 71.7026 8.62216C72.0141 8.8608 72.218 9.18892 72.3141 9.60653H72.3936C72.6389 9.19555 72.9819 8.86908 73.4228 8.62713C73.8636 8.38518 74.3591 8.2642 74.9093 8.2642C75.5953 8.2642 76.1223 8.48295 76.4902 8.92045C76.8614 9.35464 76.9741 10.0076 76.8283 10.8793L75.9732 16H74.4817L75.3169 11.0185C75.3998 10.4981 75.3203 10.1236 75.0783 9.89489C74.8364 9.66288 74.5198 9.54688 74.1287 9.54688C73.6448 9.54688 73.2438 9.69602 72.9256 9.99432C72.6074 10.2893 72.4119 10.6688 72.339 11.1328L71.5186 16H70.0421L70.8922 10.924C70.9585 10.5064 70.8823 10.1733 70.6635 9.92472C70.4481 9.67282 70.1332 9.54688 69.7189 9.54688C69.4372 9.54688 69.1638 9.62145 68.8986 9.7706C68.6368 9.91974 68.4131 10.1252 68.2275 10.3871C68.0418 10.6489 67.9209 10.9505 67.8645 11.2919L67.079 16H65.5925ZM81.2319 16.1541C80.4828 16.1541 79.863 15.9934 79.3725 15.6719C78.8853 15.3471 78.5439 14.8913 78.3484 14.3047C78.1528 13.7147 78.1213 13.0237 78.2539 12.2315C78.3832 11.4493 78.6433 10.7599 79.0344 10.1634C79.4255 9.56676 79.9128 9.10109 80.4961 8.76633C81.0827 8.43158 81.7307 8.2642 82.44 8.2642C82.8709 8.2642 83.2769 8.33546 83.658 8.47798C84.0425 8.6205 84.369 8.84422 84.6374 9.14915C84.9059 9.45407 85.0915 9.85014 85.1942 10.3374C85.3003 10.8213 85.297 11.4096 85.1843 12.1023L85.0998 12.6293H79.0245L79.1985 11.5156H83.8121C83.8817 11.1245 83.8635 10.7782 83.7575 10.4766C83.6514 10.1716 83.4691 9.93134 83.2106 9.75568C82.9554 9.58002 82.6339 9.49219 82.2461 9.49219C81.8484 9.49219 81.4772 9.59659 81.1325 9.8054C80.7878 10.0142 80.4994 10.281 80.2674 10.6058C80.0387 10.9273 79.8945 11.2588 79.8349 11.6001L79.6609 12.6193C79.5747 13.1761 79.5896 13.6236 79.7056 13.9616C79.8249 14.2997 80.0337 14.545 80.332 14.6974C80.6303 14.8499 81.0032 14.9261 81.4506 14.9261C81.739 14.9261 82.0058 14.8864 82.2511 14.8068C82.4996 14.724 82.7201 14.603 82.9123 14.4439C83.1045 14.2815 83.2653 14.0793 83.3945 13.8374L84.7567 14.0909C84.5745 14.5052 84.3126 14.8681 83.9712 15.1797C83.6299 15.4879 83.2272 15.7282 82.7631 15.9006C82.3024 16.0696 81.792 16.1541 81.2319 16.1541ZM89.0534 16.1491C88.4337 16.1491 87.9083 15.9917 87.4775 15.6768C87.0499 15.3587 86.7466 14.9062 86.5676 14.3196C86.392 13.7296 86.3721 13.022 86.508 12.1967C86.6472 11.3714 86.9041 10.6655 87.2786 10.0788C87.6531 9.49219 88.1072 9.04309 88.6408 8.73153C89.1744 8.41998 89.7495 8.2642 90.3659 8.2642C90.8399 8.2642 91.2078 8.34375 91.4696 8.50284C91.7348 8.65862 91.9303 8.84091 92.0563 9.04972C92.1822 9.25852 92.2767 9.44247 92.3397 9.60156H92.4242L93.0556 5.81818H94.5421L92.8517 16H91.4L91.6039 14.8118H91.4796C91.3636 14.9742 91.2028 15.1598 90.9973 15.3686C90.7952 15.5774 90.5366 15.7597 90.2218 15.9155C89.9069 16.0713 89.5175 16.1491 89.0534 16.1491ZM89.5556 14.8814C89.9831 14.8814 90.3659 14.7687 90.704 14.5433C91.0454 14.3146 91.3288 13.9981 91.5542 13.5938C91.7828 13.1894 91.9419 12.7187 92.0314 12.1818C92.1209 11.6515 92.1193 11.1875 92.0265 10.7898C91.9337 10.392 91.7547 10.0821 91.4895 9.86009C91.2244 9.63802 90.8747 9.52699 90.4405 9.52699C89.9931 9.52699 89.6036 9.64299 89.2722 9.875C88.9408 10.107 88.669 10.4235 88.4569 10.8246C88.248 11.2256 88.1022 11.678 88.0194 12.1818C87.9332 12.6922 87.9299 13.1513 88.0094 13.5589C88.089 13.9666 88.2563 14.2898 88.5115 14.5284C88.7667 14.7637 89.1148 14.8814 89.5556 14.8814ZM101.945 16.1541C101.196 16.1541 100.576 15.9934 100.085 15.6719C99.5982 15.3471 99.2568 14.8913 99.0613 14.3047C98.8657 13.7147 98.8342 13.0237 98.9668 12.2315C99.0961 11.4493 99.3562 10.7599 99.7473 10.1634C100.138 9.56676 100.626 9.10109 101.209 8.76633C101.796 8.43158 102.444 8.2642 103.153 8.2642C103.584 8.2642 103.99 8.33546 104.371 8.47798C104.755 8.6205 105.082 8.84422 105.35 9.14915C105.619 9.45407 105.804 9.85014 105.907 10.3374C106.013 10.8213 106.01 11.4096 105.897 12.1023L105.813 12.6293H99.7374L99.9114 11.5156H104.525C104.595 11.1245 104.576 10.7782 104.47 10.4766C104.364 10.1716 104.182 9.93134 103.923 9.75568C103.668 9.58002 103.347 9.49219 102.959 9.49219C102.561 9.49219 102.19 9.59659 101.845 9.8054C101.501 10.0142 101.212 10.281 100.98 10.6058C100.752 10.9273 100.607 11.2588 100.548 11.6001L100.374 12.6193C100.288 13.1761 100.302 13.6236 100.419 13.9616C100.538 14.2997 100.747 14.545 101.045 14.6974C101.343 14.8499 101.716 14.9261 102.164 14.9261C102.452 14.9261 102.719 14.8864 102.964 14.8068C103.213 14.724 103.433 14.603 103.625 14.4439C103.817 14.2815 103.978 14.0793 104.107 13.8374L105.47 14.0909C105.287 14.5052 105.026 14.8681 104.684 15.1797C104.343 15.4879 103.94 15.7282 103.476 15.9006C103.015 16.0696 102.505 16.1541 101.945 16.1541ZM110.094 5.81818L108.404 16H106.918L108.608 5.81818H110.094ZM115.729 11.0533L115.515 12.3409H110.996L111.209 11.0533H115.729ZM122.384 13.4098L122.668 11.5952H122.931L126.521 8.36364H128.3L124.224 12.0426H123.99L122.384 13.4098ZM120.589 16L122.28 5.81818H123.766L122.076 16H120.589ZM125.412 16L123.284 12.3707L124.472 11.3317L127.237 16H125.412ZM131.339 16.1541C130.59 16.1541 129.97 15.9934 129.48 15.6719C128.993 15.3471 128.651 14.8913 128.456 14.3047C128.26 13.7147 128.229 13.0237 128.361 12.2315C128.491 11.4493 128.751 10.7599 129.142 10.1634C129.533 9.56676 130.02 9.10109 130.604 8.76633C131.19 8.43158 131.838 8.2642 132.547 8.2642C132.978 8.2642 133.384 8.33546 133.765 8.47798C134.15 8.6205 134.476 8.84422 134.745 9.14915C135.013 9.45407 135.199 9.85014 135.302 10.3374C135.408 10.8213 135.404 11.4096 135.292 12.1023L135.207 12.6293H129.132L129.306 11.5156H133.92C133.989 11.1245 133.971 10.7782 133.865 10.4766C133.759 10.1716 133.577 9.93134 133.318 9.75568C133.063 9.58002 132.741 9.49219 132.354 9.49219C131.956 9.49219 131.585 9.59659 131.24 9.8054C130.895 10.0142 130.607 10.281 130.375 10.6058C130.146 10.9273 130.002 11.2588 129.942 11.6001L129.768 12.6193C129.682 13.1761 129.697 13.6236 129.813 13.9616C129.932 14.2997 130.141 14.545 130.439 14.6974C130.738 14.8499 131.111 14.9261 131.558 14.9261C131.846 14.9261 132.113 14.8864 132.358 14.8068C132.607 14.724 132.827 14.603 133.02 14.4439C133.212 14.2815 133.373 14.0793 133.502 13.8374L134.864 14.0909C134.682 14.5052 134.42 14.8681 134.079 15.1797C133.737 15.4879 133.335 15.7282 132.871 15.9006C132.41 16.0696 131.899 16.1541 131.339 16.1541ZM136.431 16L138.122 5.81818H139.608L138.987 9.60156H139.076C139.189 9.44247 139.343 9.25852 139.539 9.04972C139.738 8.84091 139.994 8.65862 140.309 8.50284C140.624 8.34375 141.019 8.2642 141.493 8.2642C142.109 8.2642 142.633 8.41998 143.064 8.73153C143.494 9.04309 143.799 9.49219 143.978 10.0788C144.157 10.6655 144.179 11.3714 144.043 12.1967C143.907 13.022 143.652 13.7296 143.277 14.3196C142.906 14.9062 142.454 15.3587 141.92 15.6768C141.386 15.9917 140.811 16.1491 140.195 16.1491C139.731 16.1491 139.365 16.0713 139.096 15.9155C138.831 15.7597 138.632 15.5774 138.5 15.3686C138.37 15.1598 138.273 14.9742 138.206 14.8118H138.082L137.883 16H136.431ZM138.525 12.1818C138.438 12.7187 138.438 13.1894 138.525 13.5938C138.614 13.9981 138.788 14.3146 139.047 14.5433C139.308 14.7687 139.651 14.8814 140.076 14.8814C140.52 14.8814 140.911 14.7637 141.249 14.5284C141.587 14.2898 141.865 13.9666 142.084 13.5589C142.303 13.1513 142.455 12.6922 142.542 12.1818C142.621 11.678 142.619 11.2256 142.537 10.8246C142.454 10.4235 142.281 10.107 142.02 9.875C141.761 9.64299 141.408 9.52699 140.961 9.52699C140.53 9.52699 140.147 9.63802 139.812 9.86009C139.477 10.0821 139.201 10.392 138.982 10.7898C138.763 11.1875 138.611 11.6515 138.525 12.1818ZM148.347 16.1541C147.598 16.1541 146.978 15.9934 146.488 15.6719C146.001 15.3471 145.659 14.8913 145.464 14.3047C145.268 13.7147 145.237 13.0237 145.369 12.2315C145.498 11.4493 145.759 10.7599 146.15 10.1634C146.541 9.56676 147.028 9.10109 147.611 8.76633C148.198 8.43158 148.846 8.2642 149.555 8.2642C149.986 8.2642 150.392 8.33546 150.773 8.47798C151.158 8.6205 151.484 8.84422 151.753 9.14915C152.021 9.45407 152.207 9.85014 152.309 10.3374C152.416 10.8213 152.412 11.4096 152.3 12.1023L152.215 12.6293H146.14L146.314 11.5156H150.927C150.997 11.1245 150.979 10.7782 150.873 10.4766C150.767 10.1716 150.584 9.93134 150.326 9.75568C150.071 9.58002 149.749 9.49219 149.361 9.49219C148.964 9.49219 148.592 9.59659 148.248 9.8054C147.903 10.0142 147.615 10.281 147.383 10.6058C147.154 10.9273 147.01 11.2588 146.95 11.6001L146.776 12.6193C146.69 13.1761 146.705 13.6236 146.821 13.9616C146.94 14.2997 147.149 14.545 147.447 14.6974C147.746 14.8499 148.118 14.9261 148.566 14.9261C148.854 14.9261 149.121 14.8864 149.366 14.8068C149.615 14.724 149.835 14.603 150.028 14.4439C150.22 14.2815 150.381 14.0793 150.51 13.8374L151.872 14.0909C151.69 14.5052 151.428 14.8681 151.086 15.1797C150.745 15.4879 150.342 15.7282 149.878 15.9006C149.418 16.0696 148.907 16.1541 148.347 16.1541ZM153.32 16L154.593 8.36364H156.029L155.826 9.5767H155.905C156.111 9.16572 156.411 8.84257 156.805 8.60724C157.199 8.36861 157.62 8.24929 158.068 8.24929C158.164 8.24929 158.273 8.2526 158.396 8.25923C158.519 8.26255 158.618 8.27083 158.694 8.28409L158.456 9.70597C158.399 9.68939 158.297 9.67116 158.147 9.65128C157.998 9.62808 157.844 9.61648 157.685 9.61648C157.337 9.61648 157.014 9.69105 156.716 9.8402C156.417 9.98603 156.167 10.1899 155.965 10.4517C155.763 10.7102 155.632 11.0052 155.572 11.3366L154.806 16H153.32Z" fill="white"/>
<path d="M50.6946 26.4545V27.1151H47.4773V26.4545H50.6946ZM48.483 33V25.4957C48.483 25.1435 48.5639 24.8466 48.7259 24.6051C48.8906 24.3636 49.1051 24.1804 49.3693 24.0554C49.6335 23.9304 49.9134 23.8679 50.2088 23.8679C50.4077 23.8679 50.5724 23.8849 50.7031 23.919C50.8366 23.9503 50.9418 23.9815 51.0185 24.0128L50.7969 24.6776C50.7401 24.6605 50.6705 24.6406 50.5881 24.6179C50.5057 24.5952 50.402 24.5838 50.277 24.5838C49.9474 24.5838 49.6932 24.6761 49.5142 24.8608C49.3352 25.0455 49.2457 25.3097 49.2457 25.6534L49.2415 33H48.483ZM52.2085 33V26.4545H52.9457V27.4602H53.0011C53.1317 27.1307 53.359 26.8651 53.6829 26.6634C54.0096 26.4588 54.3789 26.3565 54.7908 26.3565C54.8533 26.3565 54.9229 26.358 54.9996 26.3608C55.0763 26.3636 55.1403 26.3665 55.1914 26.3693V27.1406C55.1573 27.1349 55.0977 27.1264 55.0124 27.1151C54.9272 27.1037 54.8349 27.098 54.7354 27.098C54.3945 27.098 54.0906 27.1705 53.8235 27.3153C53.5593 27.4574 53.3505 27.6548 53.1971 27.9077C53.0437 28.1605 52.967 28.4489 52.967 28.7727V33H52.2085ZM58.8306 33.1364C58.2653 33.1364 57.7653 32.9929 57.3306 32.706C56.8988 32.419 56.5607 32.0227 56.3164 31.517C56.0721 31.0085 55.9499 30.4219 55.9499 29.7571C55.9499 29.0866 56.0721 28.4972 56.3164 27.9886C56.5607 27.4773 56.8988 27.0795 57.3306 26.7955C57.7653 26.5085 58.2653 26.3651 58.8306 26.3651C59.396 26.3651 59.8945 26.5085 60.3263 26.7955C60.7582 27.0824 61.0962 27.4801 61.3406 27.9886C61.5877 28.4972 61.7113 29.0866 61.7113 29.7571C61.7113 30.4219 61.5891 31.0085 61.3448 31.517C61.1005 32.0227 60.761 32.419 60.3263 32.706C59.8945 32.9929 59.396 33.1364 58.8306 33.1364ZM58.8306 32.4418C59.2852 32.4418 59.6701 32.3196 59.9854 32.0753C60.3008 31.831 60.5394 31.5057 60.7013 31.0994C60.8661 30.6932 60.9485 30.2457 60.9485 29.7571C60.9485 29.2685 60.8661 28.8196 60.7013 28.4105C60.5394 28.0014 60.3008 27.6733 59.9854 27.4261C59.6701 27.179 59.2852 27.0554 58.8306 27.0554C58.3789 27.0554 57.994 27.179 57.6758 27.4261C57.3604 27.6733 57.1204 28.0014 56.9556 28.4105C56.7937 28.8196 56.7127 29.2685 56.7127 29.7571C56.7127 30.2457 56.7937 30.6932 56.9556 31.0994C57.1204 31.5057 57.3604 31.831 57.6758 32.0753C57.9911 32.3196 58.3761 32.4418 58.8306 32.4418ZM64.1349 28.9091V33H63.3764V26.4545H64.1136V27.4815H64.1818C64.3352 27.1463 64.5739 26.8778 64.8977 26.6761C65.2244 26.4716 65.6278 26.3693 66.108 26.3693C66.5483 26.3693 66.9347 26.4616 67.267 26.6463C67.6023 26.8281 67.8622 27.0966 68.0469 27.4517C68.2344 27.8068 68.3281 28.2429 68.3281 28.7599V33H67.5696V28.8068C67.5696 28.2699 67.419 27.8452 67.1179 27.5327C66.8196 27.2202 66.419 27.0639 65.9162 27.0639C65.5724 27.0639 65.267 27.1378 65 27.2855C64.733 27.4332 64.5213 27.6463 64.3651 27.9247C64.2116 28.2003 64.1349 28.5284 64.1349 28.9091ZM72.9038 26.4545V27.1151H69.7802V26.4545H72.9038ZM70.756 24.8864H71.5188V31.2912C71.5188 31.5639 71.5657 31.7784 71.6594 31.9347C71.7532 32.0881 71.8754 32.1974 72.0259 32.2628C72.1765 32.3253 72.337 32.3565 72.5075 32.3565C72.6069 32.3565 72.6921 32.3509 72.7631 32.3395C72.8342 32.3253 72.8967 32.3111 72.9506 32.2969L73.1126 32.983C73.0387 33.0114 72.9478 33.0369 72.8398 33.0597C72.7319 33.0852 72.5984 33.098 72.4393 33.098C72.1609 33.098 71.8924 33.0369 71.6339 32.9148C71.3782 32.7926 71.168 32.6108 71.0032 32.3693C70.8384 32.1278 70.756 31.8281 70.756 31.4702V24.8864ZM77.9247 28.9006V29.6165H74.294V28.9006H77.9247ZM82.4759 33.1364C81.8651 33.1364 81.3366 32.9943 80.8906 32.7102C80.4446 32.4233 80.0994 32.027 79.8551 31.5213C79.6136 31.0128 79.4929 30.4276 79.4929 29.7656C79.4929 29.1065 79.6136 28.5213 79.8551 28.0099C80.0994 27.4957 80.4361 27.0937 80.8651 26.804C81.2969 26.5114 81.7955 26.3651 82.3608 26.3651C82.7159 26.3651 83.0582 26.4304 83.3878 26.5611C83.7173 26.6889 84.0128 26.8864 84.2741 27.1534C84.5384 27.4176 84.7472 27.7514 84.9006 28.1548C85.054 28.5554 85.1307 29.0298 85.1307 29.5781V29.9531H80.017V29.2841H84.3551C84.3551 28.8636 84.2699 28.4858 84.0994 28.1506C83.9318 27.8125 83.6974 27.5455 83.3963 27.3494C83.098 27.1534 82.7528 27.0554 82.3608 27.0554C81.946 27.0554 81.581 27.1662 81.2656 27.3878C80.9503 27.6094 80.7031 27.902 80.5241 28.2656C80.348 28.6293 80.2585 29.027 80.2557 29.4588V29.8594C80.2557 30.3793 80.3452 30.8338 80.5241 31.223C80.706 31.6094 80.9631 31.9091 81.2955 32.1222C81.6278 32.3352 82.0213 32.4418 82.4759 32.4418C82.7855 32.4418 83.0568 32.3935 83.2898 32.2969C83.5256 32.2003 83.723 32.071 83.8821 31.9091C84.044 31.7443 84.1662 31.5639 84.2486 31.3679L84.9688 31.6023C84.8693 31.8778 84.706 32.1321 84.4787 32.3651C84.2543 32.598 83.973 32.7855 83.6349 32.9276C83.2997 33.0668 82.9134 33.1364 82.4759 33.1364ZM87.5607 28.9091V33H86.8022V26.4545H87.5394V27.4815H87.6076C87.761 27.1463 87.9996 26.8778 88.3235 26.6761C88.6502 26.4716 89.0536 26.3693 89.5337 26.3693C89.9741 26.3693 90.3604 26.4616 90.6928 26.6463C91.0281 26.8281 91.288 27.0966 91.4727 27.4517C91.6602 27.8068 91.7539 28.2429 91.7539 28.7599V33H90.9954V28.8068C90.9954 28.2699 90.8448 27.8452 90.5437 27.5327C90.2454 27.2202 89.8448 27.0639 89.342 27.0639C88.9982 27.0639 88.6928 27.1378 88.4258 27.2855C88.1587 27.4332 87.9471 27.6463 87.7908 27.9247C87.6374 28.2003 87.5607 28.5284 87.5607 28.9091ZM96.108 33.1364C95.571 33.1364 95.1009 32.9943 94.6974 32.7102C94.294 32.4261 93.9787 32.0298 93.7514 31.5213C93.527 31.0128 93.4148 30.4205 93.4148 29.7443C93.4148 29.071 93.527 28.4815 93.7514 27.9759C93.9787 27.4673 94.2955 27.0724 94.7017 26.7912C95.108 26.5071 95.581 26.3651 96.1207 26.3651C96.5185 26.3651 96.8494 26.4361 97.1136 26.5781C97.3778 26.7173 97.5895 26.8906 97.7486 27.098C97.9077 27.3054 98.0313 27.5071 98.1193 27.7031H98.1875V24.2727H98.9503V33H98.2088V31.7855H98.1193C98.0313 31.9844 97.9063 32.1889 97.7443 32.3991C97.5824 32.6065 97.3679 32.7812 97.1009 32.9233C96.8366 33.0653 96.5057 33.1364 96.108 33.1364ZM96.1974 32.4418C96.6207 32.4418 96.9815 32.3267 97.2798 32.0966C97.5781 31.8636 97.8054 31.544 97.9616 31.1378C98.1207 30.7287 98.2003 30.2599 98.2003 29.7315C98.2003 29.2088 98.1222 28.7472 97.9659 28.3466C97.8097 27.9432 97.5824 27.6278 97.2841 27.4006C96.9858 27.1705 96.6236 27.0554 96.1974 27.0554C95.7599 27.0554 95.3906 27.1747 95.0895 27.4134C94.7912 27.6491 94.5639 27.9687 94.4077 28.3722C94.2543 28.7756 94.1776 29.2287 94.1776 29.7315C94.1776 30.2401 94.2557 30.6989 94.4119 31.108C94.5682 31.517 94.7955 31.8423 95.0938 32.0838C95.3949 32.3224 95.7628 32.4418 96.1974 32.4418Z" fill="white"/>
</svg>
