<svg width="160" height="62" viewBox="0 0 160 62" fill="none" xmlns="http://www.w3.org/2000/svg">
<g filter="url(#filter0_d_0_706)">
<g filter="url(#filter1_d_0_706)">
<rect x="4" width="152" height="54" rx="27" fill="#2F3FFF"/>
<rect x="4.5" y="0.5" width="151" height="53" rx="26.5" stroke="black"/>
</g>
<mask id="path-3-outside-1_0_706" maskUnits="userSpaceOnUse" x="36.2832" y="20.1989" width="89" height="15" fill="black">
<rect fill="white" x="36.2832" y="20.1989" width="89" height="15"/>
<path d="M45.4757 25.2785C45.381 24.9716 45.2503 24.697 45.0837 24.4546C44.9208 24.2084 44.7238 23.9982 44.4927 23.8239C44.2655 23.6497 44.0041 23.519 43.7087 23.4319C43.4132 23.341 43.0912 23.2955 42.7427 23.2955C42.1177 23.2955 41.5609 23.4527 41.0723 23.7671C40.5837 24.0815 40.1992 24.5436 39.9189 25.1535C39.6424 25.7595 39.5041 26.4982 39.5041 27.3694C39.5041 28.2482 39.6424 28.9925 39.9189 29.6023C40.1954 30.2122 40.5799 30.6762 41.0723 30.9944C41.5647 31.3088 42.1367 31.466 42.7882 31.466C43.3791 31.466 43.8905 31.3523 44.3223 31.125C44.7579 30.8978 45.0931 30.5758 45.328 30.1591C45.5628 29.7387 45.6802 29.2463 45.6802 28.6819L46.1575 28.7557H42.9984V27.108H47.72V28.5057C47.72 29.5019 47.5079 30.3637 47.0837 31.091C46.6594 31.8182 46.0761 32.3788 45.3337 32.7728C44.5912 33.1629 43.739 33.358 42.7768 33.358C41.7049 33.358 40.7636 33.1175 39.953 32.6364C39.1462 32.1516 38.5155 31.4641 38.0609 30.5739C37.6102 29.68 37.3848 28.6194 37.3848 27.3921C37.3848 26.4527 37.5174 25.6137 37.7825 24.875C38.0515 24.1364 38.4265 23.5095 38.9075 22.9944C39.3886 22.4754 39.953 22.0815 40.6007 21.8125C41.2484 21.5398 41.953 21.4035 42.7143 21.4035C43.3583 21.4035 43.9587 21.4982 44.5155 21.6875C45.0723 21.8732 45.5666 22.1383 45.9984 22.483C46.434 22.8277 46.792 23.2368 47.0723 23.7103C47.3526 24.1838 47.5363 24.7065 47.6234 25.2785H45.4757ZM53.5311 33.3694C52.6561 33.3694 51.9004 33.1875 51.2641 32.8239C50.6315 32.4565 50.1447 31.9375 49.8038 31.2671C49.4629 30.5929 49.2925 29.7993 49.2925 28.8864C49.2925 27.9887 49.4629 27.2008 49.8038 26.5228C50.1485 25.841 50.6296 25.3107 51.247 24.9319C51.8644 24.5493 52.5898 24.358 53.4231 24.358C53.961 24.358 54.4686 24.4451 54.9459 24.6194C55.4269 24.7898 55.8512 25.055 56.2186 25.4148C56.5898 25.7747 56.8815 26.233 57.0936 26.7898C57.3057 27.3429 57.4118 28.0019 57.4118 28.7671V29.3978H50.2584V28.0114H55.4402C55.4364 27.6175 55.3512 27.2671 55.1845 26.9603C55.0178 26.6497 54.7849 26.4054 54.4856 26.2273C54.1902 26.0493 53.8455 25.9603 53.4516 25.9603C53.0311 25.9603 52.6618 26.0625 52.3436 26.2671C52.0254 26.4679 51.7773 26.733 51.5993 27.0625C51.425 27.3883 51.336 27.7463 51.3322 28.1364V29.3466C51.3322 29.8542 51.425 30.2898 51.6106 30.6535C51.7962 31.0133 52.0557 31.2898 52.3891 31.483C52.7224 31.6724 53.1125 31.7671 53.5595 31.7671C53.8587 31.7671 54.1296 31.7254 54.372 31.6421C54.6144 31.555 54.8247 31.4281 55.0027 31.2614C55.1807 31.0947 55.3152 30.8883 55.4061 30.6421L57.3266 30.858C57.2053 31.3656 56.9743 31.8088 56.6334 32.1875C56.2962 32.5625 55.8644 32.8542 55.3379 33.0625C54.8114 33.2671 54.2091 33.3694 53.5311 33.3694ZM63.5098 24.4716V26.0625H58.4927V24.4716H63.5098ZM59.7314 22.3807H61.7882V30.5739C61.7882 30.8504 61.8299 31.0625 61.9132 31.2103C62.0003 31.3542 62.114 31.4527 62.2541 31.5057C62.3943 31.5588 62.5496 31.5853 62.72 31.5853C62.8488 31.5853 62.9662 31.5758 63.0723 31.5569C63.1821 31.5379 63.2655 31.5209 63.3223 31.5057L63.6689 33.1137C63.559 33.1516 63.4018 33.1932 63.1973 33.2387C62.9965 33.2841 62.7503 33.3107 62.4587 33.3182C61.9435 33.3334 61.4795 33.2557 61.0666 33.0853C60.6537 32.911 60.3261 32.6421 60.0837 32.2785C59.845 31.9148 59.7276 31.4603 59.7314 30.9148V22.3807ZM76.0964 26.7785L74.2214 26.983C74.1684 26.7936 74.0756 26.6156 73.943 26.4489C73.8142 26.2822 73.64 26.1478 73.4203 26.0455C73.2006 25.9432 72.9317 25.8921 72.6135 25.8921C72.1855 25.8921 71.8256 25.9849 71.5339 26.1705C71.2461 26.3561 71.104 26.5966 71.1078 26.8921C71.104 27.1459 71.1968 27.3523 71.3862 27.5114C71.5794 27.6705 71.8976 27.8012 72.3408 27.9035L73.8294 28.2216C74.6551 28.3997 75.2688 28.6819 75.6703 29.0682C76.0756 29.4546 76.2801 29.9603 76.2839 30.5853C76.2801 31.1345 76.1192 31.6194 75.801 32.0398C75.4866 32.4565 75.0491 32.7822 74.4885 33.0171C73.9279 33.2519 73.2839 33.3694 72.5567 33.3694C71.4885 33.3694 70.6286 33.1459 69.9771 32.6989C69.3256 32.2482 68.9373 31.6213 68.8123 30.8182L70.818 30.625C70.9089 31.019 71.1021 31.3163 71.3976 31.5171C71.693 31.7179 72.0775 31.8182 72.551 31.8182C73.0396 31.8182 73.4317 31.7179 73.7271 31.5171C74.0264 31.3163 74.176 31.0682 74.176 30.7728C74.176 30.5228 74.0794 30.3163 73.8862 30.1535C73.6968 29.9906 73.4014 29.8656 72.9998 29.7785L71.5112 29.466C70.6741 29.2917 70.0548 28.9982 69.6533 28.5853C69.2517 28.1686 69.0529 27.6421 69.0567 27.0057C69.0529 26.4679 69.1987 26.0019 69.4942 25.608C69.7934 25.2103 70.2082 24.9035 70.7385 24.6875C71.2726 24.4679 71.8881 24.358 72.5851 24.358C73.6078 24.358 74.4127 24.5758 74.9998 25.0114C75.5908 25.447 75.9563 26.036 76.0964 26.7785ZM82.3379 24.4716V26.0625H77.3209V24.4716H82.3379ZM78.5595 22.3807H80.6163V30.5739C80.6163 30.8504 80.658 31.0625 80.7413 31.2103C80.8284 31.3542 80.9421 31.4527 81.0822 31.5057C81.2224 31.5588 81.3777 31.5853 81.5481 31.5853C81.6769 31.5853 81.7944 31.5758 81.9004 31.5569C82.0103 31.5379 82.0936 31.5209 82.1504 31.5057L82.497 33.1137C82.3872 33.1516 82.23 33.1932 82.0254 33.2387C81.8247 33.2841 81.5784 33.3107 81.2868 33.3182C80.7716 33.3334 80.3076 33.2557 79.8947 33.0853C79.4819 32.911 79.1542 32.6421 78.9118 32.2785C78.6731 31.9148 78.5557 31.4603 78.5595 30.9148V22.3807ZM86.5694 33.375C86.0164 33.375 85.5183 33.2766 85.0751 33.0796C84.6357 32.8788 84.2873 32.5834 84.0297 32.1932C83.7759 31.8031 83.649 31.322 83.649 30.75C83.649 30.2576 83.7399 29.8504 83.9217 29.5285C84.1035 29.2065 84.3516 28.9489 84.666 28.7557C84.9804 28.5625 85.3346 28.4167 85.7285 28.3182C86.1263 28.216 86.5373 28.1421 86.9615 28.0966C87.4729 28.0436 87.8876 27.9963 88.2058 27.9546C88.524 27.9091 88.7551 27.841 88.899 27.75C89.0467 27.6554 89.1206 27.5095 89.1206 27.3125V27.2785C89.1206 26.8504 88.9937 26.519 88.7399 26.2841C88.4861 26.0493 88.1206 25.9319 87.6433 25.9319C87.1395 25.9319 86.7399 26.0417 86.4444 26.2614C86.1528 26.4811 85.9558 26.7406 85.8535 27.0398L83.9331 26.7671C84.0846 26.2368 84.3346 25.7936 84.6831 25.4375C85.0316 25.0777 85.4577 24.8088 85.9615 24.6307C86.4653 24.4489 87.0221 24.358 87.6319 24.358C88.0524 24.358 88.471 24.4072 88.8876 24.5057C89.3043 24.6042 89.685 24.7671 90.0297 24.9944C90.3744 25.2179 90.6509 25.5228 90.8592 25.9091C91.0713 26.2955 91.1774 26.7785 91.1774 27.358V33.1989H89.2001V32H89.1319C89.0069 32.2425 88.8308 32.4697 88.6035 32.6819C88.3801 32.8902 88.0979 33.0588 87.7569 33.1875C87.4198 33.3125 87.024 33.375 86.5694 33.375ZM87.1035 31.8637C87.5164 31.8637 87.8744 31.7822 88.1774 31.6194C88.4804 31.4527 88.7134 31.233 88.8763 30.9603C89.0429 30.6875 89.1263 30.3902 89.1263 30.0682V29.0398C89.0619 29.0929 88.952 29.1421 88.7967 29.1875C88.6452 29.233 88.4748 29.2728 88.2854 29.3069C88.096 29.341 87.9085 29.3713 87.7229 29.3978C87.5373 29.4243 87.3763 29.447 87.2399 29.466C86.9331 29.5076 86.6585 29.5758 86.416 29.6705C86.1736 29.7652 85.9823 29.8978 85.8422 30.0682C85.702 30.2349 85.6319 30.4508 85.6319 30.716C85.6319 31.0947 85.7702 31.3807 86.0467 31.5739C86.3232 31.7671 86.6755 31.8637 87.1035 31.8637ZM93.2456 33.1989V24.4716H95.2399V25.9262H95.3308C95.4899 25.4224 95.7626 25.0341 96.149 24.7614C96.5391 24.4849 96.9842 24.3466 97.4842 24.3466C97.5979 24.3466 97.7248 24.3523 97.8649 24.3637C98.0088 24.3713 98.1282 24.3845 98.2229 24.4035V26.2955C98.1357 26.2652 97.9975 26.2387 97.8081 26.216C97.6225 26.1894 97.4426 26.1762 97.2683 26.1762C96.8933 26.1762 96.5562 26.2576 96.2569 26.4205C95.9615 26.5796 95.7285 26.8012 95.5581 27.0853C95.3876 27.3694 95.3024 27.697 95.3024 28.0682V33.1989H93.2456ZM104.416 24.4716V26.0625H99.399V24.4716H104.416ZM100.638 22.3807H102.694V30.5739C102.694 30.8504 102.736 31.0625 102.819 31.2103C102.907 31.3542 103.02 31.4527 103.16 31.5057C103.301 31.5588 103.456 31.5853 103.626 31.5853C103.755 31.5853 103.872 31.5758 103.979 31.5569C104.088 31.5379 104.172 31.5209 104.229 31.5057L104.575 33.1137C104.465 33.1516 104.308 33.1932 104.104 33.2387C103.903 33.2841 103.657 33.3107 103.365 33.3182C102.85 33.3334 102.386 33.2557 101.973 33.0853C101.56 32.911 101.232 32.6421 100.99 32.2785C100.751 31.9148 100.634 31.4603 100.638 30.9148V22.3807ZM109.906 33.3694C109.031 33.3694 108.275 33.1875 107.639 32.8239C107.006 32.4565 106.52 31.9375 106.179 31.2671C105.838 30.5929 105.667 29.7993 105.667 28.8864C105.667 27.9887 105.838 27.2008 106.179 26.5228C106.524 25.841 107.005 25.3107 107.622 24.9319C108.239 24.5493 108.965 24.358 109.798 24.358C110.336 24.358 110.844 24.4451 111.321 24.6194C111.802 24.7898 112.226 25.055 112.594 25.4148C112.965 25.7747 113.256 26.233 113.469 26.7898C113.681 27.3429 113.787 28.0019 113.787 28.7671V29.3978H106.633V28.0114H111.815C111.811 27.6175 111.726 27.2671 111.56 26.9603C111.393 26.6497 111.16 26.4054 110.861 26.2273C110.565 26.0493 110.22 25.9603 109.827 25.9603C109.406 25.9603 109.037 26.0625 108.719 26.2671C108.4 26.4679 108.152 26.733 107.974 27.0625C107.8 27.3883 107.711 27.7463 107.707 28.1364V29.3466C107.707 29.8542 107.8 30.2898 107.986 30.6535C108.171 31.0133 108.431 31.2898 108.764 31.483C109.097 31.6724 109.488 31.7671 109.935 31.7671C110.234 31.7671 110.505 31.7254 110.747 31.6421C110.989 31.555 111.2 31.4281 111.378 31.2614C111.556 31.0947 111.69 30.8883 111.781 30.6421L113.702 30.858C113.58 31.3656 113.349 31.8088 113.008 32.1875C112.671 32.5625 112.239 32.8542 111.713 33.0625C111.186 33.2671 110.584 33.3694 109.906 33.3694ZM118.765 33.3523C118.08 33.3523 117.466 33.1762 116.925 32.8239C116.383 32.4716 115.955 31.9603 115.64 31.2898C115.326 30.6194 115.169 29.805 115.169 28.8466C115.169 27.8769 115.328 27.0588 115.646 26.3921C115.968 25.7216 116.402 25.216 116.947 24.875C117.493 24.5304 118.101 24.358 118.771 24.358C119.283 24.358 119.703 24.4451 120.033 24.6194C120.362 24.7898 120.623 24.9963 120.817 25.2387C121.01 25.4773 121.159 25.7027 121.265 25.9148H121.351V21.5625H123.413V33.1989H121.39V31.8239H121.265C121.159 32.036 121.006 32.2614 120.805 32.5C120.604 32.7349 120.339 32.9357 120.01 33.1023C119.68 33.269 119.265 33.3523 118.765 33.3523ZM119.339 31.6648C119.775 31.6648 120.146 31.5474 120.453 31.3125C120.76 31.0739 120.993 30.7425 121.152 30.3182C121.311 29.894 121.39 29.3997 121.39 28.8353C121.39 28.2709 121.311 27.7804 121.152 27.3637C120.997 26.947 120.765 26.6232 120.459 26.3921C120.156 26.161 119.783 26.0455 119.339 26.0455C118.881 26.0455 118.498 26.1648 118.192 26.4035C117.885 26.6421 117.654 26.9716 117.498 27.3921C117.343 27.8125 117.265 28.2936 117.265 28.8353C117.265 29.3807 117.343 29.8675 117.498 30.2955C117.658 30.7197 117.89 31.055 118.197 31.3012C118.508 31.5436 118.889 31.6648 119.339 31.6648Z"/>
</mask>
<path d="M45.4757 25.2785C45.381 24.9716 45.2503 24.697 45.0837 24.4546C44.9208 24.2084 44.7238 23.9982 44.4927 23.8239C44.2655 23.6497 44.0041 23.519 43.7087 23.4319C43.4132 23.341 43.0912 23.2955 42.7427 23.2955C42.1177 23.2955 41.5609 23.4527 41.0723 23.7671C40.5837 24.0815 40.1992 24.5436 39.9189 25.1535C39.6424 25.7595 39.5041 26.4982 39.5041 27.3694C39.5041 28.2482 39.6424 28.9925 39.9189 29.6023C40.1954 30.2122 40.5799 30.6762 41.0723 30.9944C41.5647 31.3088 42.1367 31.466 42.7882 31.466C43.3791 31.466 43.8905 31.3523 44.3223 31.125C44.7579 30.8978 45.0931 30.5758 45.328 30.1591C45.5628 29.7387 45.6802 29.2463 45.6802 28.6819L46.1575 28.7557H42.9984V27.108H47.72V28.5057C47.72 29.5019 47.5079 30.3637 47.0837 31.091C46.6594 31.8182 46.0761 32.3788 45.3337 32.7728C44.5912 33.1629 43.739 33.358 42.7768 33.358C41.7049 33.358 40.7636 33.1175 39.953 32.6364C39.1462 32.1516 38.5155 31.4641 38.0609 30.5739C37.6102 29.68 37.3848 28.6194 37.3848 27.3921C37.3848 26.4527 37.5174 25.6137 37.7825 24.875C38.0515 24.1364 38.4265 23.5095 38.9075 22.9944C39.3886 22.4754 39.953 22.0815 40.6007 21.8125C41.2484 21.5398 41.953 21.4035 42.7143 21.4035C43.3583 21.4035 43.9587 21.4982 44.5155 21.6875C45.0723 21.8732 45.5666 22.1383 45.9984 22.483C46.434 22.8277 46.792 23.2368 47.0723 23.7103C47.3526 24.1838 47.5363 24.7065 47.6234 25.2785H45.4757ZM53.5311 33.3694C52.6561 33.3694 51.9004 33.1875 51.2641 32.8239C50.6315 32.4565 50.1447 31.9375 49.8038 31.2671C49.4629 30.5929 49.2925 29.7993 49.2925 28.8864C49.2925 27.9887 49.4629 27.2008 49.8038 26.5228C50.1485 25.841 50.6296 25.3107 51.247 24.9319C51.8644 24.5493 52.5898 24.358 53.4231 24.358C53.961 24.358 54.4686 24.4451 54.9459 24.6194C55.4269 24.7898 55.8512 25.055 56.2186 25.4148C56.5898 25.7747 56.8815 26.233 57.0936 26.7898C57.3057 27.3429 57.4118 28.0019 57.4118 28.7671V29.3978H50.2584V28.0114H55.4402C55.4364 27.6175 55.3512 27.2671 55.1845 26.9603C55.0178 26.6497 54.7849 26.4054 54.4856 26.2273C54.1902 26.0493 53.8455 25.9603 53.4516 25.9603C53.0311 25.9603 52.6618 26.0625 52.3436 26.2671C52.0254 26.4679 51.7773 26.733 51.5993 27.0625C51.425 27.3883 51.336 27.7463 51.3322 28.1364V29.3466C51.3322 29.8542 51.425 30.2898 51.6106 30.6535C51.7962 31.0133 52.0557 31.2898 52.3891 31.483C52.7224 31.6724 53.1125 31.7671 53.5595 31.7671C53.8587 31.7671 54.1296 31.7254 54.372 31.6421C54.6144 31.555 54.8247 31.4281 55.0027 31.2614C55.1807 31.0947 55.3152 30.8883 55.4061 30.6421L57.3266 30.858C57.2053 31.3656 56.9743 31.8088 56.6334 32.1875C56.2962 32.5625 55.8644 32.8542 55.3379 33.0625C54.8114 33.2671 54.2091 33.3694 53.5311 33.3694ZM63.5098 24.4716V26.0625H58.4927V24.4716H63.5098ZM59.7314 22.3807H61.7882V30.5739C61.7882 30.8504 61.8299 31.0625 61.9132 31.2103C62.0003 31.3542 62.114 31.4527 62.2541 31.5057C62.3943 31.5588 62.5496 31.5853 62.72 31.5853C62.8488 31.5853 62.9662 31.5758 63.0723 31.5569C63.1821 31.5379 63.2655 31.5209 63.3223 31.5057L63.6689 33.1137C63.559 33.1516 63.4018 33.1932 63.1973 33.2387C62.9965 33.2841 62.7503 33.3107 62.4587 33.3182C61.9435 33.3334 61.4795 33.2557 61.0666 33.0853C60.6537 32.911 60.3261 32.6421 60.0837 32.2785C59.845 31.9148 59.7276 31.4603 59.7314 30.9148V22.3807ZM76.0964 26.7785L74.2214 26.983C74.1684 26.7936 74.0756 26.6156 73.943 26.4489C73.8142 26.2822 73.64 26.1478 73.4203 26.0455C73.2006 25.9432 72.9317 25.8921 72.6135 25.8921C72.1855 25.8921 71.8256 25.9849 71.5339 26.1705C71.2461 26.3561 71.104 26.5966 71.1078 26.8921C71.104 27.1459 71.1968 27.3523 71.3862 27.5114C71.5794 27.6705 71.8976 27.8012 72.3408 27.9035L73.8294 28.2216C74.6551 28.3997 75.2688 28.6819 75.6703 29.0682C76.0756 29.4546 76.2801 29.9603 76.2839 30.5853C76.2801 31.1345 76.1192 31.6194 75.801 32.0398C75.4866 32.4565 75.0491 32.7822 74.4885 33.0171C73.9279 33.2519 73.2839 33.3694 72.5567 33.3694C71.4885 33.3694 70.6286 33.1459 69.9771 32.6989C69.3256 32.2482 68.9373 31.6213 68.8123 30.8182L70.818 30.625C70.9089 31.019 71.1021 31.3163 71.3976 31.5171C71.693 31.7179 72.0775 31.8182 72.551 31.8182C73.0396 31.8182 73.4317 31.7179 73.7271 31.5171C74.0264 31.3163 74.176 31.0682 74.176 30.7728C74.176 30.5228 74.0794 30.3163 73.8862 30.1535C73.6968 29.9906 73.4014 29.8656 72.9998 29.7785L71.5112 29.466C70.6741 29.2917 70.0548 28.9982 69.6533 28.5853C69.2517 28.1686 69.0529 27.6421 69.0567 27.0057C69.0529 26.4679 69.1987 26.0019 69.4942 25.608C69.7934 25.2103 70.2082 24.9035 70.7385 24.6875C71.2726 24.4679 71.8881 24.358 72.5851 24.358C73.6078 24.358 74.4127 24.5758 74.9998 25.0114C75.5908 25.447 75.9563 26.036 76.0964 26.7785ZM82.3379 24.4716V26.0625H77.3209V24.4716H82.3379ZM78.5595 22.3807H80.6163V30.5739C80.6163 30.8504 80.658 31.0625 80.7413 31.2103C80.8284 31.3542 80.9421 31.4527 81.0822 31.5057C81.2224 31.5588 81.3777 31.5853 81.5481 31.5853C81.6769 31.5853 81.7944 31.5758 81.9004 31.5569C82.0103 31.5379 82.0936 31.5209 82.1504 31.5057L82.497 33.1137C82.3872 33.1516 82.23 33.1932 82.0254 33.2387C81.8247 33.2841 81.5784 33.3107 81.2868 33.3182C80.7716 33.3334 80.3076 33.2557 79.8947 33.0853C79.4819 32.911 79.1542 32.6421 78.9118 32.2785C78.6731 31.9148 78.5557 31.4603 78.5595 30.9148V22.3807ZM86.5694 33.375C86.0164 33.375 85.5183 33.2766 85.0751 33.0796C84.6357 32.8788 84.2873 32.5834 84.0297 32.1932C83.7759 31.8031 83.649 31.322 83.649 30.75C83.649 30.2576 83.7399 29.8504 83.9217 29.5285C84.1035 29.2065 84.3516 28.9489 84.666 28.7557C84.9804 28.5625 85.3346 28.4167 85.7285 28.3182C86.1263 28.216 86.5373 28.1421 86.9615 28.0966C87.4729 28.0436 87.8876 27.9963 88.2058 27.9546C88.524 27.9091 88.7551 27.841 88.899 27.75C89.0467 27.6554 89.1206 27.5095 89.1206 27.3125V27.2785C89.1206 26.8504 88.9937 26.519 88.7399 26.2841C88.4861 26.0493 88.1206 25.9319 87.6433 25.9319C87.1395 25.9319 86.7399 26.0417 86.4444 26.2614C86.1528 26.4811 85.9558 26.7406 85.8535 27.0398L83.9331 26.7671C84.0846 26.2368 84.3346 25.7936 84.6831 25.4375C85.0316 25.0777 85.4577 24.8088 85.9615 24.6307C86.4653 24.4489 87.0221 24.358 87.6319 24.358C88.0524 24.358 88.471 24.4072 88.8876 24.5057C89.3043 24.6042 89.685 24.7671 90.0297 24.9944C90.3744 25.2179 90.6509 25.5228 90.8592 25.9091C91.0713 26.2955 91.1774 26.7785 91.1774 27.358V33.1989H89.2001V32H89.1319C89.0069 32.2425 88.8308 32.4697 88.6035 32.6819C88.3801 32.8902 88.0979 33.0588 87.7569 33.1875C87.4198 33.3125 87.024 33.375 86.5694 33.375ZM87.1035 31.8637C87.5164 31.8637 87.8744 31.7822 88.1774 31.6194C88.4804 31.4527 88.7134 31.233 88.8763 30.9603C89.0429 30.6875 89.1263 30.3902 89.1263 30.0682V29.0398C89.0619 29.0929 88.952 29.1421 88.7967 29.1875C88.6452 29.233 88.4748 29.2728 88.2854 29.3069C88.096 29.341 87.9085 29.3713 87.7229 29.3978C87.5373 29.4243 87.3763 29.447 87.2399 29.466C86.9331 29.5076 86.6585 29.5758 86.416 29.6705C86.1736 29.7652 85.9823 29.8978 85.8422 30.0682C85.702 30.2349 85.6319 30.4508 85.6319 30.716C85.6319 31.0947 85.7702 31.3807 86.0467 31.5739C86.3232 31.7671 86.6755 31.8637 87.1035 31.8637ZM93.2456 33.1989V24.4716H95.2399V25.9262H95.3308C95.4899 25.4224 95.7626 25.0341 96.149 24.7614C96.5391 24.4849 96.9842 24.3466 97.4842 24.3466C97.5979 24.3466 97.7248 24.3523 97.8649 24.3637C98.0088 24.3713 98.1282 24.3845 98.2229 24.4035V26.2955C98.1357 26.2652 97.9975 26.2387 97.8081 26.216C97.6225 26.1894 97.4426 26.1762 97.2683 26.1762C96.8933 26.1762 96.5562 26.2576 96.2569 26.4205C95.9615 26.5796 95.7285 26.8012 95.5581 27.0853C95.3876 27.3694 95.3024 27.697 95.3024 28.0682V33.1989H93.2456ZM104.416 24.4716V26.0625H99.399V24.4716H104.416ZM100.638 22.3807H102.694V30.5739C102.694 30.8504 102.736 31.0625 102.819 31.2103C102.907 31.3542 103.02 31.4527 103.16 31.5057C103.301 31.5588 103.456 31.5853 103.626 31.5853C103.755 31.5853 103.872 31.5758 103.979 31.5569C104.088 31.5379 104.172 31.5209 104.229 31.5057L104.575 33.1137C104.465 33.1516 104.308 33.1932 104.104 33.2387C103.903 33.2841 103.657 33.3107 103.365 33.3182C102.85 33.3334 102.386 33.2557 101.973 33.0853C101.56 32.911 101.232 32.6421 100.99 32.2785C100.751 31.9148 100.634 31.4603 100.638 30.9148V22.3807ZM109.906 33.3694C109.031 33.3694 108.275 33.1875 107.639 32.8239C107.006 32.4565 106.52 31.9375 106.179 31.2671C105.838 30.5929 105.667 29.7993 105.667 28.8864C105.667 27.9887 105.838 27.2008 106.179 26.5228C106.524 25.841 107.005 25.3107 107.622 24.9319C108.239 24.5493 108.965 24.358 109.798 24.358C110.336 24.358 110.844 24.4451 111.321 24.6194C111.802 24.7898 112.226 25.055 112.594 25.4148C112.965 25.7747 113.256 26.233 113.469 26.7898C113.681 27.3429 113.787 28.0019 113.787 28.7671V29.3978H106.633V28.0114H111.815C111.811 27.6175 111.726 27.2671 111.56 26.9603C111.393 26.6497 111.16 26.4054 110.861 26.2273C110.565 26.0493 110.22 25.9603 109.827 25.9603C109.406 25.9603 109.037 26.0625 108.719 26.2671C108.4 26.4679 108.152 26.733 107.974 27.0625C107.8 27.3883 107.711 27.7463 107.707 28.1364V29.3466C107.707 29.8542 107.8 30.2898 107.986 30.6535C108.171 31.0133 108.431 31.2898 108.764 31.483C109.097 31.6724 109.488 31.7671 109.935 31.7671C110.234 31.7671 110.505 31.7254 110.747 31.6421C110.989 31.555 111.2 31.4281 111.378 31.2614C111.556 31.0947 111.69 30.8883 111.781 30.6421L113.702 30.858C113.58 31.3656 113.349 31.8088 113.008 32.1875C112.671 32.5625 112.239 32.8542 111.713 33.0625C111.186 33.2671 110.584 33.3694 109.906 33.3694ZM118.765 33.3523C118.08 33.3523 117.466 33.1762 116.925 32.8239C116.383 32.4716 115.955 31.9603 115.64 31.2898C115.326 30.6194 115.169 29.805 115.169 28.8466C115.169 27.8769 115.328 27.0588 115.646 26.3921C115.968 25.7216 116.402 25.216 116.947 24.875C117.493 24.5304 118.101 24.358 118.771 24.358C119.283 24.358 119.703 24.4451 120.033 24.6194C120.362 24.7898 120.623 24.9963 120.817 25.2387C121.01 25.4773 121.159 25.7027 121.265 25.9148H121.351V21.5625H123.413V33.1989H121.39V31.8239H121.265C121.159 32.036 121.006 32.2614 120.805 32.5C120.604 32.7349 120.339 32.9357 120.01 33.1023C119.68 33.269 119.265 33.3523 118.765 33.3523ZM119.339 31.6648C119.775 31.6648 120.146 31.5474 120.453 31.3125C120.76 31.0739 120.993 30.7425 121.152 30.3182C121.311 29.894 121.39 29.3997 121.39 28.8353C121.39 28.2709 121.311 27.7804 121.152 27.3637C120.997 26.947 120.765 26.6232 120.459 26.3921C120.156 26.161 119.783 26.0455 119.339 26.0455C118.881 26.0455 118.498 26.1648 118.192 26.4035C117.885 26.6421 117.654 26.9716 117.498 27.3921C117.343 27.8125 117.265 28.2936 117.265 28.8353C117.265 29.3807 117.343 29.8675 117.498 30.2955C117.658 30.7197 117.89 31.055 118.197 31.3012C118.508 31.5436 118.889 31.6648 119.339 31.6648Z" fill="white"/>
<path d="M45.4757 25.2785L44.5202 25.5734L44.7378 26.2785H45.4757V25.2785ZM45.0837 24.4546L44.2496 25.0063L44.2546 25.0138L44.2596 25.0211L45.0837 24.4546ZM44.4927 23.8239L43.8843 24.6175L43.8907 24.6223L44.4927 23.8239ZM43.7087 23.4319L43.4145 24.3877L43.4258 24.391L43.7087 23.4319ZM41.0723 23.7671L41.6134 24.6081V24.6081L41.0723 23.7671ZM39.9189 25.1535L39.0103 24.7358L39.0091 24.7384L39.9189 25.1535ZM39.9189 29.6023L39.0081 30.0153L39.9189 29.6023ZM41.0723 30.9944L40.5296 31.8343L40.5342 31.8372L41.0723 30.9944ZM44.3223 31.125L43.8597 30.2385L43.8565 30.2401L44.3223 31.125ZM45.328 30.1591L46.1991 30.6502L46.201 30.6468L45.328 30.1591ZM45.6802 28.6819L45.8332 27.6936L44.6802 27.5152V28.6819H45.6802ZM46.1575 28.7557V29.7557L46.3105 27.7675L46.1575 28.7557ZM42.9984 28.7557H41.9984V29.7557H42.9984V28.7557ZM42.9984 27.108V26.108H41.9984V27.108H42.9984ZM47.72 27.108H48.72V26.108H47.72V27.108ZM47.0837 31.091L47.9474 31.5948L47.9474 31.5948L47.0837 31.091ZM45.3337 32.7728L45.7988 33.658L45.8024 33.6561L45.3337 32.7728ZM39.953 32.6364L39.4379 33.4936L39.4426 33.4964L39.953 32.6364ZM38.0609 30.5739L37.168 31.0242L37.1703 31.0287L38.0609 30.5739ZM37.7825 24.875L36.8429 24.5329L36.8413 24.5372L37.7825 24.875ZM38.9075 22.9944L39.6384 23.6769L39.6409 23.6742L38.9075 22.9944ZM40.6007 21.8125L40.9842 22.7361L40.9888 22.7342L40.6007 21.8125ZM44.5155 21.6875L44.1934 22.6343L44.1992 22.6362L44.5155 21.6875ZM45.9984 22.483L45.3746 23.2645L45.3779 23.2672L45.9984 22.483ZM47.0723 23.7103L47.9328 23.2009V23.2009L47.0723 23.7103ZM47.6234 25.2785V26.2785H48.7873L48.612 25.1279L47.6234 25.2785ZM46.4312 24.9835C46.3094 24.5889 46.1367 24.2211 45.9077 23.8881L44.2596 25.0211C44.364 25.1729 44.4526 25.3544 44.5202 25.5734L46.4312 24.9835ZM45.9177 23.9029C45.6934 23.5638 45.4185 23.2696 45.0948 23.0255L43.8907 24.6223C44.0291 24.7267 44.1482 24.853 44.2496 25.0063L45.9177 23.9029ZM45.1012 23.0303C44.7693 22.7759 44.3958 22.5919 43.9915 22.4727L43.4258 24.391C43.6125 24.4461 43.7616 24.5235 43.8843 24.6175L45.1012 23.0303ZM44.0027 22.4761C43.6008 22.3524 43.1784 22.2955 42.7427 22.2955V24.2955C43.004 24.2955 43.2256 24.3295 43.4146 24.3876L44.0027 22.4761ZM42.7427 22.2955C41.941 22.2955 41.1935 22.5 40.5312 22.9261L41.6134 24.6081C41.9284 24.4054 42.2945 24.2955 42.7427 24.2955V22.2955ZM40.5312 22.9261C39.8585 23.3589 39.3576 23.9802 39.0103 24.7358L40.8275 25.5711C41.0408 25.107 41.3088 24.804 41.6134 24.6081L40.5312 22.9261ZM39.0091 24.7384C38.6578 25.5083 38.5041 26.3971 38.5041 27.3694H40.5041C40.5041 26.5992 40.6269 26.0107 40.8287 25.5685L39.0091 24.7384ZM38.5041 27.3694C38.5041 28.3481 38.6575 29.2419 39.0081 30.0153L40.8296 29.1894C40.6273 28.7431 40.5041 28.1482 40.5041 27.3694H38.5041ZM39.0081 30.0153C39.3523 30.7743 39.8541 31.3978 40.5296 31.8343L41.615 30.1545C41.3057 29.9546 41.0385 29.65 40.8296 29.1894L39.0081 30.0153ZM40.5342 31.8372C41.2054 32.2658 41.9687 32.466 42.7882 32.466V30.466C42.3047 30.466 41.924 30.3517 41.6104 30.1515L40.5342 31.8372ZM42.7882 32.466C43.5075 32.466 44.1853 32.3272 44.788 32.01L43.8565 30.2401C43.5956 30.3775 43.2507 30.466 42.7882 30.466V32.466ZM44.7849 32.0116C45.3871 31.6974 45.8665 31.2402 46.1991 30.6502L44.4568 29.6681C44.3197 29.9114 44.1287 30.0981 43.8597 30.2385L44.7849 32.0116ZM46.201 30.6468C46.5324 30.0535 46.6802 29.3875 46.6802 28.6819H44.6802C44.6802 29.1051 44.5932 29.4239 44.4549 29.6715L46.201 30.6468ZM45.5273 29.6701L46.0046 29.744L46.3105 27.7675L45.8332 27.6936L45.5273 29.6701ZM46.1575 27.7557H42.9984V29.7557H46.1575V27.7557ZM43.9984 28.7557V27.108H41.9984V28.7557H43.9984ZM42.9984 28.108H47.72V26.108H42.9984V28.108ZM46.72 27.108V28.5057H48.72V27.108H46.72ZM46.72 28.5057C46.72 29.3575 46.5398 30.0387 46.2199 30.5871L47.9474 31.5948C48.476 30.6887 48.72 29.6464 48.72 28.5057H46.72ZM46.2199 30.5871C45.8893 31.1539 45.4426 31.5829 44.8649 31.8894L45.8024 33.6561C46.7095 33.1748 47.4296 32.4826 47.9474 31.5948L46.2199 30.5871ZM44.8685 31.8876C44.2894 32.1919 43.6009 32.358 42.7768 32.358V34.358C43.877 34.358 44.8931 34.134 45.7988 33.658L44.8685 31.8876ZM42.7768 32.358C41.8593 32.358 41.0992 32.1538 40.4633 31.7764L39.4426 33.4964C40.428 34.0811 41.5504 34.358 42.7768 34.358V32.358ZM40.4681 31.7793C39.8316 31.3968 39.3265 30.8534 38.9515 30.1191L37.1703 31.0287C37.7044 32.0747 38.4607 32.9063 39.4379 33.4936L40.4681 31.7793ZM38.9538 30.1237C38.5876 29.3974 38.3848 28.4977 38.3848 27.3921H36.3848C36.3848 28.741 36.6327 29.9625 37.168 31.0242L38.9538 30.1237ZM38.3848 27.3921C38.3848 26.5458 38.5043 25.8242 38.7237 25.2129L36.8413 24.5372C36.5304 25.4032 36.3848 26.3596 36.3848 27.3921H38.3848ZM38.7222 25.2172C38.9504 24.5903 39.2591 24.083 39.6384 23.6769L38.1766 22.3119C37.5938 22.936 37.1525 23.6825 36.8429 24.5329L38.7222 25.2172ZM39.6409 23.6742C40.0251 23.2597 40.4705 22.9494 40.9842 22.7361L40.2172 20.889C39.4355 21.2136 38.7521 21.6911 38.1742 22.3145L39.6409 23.6742ZM40.9888 22.7342C41.5037 22.5174 42.075 22.4035 42.7143 22.4035V20.4035C41.8309 20.4035 40.9931 20.5623 40.2126 20.8909L40.9888 22.7342ZM42.7143 22.4035C43.2591 22.4035 43.7497 22.4833 44.1935 22.6343L44.8375 20.7408C44.1676 20.513 43.4575 20.4035 42.7143 20.4035V22.4035ZM44.1992 22.6362C44.6515 22.787 45.0403 22.9977 45.3746 23.2645L46.6223 21.7015C46.093 21.2789 45.4931 20.9593 44.8317 20.7389L44.1992 22.6362ZM45.3779 23.2672C45.7183 23.5365 45.9946 23.8528 46.2118 24.2197L47.9328 23.2009C47.5894 22.6208 47.1498 22.1189 46.619 21.6988L45.3779 23.2672ZM46.2118 24.2197C46.4235 24.5773 46.566 24.9772 46.6348 25.429L48.612 25.1279C48.5066 24.4358 48.2817 23.7903 47.9328 23.2009L46.2118 24.2197ZM47.6234 24.2785H45.4757V26.2785H47.6234V24.2785ZM51.2641 32.8239L50.7618 33.6887L50.7679 33.6922L51.2641 32.8239ZM49.8038 31.2671L48.9114 31.7183L48.9124 31.7203L49.8038 31.2671ZM49.8038 26.5228L48.9114 26.0716L48.9104 26.0736L49.8038 26.5228ZM51.247 24.9319L51.7699 25.7843L51.7737 25.7819L51.247 24.9319ZM54.9459 24.6194L54.6029 25.5588L54.6119 25.5619L54.9459 24.6194ZM56.2186 25.4148L55.5189 26.1293L55.5226 26.1328L56.2186 25.4148ZM57.0936 26.7898L56.1591 27.1458L56.1599 27.1479L57.0936 26.7898ZM57.4118 29.3978V30.3978H58.4118V29.3978H57.4118ZM50.2584 29.3978H49.2584V30.3978H50.2584V29.3978ZM50.2584 28.0114V27.0114H49.2584V28.0114H50.2584ZM55.4402 28.0114V29.0114H56.4498L56.4401 28.0018L55.4402 28.0114ZM55.1845 26.9603L54.3033 27.4331L54.3058 27.4376L55.1845 26.9603ZM54.4856 26.2273L53.9695 27.0839L53.9743 27.0867L54.4856 26.2273ZM52.3436 26.2671L52.8772 27.1129L52.8844 27.1083L52.3436 26.2671ZM51.5993 27.0625L50.7194 26.5872L50.7175 26.5909L51.5993 27.0625ZM51.3322 28.1364L50.3322 28.1267V28.1364H51.3322ZM51.6106 30.6535L50.7199 31.1081L50.7219 31.1119L51.6106 30.6535ZM52.389 31.483L51.8876 32.3482L51.895 32.3525L52.389 31.483ZM54.372 31.6421L54.6971 32.5879L54.7102 32.5832L54.372 31.6421ZM55.0027 31.2614L54.3193 30.5314L55.0027 31.2614ZM55.4061 30.6421L55.5178 29.6484L54.7393 29.5608L54.468 30.2957L55.4061 30.6421ZM57.3265 30.858L58.2992 31.0903L58.5618 29.9906L57.4383 29.8643L57.3265 30.858ZM56.6334 32.1875L55.8901 31.5186L55.8897 31.519L56.6334 32.1875ZM55.3379 33.0625L55.7 33.9947L55.7058 33.9924L55.3379 33.0625ZM53.5311 32.3694C52.7963 32.3694 52.2186 32.2176 51.7602 31.9557L50.7679 33.6922C51.5822 34.1575 52.5159 34.3694 53.5311 34.3694V32.3694ZM51.7663 31.9592C51.3053 31.6914 50.9514 31.3176 50.6952 30.8138L48.9124 31.7203C49.3381 32.5575 49.9577 33.2216 50.7618 33.6886L51.7663 31.9592ZM50.6962 30.8159C50.4393 30.3077 50.2925 29.6748 50.2925 28.8864H48.2925C48.2925 29.9238 48.4865 30.878 48.9114 31.7183L50.6962 30.8159ZM50.2925 28.8864C50.2925 28.1163 50.4381 27.4873 50.6973 26.972L48.9104 26.0736C48.4877 26.9143 48.2925 27.8611 48.2925 28.8864H50.2925ZM50.6963 26.974C50.9621 26.4481 51.3193 26.0607 51.7699 25.7842L50.7241 24.0795C49.9399 24.5606 49.3349 25.2339 48.9114 26.0716L50.6963 26.974ZM51.7737 25.7819C52.2107 25.5111 52.7479 25.358 53.4231 25.358V23.358C52.4317 23.358 51.5181 23.5875 50.7203 24.0818L51.7737 25.7819ZM53.4231 25.358C53.851 25.358 54.2419 25.4269 54.6029 25.5587L55.2888 23.68C54.6953 23.4633 54.0711 23.358 53.4231 23.358V25.358ZM54.6119 25.5619C54.9548 25.6835 55.2545 25.8703 55.5189 26.1293L56.9183 24.7004C56.4478 24.2396 55.899 23.8962 55.2799 23.6768L54.6119 25.5619ZM55.5226 26.1328C55.7739 26.3765 55.9911 26.7049 56.1591 27.1458L58.0281 26.4338C57.7718 25.7611 57.4057 25.1729 56.9146 24.6968L55.5226 26.1328ZM56.1599 27.1479C56.3175 27.5587 56.4118 28.0904 56.4118 28.7671H58.4118C58.4118 27.9135 58.294 27.127 58.0273 26.4317L56.1599 27.1479ZM56.4118 28.7671V29.3978H58.4118V28.7671H56.4118ZM57.4118 28.3978H50.2584V30.3978H57.4118V28.3978ZM51.2584 29.3978V28.0114H49.2584V29.3978H51.2584ZM50.2584 29.0114H55.4402V27.0114H50.2584V29.0114ZM56.4401 28.0018C56.435 27.4656 56.3175 26.951 56.0632 26.4829L54.3058 27.4376C54.3849 27.5832 54.4378 27.7693 54.4402 28.021L56.4401 28.0018ZM56.0657 26.4875C55.8142 26.0189 55.4543 25.64 54.9969 25.3679L53.9743 27.0867C54.1155 27.1707 54.2215 27.2805 54.3033 27.4331L56.0657 26.4875ZM55.0018 25.3708C54.5294 25.0862 54.001 24.9603 53.4515 24.9603V26.9603C53.69 26.9603 53.851 27.0124 53.9695 27.0838L55.0018 25.3708ZM53.4515 24.9603C52.8615 24.9603 52.3 25.1063 51.8028 25.4259L52.8844 27.1083C53.0236 27.0188 53.2007 26.9603 53.4515 26.9603V24.9603ZM51.81 25.4214C51.3472 25.7134 50.9795 26.1058 50.7195 26.5872L52.4791 27.5379C52.5751 27.3602 52.7037 27.2223 52.8772 27.1128L51.81 25.4214ZM50.7175 26.5909C50.4629 27.0669 50.3375 27.5846 50.3323 28.1267L52.3322 28.1461C52.3345 27.9079 52.3872 27.7098 52.4811 27.5342L50.7175 26.5909ZM50.3322 28.1364V29.3466H52.3322V28.1364H50.3322ZM50.3322 29.3466C50.3322 29.9746 50.4471 30.5736 50.72 31.1081L52.5013 30.1988C52.4029 30.0061 52.3322 29.7338 52.3322 29.3466H50.3322ZM50.7219 31.1119C50.9904 31.6324 51.3803 32.0542 51.8876 32.3482L52.8905 30.6178C52.7311 30.5254 52.6021 30.3942 52.4994 30.1951L50.7219 31.1119ZM51.895 32.3525C52.4023 32.6407 52.9683 32.7671 53.5595 32.7671V30.7671C53.2568 30.7671 53.0425 30.7041 52.8831 30.6135L51.895 32.3525ZM53.5595 32.7671C53.9513 32.7671 54.3342 32.7125 54.6971 32.5878L54.0469 30.6964C53.925 30.7383 53.7662 30.7671 53.5595 30.7671V32.7671ZM54.7102 32.5832C55.0735 32.4526 55.403 32.2564 55.6861 31.9914L54.3193 30.5314C54.2463 30.5997 54.1553 30.6574 54.0338 30.701L54.7102 32.5832ZM55.6861 31.9914C55.9862 31.7105 56.2036 31.3693 56.3442 30.9885L54.468 30.2957C54.4268 30.4073 54.3752 30.479 54.3193 30.5314L55.6861 31.9914ZM55.2944 31.6358L57.2148 31.8517L57.4383 29.8643L55.5178 29.6484L55.2944 31.6358ZM56.3539 30.6257C56.2705 30.9749 56.1165 31.267 55.8901 31.5186L57.3767 32.8565C57.8321 32.3505 58.1402 31.7562 58.2992 31.0903L56.3539 30.6257ZM55.8897 31.519C55.668 31.7656 55.3706 31.9742 54.97 32.1327L55.7058 33.9924C56.3583 33.7342 56.9245 33.3595 57.377 32.8561L55.8897 31.519ZM54.9758 32.1304C54.5853 32.2821 54.1095 32.3694 53.5311 32.3694V34.3694C54.3088 34.3694 55.0375 34.2521 55.7 33.9947L54.9758 32.1304ZM63.5098 24.4716H64.5098V23.4716H63.5098V24.4716ZM63.5098 26.0625V27.0625H64.5098V26.0625H63.5098ZM58.4927 26.0625H57.4927V27.0625H58.4927V26.0625ZM58.4927 24.4716V23.4716H57.4927V24.4716H58.4927ZM59.7314 22.3807V21.3807H58.7314V22.3807H59.7314ZM61.7882 22.3807H62.7882V21.3807H61.7882V22.3807ZM61.9132 31.2103L61.0422 31.7016L61.0498 31.715L61.0577 31.7281L61.9132 31.2103ZM62.2541 31.5057L61.9002 32.441L62.2541 31.5057ZM63.0723 31.5569L62.9024 30.5714L62.8965 30.5724L63.0723 31.5569ZM63.3223 31.5057L64.2998 31.295L64.0787 30.2691L63.0646 30.5395L63.3223 31.5057ZM63.6689 33.1137L63.9949 34.0591L64.8333 33.7699L64.6464 32.903L63.6689 33.1137ZM63.1973 33.2387L62.9804 32.2625L62.9765 32.2634L63.1973 33.2387ZM62.4587 33.3182L62.4327 32.3186L62.4293 32.3187L62.4587 33.3182ZM61.0666 33.0853L60.6778 34.0066L60.685 34.0096L61.0666 33.0853ZM60.0837 32.2785L59.2476 32.8271L59.2516 32.8332L60.0837 32.2785ZM59.7314 30.9148L60.7314 30.9218V30.9148H59.7314ZM62.5098 24.4716V26.0625H64.5098V24.4716H62.5098ZM63.5098 25.0625H58.4927V27.0625H63.5098V25.0625ZM59.4927 26.0625V24.4716H57.4927V26.0625H59.4927ZM58.4927 25.4716H63.5098V23.4716H58.4927V25.4716ZM59.7314 23.3807H61.7882V21.3807H59.7314V23.3807ZM60.7882 22.3807V30.5739H62.7882V22.3807H60.7882ZM60.7882 30.5739C60.7882 30.9256 60.8369 31.3376 61.0422 31.7016L62.7842 30.719C62.8071 30.7596 62.8063 30.7763 62.8007 30.7476C62.7952 30.7198 62.7882 30.6644 62.7882 30.5739H60.7882ZM61.0577 31.7281C61.2456 32.0386 61.5253 32.2992 61.9002 32.441L62.608 30.5704C62.6485 30.5858 62.6868 30.6088 62.7187 30.6364C62.7495 30.6631 62.7646 30.6857 62.7687 30.6925L61.0577 31.7281ZM61.9002 32.441C62.1679 32.5423 62.4451 32.5853 62.72 32.5853V30.5853C62.654 30.5853 62.6206 30.5752 62.608 30.5704L61.9002 32.441ZM62.72 32.5853C62.8967 32.5853 63.0741 32.5724 63.2481 32.5413L62.8965 30.5724C62.8584 30.5792 62.8009 30.5853 62.72 30.5853V32.5853ZM63.2422 32.5423C63.3605 32.5219 63.479 32.4989 63.58 32.472L63.0646 30.5395C63.0519 30.5429 63.0038 30.5539 62.9024 30.5714L63.2422 32.5423ZM62.3447 31.7164L62.6913 33.3244L64.6464 32.903L64.2998 31.295L62.3447 31.7164ZM63.3429 32.1683C63.2864 32.1878 63.1722 32.2199 62.9804 32.2625L63.4142 34.2149C63.6314 34.1666 63.8317 34.1153 63.9949 34.0591L63.3429 32.1683ZM62.9765 32.2634C62.86 32.2897 62.6835 32.3121 62.4327 32.3186L62.4846 34.3179C62.8171 34.3093 63.133 34.2785 63.4181 34.214L62.9765 32.2634ZM62.4293 32.3187C62.0333 32.3303 61.7124 32.27 61.4482 32.161L60.685 34.0096C61.2466 34.2415 61.8537 34.3365 62.4881 34.3178L62.4293 32.3187ZM61.4554 32.164C61.2181 32.0638 61.0466 31.9201 60.9157 31.7238L59.2516 32.8332C59.6056 33.3641 60.0893 33.7582 60.6778 34.0066L61.4554 32.164ZM60.9197 31.7298C60.8139 31.5686 60.7286 31.3201 60.7314 30.9218L58.7314 30.9079C58.7266 31.6005 58.8761 32.261 59.2476 32.8271L60.9197 31.7298ZM60.7314 30.9148V22.3807H58.7314V30.9148H60.7314ZM76.0964 26.7785L76.2049 27.7726L77.2796 27.6553L77.0791 26.593L76.0964 26.7785ZM74.2214 26.983L73.2585 27.2526L73.4871 28.069L74.3299 27.9771L74.2214 26.983ZM73.943 26.4489L73.1517 27.0604L73.1604 27.0714L73.943 26.4489ZM73.4203 26.0455L73.8423 25.1389V25.1389L73.4203 26.0455ZM71.5339 26.1705L70.9971 25.3268L70.9921 25.33L71.5339 26.1705ZM71.1078 26.8921L72.1077 26.907L72.1079 26.8931L72.1077 26.8793L71.1078 26.8921ZM71.3862 27.5114L70.743 28.2772L70.7505 28.2833L71.3862 27.5114ZM72.3408 27.9035L72.1159 28.8779L72.1238 28.8797L72.1317 28.8814L72.3408 27.9035ZM73.8294 28.2216L74.0401 27.2441L74.0384 27.2437L73.8294 28.2216ZM75.6703 29.0682L74.9769 29.7888L74.9803 29.792L75.6703 29.0682ZM76.2839 30.5853L77.284 30.5922L77.2839 30.5792L76.2839 30.5853ZM75.801 32.0398L75.0036 31.4364L75.0027 31.4375L75.801 32.0398ZM74.4885 33.0171L74.8749 33.9394L74.4885 33.0171ZM69.9771 32.6989L69.4082 33.5213L69.4114 33.5235L69.9771 32.6989ZM68.8123 30.8182L68.7165 29.8228L67.6612 29.9245L67.8242 30.972L68.8123 30.8182ZM70.818 30.625L71.7924 30.4002L71.5952 29.5456L70.7222 29.6297L70.818 30.625ZM71.3976 31.5171L71.9596 30.69L71.3976 31.5171ZM73.7271 31.5171L73.17 30.6867L73.1651 30.69L73.7271 31.5171ZM73.8862 30.1535L73.2341 30.9117L73.2416 30.918L73.8862 30.1535ZM72.9998 29.7785L73.2119 28.8012L73.2053 28.7998L72.9998 29.7785ZM71.5112 29.466L71.7167 28.4873L71.715 28.4869L71.5112 29.466ZM69.6533 28.5853L68.9332 29.2792L68.9364 29.2824L69.6533 28.5853ZM69.0567 27.0057L70.0567 27.0117L70.0566 26.9987L69.0567 27.0057ZM69.4942 25.608L68.6951 25.0068L68.6942 25.008L69.4942 25.608ZM70.7385 24.6875L71.1156 25.6137L71.1189 25.6124L70.7385 24.6875ZM74.9998 25.0114L74.404 25.8145L74.4065 25.8163L74.9998 25.0114ZM75.988 25.7844L74.113 25.9889L74.3299 27.9771L76.2049 27.7726L75.988 25.7844ZM75.1844 26.7134C75.0925 26.3852 74.9343 26.0888 74.7256 25.8264L73.1604 27.0714C73.2169 27.1424 73.2443 27.202 73.2585 27.2526L75.1844 26.7134ZM74.7343 25.8375C74.494 25.5265 74.185 25.2984 73.8423 25.1389L72.9983 26.9521C73.095 26.9971 73.1345 27.038 73.1517 27.0604L74.7343 25.8375ZM73.8423 25.1389C73.4559 24.959 73.0338 24.8921 72.6135 24.8921V26.8921C72.8295 26.8921 72.9453 26.9274 72.9983 26.9521L73.8423 25.1389ZM72.6135 24.8921C72.0406 24.8921 71.4835 25.0173 70.9971 25.3268L72.0708 27.0142C72.1677 26.9525 72.3303 26.8921 72.6135 26.8921V24.8921ZM70.9921 25.33C70.4689 25.6673 70.0989 26.2053 70.1079 26.9049L72.1077 26.8793C72.1078 26.888 72.1069 26.9062 72.1006 26.9306C72.0942 26.9553 72.0843 26.9787 72.0726 26.9986C72.0486 27.0392 72.0336 27.0382 72.0758 27.011L70.9921 25.33ZM70.1079 26.8772C70.0998 27.4224 70.3165 27.9189 70.743 28.2771L72.0294 26.7457C72.0391 26.7539 72.0658 26.7808 72.0866 26.8272C72.0962 26.8485 72.1019 26.8681 72.1049 26.8837C72.1078 26.8989 72.1077 26.9074 72.1077 26.907L70.1079 26.8772ZM70.7505 28.2833C71.1247 28.5915 71.626 28.7648 72.1159 28.8779L72.5656 26.9291C72.3812 26.8865 72.2454 26.8431 72.1497 26.8037C72.051 26.7632 72.0186 26.7367 72.0219 26.7395L70.7505 28.2833ZM72.1317 28.8814L73.6204 29.1996L74.0384 27.2437L72.5498 26.9255L72.1317 28.8814ZM73.6186 29.1992C74.3497 29.3568 74.7614 29.5815 74.9769 29.7888L76.3637 28.3477C75.7761 27.7823 74.9606 27.4425 74.0401 27.2441L73.6186 29.1992ZM74.9803 29.792C75.1654 29.9685 75.2816 30.203 75.284 30.5913L77.2839 30.5792C77.2787 29.7175 76.9858 28.9407 76.3603 28.3444L74.9803 29.792ZM75.284 30.5784C75.2816 30.9218 75.186 31.1953 75.0036 31.4364L76.5984 32.6433C77.0523 32.0435 77.2787 31.3473 77.2839 30.5922L75.284 30.5784ZM75.0027 31.4375C74.8113 31.6912 74.5267 31.9169 74.1021 32.0948L74.8749 33.9394C75.5715 33.6476 76.1619 33.2218 76.5992 32.6421L75.0027 31.4375ZM74.1021 32.0948C73.6854 32.2693 73.1768 32.3694 72.5567 32.3694V34.3694C73.3911 34.3694 74.1703 34.2346 74.8749 33.9394L74.1021 32.0948ZM72.5567 32.3694C71.6209 32.3694 70.9785 32.1732 70.5428 31.8743L69.4114 33.5235C70.2788 34.1186 71.3561 34.3694 72.5567 34.3694V32.3694ZM70.5461 31.8765C70.1265 31.5863 69.8845 31.2045 69.8004 30.6644L67.8242 30.972C67.9902 32.0381 68.5247 32.9101 69.4082 33.5213L70.5461 31.8765ZM68.9082 31.8136L70.9139 31.6204L70.7222 29.6297L68.7165 29.8228L68.9082 31.8136ZM69.8436 30.8499C69.9832 31.4545 70.3039 31.9829 70.8356 32.3442L71.9596 30.69C71.9004 30.6497 71.8347 30.5834 71.7924 30.4002L69.8436 30.8499ZM70.8356 32.3442C71.343 32.689 71.9413 32.8182 72.551 32.8182V30.8182C72.2137 30.8182 72.0431 30.7467 71.9596 30.69L70.8356 32.3442ZM72.551 32.8182C73.1683 32.8182 73.7771 32.6921 74.2891 32.3442L73.1651 30.69C73.0862 30.7436 72.911 30.8182 72.551 30.8182V32.8182ZM74.2842 32.3475C74.7909 32.0076 75.176 31.4772 75.176 30.7728H73.176C73.176 30.7613 73.1776 30.7427 73.1838 30.7201C73.19 30.6974 73.1989 30.6782 73.2074 30.664C73.2243 30.6361 73.227 30.6485 73.17 30.6867L74.2842 32.3475ZM75.176 30.7728C75.176 30.2244 74.9465 29.7395 74.5308 29.3889L73.2416 30.918C73.2417 30.918 73.2401 30.9167 73.2373 30.9139C73.2345 30.911 73.2307 30.9068 73.2262 30.9011C73.217 30.8893 73.2068 30.8735 73.1978 30.8542C73.1782 30.8124 73.176 30.7799 73.176 30.7728H75.176ZM74.5382 29.3953C74.1662 29.0753 73.683 28.9034 73.2119 28.8012L72.7878 30.7557C72.9437 30.7896 73.0559 30.8259 73.1329 30.8585C73.211 30.8915 73.2366 30.9138 73.2342 30.9116L74.5382 29.3953ZM73.2053 28.7998L71.7167 28.4873L71.3058 30.4446L72.7944 30.7571L73.2053 28.7998ZM71.715 28.4869C70.9839 28.3348 70.5803 28.1042 70.3702 27.8881L68.9364 29.2824C69.5293 29.8921 70.3643 30.2487 71.3074 30.445L71.715 28.4869ZM70.3733 27.8914C70.1717 27.6821 70.0542 27.4157 70.0566 27.0117L68.0567 26.9998C68.0515 27.8685 68.3318 28.6551 68.9332 29.2792L70.3733 27.8914ZM70.0566 26.9987C70.0542 26.6582 70.1423 26.4105 70.2942 26.208L68.6942 25.008C68.2552 25.5934 68.0515 26.2775 68.0567 27.0128L70.0566 26.9987ZM70.2933 26.2092C70.4683 25.9766 70.7271 25.7719 71.1156 25.6137L70.3614 23.7614C69.6892 24.035 69.1185 24.444 68.6951 25.0068L70.2933 26.2092ZM71.1189 25.6124C71.5101 25.4514 71.9922 25.358 72.5851 25.358V23.358C71.784 23.358 71.035 23.4843 70.3581 23.7627L71.1189 25.6124ZM72.5851 25.358C73.4767 25.358 74.046 25.5489 74.404 25.8145L75.5957 24.2083C74.7795 23.6027 73.7389 23.358 72.5851 23.358V25.358ZM74.4065 25.8163C74.7876 26.0973 75.019 26.4618 75.1138 26.964L77.0791 26.593C76.8936 25.6103 76.3939 24.7968 75.5932 24.2065L74.4065 25.8163ZM82.3379 24.4716H83.3379V23.4716H82.3379V24.4716ZM82.3379 26.0625V27.0625H83.3379V26.0625H82.3379ZM77.3209 26.0625H76.3209V27.0625H77.3209V26.0625ZM77.3209 24.4716V23.4716H76.3209V24.4716H77.3209ZM78.5595 22.3807V21.3807H77.5595V22.3807H78.5595ZM80.6163 22.3807H81.6163V21.3807H80.6163V22.3807ZM80.7413 31.2103L79.8703 31.7016L79.8779 31.715L79.8858 31.7281L80.7413 31.2103ZM81.0822 31.5057L80.7283 32.441L81.0822 31.5057ZM81.9004 31.5569L81.7305 30.5714L81.7246 30.5724L81.9004 31.5569ZM82.1504 31.5057L83.128 31.295L82.9068 30.2691L81.8928 30.5395L82.1504 31.5057ZM82.497 33.1137L82.823 34.0591L83.6614 33.7699L83.4746 32.903L82.497 33.1137ZM82.0254 33.2387L81.8085 32.2625L81.8046 32.2634L82.0254 33.2387ZM81.2868 33.3182L81.2608 32.3186L81.2574 32.3187L81.2868 33.3182ZM79.8947 33.0853L79.5059 34.0066L79.5131 34.0096L79.8947 33.0853ZM78.9118 32.2785L78.0757 32.8271L78.0797 32.8332L78.9118 32.2785ZM78.5595 30.9148L79.5595 30.9218V30.9148H78.5595ZM81.3379 24.4716V26.0625H83.3379V24.4716H81.3379ZM82.3379 25.0625H77.3209V27.0625H82.3379V25.0625ZM78.3209 26.0625V24.4716H76.3209V26.0625H78.3209ZM77.3209 25.4716H82.3379V23.4716H77.3209V25.4716ZM78.5595 23.3807H80.6163V21.3807H78.5595V23.3807ZM79.6163 22.3807V30.5739H81.6163V22.3807H79.6163ZM79.6163 30.5739C79.6163 30.9256 79.665 31.3376 79.8703 31.7016L81.6123 30.719C81.6352 30.7596 81.6344 30.7763 81.6288 30.7476C81.6233 30.7198 81.6163 30.6644 81.6163 30.5739H79.6163ZM79.8858 31.7281C80.0737 32.0386 80.3534 32.2992 80.7283 32.441L81.4361 30.5704C81.4766 30.5858 81.515 30.6088 81.5468 30.6364C81.5776 30.6631 81.5927 30.6857 81.5968 30.6925L79.8858 31.7281ZM80.7283 32.441C80.996 32.5423 81.2732 32.5853 81.5481 32.5853V30.5853C81.4821 30.5853 81.4488 30.5752 81.4361 30.5704L80.7283 32.441ZM81.5481 32.5853C81.7248 32.5853 81.9022 32.5724 82.0762 32.5413L81.7246 30.5724C81.6865 30.5792 81.629 30.5853 81.5481 30.5853V32.5853ZM82.0703 32.5423C82.1886 32.5219 82.3071 32.4989 82.4081 32.472L81.8928 30.5395C81.88 30.5429 81.8319 30.5539 81.7305 30.5714L82.0703 32.5423ZM81.1729 31.7164L81.5195 33.3244L83.4746 32.903L83.128 31.295L81.1729 31.7164ZM82.171 32.1683C82.1145 32.1878 82.0004 32.2199 81.8085 32.2625L82.2423 34.2149C82.4596 34.1666 82.6598 34.1153 82.823 34.0591L82.171 32.1683ZM81.8046 32.2634C81.6882 32.2897 81.5117 32.3121 81.2608 32.3186L81.3127 34.3179C81.6452 34.3093 81.9611 34.2785 82.2462 34.214L81.8046 32.2634ZM81.2574 32.3187C80.8615 32.3303 80.5405 32.27 80.2763 32.161L79.5131 34.0096C80.0747 34.2415 80.6818 34.3365 81.3162 34.3178L81.2574 32.3187ZM80.2835 32.164C80.0463 32.0638 79.8747 31.9201 79.7438 31.7238L78.0797 32.8332C78.4337 33.3641 78.9174 33.7582 79.5059 34.0066L80.2835 32.164ZM79.7478 31.7298C79.642 31.5686 79.5567 31.3201 79.5595 30.9218L77.5595 30.9079C77.5547 31.6005 77.7042 32.261 78.0757 32.8271L79.7478 31.7298ZM79.5595 30.9148V22.3807H77.5595V30.9148H79.5595ZM85.0751 33.0796L84.6595 33.9892L84.669 33.9934L85.0751 33.0796ZM84.0297 32.1932L83.1914 32.7385L83.1951 32.7442L84.0297 32.1932ZM83.9217 29.5285L83.051 29.0367L83.9217 29.5285ZM84.666 28.7557L84.1425 27.9037L84.666 28.7557ZM85.7285 28.3182L85.9711 29.2884L85.9776 29.2867L85.7285 28.3182ZM86.9615 28.0966L86.8583 27.102L86.855 27.1023L86.9615 28.0966ZM88.2058 27.9546L88.3357 28.9462L88.3472 28.9445L88.2058 27.9546ZM88.899 27.75L89.433 28.5956L89.4387 28.5919L88.899 27.75ZM88.7399 26.2841L89.4191 25.5502L88.7399 26.2841ZM86.4445 26.2614L85.8477 25.4589L85.8428 25.4627L86.4445 26.2614ZM85.8535 27.0398L85.7129 28.0299L86.5322 28.1462L86.7998 27.3632L85.8535 27.0398ZM83.9331 26.7671L82.9716 26.4924L82.6563 27.5958L83.7925 27.7572L83.9331 26.7671ZM84.6831 25.4375L85.3978 26.137L85.4014 26.1332L84.6831 25.4375ZM85.9615 24.6307L86.2947 25.5736L86.301 25.5713L85.9615 24.6307ZM90.0297 24.9944L89.4792 25.8293L89.4857 25.8334L90.0297 24.9944ZM90.8592 25.9091L89.979 26.3838L89.9826 26.3904L90.8592 25.9091ZM91.1774 33.1989V34.1989H92.1774V33.1989H91.1774ZM89.2001 33.1989H88.2001V34.1989H89.2001V33.1989ZM89.2001 32H90.2001V31H89.2001V32ZM89.132 32V31H88.5225L88.2431 31.5418L89.132 32ZM88.6035 32.6819L89.2854 33.4133L89.2859 33.4129L88.6035 32.6819ZM87.757 33.1875L88.1046 34.1252L88.1104 34.123L87.757 33.1875ZM88.1774 31.6194L88.6509 32.5002L88.6593 32.4956L88.1774 31.6194ZM88.8763 30.9603L88.0229 30.4388L88.0177 30.4475L88.8763 30.9603ZM89.1263 29.0398H90.1263V26.9208L88.4906 28.2679L89.1263 29.0398ZM88.7967 29.1875L88.5158 28.2278L88.5094 28.2297L88.7967 29.1875ZM88.2854 29.3069L88.4625 30.2911V30.2911L88.2854 29.3069ZM87.2399 29.466L87.3745 30.4569L87.3775 30.4565L87.2399 29.466ZM86.416 29.6705L86.0522 28.739L86.416 29.6705ZM85.8422 30.0682L86.6076 30.7119L86.6146 30.7033L85.8422 30.0682ZM86.0467 31.5739L85.474 32.3937L86.0467 31.5739ZM86.5695 32.375C86.1368 32.375 85.7798 32.2985 85.4813 32.1658L84.669 33.9934C85.2568 34.2547 85.8961 34.375 86.5695 34.375V32.375ZM85.4907 32.17C85.2158 32.0444 85.0149 31.8706 84.8642 31.6423L83.1951 32.7442C83.5596 33.2962 84.0556 33.7132 84.6596 33.9892L85.4907 32.17ZM84.8679 31.648C84.7416 31.4538 84.649 31.173 84.649 30.75H82.649C82.649 31.4711 82.8102 32.1524 83.1914 32.7385L84.8679 31.648ZM84.649 30.75C84.649 30.3747 84.7189 30.1504 84.7925 30.0202L83.051 29.0367C82.7609 29.5504 82.649 30.1405 82.649 30.75H84.649ZM84.7925 30.0202C84.8911 29.8455 85.0199 29.712 85.1896 29.6077L84.1425 27.9037C83.6834 28.1858 83.3159 28.5675 83.051 29.0367L84.7925 30.0202ZM85.1896 29.6077C85.4086 29.4731 85.6664 29.3645 85.9711 29.2884L85.486 27.3481C85.0028 27.4689 84.5523 27.652 84.1425 27.9037L85.1896 29.6077ZM85.9776 29.2867C86.3267 29.1969 86.69 29.1315 87.068 29.091L86.855 27.1023C86.3845 27.1527 85.9258 27.235 85.4795 27.3497L85.9776 29.2867ZM87.0646 29.0913C87.5803 29.0378 88.005 28.9894 88.3357 28.9461L88.076 26.9631C87.7703 27.0031 87.3654 27.0494 86.8583 27.102L87.0646 29.0913ZM88.3472 28.9445C88.7028 28.8937 89.1058 28.8022 89.433 28.5955L88.365 26.9046C88.3959 26.885 88.3953 26.8924 88.3347 26.9103C88.278 26.927 88.1903 26.9467 88.0644 26.9646L88.3472 28.9445ZM89.4387 28.5919C89.9124 28.2882 90.1206 27.8009 90.1206 27.3125H88.1206C88.1206 27.2859 88.126 27.2108 88.1731 27.1178C88.2227 27.0199 88.2944 26.9498 88.3593 26.9082L89.4387 28.5919ZM90.1206 27.3125V27.2785H88.1206V27.3125H90.1206ZM90.1206 27.2785C90.1206 26.6429 89.9243 26.0177 89.4191 25.5502L88.0607 27.0181C88.063 27.0203 88.1206 27.058 88.1206 27.2785H90.1206ZM89.4191 25.5502C88.9201 25.0884 88.2758 24.9319 87.6433 24.9319V26.9319C87.9653 26.9319 88.0522 27.0102 88.0607 27.0181L89.4191 25.5502ZM87.6433 24.9319C87.0024 24.9319 86.3691 25.0712 85.8477 25.459L87.0412 27.0639C87.1107 27.0122 87.2767 26.9319 87.6433 26.9319V24.9319ZM85.8428 25.4627C85.4167 25.7836 85.0839 26.1998 84.9073 26.7164L86.7998 27.3632C86.8278 27.2814 86.8888 27.1786 87.0461 27.0602L85.8428 25.4627ZM85.9941 26.0498L84.0737 25.777L83.7925 27.7572L85.7129 28.0299L85.9941 26.0498ZM84.8946 27.0418C85.0054 26.654 85.1777 26.3619 85.3978 26.137L83.9684 24.7381C83.4915 25.2253 83.1638 25.8196 82.9716 26.4924L84.8946 27.0418ZM85.4014 26.1332C85.6353 25.8918 85.9267 25.7036 86.2947 25.5736L85.6283 23.6879C84.9887 23.9139 84.4279 24.2636 83.9647 24.7419L85.4014 26.1332ZM86.301 25.5713C86.6819 25.4339 87.122 25.358 87.632 25.358V23.358C86.9222 23.358 86.2486 23.464 85.622 23.6901L86.301 25.5713ZM87.632 25.358C87.9735 25.358 88.3149 25.3979 88.6576 25.4789L89.1177 23.5325C88.627 23.4166 88.1313 23.358 87.632 23.358V25.358ZM88.6576 25.4789C88.9645 25.5514 89.236 25.6689 89.4792 25.8292L90.5801 24.1595C90.134 23.8653 89.6441 23.657 89.1177 23.5325L88.6576 25.4789ZM89.4857 25.8334C89.6799 25.9593 89.8447 26.1347 89.979 26.3838L91.7394 25.4345C91.457 24.9108 91.0689 24.4764 90.5737 24.1553L89.4857 25.8334ZM89.9826 26.3904C90.0923 26.5901 90.1774 26.8955 90.1774 27.358H92.1774C92.1774 26.6615 92.0504 26.0009 91.7358 25.4279L89.9826 26.3904ZM90.1774 27.358V33.1989H92.1774V27.358H90.1774ZM91.1774 32.1989H89.2001V34.1989H91.1774V32.1989ZM90.2001 33.1989V32H88.2001V33.1989H90.2001ZM89.2001 31H89.132V33H89.2001V31ZM88.2431 31.5418C88.1776 31.6689 88.0761 31.8063 87.9212 31.9508L89.2859 33.4129C89.5855 33.1332 89.8363 32.8161 90.0208 32.4583L88.2431 31.5418ZM87.9217 31.9504C87.8098 32.0547 87.6457 32.1606 87.4035 32.2521L88.1104 34.123C88.55 33.9569 88.9503 33.7257 89.2854 33.4133L87.9217 31.9504ZM87.4093 32.2499C87.2085 32.3244 86.9353 32.375 86.5695 32.375V34.375C87.1127 34.375 87.6312 34.3007 88.1046 34.1252L87.4093 32.2499ZM87.1035 32.8637C87.6488 32.8637 88.1758 32.7555 88.6508 32.5002L87.704 30.7385C87.5729 30.809 87.3841 30.8637 87.1035 30.8637V32.8637ZM88.6593 32.4956C89.1037 32.2512 89.4729 31.9116 89.7348 31.473L88.0177 30.4475C87.9539 30.5544 87.8572 30.6542 87.6955 30.7432L88.6593 32.4956ZM89.7295 31.4817C89.9929 31.0508 90.1263 30.5728 90.1263 30.0682H88.1263C88.1263 30.2076 88.093 30.3243 88.023 30.4388L89.7295 31.4817ZM90.1263 30.0682V29.0398H88.1263V30.0682H90.1263ZM88.4906 28.2679C88.5226 28.2415 88.5487 28.225 88.5632 28.2165C88.571 28.2119 88.5769 28.2088 88.5806 28.2069C88.5843 28.205 88.5864 28.2041 88.5865 28.204C88.5867 28.204 88.5853 28.2046 88.5821 28.2058C88.579 28.2071 88.5744 28.2088 88.5683 28.211C88.556 28.2154 88.5387 28.2211 88.5158 28.2278L89.0776 30.1473C89.2637 30.0928 89.5355 29.9982 89.762 29.8118L88.4906 28.2679ZM88.5094 28.2297C88.4008 28.2623 88.268 28.2939 88.1082 28.3227L88.4625 30.2911C88.6815 30.2516 88.8896 30.2037 89.0841 30.1454L88.5094 28.2297ZM88.1082 28.3227C87.9304 28.3547 87.7548 28.3831 87.5814 28.4078L87.8643 30.3877C88.0621 30.3595 88.2616 30.3272 88.4625 30.2911L88.1082 28.3227ZM87.5814 28.4078C87.3967 28.4342 87.2371 28.4568 87.1023 28.4755L87.3775 30.4565C87.5155 30.4373 87.6778 30.4144 87.8643 30.3877L87.5814 28.4078ZM87.1053 28.4751C86.7343 28.5254 86.3808 28.6107 86.0522 28.739L86.7799 30.602C86.9361 30.5409 87.1318 30.4898 87.3745 30.4569L87.1053 28.4751ZM86.0522 28.739C85.6792 28.8848 85.3365 29.1087 85.0697 29.4331L86.6146 30.7033C86.6281 30.6869 86.6681 30.6456 86.7799 30.602L86.0522 28.739ZM85.0768 29.4246C84.7541 29.8084 84.632 30.2686 84.632 30.716H86.632C86.632 30.671 86.6379 30.657 86.6357 30.6639C86.6345 30.6674 86.6318 30.6746 86.6266 30.684C86.6213 30.6936 86.6148 30.7032 86.6075 30.7118L85.0768 29.4246ZM84.632 30.716C84.632 31.3747 84.8936 31.9882 85.474 32.3937L86.6194 30.7542C86.6137 30.7501 86.6158 30.7507 86.6213 30.7572C86.6271 30.7638 86.6324 30.7719 86.6359 30.7793C86.6394 30.7864 86.6387 30.7875 86.6369 30.779C86.6351 30.7701 86.632 30.75 86.632 30.716H84.632ZM85.474 32.3937C85.9586 32.7323 86.5258 32.8637 87.1035 32.8637V30.8637C86.8252 30.8637 86.6878 30.8019 86.6194 30.7542L85.474 32.3937ZM93.2456 33.1989H92.2456V34.1989H93.2456V33.1989ZM93.2456 24.4716V23.4716H92.2456V24.4716H93.2456ZM95.2399 24.4716H96.2399V23.4716H95.2399V24.4716ZM95.2399 25.9262H94.2399V26.9262H95.2399V25.9262ZM95.3308 25.9262V26.9262H96.0637L96.2844 26.2273L95.3308 25.9262ZM96.149 24.7614L96.7257 25.5784L96.7272 25.5773L96.149 24.7614ZM97.8649 24.3637L97.7841 25.3604L97.7982 25.3616L97.8123 25.3623L97.8649 24.3637ZM98.2229 24.4035H99.2229V23.5837L98.419 23.4229L98.2229 24.4035ZM98.2229 26.2955L97.8943 27.24L99.2229 27.7021V26.2955H98.2229ZM97.8081 26.216L97.6667 27.2059L97.6778 27.2075L97.6889 27.2088L97.8081 26.216ZM96.257 26.4205L96.7311 27.301L96.735 27.2988L96.257 26.4205ZM95.3024 33.1989V34.1989H96.3024V33.1989H95.3024ZM94.2456 33.1989V24.4716H92.2456V33.1989H94.2456ZM93.2456 25.4716H95.2399V23.4716H93.2456V25.4716ZM94.2399 24.4716V25.9262H96.2399V24.4716H94.2399ZM95.2399 26.9262H95.3308V24.9262H95.2399V26.9262ZM96.2844 26.2273C96.3857 25.9064 96.5388 25.7103 96.7257 25.5784L95.5723 23.9444C94.9865 24.358 94.5941 24.9384 94.3772 25.6251L96.2844 26.2273ZM96.7272 25.5773C96.9404 25.4262 97.1814 25.3466 97.4842 25.3466V23.3466C96.7871 23.3466 96.1379 23.5436 95.5708 23.9455L96.7272 25.5773ZM97.4842 25.3466C97.5655 25.3466 97.6648 25.3507 97.7841 25.3604L97.9457 23.367C97.7847 23.3539 97.6303 23.3466 97.4842 23.3466V25.3466ZM97.8123 25.3623C97.9291 25.3684 97.9963 25.378 98.0267 25.384L98.419 23.4229C98.26 23.3911 98.0886 23.3741 97.9175 23.3651L97.8123 25.3623ZM97.2229 24.4035V26.2955H99.2229V24.4035H97.2229ZM98.5514 25.351C98.3571 25.2834 98.1292 25.2473 97.9272 25.2231L97.6889 27.2088C97.768 27.2183 97.8257 27.2274 97.8655 27.235C97.909 27.2433 97.9137 27.2467 97.8943 27.24L98.5514 25.351ZM97.9495 25.226C97.7206 25.1933 97.4933 25.1762 97.2683 25.1762V27.1762C97.3918 27.1762 97.5244 27.1856 97.6667 27.2059L97.9495 25.226ZM97.2683 25.1762C96.7435 25.1762 96.2392 25.2916 95.7789 25.5422L96.735 27.2988C96.8732 27.2236 97.0431 27.1762 97.2683 27.1762V25.1762ZM95.7829 25.54C95.3311 25.7833 94.9648 26.1304 94.7006 26.5708L96.4156 27.5998C96.4922 27.472 96.5918 27.3759 96.731 27.301L95.7829 25.54ZM94.7006 26.5708C94.426 27.0284 94.3024 27.5382 94.3024 28.0682H96.3024C96.3024 27.8559 96.3493 27.7103 96.4156 27.5998L94.7006 26.5708ZM94.3024 28.0682V33.1989H96.3024V28.0682H94.3024ZM95.3024 32.1989H93.2456V34.1989H95.3024V32.1989ZM104.416 24.4716H105.416V23.4716H104.416V24.4716ZM104.416 26.0625V27.0625H105.416V26.0625H104.416ZM99.399 26.0625H98.399V27.0625H99.399V26.0625ZM99.399 24.4716V23.4716H98.399V24.4716H99.399ZM100.638 22.3807V21.3807H99.6376V22.3807H100.638ZM102.694 22.3807H103.694V21.3807H102.694V22.3807ZM102.819 31.2103L101.948 31.7016L101.956 31.715L101.964 31.7281L102.819 31.2103ZM103.16 31.5057L102.806 32.441L103.16 31.5057ZM103.979 31.5569L103.809 30.5714L103.803 30.5724L103.979 31.5569ZM104.229 31.5057L105.206 31.295L104.985 30.2691L103.971 30.5395L104.229 31.5057ZM104.575 33.1137L104.901 34.0591L105.74 33.7699L105.553 32.903L104.575 33.1137ZM104.104 33.2387L103.887 32.2625L103.883 32.2634L104.104 33.2387ZM103.365 33.3182L103.339 32.3186L103.336 32.3187L103.365 33.3182ZM101.973 33.0853L101.584 34.0066L101.591 34.0096L101.973 33.0853ZM100.99 32.2785L100.154 32.8271L100.158 32.8332L100.99 32.2785ZM100.638 30.9148L101.638 30.9218V30.9148H100.638ZM103.416 24.4716V26.0625H105.416V24.4716H103.416ZM104.416 25.0625H99.399V27.0625H104.416V25.0625ZM100.399 26.0625V24.4716H98.399V26.0625H100.399ZM99.399 25.4716H104.416V23.4716H99.399V25.4716ZM100.638 23.3807H102.694V21.3807H100.638V23.3807ZM101.694 22.3807V30.5739H103.694V22.3807H101.694ZM101.694 30.5739C101.694 30.9256 101.743 31.3376 101.948 31.7016L103.69 30.719C103.713 30.7596 103.713 30.7763 103.707 30.7476C103.701 30.7198 103.694 30.6644 103.694 30.5739H101.694ZM101.964 31.7281C102.152 32.0386 102.432 32.2992 102.806 32.441L103.514 30.5704C103.555 30.5858 103.593 30.6088 103.625 30.6364C103.656 30.6631 103.671 30.6857 103.675 30.6925L101.964 31.7281ZM102.806 32.441C103.074 32.5423 103.351 32.5853 103.626 32.5853V30.5853C103.56 30.5853 103.527 30.5752 103.514 30.5704L102.806 32.441ZM103.626 32.5853C103.803 32.5853 103.98 32.5724 104.154 32.5413L103.803 30.5724C103.765 30.5792 103.707 30.5853 103.626 30.5853V32.5853ZM104.148 32.5423C104.267 32.5219 104.385 32.4989 104.486 32.472L103.971 30.5395C103.958 30.5429 103.91 30.5539 103.809 30.5714L104.148 32.5423ZM103.251 31.7164L103.598 33.3244L105.553 32.903L105.206 31.295L103.251 31.7164ZM104.249 32.1683C104.193 32.1878 104.078 32.2199 103.887 32.2625L104.32 34.2149C104.538 34.1666 104.738 34.1153 104.901 34.0591L104.249 32.1683ZM103.883 32.2634C103.766 32.2897 103.59 32.3121 103.339 32.3186L103.391 34.3179C103.723 34.3093 104.039 34.2785 104.324 34.214L103.883 32.2634ZM103.336 32.3187C102.94 32.3303 102.619 32.27 102.354 32.161L101.591 34.0096C102.153 34.2415 102.76 34.3365 103.394 34.3178L103.336 32.3187ZM102.362 32.164C102.124 32.0638 101.953 31.9201 101.822 31.7238L100.158 32.8332C100.512 33.3641 100.996 33.7582 101.584 34.0066L102.362 32.164ZM101.826 31.7298C101.72 31.5686 101.635 31.3201 101.638 30.9218L99.6377 30.9079C99.6328 31.6005 99.7824 32.261 100.154 32.8271L101.826 31.7298ZM101.638 30.9148V22.3807H99.6376V30.9148H101.638ZM107.639 32.8239L107.137 33.6887L107.143 33.6922L107.639 32.8239ZM106.179 31.2671L105.286 31.7183L105.287 31.7203L106.179 31.2671ZM106.179 26.5228L105.286 26.0716L105.285 26.0736L106.179 26.5228ZM107.622 24.9319L108.145 25.7843L108.149 25.7819L107.622 24.9319ZM111.321 24.6194L110.978 25.5588L110.987 25.5619L111.321 24.6194ZM112.594 25.4148L111.894 26.1293L111.898 26.1328L112.594 25.4148ZM113.469 26.7898L112.534 27.1458L112.535 27.1479L113.469 26.7898ZM113.787 29.3978V30.3978H114.787V29.3978H113.787ZM106.633 29.3978H105.633V30.3978H106.633V29.3978ZM106.633 28.0114V27.0114H105.633V28.0114H106.633ZM111.815 28.0114V29.0114H112.825L112.815 28.0018L111.815 28.0114ZM111.56 26.9603L110.678 27.4331L110.681 27.4376L111.56 26.9603ZM110.861 26.2273L110.345 27.0839L110.349 27.0867L110.861 26.2273ZM108.719 26.2671L109.252 27.1129L109.259 27.1083L108.719 26.2671ZM107.974 27.0625L107.094 26.5872L107.092 26.5909L107.974 27.0625ZM107.707 28.1364L106.707 28.1267V28.1364H107.707ZM107.986 30.6535L107.095 31.1081L107.097 31.1119L107.986 30.6535ZM108.764 31.483L108.263 32.3482L108.27 32.3525L108.764 31.483ZM110.747 31.6421L111.072 32.5879L111.085 32.5832L110.747 31.6421ZM111.378 31.2614L110.694 30.5314L111.378 31.2614ZM111.781 30.6421L111.893 29.6484L111.114 29.5608L110.843 30.2957L111.781 30.6421ZM113.702 30.858L114.674 31.0903L114.937 29.9906L113.813 29.8643L113.702 30.858ZM113.008 32.1875L112.265 31.5186L112.265 31.519L113.008 32.1875ZM111.713 33.0625L112.075 33.9947L112.081 33.9924L111.713 33.0625ZM109.906 32.3694C109.171 32.3694 108.594 32.2176 108.135 31.9557L107.143 33.6922C107.957 34.1575 108.891 34.3694 109.906 34.3694V32.3694ZM108.141 31.9592C107.68 31.6914 107.326 31.3176 107.07 30.8138L105.287 31.7203C105.713 32.5575 106.333 33.2216 107.137 33.6886L108.141 31.9592ZM107.071 30.8159C106.814 30.3077 106.667 29.6748 106.667 28.8864H104.667C104.667 29.9238 104.862 30.878 105.286 31.7183L107.071 30.8159ZM106.667 28.8864C106.667 28.1163 106.813 27.4873 107.072 26.972L105.285 26.0736C104.863 26.9143 104.667 27.8611 104.667 28.8864H106.667ZM107.071 26.974C107.337 26.4481 107.694 26.0607 108.145 25.7842L107.099 24.0795C106.315 24.5606 105.71 25.2339 105.286 26.0716L107.071 26.974ZM108.149 25.7819C108.586 25.5111 109.123 25.358 109.798 25.358V23.358C108.807 23.358 107.893 23.5875 107.095 24.0818L108.149 25.7819ZM109.798 25.358C110.226 25.358 110.617 25.4269 110.978 25.5587L111.664 23.68C111.07 23.4633 110.446 23.358 109.798 23.358V25.358ZM110.987 25.5619C111.33 25.6835 111.63 25.8703 111.894 26.1293L113.293 24.7004C112.823 24.2396 112.274 23.8962 111.655 23.6768L110.987 25.5619ZM111.898 26.1328C112.149 26.3765 112.366 26.7049 112.534 27.1458L114.403 26.4338C114.147 25.7611 113.781 25.1729 113.29 24.6968L111.898 26.1328ZM112.535 27.1479C112.692 27.5587 112.787 28.0904 112.787 28.7671H114.787C114.787 27.9135 114.669 27.127 114.402 26.4317L112.535 27.1479ZM112.787 28.7671V29.3978H114.787V28.7671H112.787ZM113.787 28.3978H106.633V30.3978H113.787V28.3978ZM107.633 29.3978V28.0114H105.633V29.3978H107.633ZM106.633 29.0114H111.815V27.0114H106.633V29.0114ZM112.815 28.0018C112.81 27.4656 112.692 26.951 112.438 26.4829L110.681 27.4376C110.76 27.5832 110.813 27.7693 110.815 28.021L112.815 28.0018ZM112.441 26.4875C112.189 26.0189 111.829 25.64 111.372 25.3679L110.349 27.0867C110.49 27.1707 110.596 27.2805 110.678 27.4331L112.441 26.4875ZM111.377 25.3708C110.904 25.0862 110.376 24.9603 109.827 24.9603V26.9603C110.065 26.9603 110.226 27.0124 110.345 27.0838L111.377 25.3708ZM109.827 24.9603C109.236 24.9603 108.675 25.1063 108.178 25.4259L109.259 27.1083C109.399 27.0188 109.576 26.9603 109.827 26.9603V24.9603ZM108.185 25.4214C107.722 25.7134 107.355 26.1058 107.094 26.5872L108.854 27.5379C108.95 27.3602 109.079 27.2223 109.252 27.1128L108.185 25.4214ZM107.092 26.5909C106.838 27.0669 106.713 27.5846 106.707 28.1267L108.707 28.1461C108.709 27.9079 108.762 27.7098 108.856 27.5342L107.092 26.5909ZM106.707 28.1364V29.3466H108.707V28.1364H106.707ZM106.707 29.3466C106.707 29.9746 106.822 30.5736 107.095 31.1081L108.876 30.1988C108.778 30.0061 108.707 29.7338 108.707 29.3466H106.707ZM107.097 31.1119C107.365 31.6324 107.755 32.0542 108.263 32.3482L109.265 30.6178C109.106 30.5254 108.977 30.3942 108.874 30.1951L107.097 31.1119ZM108.27 32.3525C108.777 32.6407 109.343 32.7671 109.935 32.7671V30.7671C109.632 30.7671 109.417 30.7041 109.258 30.6135L108.27 32.3525ZM109.935 32.7671C110.326 32.7671 110.709 32.7125 111.072 32.5878L110.422 30.6964C110.3 30.7383 110.141 30.7671 109.935 30.7671V32.7671ZM111.085 32.5832C111.449 32.4526 111.778 32.2564 112.061 31.9914L110.694 30.5314C110.621 30.5997 110.53 30.6574 110.409 30.701L111.085 32.5832ZM112.061 31.9914C112.361 31.7105 112.579 31.3693 112.719 30.9885L110.843 30.2957C110.802 30.4073 110.75 30.479 110.694 30.5314L112.061 31.9914ZM111.669 31.6358L113.59 31.8517L113.813 29.8643L111.893 29.6484L111.669 31.6358ZM112.729 30.6257C112.646 30.9749 112.492 31.267 112.265 31.5186L113.752 32.8565C114.207 32.3505 114.515 31.7562 114.674 31.0903L112.729 30.6257ZM112.265 31.519C112.043 31.7656 111.746 31.9742 111.345 32.1327L112.081 33.9924C112.733 33.7342 113.299 33.3595 113.752 32.8561L112.265 31.519ZM111.351 32.1304C110.96 32.2821 110.484 32.3694 109.906 32.3694V34.3694C110.684 34.3694 111.412 34.2521 112.075 33.9947L111.351 32.1304ZM116.925 32.8239L116.379 33.6622L116.925 32.8239ZM115.64 31.2898L116.546 30.8653L115.64 31.2898ZM115.646 26.3921L114.745 25.9592L114.744 25.9614L115.646 26.3921ZM116.947 24.875L117.477 25.7231L117.482 25.7204L116.947 24.875ZM120.033 24.6194L119.565 25.5034L119.573 25.5076L120.033 24.6194ZM120.817 25.2387L120.035 25.8619L120.039 25.8679L120.817 25.2387ZM121.265 25.9148L120.371 26.362L120.647 26.9148H121.265V25.9148ZM121.351 25.9148V26.9148H122.351V25.9148H121.351ZM121.351 21.5625V20.5625H120.351V21.5625H121.351ZM123.413 21.5625H124.413V20.5625H123.413V21.5625ZM123.413 33.1989V34.1989H124.413V33.1989H123.413ZM121.39 33.1989H120.39V34.1989H121.39V33.1989ZM121.39 31.8239H122.39V30.8239H121.39V31.8239ZM121.265 31.8239V30.8239H120.647L120.371 31.3767L121.265 31.8239ZM120.805 32.5L121.565 33.1499L121.57 33.1438L120.805 32.5ZM120.01 33.1023L120.461 33.9947V33.9947L120.01 33.1023ZM120.453 31.3125L121.061 32.1067L121.067 32.1019L120.453 31.3125ZM121.152 30.3182L120.216 29.9671L121.152 30.3182ZM121.152 27.3637L120.215 27.713L120.218 27.7204L121.152 27.3637ZM120.459 26.3921L119.852 27.1873L119.857 27.1909L120.459 26.3921ZM118.192 26.4035L117.578 25.6141V25.6141L118.192 26.4035ZM117.498 27.3921L116.56 27.0456L117.498 27.3921ZM117.498 30.2955L116.558 30.6366L116.562 30.6466L117.498 30.2955ZM118.197 31.3012L117.571 32.0812L117.582 32.0895L118.197 31.3012ZM118.765 32.3523C118.261 32.3523 117.839 32.2258 117.47 31.9856L116.379 33.6622C117.093 34.1266 117.899 34.3523 118.765 34.3523V32.3523ZM117.47 31.9856C117.106 31.7491 116.793 31.3921 116.546 30.8653L114.735 31.7144C115.117 32.5284 115.66 33.1941 116.379 33.6622L117.47 31.9856ZM116.546 30.8653C116.309 30.3607 116.169 29.6997 116.169 28.8466H114.169C114.169 29.9102 114.343 30.878 114.735 31.7144L116.546 30.8653ZM116.169 28.8466C116.169 27.9813 116.311 27.3198 116.549 26.8228L114.744 25.9614C114.344 26.7977 114.169 27.7726 114.169 28.8466H116.169ZM116.548 26.825C116.801 26.298 117.116 25.9487 117.477 25.723L116.417 24.0271C115.687 24.4833 115.136 25.1452 114.745 25.9592L116.548 26.825ZM117.482 25.7204C117.861 25.4808 118.282 25.358 118.771 25.358V23.358C117.919 23.358 117.125 23.5799 116.413 24.0297L117.482 25.7204ZM118.771 25.358C119.177 25.358 119.423 25.4283 119.565 25.5034L120.5 23.7353C119.983 23.4619 119.388 23.358 118.771 23.358V25.358ZM119.573 25.5076C119.802 25.6259 119.945 25.749 120.035 25.8619L121.599 24.6155C121.302 24.2435 120.922 23.9537 120.492 23.7312L119.573 25.5076ZM120.039 25.8679C120.2 26.0658 120.305 26.2303 120.371 26.362L122.16 25.4676C122.014 25.1751 121.82 24.8889 121.594 24.6095L120.039 25.8679ZM121.265 26.9148H121.351V24.9148H121.265V26.9148ZM122.351 25.9148V21.5625H120.351V25.9148H122.351ZM121.351 22.5625H123.413V20.5625H121.351V22.5625ZM122.413 21.5625V33.1989H124.413V21.5625H122.413ZM123.413 32.1989H121.39V34.1989H123.413V32.1989ZM122.39 33.1989V31.8239H120.39V33.1989H122.39ZM121.39 30.8239H121.265V32.8239H121.39V30.8239ZM120.371 31.3767C120.309 31.5004 120.205 31.6602 120.04 31.8563L121.57 33.1438C121.807 32.8626 122.01 32.5716 122.16 32.2711L120.371 31.3767ZM120.045 31.8503C119.945 31.9671 119.793 32.0915 119.558 32.21L120.461 33.9947C120.886 33.7798 121.264 33.5027 121.565 33.1498L120.045 31.8503ZM119.558 32.21C119.409 32.2854 119.161 32.3523 118.765 32.3523V34.3523C119.369 34.3523 119.951 34.2526 120.461 33.9947L119.558 32.21ZM119.339 32.6648C119.965 32.6648 120.557 32.4919 121.061 32.1066L119.845 30.5185C119.735 30.6029 119.585 30.6648 119.339 30.6648V32.6648ZM121.067 32.1019C121.542 31.7321 121.875 31.2375 122.088 30.6694L120.216 29.9671C120.11 30.2474 119.977 30.4157 119.839 30.5232L121.067 32.1019ZM122.088 30.6694C122.298 30.109 122.39 29.4912 122.39 28.8353H120.39C120.39 29.3081 120.324 29.6789 120.216 29.9671L122.088 30.6694ZM122.39 28.8353C122.39 28.18 122.298 27.5633 122.086 27.007L120.218 27.7204C120.323 27.9974 120.39 28.3618 120.39 28.8353H122.39ZM122.089 27.0144C121.878 26.4478 121.542 25.9563 121.06 25.5933L119.857 27.1909C119.989 27.29 120.115 27.4463 120.215 27.7129L122.089 27.0144ZM121.065 25.5969C120.56 25.2121 119.964 25.0455 119.339 25.0455V27.0455C119.601 27.0455 119.751 27.11 119.852 27.1873L121.065 25.5969ZM119.339 25.0455C118.7 25.0455 118.09 25.2155 117.578 25.6141L118.806 27.1928C118.907 27.1141 119.062 27.0455 119.339 27.0455V25.0455ZM117.578 25.6141C117.102 25.9839 116.77 26.4775 116.56 27.0456L118.436 27.7386C118.537 27.4658 118.667 27.3003 118.806 27.1928L117.578 25.6141ZM116.56 27.0456C116.357 27.5974 116.265 28.1993 116.265 28.8353H118.265C118.265 28.3879 118.33 28.0277 118.436 27.7386L116.56 27.0456ZM116.265 28.8353C116.265 29.4747 116.356 30.08 116.558 30.6366L118.438 29.9544C118.33 29.655 118.265 29.2868 118.265 28.8353H116.265ZM116.562 30.6466C116.775 31.2132 117.104 31.7063 117.571 32.0811L118.823 30.5213C118.677 30.4037 118.54 30.2263 118.435 29.9444L116.562 30.6466ZM117.582 32.0895C118.093 32.4885 118.699 32.6648 119.339 32.6648V30.6648C119.078 30.6648 118.923 30.5987 118.813 30.5129L117.582 32.0895Z" fill="black" mask="url(#path-3-outside-1_0_706)"/>
</g>
<defs>
<filter id="filter0_d_0_706" x="0" y="0" width="160" height="62" filterUnits="userSpaceOnUse" color-interpolation-filters="sRGB">
<feFlood flood-opacity="0" result="BackgroundImageFix"/>
<feColorMatrix in="SourceAlpha" type="matrix" values="0 0 0 0 0 0 0 0 0 0 0 0 0 0 0 0 0 0 127 0" result="hardAlpha"/>
<feOffset dy="4"/>
<feGaussianBlur stdDeviation="2"/>
<feComposite in2="hardAlpha" operator="out"/>
<feColorMatrix type="matrix" values="0 0 0 0 0 0 0 0 0 0 0 0 0 0 0 0 0 0 0.25 0"/>
<feBlend mode="normal" in2="BackgroundImageFix" result="effect1_dropShadow_0_706"/>
<feBlend mode="normal" in="SourceGraphic" in2="effect1_dropShadow_0_706" result="shape"/>
</filter>
<filter id="filter1_d_0_706" x="0" y="0" width="160" height="62" filterUnits="userSpaceOnUse" color-interpolation-filters="sRGB">
<feFlood flood-opacity="0" result="BackgroundImageFix"/>
<feColorMatrix in="SourceAlpha" type="matrix" values="0 0 0 0 0 0 0 0 0 0 0 0 0 0 0 0 0 0 127 0" result="hardAlpha"/>
<feOffset dy="4"/>
<feGaussianBlur stdDeviation="2"/>
<feComposite in2="hardAlpha" operator="out"/>
<feColorMatrix type="matrix" values="0 0 0 0 0 0 0 0 0 0 0 0 0 0 0 0 0 0 0.25 0"/>
<feBlend mode="normal" in2="BackgroundImageFix" result="effect1_dropShadow_0_706"/>
<feBlend mode="normal" in="SourceGraphic" in2="effect1_dropShadow_0_706" result="shape"/>
</filter>
</defs>
</svg>
