<svg width="195" height="66" viewBox="0 0 195 66" fill="none" xmlns="http://www.w3.org/2000/svg">
<g filter="url(#filter0_d_890_1320)">
<path d="M4.5 10C4.5 4.75329 8.75329 0.5 14 0.5H181C186.247 0.5 190.5 4.75329 190.5 10V48C190.5 53.2467 186.247 57.5 181 57.5H14C8.75329 57.5 4.5 53.2467 4.5 48V10Z" stroke="#CACACA"/>
<path d="M9 11C9 7.13401 12.134 4 16 4H50C53.866 4 57 7.13401 57 11V47C57 50.866 53.866 54 50 54H16C12.134 54 9 50.866 9 47V11Z" fill="#F5EFE5"/>
<path d="M66.4091 23.3636H68.0909L72.0455 33.0227H72.1818L76.1364 23.3636H77.8182V35H76.5V26.1591H76.3864L72.75 35H71.4773L67.8409 26.1591H67.7273V35H66.4091V23.3636ZM83.0298 35.2045C82.4768 35.2045 81.9749 35.1004 81.5241 34.892C81.0734 34.6799 80.7154 34.375 80.4503 33.9773C80.1851 33.5758 80.0526 33.0909 80.0526 32.5227C80.0526 32.0227 80.151 31.6174 80.348 31.3068C80.545 30.9924 80.8082 30.7462 81.1378 30.5682C81.4673 30.3902 81.831 30.2576 82.2287 30.1705C82.6302 30.0795 83.0336 30.0076 83.4389 29.9545C83.9692 29.8864 84.3991 29.8352 84.7287 29.8011C85.062 29.7633 85.3045 29.7008 85.456 29.6136C85.6113 29.5265 85.6889 29.375 85.6889 29.1591V29.1136C85.6889 28.553 85.5355 28.1174 85.2287 27.8068C84.9257 27.4962 84.4654 27.3409 83.848 27.3409C83.2079 27.3409 82.706 27.4811 82.3423 27.7614C81.9787 28.0417 81.723 28.3409 81.5753 28.6591L80.3026 28.2045C80.5298 27.6742 80.8329 27.2614 81.2116 26.9659C81.5942 26.6667 82.0109 26.4583 82.4616 26.3409C82.9162 26.2197 83.3632 26.1591 83.8026 26.1591C84.0829 26.1591 84.4048 26.1932 84.7685 26.2614C85.1359 26.3258 85.4901 26.4602 85.831 26.6648C86.1757 26.8693 86.4616 27.178 86.6889 27.5909C86.9162 28.0038 87.0298 28.5568 87.0298 29.25V35H85.6889V33.8182H85.6207C85.5298 34.0076 85.3783 34.2102 85.1662 34.4261C84.9541 34.642 84.6719 34.8258 84.3196 34.9773C83.9673 35.1288 83.5374 35.2045 83.0298 35.2045ZM83.2344 34C83.7647 34 84.2116 33.8958 84.5753 33.6875C84.9427 33.4792 85.2192 33.2102 85.4048 32.8807C85.5942 32.5511 85.6889 32.2045 85.6889 31.8409V30.6136C85.6321 30.6818 85.5071 30.7443 85.3139 30.8011C85.1245 30.8542 84.9048 30.9015 84.6548 30.9432C84.4086 30.9811 84.1681 31.0152 83.9332 31.0455C83.7022 31.072 83.5147 31.0947 83.3707 31.1136C83.0223 31.1591 82.6965 31.233 82.3935 31.3352C82.0942 31.4337 81.8518 31.5833 81.6662 31.7841C81.4844 31.9811 81.3935 32.25 81.3935 32.5909C81.3935 33.0568 81.5658 33.4091 81.9105 33.6477C82.259 33.8826 82.7003 34 83.2344 34ZM93.2727 26.2727V27.4091H88.75V26.2727H93.2727ZM90.0682 24.1818H91.4091V32.5C91.4091 32.8788 91.464 33.1629 91.5739 33.3523C91.6875 33.5379 91.8314 33.6629 92.0057 33.7273C92.1837 33.7879 92.3712 33.8182 92.5682 33.8182C92.7159 33.8182 92.8371 33.8106 92.9318 33.7955C93.0265 33.7765 93.1023 33.7614 93.1591 33.75L93.4318 34.9545C93.3409 34.9886 93.214 35.0227 93.0511 35.0568C92.8883 35.0947 92.6818 35.1136 92.4318 35.1136C92.053 35.1136 91.6818 35.0322 91.3182 34.8693C90.9583 34.7064 90.6591 34.4583 90.4205 34.125C90.1856 33.7917 90.0682 33.3712 90.0682 32.8636V24.1818ZM98.8551 35.1818C98.0142 35.1818 97.2888 34.9962 96.679 34.625C96.0729 34.25 95.6051 33.7273 95.2756 33.0568C94.9498 32.3826 94.7869 31.5985 94.7869 30.7045C94.7869 29.8106 94.9498 29.0227 95.2756 28.3409C95.6051 27.6553 96.0634 27.1212 96.6506 26.7386C97.2415 26.3523 97.9309 26.1591 98.7188 26.1591C99.1733 26.1591 99.6222 26.2348 100.065 26.3864C100.509 26.5379 100.912 26.7841 101.276 27.125C101.639 27.4621 101.929 27.9091 102.145 28.4659C102.361 29.0227 102.469 29.7083 102.469 30.5227V31.0909H95.7415V29.9318H101.105C101.105 29.4394 101.007 29 100.81 28.6136C100.616 28.2273 100.34 27.9223 99.9801 27.6989C99.6241 27.4754 99.2036 27.3636 98.7188 27.3636C98.1847 27.3636 97.7225 27.4962 97.3324 27.7614C96.946 28.0227 96.6487 28.3636 96.4403 28.7841C96.232 29.2045 96.1278 29.6553 96.1278 30.1364V30.9091C96.1278 31.5682 96.2415 32.1269 96.4688 32.5852C96.6998 33.0398 97.0199 33.3864 97.429 33.625C97.8381 33.8598 98.3134 33.9773 98.8551 33.9773C99.2074 33.9773 99.5256 33.928 99.8097 33.8295C100.098 33.7273 100.346 33.5758 100.554 33.375C100.762 33.1705 100.923 32.9167 101.037 32.6136L102.332 32.9773C102.196 33.4167 101.967 33.803 101.645 34.1364C101.323 34.4659 100.925 34.7235 100.452 34.9091C99.9782 35.0909 99.446 35.1818 98.8551 35.1818ZM104.509 35V26.2727H105.804V27.5909H105.895C106.054 27.1591 106.342 26.8087 106.759 26.5398C107.175 26.2708 107.645 26.1364 108.168 26.1364C108.266 26.1364 108.389 26.1383 108.537 26.142C108.685 26.1458 108.796 26.1515 108.872 26.1591V27.5227C108.827 27.5114 108.723 27.4943 108.56 27.4716C108.401 27.4451 108.232 27.4318 108.054 27.4318C107.63 27.4318 107.251 27.5208 106.918 27.6989C106.588 27.8731 106.327 28.1155 106.134 28.4261C105.944 28.733 105.849 29.0833 105.849 29.4773V35H104.509ZM110.462 35V26.2727H111.803V35H110.462ZM111.143 24.8182C110.882 24.8182 110.657 24.7292 110.467 24.5511C110.282 24.3731 110.189 24.1591 110.189 23.9091C110.189 23.6591 110.282 23.4451 110.467 23.267C110.657 23.089 110.882 23 111.143 23C111.405 23 111.628 23.089 111.814 23.267C112.003 23.4451 112.098 23.6591 112.098 23.9091C112.098 24.1591 112.003 24.3731 111.814 24.5511C111.628 24.7292 111.405 24.8182 111.143 24.8182ZM116.827 35.2045C116.274 35.2045 115.772 35.1004 115.321 34.892C114.87 34.6799 114.512 34.375 114.247 33.9773C113.982 33.5758 113.849 33.0909 113.849 32.5227C113.849 32.0227 113.948 31.6174 114.145 31.3068C114.342 30.9924 114.605 30.7462 114.935 30.5682C115.264 30.3902 115.628 30.2576 116.026 30.1705C116.427 30.0795 116.83 30.0076 117.236 29.9545C117.766 29.8864 118.196 29.8352 118.526 29.8011C118.859 29.7633 119.101 29.7008 119.253 29.6136C119.408 29.5265 119.486 29.375 119.486 29.1591V29.1136C119.486 28.553 119.332 28.1174 119.026 27.8068C118.723 27.4962 118.262 27.3409 117.645 27.3409C117.005 27.3409 116.503 27.4811 116.139 27.7614C115.776 28.0417 115.52 28.3409 115.372 28.6591L114.099 28.2045C114.327 27.6742 114.63 27.2614 115.009 26.9659C115.391 26.6667 115.808 26.4583 116.259 26.3409C116.713 26.2197 117.16 26.1591 117.599 26.1591C117.88 26.1591 118.202 26.1932 118.565 26.2614C118.933 26.3258 119.287 26.4602 119.628 26.6648C119.973 26.8693 120.259 27.178 120.486 27.5909C120.713 28.0038 120.827 28.5568 120.827 29.25V35H119.486V33.8182H119.418C119.327 34.0076 119.175 34.2102 118.963 34.4261C118.751 34.642 118.469 34.8258 118.116 34.9773C117.764 35.1288 117.334 35.2045 116.827 35.2045ZM117.031 34C117.562 34 118.009 33.8958 118.372 33.6875C118.74 33.4792 119.016 33.2102 119.202 32.8807C119.391 32.5511 119.486 32.2045 119.486 31.8409V30.6136C119.429 30.6818 119.304 30.7443 119.111 30.8011C118.921 30.8542 118.702 30.9015 118.452 30.9432C118.205 30.9811 117.965 31.0152 117.73 31.0455C117.499 31.072 117.312 31.0947 117.168 31.1136C116.819 31.1591 116.493 31.233 116.19 31.3352C115.891 31.4337 115.649 31.5833 115.463 31.7841C115.281 31.9811 115.19 32.25 115.19 32.5909C115.19 33.0568 115.363 33.4091 115.707 33.6477C116.056 33.8826 116.497 34 117.031 34ZM124.615 23.3636V35H123.274V23.3636H124.615ZM133.253 28.2273L132.048 28.5682C131.973 28.3674 131.861 28.1723 131.713 27.983C131.569 27.7898 131.372 27.6307 131.122 27.5057C130.872 27.3807 130.552 27.3182 130.162 27.3182C129.628 27.3182 129.183 27.4413 128.827 27.6875C128.474 27.9299 128.298 28.2386 128.298 28.6136C128.298 28.947 128.42 29.2102 128.662 29.4034C128.904 29.5966 129.283 29.7576 129.798 29.8864L131.094 30.2045C131.874 30.3939 132.455 30.6837 132.838 31.0739C133.221 31.4602 133.412 31.9583 133.412 32.5682C133.412 33.0682 133.268 33.5152 132.98 33.9091C132.696 34.303 132.298 34.6136 131.787 34.8409C131.276 35.0682 130.681 35.1818 130.003 35.1818C129.113 35.1818 128.376 34.9886 127.793 34.6023C127.209 34.2159 126.84 33.6515 126.685 32.9091L127.957 32.5909C128.079 33.0606 128.308 33.4129 128.645 33.6477C128.986 33.8826 129.431 34 129.98 34C130.605 34 131.101 33.8674 131.469 33.6023C131.84 33.3333 132.026 33.0114 132.026 32.6364C132.026 32.3333 131.92 32.0795 131.707 31.875C131.495 31.6667 131.17 31.5114 130.73 31.4091L129.276 31.0682C128.476 30.8788 127.889 30.5852 127.514 30.1875C127.143 29.786 126.957 29.2841 126.957 28.6818C126.957 28.1894 127.096 27.7538 127.372 27.375C127.652 26.9962 128.033 26.6989 128.514 26.483C128.999 26.267 129.548 26.1591 130.162 26.1591C131.026 26.1591 131.704 26.3485 132.196 26.7273C132.692 27.1061 133.045 27.6061 133.253 28.2273Z" fill="black"/>
<path d="M24 22V36C24 38.201 25.794 39 27 39H42V37H27.012C26.55 36.988 26 36.806 26 36C26 35.194 26.55 35.012 27.012 35H42V21C42 19.897 41.103 19 40 19H27C25.794 19 24 19.799 24 22Z" fill="#543200"/>
</g>
<defs>
<filter id="filter0_d_890_1320" x="0" y="0" width="195" height="66" filterUnits="userSpaceOnUse" color-interpolation-filters="sRGB">
<feFlood flood-opacity="0" result="BackgroundImageFix"/>
<feColorMatrix in="SourceAlpha" type="matrix" values="0 0 0 0 0 0 0 0 0 0 0 0 0 0 0 0 0 0 127 0" result="hardAlpha"/>
<feOffset dy="4"/>
<feGaussianBlur stdDeviation="2"/>
<feComposite in2="hardAlpha" operator="out"/>
<feColorMatrix type="matrix" values="0 0 0 0 0 0 0 0 0 0 0 0 0 0 0 0 0 0 0.25 0"/>
<feBlend mode="normal" in2="BackgroundImageFix" result="effect1_dropShadow_890_1320"/>
<feBlend mode="normal" in="SourceGraphic" in2="effect1_dropShadow_890_1320" result="shape"/>
</filter>
</defs>
</svg>
