<svg width="85" height="151" viewBox="0 0 85 151" fill="none" xmlns="http://www.w3.org/2000/svg">
<rect width="85" height="151" rx="10" fill="#2F3FFF"/>
<circle cx="42.5" cy="39.5" r="28.5" fill="white"/>
<path d="M39.4215 24.0094C39.248 24.0352 39.0823 24.0989 38.9361 24.1959C38.9361 24.1959 37.4236 25.1476 35.7975 26.1771C34.1715 27.2053 32.3625 28.3388 31.9488 28.5684C31.9232 28.5794 31.8981 28.5914 31.8734 28.6042C30.3717 29.5309 30.0596 31.0445 30.0058 31.8935C30.0023 31.9329 30.0058 31.9652 30.0058 32.007C29.9927 32.3251 30.0058 32.5295 30.0058 32.5295V48.1482C30.0058 50.4176 32.6518 51.5092 35.1627 51.5092C35.9996 51.5092 36.8366 51.3741 37.5539 51.135C38.0322 50.8958 38.3753 50.4176 38.3753 49.9393V37.385C38.3753 34.6351 38.9732 33.3438 40.7666 32.2677C41.2449 32.0286 46.2594 28.5672 46.2594 28.5672C46.4986 28.328 46.7449 27.8426 46.7449 27.4839V27.3715C46.7449 26.8933 46.5057 26.5274 46.147 26.2883C45.7883 26.0492 45.3101 26.0492 44.9514 26.2883C44.8318 26.4078 37.5384 31.3184 35.9841 32.1553C34.4297 33.1118 32.9794 33.3426 32.6207 32.8643C32.5095 32.7531 32.4127 32.4124 32.3971 32.08V32.0047C32.3983 31.6794 32.482 31.0673 33.1444 30.6596C33.8164 30.2853 35.4843 29.22 37.1056 28.1941C37.7907 27.7601 37.8756 27.7135 38.4124 27.3715C38.4831 27.6636 38.6612 27.9184 38.9112 28.0851C39.1612 28.2518 39.4648 28.3183 39.7617 28.2713C40.0585 28.2242 40.3267 28.0672 40.5129 27.8313C40.6991 27.5955 40.7897 27.2981 40.7666 26.9985V25.205C40.768 25.0346 40.7329 24.8659 40.6637 24.7101C40.5944 24.5544 40.4927 24.4152 40.3654 24.302C40.238 24.1888 40.0879 24.1041 39.9251 24.0536C39.7623 24.0032 39.5906 23.9881 39.4215 24.0094ZM48.9867 28.1941C48.7966 28.2258 48.6169 28.3029 48.463 28.4189C48.463 28.4189 42.4441 32.4686 41.4015 33.1632C41.3889 33.1757 41.3765 33.1885 41.3645 33.2015C40.4988 33.8507 39.9859 34.6231 39.7575 35.3297C39.6296 35.7284 39.5666 36.145 39.571 36.5636V36.9379C39.5693 36.9749 39.5693 37.012 39.571 37.0491V51.5092C39.571 53.7809 42.1871 55.0961 44.5783 55.0961C45.6544 55.0961 46.6253 54.8642 47.3427 54.3859C48.7774 53.549 55.7122 48.147 55.7122 48.147C56.0709 47.9079 56.31 47.5707 56.31 47.212V31.6687C56.31 31.0709 56.078 30.7122 55.5998 30.473C55.2411 30.2339 54.6516 30.3463 54.2929 30.5854C52.3799 32.0202 47.2303 36.071 46.0346 36.7884C44.3607 37.7449 42.7837 37.9841 42.1859 37.3862C41.9467 37.1471 41.9623 36.9223 41.9623 36.5636C41.9695 36.358 41.9922 36.181 42.0376 36.0399C42.1046 35.8319 42.2409 35.576 42.7466 35.1815C42.7705 35.1623 42.7586 35.1635 42.7837 35.1444C43.6481 34.5669 46.2917 32.7651 48.0158 31.5934C48.1135 31.8554 48.2999 32.0749 48.5427 32.2137C48.7855 32.3525 49.0693 32.4018 49.3446 32.3531C49.62 32.3043 49.8696 32.1606 50.0499 31.9468C50.2303 31.7331 50.33 31.4629 50.3318 31.1832V29.3898C50.3331 29.2194 50.298 29.0506 50.2288 28.8949C50.1596 28.7391 50.0579 28.6 49.9305 28.4868C49.8031 28.3735 49.653 28.2889 49.4902 28.2384C49.3275 28.1879 49.1558 28.1728 48.9867 28.1941ZM53.9187 36.9379V39.3292L47.9405 43.9611V41.5698L53.9187 36.9379Z" fill="black"/>
<path d="M26.0381 130H22.75V129.549C22.8548 129.54 22.9596 129.531 23.0645 129.521C23.1738 129.512 23.2695 129.494 23.3516 129.467C23.4792 129.426 23.5726 129.355 23.6318 129.255C23.6956 129.15 23.7275 129.016 23.7275 128.852V125.372C23.7275 124.898 23.6182 124.534 23.3994 124.278C23.1852 124.019 22.9163 123.889 22.5928 123.889C22.3695 123.889 22.1598 123.923 21.9639 123.991C21.7679 124.06 21.5879 124.155 21.4238 124.278C21.2917 124.379 21.18 124.488 21.0889 124.606C21.0023 124.72 20.9362 124.816 20.8906 124.894V128.783C20.8906 128.943 20.918 129.075 20.9727 129.18C21.0273 129.28 21.1208 129.357 21.2529 129.412C21.3577 129.453 21.4512 129.485 21.5332 129.508C21.6198 129.526 21.7314 129.54 21.8682 129.549V130H18.6484V129.549C18.7533 129.54 18.8535 129.531 18.9492 129.521C19.0495 129.512 19.1406 129.494 19.2227 129.467C19.3503 129.426 19.4437 129.355 19.5029 129.255C19.5667 129.15 19.5986 129.016 19.5986 128.852V125.372C19.5986 124.898 19.4893 124.534 19.2705 124.278C19.0563 124.019 18.7874 123.889 18.4639 123.889C18.2406 123.889 18.0309 123.925 17.835 123.998C17.639 124.066 17.459 124.162 17.2949 124.285C17.1628 124.385 17.0511 124.499 16.96 124.627C16.8688 124.75 16.8005 124.843 16.7549 124.907V128.77C16.7549 128.924 16.7868 129.054 16.8506 129.159C16.9144 129.264 17.0101 129.344 17.1377 129.398C17.2334 129.444 17.3314 129.478 17.4316 129.501C17.5319 129.524 17.6436 129.54 17.7666 129.549V130H14.4922V129.549C14.597 129.54 14.7041 129.531 14.8135 129.521C14.9274 129.512 15.0254 129.494 15.1074 129.467C15.235 129.426 15.3285 129.355 15.3877 129.255C15.4515 129.15 15.4834 129.016 15.4834 128.852V124.661C15.4834 124.515 15.4492 124.385 15.3809 124.271C15.3171 124.153 15.2259 124.053 15.1074 123.971C15.0208 123.916 14.9137 123.873 14.7861 123.841C14.6585 123.804 14.5264 123.782 14.3896 123.772V123.328L16.6455 123.178L16.7412 123.273V124.237H16.7891C16.903 124.123 17.042 123.989 17.2061 123.834C17.3701 123.679 17.5228 123.554 17.6641 123.458C17.8236 123.349 18.0218 123.257 18.2588 123.185C18.5003 123.112 18.7601 123.075 19.0381 123.075C19.4756 123.075 19.8516 123.194 20.166 123.431C20.4805 123.663 20.7061 123.946 20.8428 124.278C21.0068 124.119 21.1504 123.98 21.2734 123.861C21.401 123.738 21.5674 123.608 21.7725 123.472C21.9456 123.353 22.1484 123.257 22.3809 123.185C22.6178 123.112 22.8799 123.075 23.167 123.075C23.7367 123.075 24.1878 123.262 24.5205 123.636C24.8532 124.009 25.0195 124.584 25.0195 125.358V128.783C25.0195 128.943 25.0469 129.075 25.1016 129.18C25.1562 129.28 25.2497 129.357 25.3818 129.412C25.4867 129.453 25.5892 129.485 25.6895 129.508C25.7943 129.526 25.9105 129.54 26.0381 129.549V130ZM33.209 129.877C32.9948 129.954 32.8057 130.016 32.6416 130.062C32.4821 130.112 32.2998 130.137 32.0947 130.137C31.7393 130.137 31.4544 130.055 31.2402 129.891C31.0306 129.722 30.8962 129.478 30.8369 129.159H30.7959C30.4997 129.487 30.1807 129.738 29.8389 129.911C29.5016 130.084 29.0938 130.171 28.6152 130.171C28.1094 130.171 27.6924 130.016 27.3643 129.706C27.0407 129.396 26.8789 128.991 26.8789 128.489C26.8789 128.229 26.9154 127.997 26.9883 127.792C27.0612 127.587 27.1706 127.402 27.3164 127.238C27.4303 127.102 27.5807 126.981 27.7676 126.876C27.9544 126.767 28.1299 126.68 28.2939 126.616C28.499 126.539 28.9137 126.395 29.5381 126.186C30.167 125.976 30.5908 125.812 30.8096 125.693V125.017C30.8096 124.957 30.7959 124.843 30.7686 124.675C30.7458 124.506 30.6934 124.347 30.6113 124.196C30.5202 124.028 30.3903 123.882 30.2217 123.759C30.0576 123.631 29.8229 123.567 29.5176 123.567C29.3079 123.567 29.112 123.604 28.9297 123.677C28.752 123.745 28.6266 123.818 28.5537 123.896C28.5537 123.987 28.5742 124.121 28.6152 124.299C28.6608 124.477 28.6836 124.641 28.6836 124.791C28.6836 124.951 28.6107 125.096 28.4648 125.229C28.3236 125.361 28.1253 125.427 27.8701 125.427C27.6423 125.427 27.4736 125.347 27.3643 125.188C27.2594 125.023 27.207 124.841 27.207 124.641C27.207 124.431 27.2799 124.23 27.4258 124.039C27.5762 123.848 27.7699 123.677 28.0068 123.526C28.2119 123.399 28.4603 123.292 28.752 123.205C29.0436 123.114 29.3285 123.068 29.6064 123.068C29.9893 123.068 30.3219 123.096 30.6045 123.15C30.8916 123.201 31.1514 123.312 31.3838 123.485C31.6162 123.654 31.7917 123.884 31.9102 124.176C32.0332 124.463 32.0947 124.834 32.0947 125.29C32.0947 125.942 32.0879 126.521 32.0742 127.026C32.0605 127.528 32.0537 128.077 32.0537 128.674C32.0537 128.852 32.0833 128.993 32.1426 129.098C32.2064 129.202 32.3021 129.291 32.4297 129.364C32.498 129.405 32.6051 129.428 32.751 129.433C32.9014 129.437 33.054 129.439 33.209 129.439V129.877ZM30.8232 126.268C30.4359 126.382 30.0964 126.493 29.8047 126.603C29.513 126.712 29.2419 126.849 28.9912 127.013C28.7633 127.168 28.5833 127.352 28.4512 127.566C28.319 127.776 28.2529 128.027 28.2529 128.318C28.2529 128.697 28.3509 128.975 28.5469 129.152C28.7474 129.33 29.0003 129.419 29.3057 129.419C29.6292 129.419 29.9141 129.341 30.1602 129.187C30.4062 129.027 30.6136 128.84 30.7822 128.626L30.8232 126.268ZM38.042 129.706C37.7458 129.829 37.4655 129.932 37.2012 130.014C36.9368 130.1 36.6133 130.144 36.2305 130.144C35.6654 130.144 35.2666 130.002 35.0342 129.72C34.8063 129.433 34.6924 129.029 34.6924 128.51V123.943H33.4756V123.287H34.7197V121.188H35.9639V123.287H37.8984V123.943H35.9775V127.71C35.9775 127.993 35.9867 128.229 36.0049 128.421C36.0277 128.608 36.0778 128.772 36.1553 128.913C36.2282 129.045 36.3376 129.146 36.4834 129.214C36.6292 129.282 36.8252 129.316 37.0713 129.316C37.1852 129.316 37.3516 129.307 37.5703 129.289C37.7936 129.266 37.9508 129.239 38.042 129.207V129.706ZM44.707 128.414C44.4245 128.952 44.0462 129.38 43.5723 129.699C43.0983 130.018 42.5537 130.178 41.9385 130.178C41.3962 130.178 40.9199 130.082 40.5098 129.891C40.1042 129.699 39.7692 129.439 39.5049 129.111C39.2406 128.783 39.0423 128.4 38.9102 127.963C38.7826 127.525 38.7188 127.063 38.7188 126.575C38.7188 126.138 38.7871 125.709 38.9238 125.29C39.0651 124.866 39.2702 124.486 39.5391 124.148C39.7988 123.825 40.1201 123.565 40.5029 123.369C40.8903 123.169 41.3232 123.068 41.8018 123.068C42.2939 123.068 42.7155 123.146 43.0664 123.301C43.4173 123.456 43.7021 123.668 43.9209 123.937C44.1305 124.192 44.2855 124.493 44.3857 124.839C44.4906 125.185 44.543 125.561 44.543 125.967V126.418H40.0791C40.0791 126.86 40.1201 127.261 40.2021 127.621C40.2887 127.981 40.4232 128.298 40.6055 128.571C40.7832 128.836 41.0156 129.045 41.3027 129.2C41.5898 129.351 41.9316 129.426 42.3281 129.426C42.7337 129.426 43.0824 129.332 43.374 129.146C43.6702 128.954 43.9551 128.612 44.2285 128.12L44.707 128.414ZM43.1963 125.844C43.1963 125.589 43.1735 125.315 43.1279 125.023C43.0869 124.732 43.0186 124.488 42.9229 124.292C42.818 124.082 42.6745 123.911 42.4922 123.779C42.3099 123.647 42.0752 123.581 41.7881 123.581C41.3096 123.581 40.9108 123.782 40.5918 124.183C40.2773 124.579 40.1064 125.133 40.0791 125.844H43.1963ZM50.6475 124.128C50.6475 124.36 50.5905 124.568 50.4766 124.75C50.3626 124.928 50.1872 125.017 49.9502 125.017C49.695 125.017 49.499 124.951 49.3623 124.818C49.2301 124.686 49.1641 124.54 49.1641 124.381C49.1641 124.281 49.1709 124.189 49.1846 124.107C49.2028 124.025 49.2188 123.943 49.2324 123.861C49.0182 123.861 48.7676 123.948 48.4805 124.121C48.1934 124.294 47.9495 124.54 47.749 124.859V128.783C47.749 128.943 47.7786 129.073 47.8379 129.173C47.9017 129.273 47.9997 129.348 48.1318 129.398C48.2458 129.444 48.3916 129.478 48.5693 129.501C48.7516 129.524 48.9089 129.54 49.041 129.549V130H45.4863V129.549C45.5911 129.54 45.6982 129.531 45.8076 129.521C45.9215 129.512 46.0195 129.494 46.1016 129.467C46.2292 129.426 46.3226 129.355 46.3818 129.255C46.4456 129.15 46.4775 129.016 46.4775 128.852V124.688C46.4775 124.547 46.4434 124.408 46.375 124.271C46.3112 124.135 46.2201 124.025 46.1016 123.943C46.015 123.889 45.9124 123.85 45.7939 123.827C45.6755 123.8 45.5479 123.782 45.4111 123.772V123.328L47.6533 123.178L47.749 123.273V124.224H47.7832C48.0658 123.854 48.3802 123.574 48.7266 123.383C49.0729 123.191 49.3896 123.096 49.6768 123.096C49.9639 123.096 50.1963 123.189 50.374 123.376C50.5563 123.563 50.6475 123.813 50.6475 124.128ZM54.5029 130H51.2422V129.549C51.347 129.54 51.4541 129.531 51.5635 129.521C51.6774 129.512 51.7754 129.494 51.8574 129.467C51.985 129.426 52.0785 129.355 52.1377 129.255C52.2015 129.15 52.2334 129.016 52.2334 128.852V124.688C52.2334 124.543 52.1992 124.41 52.1309 124.292C52.0671 124.169 51.9759 124.066 51.8574 123.984C51.7708 123.93 51.6455 123.884 51.4814 123.848C51.3174 123.807 51.167 123.782 51.0303 123.772V123.328L53.4092 123.178L53.5049 123.273V128.77C53.5049 128.929 53.5345 129.061 53.5938 129.166C53.6576 129.271 53.7555 129.348 53.8877 129.398C53.988 129.439 54.0859 129.474 54.1816 129.501C54.2773 129.524 54.3844 129.54 54.5029 129.549V130ZM53.6416 120.519C53.6416 120.778 53.555 121.006 53.3818 121.202C53.2132 121.394 53.0036 121.489 52.7529 121.489C52.5205 121.489 52.3177 121.398 52.1445 121.216C51.9759 121.029 51.8916 120.817 51.8916 120.58C51.8916 120.329 51.9759 120.111 52.1445 119.924C52.3177 119.737 52.5205 119.644 52.7529 119.644C53.0127 119.644 53.2246 119.732 53.3887 119.91C53.5573 120.083 53.6416 120.286 53.6416 120.519ZM61.7148 129.877C61.5007 129.954 61.3115 130.016 61.1475 130.062C60.988 130.112 60.8057 130.137 60.6006 130.137C60.2451 130.137 59.9603 130.055 59.7461 129.891C59.5365 129.722 59.402 129.478 59.3428 129.159H59.3018C59.0055 129.487 58.6865 129.738 58.3447 129.911C58.0075 130.084 57.5996 130.171 57.1211 130.171C56.6152 130.171 56.1982 130.016 55.8701 129.706C55.5465 129.396 55.3848 128.991 55.3848 128.489C55.3848 128.229 55.4212 127.997 55.4941 127.792C55.5671 127.587 55.6764 127.402 55.8223 127.238C55.9362 127.102 56.0866 126.981 56.2734 126.876C56.4603 126.767 56.6357 126.68 56.7998 126.616C57.0049 126.539 57.4196 126.395 58.0439 126.186C58.6729 125.976 59.0967 125.812 59.3154 125.693V125.017C59.3154 124.957 59.3018 124.843 59.2744 124.675C59.2516 124.506 59.1992 124.347 59.1172 124.196C59.026 124.028 58.8962 123.882 58.7275 123.759C58.5635 123.631 58.3288 123.567 58.0234 123.567C57.8138 123.567 57.6178 123.604 57.4355 123.677C57.2578 123.745 57.1325 123.818 57.0596 123.896C57.0596 123.987 57.0801 124.121 57.1211 124.299C57.1667 124.477 57.1895 124.641 57.1895 124.791C57.1895 124.951 57.1165 125.096 56.9707 125.229C56.8294 125.361 56.6312 125.427 56.376 125.427C56.1481 125.427 55.9795 125.347 55.8701 125.188C55.7653 125.023 55.7129 124.841 55.7129 124.641C55.7129 124.431 55.7858 124.23 55.9316 124.039C56.082 123.848 56.2757 123.677 56.5127 123.526C56.7178 123.399 56.9661 123.292 57.2578 123.205C57.5495 123.114 57.8343 123.068 58.1123 123.068C58.4951 123.068 58.8278 123.096 59.1104 123.15C59.3975 123.201 59.6572 123.312 59.8896 123.485C60.1221 123.654 60.2975 123.884 60.416 124.176C60.5391 124.463 60.6006 124.834 60.6006 125.29C60.6006 125.942 60.5938 126.521 60.5801 127.026C60.5664 127.528 60.5596 128.077 60.5596 128.674C60.5596 128.852 60.5892 128.993 60.6484 129.098C60.7122 129.202 60.8079 129.291 60.9355 129.364C61.0039 129.405 61.111 129.428 61.2568 129.433C61.4072 129.437 61.5599 129.439 61.7148 129.439V129.877ZM59.3291 126.268C58.9417 126.382 58.6022 126.493 58.3105 126.603C58.0189 126.712 57.7477 126.849 57.4971 127.013C57.2692 127.168 57.0892 127.352 56.957 127.566C56.8249 127.776 56.7588 128.027 56.7588 128.318C56.7588 128.697 56.8568 128.975 57.0527 129.152C57.2533 129.33 57.5062 129.419 57.8115 129.419C58.1351 129.419 58.4199 129.341 58.666 129.187C58.9121 129.027 59.1195 128.84 59.2881 128.626L59.3291 126.268ZM65.543 130H62.2549V129.549C62.3597 129.54 62.4714 129.531 62.5898 129.521C62.7083 129.508 62.8063 129.49 62.8838 129.467C63.0114 129.426 63.1071 129.355 63.1709 129.255C63.2347 129.15 63.2666 129.016 63.2666 128.852V121.045C63.2666 120.881 63.2301 120.728 63.1572 120.587C63.0889 120.441 62.9977 120.327 62.8838 120.245C62.8018 120.19 62.6514 120.14 62.4326 120.095C62.2139 120.049 62.0384 120.022 61.9062 120.013V119.575L64.4424 119.418L64.5381 119.521V128.77C64.5381 128.929 64.5677 129.061 64.627 129.166C64.6862 129.266 64.7819 129.344 64.9141 129.398C65.0143 129.444 65.1123 129.478 65.208 129.501C65.3083 129.524 65.4199 129.54 65.543 129.549V130ZM70.8408 126.698C71.0277 126.862 71.1712 127.051 71.2715 127.266C71.3717 127.48 71.4219 127.742 71.4219 128.052C71.4219 128.676 71.1872 129.187 70.7178 129.583C70.2529 129.979 69.6491 130.178 68.9062 130.178C68.5143 130.178 68.152 130.107 67.8193 129.966C67.4912 129.825 67.2565 129.695 67.1152 129.576L66.9785 130.021H66.4658L66.3975 127.676H66.8691C66.9056 127.854 66.9831 128.061 67.1016 128.298C67.2201 128.535 67.3636 128.749 67.5322 128.94C67.71 129.141 67.9219 129.31 68.168 129.446C68.4186 129.583 68.6989 129.651 69.0088 129.651C69.4463 129.651 69.7835 129.553 70.0205 129.357C70.2575 129.157 70.376 128.872 70.376 128.503C70.376 128.312 70.3372 128.147 70.2598 128.011C70.1868 127.869 70.0775 127.746 69.9316 127.642C69.7812 127.537 69.5967 127.443 69.3779 127.361C69.1592 127.275 68.9154 127.19 68.6465 127.108C68.4323 127.045 68.193 126.958 67.9287 126.849C67.6689 126.735 67.4456 126.603 67.2588 126.452C67.0583 126.293 66.8942 126.097 66.7666 125.864C66.639 125.632 66.5752 125.358 66.5752 125.044C66.5752 124.493 66.7803 124.025 67.1904 123.643C67.6006 123.26 68.1497 123.068 68.8379 123.068C69.1022 123.068 69.3711 123.103 69.6445 123.171C69.9225 123.239 70.1481 123.321 70.3213 123.417L70.4785 123.062H70.9707L71.0732 125.229H70.6016C70.5059 124.745 70.2985 124.354 69.9795 124.053C69.665 123.747 69.2799 123.595 68.8242 123.595C68.4505 123.595 68.1566 123.688 67.9424 123.875C67.7282 124.062 67.6211 124.287 67.6211 124.552C67.6211 124.757 67.6553 124.928 67.7236 125.064C67.7965 125.201 67.9036 125.317 68.0449 125.413C68.1816 125.504 68.3525 125.591 68.5576 125.673C68.7673 125.75 69.0247 125.839 69.3301 125.939C69.6309 126.035 69.9134 126.147 70.1777 126.274C70.4466 126.402 70.6676 126.543 70.8408 126.698Z" fill="white"/>
</svg>
