<svg width="63" height="64" viewBox="0 0 63 64" fill="none" xmlns="http://www.w3.org/2000/svg">
<ellipse cx="31.4667" cy="32" rx="31.4667" ry="32" fill="#2F3FFF"/>
<path d="M34.994 41.2884C35.2833 41.5309 35.6138 41.6319 35.9857 41.5915C36.3576 41.5511 36.6468 41.4096 36.8534 41.1672L43.7331 32.4999L36.8534 23.9538C36.2336 23.3477 35.6138 23.3073 34.994 23.8326C34.4156 24.4791 34.3742 25.0852 34.8701 25.6509L39.6425 31.2271L21.2347 31.2271C20.3669 31.2271 19.9331 31.6514 19.9331 32.4999C19.9331 33.3485 20.3669 33.7727 21.2347 33.7727H39.6425L34.8701 39.4701C34.2503 40.157 34.2916 40.7631 34.994 41.2884Z" fill="white"/>
</svg>
