<svg width="192" height="39" viewBox="0 0 192 39" fill="none" xmlns="http://www.w3.org/2000/svg">
<rect width="39" height="39" rx="5" fill="white"/>
<path d="M48.3423 16H46.7116L52.0661 5.81818H53.8409L55.8146 16H54.1839L52.6974 7.66761H52.6179L48.3423 16ZM49.277 12.0128H54.5668L54.348 13.3054H49.0582L49.277 12.0128ZM59.4029 11.4659L58.6571 16H57.1706L58.861 5.81818H60.3276L59.7012 9.60653H59.7956C60.0376 9.19223 60.3624 8.86577 60.7701 8.62713C61.181 8.38518 61.6848 8.2642 62.2814 8.2642C62.8051 8.2642 63.2443 8.37192 63.5989 8.58736C63.9569 8.80279 64.2087 9.12429 64.3546 9.55185C64.5037 9.97609 64.5269 10.5064 64.4242 11.1428L63.6088 16H62.1223L62.8979 11.3217C62.9907 10.7616 62.9178 10.3274 62.6792 10.0192C62.4405 9.70762 62.0676 9.55185 61.5605 9.55185C61.2059 9.55185 60.8778 9.62642 60.5762 9.77557C60.2779 9.92472 60.026 10.1435 59.8205 10.4318C59.615 10.7169 59.4758 11.0616 59.4029 11.4659ZM65.5925 16L66.8652 8.36364H68.2921L68.0833 9.60653H68.1777C68.4097 9.18561 68.7246 8.85748 69.1223 8.62216C69.5234 8.38352 69.9775 8.2642 70.4846 8.2642C70.9883 8.2642 71.3944 8.38352 71.7026 8.62216C72.0141 8.8608 72.218 9.18892 72.3141 9.60653H72.3936C72.6389 9.19555 72.9819 8.86908 73.4228 8.62713C73.8636 8.38518 74.3591 8.2642 74.9093 8.2642C75.5953 8.2642 76.1223 8.48295 76.4902 8.92045C76.8614 9.35464 76.9741 10.0076 76.8283 10.8793L75.9732 16H74.4817L75.3169 11.0185C75.3998 10.4981 75.3203 10.1236 75.0783 9.89489C74.8364 9.66288 74.5198 9.54688 74.1287 9.54688C73.6448 9.54688 73.2438 9.69602 72.9256 9.99432C72.6074 10.2893 72.4119 10.6688 72.339 11.1328L71.5186 16H70.0421L70.8922 10.924C70.9585 10.5064 70.8823 10.1733 70.6635 9.92472C70.4481 9.67282 70.1332 9.54688 69.7189 9.54688C69.4372 9.54688 69.1638 9.62145 68.8986 9.7706C68.6368 9.91974 68.4131 10.1252 68.2275 10.3871C68.0418 10.6489 67.9209 10.9505 67.8645 11.2919L67.079 16H65.5925ZM81.2319 16.1541C80.4828 16.1541 79.863 15.9934 79.3725 15.6719C78.8853 15.3471 78.5439 14.8913 78.3484 14.3047C78.1528 13.7147 78.1213 13.0237 78.2539 12.2315C78.3832 11.4493 78.6433 10.7599 79.0344 10.1634C79.4255 9.56676 79.9128 9.10109 80.4961 8.76633C81.0827 8.43158 81.7307 8.2642 82.44 8.2642C82.8709 8.2642 83.2769 8.33546 83.658 8.47798C84.0425 8.6205 84.369 8.84422 84.6374 9.14915C84.9059 9.45407 85.0915 9.85014 85.1942 10.3374C85.3003 10.8213 85.297 11.4096 85.1843 12.1023L85.0998 12.6293H79.0245L79.1985 11.5156H83.8121C83.8817 11.1245 83.8635 10.7782 83.7575 10.4766C83.6514 10.1716 83.4691 9.93134 83.2106 9.75568C82.9554 9.58002 82.6339 9.49219 82.2461 9.49219C81.8484 9.49219 81.4772 9.59659 81.1325 9.8054C80.7878 10.0142 80.4994 10.281 80.2674 10.6058C80.0387 10.9273 79.8945 11.2588 79.8349 11.6001L79.6609 12.6193C79.5747 13.1761 79.5896 13.6236 79.7056 13.9616C79.8249 14.2997 80.0337 14.545 80.332 14.6974C80.6303 14.8499 81.0032 14.9261 81.4506 14.9261C81.739 14.9261 82.0058 14.8864 82.2511 14.8068C82.4996 14.724 82.7201 14.603 82.9123 14.4439C83.1045 14.2815 83.2653 14.0793 83.3945 13.8374L84.7567 14.0909C84.5745 14.5052 84.3126 14.8681 83.9712 15.1797C83.6299 15.4879 83.2272 15.7282 82.7631 15.9006C82.3024 16.0696 81.792 16.1541 81.2319 16.1541ZM89.0534 16.1491C88.4337 16.1491 87.9083 15.9917 87.4775 15.6768C87.0499 15.3587 86.7466 14.9062 86.5676 14.3196C86.392 13.7296 86.3721 13.022 86.508 12.1967C86.6472 11.3714 86.9041 10.6655 87.2786 10.0788C87.6531 9.49219 88.1072 9.04309 88.6408 8.73153C89.1744 8.41998 89.7495 8.2642 90.3659 8.2642C90.8399 8.2642 91.2078 8.34375 91.4696 8.50284C91.7348 8.65862 91.9303 8.84091 92.0563 9.04972C92.1822 9.25852 92.2767 9.44247 92.3397 9.60156H92.4242L93.0556 5.81818H94.5421L92.8517 16H91.4L91.6039 14.8118H91.4796C91.3636 14.9742 91.2028 15.1598 90.9973 15.3686C90.7952 15.5774 90.5366 15.7597 90.2218 15.9155C89.9069 16.0713 89.5175 16.1491 89.0534 16.1491ZM89.5556 14.8814C89.9831 14.8814 90.3659 14.7687 90.704 14.5433C91.0454 14.3146 91.3288 13.9981 91.5542 13.5938C91.7828 13.1894 91.9419 12.7187 92.0314 12.1818C92.1209 11.6515 92.1193 11.1875 92.0265 10.7898C91.9337 10.392 91.7547 10.0821 91.4895 9.86009C91.2244 9.63802 90.8747 9.52699 90.4405 9.52699C89.9931 9.52699 89.6036 9.64299 89.2722 9.875C88.9408 10.107 88.669 10.4235 88.4569 10.8246C88.248 11.2256 88.1022 11.678 88.0194 12.1818C87.9332 12.6922 87.9299 13.1513 88.0094 13.5589C88.089 13.9666 88.2563 14.2898 88.5115 14.5284C88.7667 14.7637 89.1148 14.8814 89.5556 14.8814ZM100.876 16.169C100.392 16.169 99.9694 16.0795 99.6081 15.9006C99.2469 15.7183 98.9801 15.4548 98.8077 15.1101C98.6354 14.7654 98.5906 14.3428 98.6735 13.8423C98.7464 13.4115 98.8889 13.0568 99.101 12.7784C99.3165 12.5 99.5783 12.2796 99.8865 12.1172C100.195 11.9515 100.53 11.8272 100.891 11.7443C101.252 11.6615 101.617 11.6001 101.985 11.5604C102.449 11.5073 102.825 11.4626 103.113 11.4261C103.405 11.3897 103.624 11.3333 103.769 11.2571C103.915 11.1776 104.003 11.0483 104.033 10.8693V10.8345C104.102 10.4036 104.039 10.0689 103.844 9.83026C103.652 9.5883 103.317 9.46733 102.84 9.46733C102.343 9.46733 101.925 9.5767 101.587 9.79545C101.252 10.0142 101.005 10.2595 100.846 10.5312L99.5137 10.2131C99.7523 9.74905 100.056 9.37453 100.423 9.08949C100.795 8.80114 101.201 8.59233 101.642 8.46307C102.082 8.33049 102.533 8.2642 102.994 8.2642C103.299 8.2642 103.615 8.30066 103.943 8.37358C104.271 8.44318 104.57 8.57244 104.838 8.76136C105.11 8.95028 105.312 9.22041 105.445 9.57173C105.577 9.91974 105.597 10.3722 105.504 10.929L104.664 16H103.213L103.392 14.956H103.332C103.206 15.1482 103.03 15.3371 102.805 15.5227C102.583 15.7083 102.311 15.8625 101.99 15.9851C101.668 16.1077 101.297 16.169 100.876 16.169ZM101.383 14.9759C101.797 14.9759 102.164 14.8946 102.482 14.7322C102.803 14.5698 103.063 14.3577 103.262 14.0959C103.461 13.8307 103.585 13.5473 103.635 13.2457L103.799 12.2614C103.736 12.3144 103.625 12.3625 103.466 12.4055C103.31 12.4486 103.135 12.4867 102.939 12.5199C102.744 12.553 102.551 12.5812 102.362 12.6044C102.177 12.6276 102.023 12.6491 101.9 12.669C101.608 12.7055 101.335 12.7668 101.08 12.853C100.828 12.9392 100.617 13.0634 100.448 13.2259C100.279 13.3849 100.173 13.5971 100.13 13.8622C100.07 14.2301 100.158 14.5085 100.394 14.6974C100.632 14.883 100.962 14.9759 101.383 14.9759ZM106.763 16L108.454 5.81818H109.94L109.319 9.60156H109.408C109.521 9.44247 109.675 9.25852 109.871 9.04972C110.07 8.84091 110.326 8.65862 110.641 8.50284C110.956 8.34375 111.351 8.2642 111.825 8.2642C112.441 8.2642 112.965 8.41998 113.396 8.73153C113.826 9.04309 114.131 9.49219 114.31 10.0788C114.489 10.6655 114.511 11.3714 114.375 12.1967C114.239 13.022 113.984 13.7296 113.609 14.3196C113.238 14.9062 112.786 15.3587 112.252 15.6768C111.719 15.9917 111.143 16.1491 110.527 16.1491C110.063 16.1491 109.697 16.0713 109.428 15.9155C109.163 15.7597 108.964 15.5774 108.832 15.3686C108.702 15.1598 108.605 14.9742 108.538 14.8118H108.414L108.215 16H106.763ZM108.857 12.1818C108.77 12.7187 108.77 13.1894 108.857 13.5938C108.946 13.9981 109.12 14.3146 109.379 14.5433C109.64 14.7687 109.983 14.8814 110.408 14.8814C110.852 14.8814 111.243 14.7637 111.581 14.5284C111.919 14.2898 112.197 13.9666 112.416 13.5589C112.635 13.1513 112.787 12.6922 112.874 12.1818C112.953 11.678 112.951 11.2256 112.869 10.8246C112.786 10.4235 112.613 10.107 112.352 9.875C112.093 9.64299 111.74 9.52699 111.293 9.52699C110.862 9.52699 110.479 9.63802 110.144 9.86009C109.809 10.0821 109.533 10.392 109.314 10.7898C109.095 11.1875 108.943 11.6515 108.857 12.1818ZM118.257 16.1491C117.637 16.1491 117.111 15.9917 116.681 15.6768C116.253 15.3587 115.95 14.9062 115.771 14.3196C115.595 13.7296 115.575 13.022 115.711 12.1967C115.85 11.3714 116.107 10.6655 116.482 10.0788C116.856 9.49219 117.31 9.04309 117.844 8.73153C118.378 8.41998 118.953 8.2642 119.569 8.2642C120.043 8.2642 120.411 8.34375 120.673 8.50284C120.938 8.65862 121.133 8.84091 121.259 9.04972C121.385 9.25852 121.48 9.44247 121.543 9.60156H121.627L122.259 5.81818H123.745L122.055 16H120.603L120.807 14.8118H120.683C120.567 14.9742 120.406 15.1598 120.2 15.3686C119.998 15.5774 119.74 15.7597 119.425 15.9155C119.11 16.0713 118.721 16.1491 118.257 16.1491ZM118.759 14.8814C119.186 14.8814 119.569 14.7687 119.907 14.5433C120.249 14.3146 120.532 13.9981 120.757 13.5938C120.986 13.1894 121.145 12.7187 121.235 12.1818C121.324 11.6515 121.322 11.1875 121.23 10.7898C121.137 10.392 120.958 10.0821 120.693 9.86009C120.427 9.63802 120.078 9.52699 119.644 9.52699C119.196 9.52699 118.807 9.64299 118.475 9.875C118.144 10.107 117.872 10.4235 117.66 10.8246C117.451 11.2256 117.305 11.678 117.222 12.1818C117.136 12.6922 117.133 13.1513 117.213 13.5589C117.292 13.9666 117.459 14.2898 117.715 14.5284C117.97 14.7637 118.318 14.8814 118.759 14.8814ZM131.148 16.1541C130.399 16.1541 129.779 15.9934 129.289 15.6719C128.801 15.3471 128.46 14.8913 128.264 14.3047C128.069 13.7147 128.037 13.0237 128.17 12.2315C128.299 11.4493 128.559 10.7599 128.95 10.1634C129.342 9.56676 129.829 9.10109 130.412 8.76633C130.999 8.43158 131.647 8.2642 132.356 8.2642C132.787 8.2642 133.193 8.33546 133.574 8.47798C133.959 8.6205 134.285 8.84422 134.553 9.14915C134.822 9.45407 135.008 9.85014 135.11 10.3374C135.216 10.8213 135.213 11.4096 135.1 12.1023L135.016 12.6293H128.941L129.115 11.5156H133.728C133.798 11.1245 133.78 10.7782 133.673 10.4766C133.567 10.1716 133.385 9.93134 133.127 9.75568C132.871 9.58002 132.55 9.49219 132.162 9.49219C131.764 9.49219 131.393 9.59659 131.048 9.8054C130.704 10.0142 130.415 10.281 130.183 10.6058C129.955 10.9273 129.811 11.2588 129.751 11.6001L129.577 12.6193C129.491 13.1761 129.506 13.6236 129.622 13.9616C129.741 14.2997 129.95 14.545 130.248 14.6974C130.546 14.8499 130.919 14.9261 131.367 14.9261C131.655 14.9261 131.922 14.8864 132.167 14.8068C132.416 14.724 132.636 14.603 132.828 14.4439C133.021 14.2815 133.181 14.0793 133.311 13.8374L134.673 14.0909C134.49 14.5052 134.229 14.8681 133.887 15.1797C133.546 15.4879 133.143 15.7282 132.679 15.9006C132.218 16.0696 131.708 16.1541 131.148 16.1541ZM139.298 5.81818L137.607 16H136.121L137.811 5.81818H139.298ZM144.932 11.0533L144.718 12.3409H140.199L140.412 11.0533H144.932ZM147.626 16L146.493 5.81818H148.108L148.785 13.7031H148.879L152.25 5.81818H153.851L154.606 13.7081H154.706L157.987 5.81818H159.608L155.089 16H153.542L152.672 8.37358H152.593L149.177 16H147.626ZM160.649 16.169C160.165 16.169 159.743 16.0795 159.382 15.9006C159.02 15.7183 158.753 15.4548 158.581 15.1101C158.409 14.7654 158.364 14.3428 158.447 13.8423C158.52 13.4115 158.662 13.0568 158.874 12.7784C159.09 12.5 159.352 12.2796 159.66 12.1172C159.968 11.9515 160.303 11.8272 160.664 11.7443C161.026 11.6615 161.39 11.6001 161.758 11.5604C162.222 11.5073 162.598 11.4626 162.887 11.4261C163.178 11.3897 163.397 11.3333 163.543 11.2571C163.689 11.1776 163.776 11.0483 163.806 10.8693V10.8345C163.876 10.4036 163.813 10.0689 163.617 9.83026C163.425 9.5883 163.09 9.46733 162.613 9.46733C162.116 9.46733 161.698 9.5767 161.36 9.79545C161.026 10.0142 160.779 10.2595 160.619 10.5312L159.287 10.2131C159.526 9.74905 159.829 9.37453 160.197 9.08949C160.568 8.80114 160.974 8.59233 161.415 8.46307C161.856 8.33049 162.307 8.2642 162.767 8.2642C163.072 8.2642 163.389 8.30066 163.717 8.37358C164.045 8.44318 164.343 8.57244 164.612 8.76136C164.883 8.95028 165.086 9.22041 165.218 9.57173C165.351 9.91974 165.371 10.3722 165.278 10.929L164.438 16H162.986L163.165 14.956H163.105C162.979 15.1482 162.804 15.3371 162.578 15.5227C162.356 15.7083 162.084 15.8625 161.763 15.9851C161.441 16.1077 161.07 16.169 160.649 16.169ZM161.156 14.9759C161.571 14.9759 161.937 14.8946 162.255 14.7322C162.577 14.5698 162.837 14.3577 163.036 14.0959C163.235 13.8307 163.359 13.5473 163.409 13.2457L163.573 12.2614C163.51 12.3144 163.399 12.3625 163.24 12.4055C163.084 12.4486 162.908 12.4867 162.713 12.5199C162.517 12.553 162.325 12.5812 162.136 12.6044C161.95 12.6276 161.796 12.6491 161.673 12.669C161.382 12.7055 161.108 12.7668 160.853 12.853C160.601 12.9392 160.391 13.0634 160.222 13.2259C160.053 13.3849 159.947 13.5971 159.904 13.8622C159.844 14.2301 159.932 14.5085 160.167 14.6974C160.406 14.883 160.735 14.9759 161.156 14.9759ZM168.655 11.4659L167.909 16H166.423L168.113 5.81818H169.58L168.953 9.60653H169.048C169.29 9.19223 169.614 8.86577 170.022 8.62713C170.433 8.38518 170.937 8.2642 171.533 8.2642C172.057 8.2642 172.496 8.37192 172.851 8.58736C173.209 8.80279 173.461 9.12429 173.607 9.55185C173.756 9.97609 173.779 10.5064 173.676 11.1428L172.861 16H171.374L172.15 11.3217C172.243 10.7616 172.17 10.3274 171.931 10.0192C171.692 9.70762 171.32 9.55185 170.812 9.55185C170.458 9.55185 170.13 9.62642 169.828 9.77557C169.53 9.92472 169.278 10.1435 169.072 10.4318C168.867 10.7169 168.728 11.0616 168.655 11.4659ZM177.042 16.169C176.558 16.169 176.135 16.0795 175.774 15.9006C175.413 15.7183 175.146 15.4548 174.974 15.1101C174.801 14.7654 174.757 14.3428 174.839 13.8423C174.912 13.4115 175.055 13.0568 175.267 12.7784C175.482 12.5 175.744 12.2796 176.053 12.1172C176.361 11.9515 176.696 11.8272 177.057 11.7443C177.418 11.6615 177.783 11.6001 178.151 11.5604C178.615 11.5073 178.991 11.4626 179.279 11.4261C179.571 11.3897 179.79 11.3333 179.935 11.2571C180.081 11.1776 180.169 11.0483 180.199 10.8693V10.8345C180.268 10.4036 180.205 10.0689 180.01 9.83026C179.818 9.5883 179.483 9.46733 179.006 9.46733C178.509 9.46733 178.091 9.5767 177.753 9.79545C177.418 10.0142 177.171 10.2595 177.012 10.5312L175.68 10.2131C175.918 9.74905 176.222 9.37453 176.589 9.08949C176.961 8.80114 177.367 8.59233 177.808 8.46307C178.248 8.33049 178.699 8.2642 179.16 8.2642C179.465 8.2642 179.781 8.30066 180.109 8.37358C180.438 8.44318 180.736 8.57244 181.004 8.76136C181.276 8.95028 181.478 9.22041 181.611 9.57173C181.743 9.91974 181.763 10.3722 181.67 10.929L180.83 16H179.379L179.558 14.956H179.498C179.372 15.1482 179.196 15.3371 178.971 15.5227C178.749 15.7083 178.477 15.8625 178.156 15.9851C177.834 16.1077 177.463 16.169 177.042 16.169ZM177.549 14.9759C177.963 14.9759 178.33 14.8946 178.648 14.7322C178.969 14.5698 179.229 14.3577 179.428 14.0959C179.627 13.8307 179.751 13.5473 179.801 13.2457L179.965 12.2614C179.902 12.3144 179.791 12.3625 179.632 12.4055C179.476 12.4486 179.301 12.4867 179.105 12.5199C178.91 12.553 178.717 12.5812 178.528 12.6044C178.343 12.6276 178.189 12.6491 178.066 12.669C177.774 12.7055 177.501 12.7668 177.246 12.853C176.994 12.9392 176.783 13.0634 176.614 13.2259C176.445 13.3849 176.339 13.5971 176.296 13.8622C176.237 14.2301 176.324 14.5085 176.56 14.6974C176.798 14.883 177.128 14.9759 177.549 14.9759ZM182.93 16L184.62 5.81818H186.106L185.485 9.60156H185.574C185.687 9.44247 185.841 9.25852 186.037 9.04972C186.236 8.84091 186.492 8.65862 186.807 8.50284C187.122 8.34375 187.517 8.2642 187.991 8.2642C188.607 8.2642 189.131 8.41998 189.562 8.73153C189.992 9.04309 190.297 9.49219 190.476 10.0788C190.655 10.6655 190.677 11.3714 190.541 12.1967C190.405 13.022 190.15 13.7296 189.775 14.3196C189.404 14.9062 188.952 15.3587 188.418 15.6768C187.885 15.9917 187.309 16.1491 186.693 16.1491C186.229 16.1491 185.863 16.0713 185.594 15.9155C185.329 15.7597 185.13 15.5774 184.998 15.3686C184.868 15.1598 184.771 14.9742 184.704 14.8118H184.58L184.381 16H182.93ZM185.023 12.1818C184.936 12.7187 184.936 13.1894 185.023 13.5938C185.112 13.9981 185.286 14.3146 185.545 14.5433C185.806 14.7687 186.149 14.8814 186.574 14.8814C187.018 14.8814 187.409 14.7637 187.747 14.5284C188.085 14.2898 188.363 13.9666 188.582 13.5589C188.801 13.1513 188.953 12.6922 189.04 12.1818C189.119 11.678 189.117 11.2256 189.035 10.8246C188.952 10.4235 188.779 10.107 188.518 9.875C188.259 9.64299 187.906 9.52699 187.459 9.52699C187.028 9.52699 186.645 9.63802 186.31 9.86009C185.975 10.0821 185.699 10.392 185.48 10.7898C185.261 11.1875 185.109 11.6515 185.023 12.1818Z" fill="white"/>
<path d="M48.1591 33V24.2727H48.9219V27.7031H48.9901C49.0753 27.5071 49.1974 27.3054 49.3565 27.098C49.5185 26.8906 49.7301 26.7173 49.9915 26.5781C50.2557 26.4361 50.5881 26.3651 50.9886 26.3651C51.5256 26.3651 51.9972 26.5071 52.4034 26.7912C52.8097 27.0724 53.1264 27.4673 53.3537 27.9759C53.581 28.4815 53.6946 29.071 53.6946 29.7443C53.6946 30.4205 53.581 31.0128 53.3537 31.5213C53.1293 32.0298 52.8139 32.4261 52.4077 32.7102C52.0043 32.9943 51.5355 33.1364 51.0014 33.1364C50.6037 33.1364 50.2713 33.0653 50.0043 32.9233C49.7401 32.7812 49.527 32.6065 49.3651 32.3991C49.2031 32.1889 49.0781 31.9844 48.9901 31.7855H48.8963V33H48.1591ZM48.9091 29.7315C48.9091 30.2599 48.9872 30.7287 49.1435 31.1378C49.3026 31.544 49.5298 31.8636 49.8253 32.0966C50.1236 32.3267 50.4844 32.4418 50.9077 32.4418C51.3423 32.4418 51.7102 32.3224 52.0114 32.0838C52.3125 31.8423 52.5412 31.517 52.6974 31.108C52.8537 30.6989 52.9318 30.2401 52.9318 29.7315C52.9318 29.2287 52.8537 28.7756 52.6974 28.3722C52.544 27.9687 52.3168 27.6491 52.0156 27.4134C51.7145 27.1747 51.3452 27.0554 50.9077 27.0554C50.4815 27.0554 50.1193 27.1705 49.821 27.4006C49.5256 27.6278 49.2997 27.9432 49.1435 28.3466C48.9872 28.7472 48.9091 29.2088 48.9091 29.7315ZM57.1889 33.1491C56.794 33.1491 56.4332 33.0724 56.1065 32.919C55.7798 32.7628 55.5199 32.5384 55.3267 32.2457C55.1335 31.9503 55.0369 31.5923 55.0369 31.1719C55.0369 30.848 55.098 30.5753 55.2202 30.3537C55.3423 30.1321 55.5156 29.9503 55.7401 29.8082C55.9645 29.6662 56.2301 29.554 56.5369 29.4716C56.8438 29.3892 57.1818 29.3253 57.5511 29.2798C57.9176 29.2344 58.2273 29.1946 58.4801 29.1605C58.7358 29.1264 58.9304 29.0724 59.0639 28.9986C59.1974 28.9247 59.2642 28.8054 59.2642 28.6406V28.4872C59.2642 28.0412 59.1307 27.6903 58.8636 27.4347C58.5994 27.1761 58.2188 27.0469 57.7216 27.0469C57.25 27.0469 56.8651 27.1506 56.5668 27.358C56.2713 27.5653 56.0639 27.8097 55.9446 28.0909L55.2244 27.831C55.3722 27.473 55.5767 27.1875 55.8381 26.9744C56.0994 26.7585 56.392 26.6037 56.7159 26.5099C57.0398 26.4134 57.3679 26.3651 57.7003 26.3651C57.9503 26.3651 58.2102 26.3977 58.4801 26.4631C58.7528 26.5284 59.0057 26.642 59.2386 26.804C59.4716 26.9631 59.6605 27.1861 59.8054 27.473C59.9503 27.7571 60.0227 28.1179 60.0227 28.5554V33H59.2642V31.9645H59.2173C59.1264 32.1577 58.9915 32.3452 58.8125 32.527C58.6335 32.7088 58.4091 32.858 58.1392 32.9744C57.8693 33.0909 57.5526 33.1491 57.1889 33.1491ZM57.2912 32.4545C57.6946 32.4545 58.044 32.3651 58.3395 32.1861C58.6349 32.0071 58.8622 31.7699 59.0213 31.4744C59.1832 31.1761 59.2642 30.848 59.2642 30.4901V29.544C59.2074 29.598 59.1122 29.6463 58.9787 29.6889C58.848 29.7315 58.696 29.7699 58.5227 29.804C58.3523 29.8352 58.1818 29.8622 58.0114 29.8849C57.8409 29.9077 57.6875 29.9276 57.5511 29.9446C57.1818 29.9901 56.8665 30.0611 56.6051 30.1577C56.3438 30.2543 56.1435 30.3878 56.0043 30.5582C55.8651 30.7259 55.7955 30.9418 55.7955 31.206C55.7955 31.6037 55.9375 31.9119 56.2216 32.1307C56.5057 32.3466 56.8622 32.4545 57.2912 32.4545ZM64.5973 33.1364C64.0121 33.1364 63.5021 32.9901 63.0675 32.6974C62.6357 32.4048 62.3004 32.0043 62.0618 31.4957C61.8232 30.9872 61.7038 30.4077 61.7038 29.7571C61.7038 29.1009 61.8246 28.517 62.0661 28.0057C62.3104 27.4943 62.6484 27.0937 63.0803 26.804C63.5121 26.5114 64.0135 26.3651 64.5845 26.3651C65.022 26.3651 65.4183 26.4503 65.7734 26.6207C66.1286 26.7884 66.4212 27.0256 66.6513 27.3324C66.8842 27.6364 67.0305 27.9915 67.0902 28.3977H66.3232C66.2436 28.0284 66.0518 27.7131 65.7479 27.4517C65.4467 27.1875 65.0632 27.0554 64.5973 27.0554C64.1797 27.0554 63.8104 27.169 63.4893 27.3963C63.1683 27.6207 62.9169 27.9347 62.7351 28.3381C62.5561 28.7386 62.4666 29.2031 62.4666 29.7315C62.4666 30.2628 62.5547 30.733 62.7308 31.142C62.907 31.5483 63.1541 31.8665 63.4723 32.0966C63.7933 32.3267 64.1683 32.4418 64.5973 32.4418C64.8871 32.4418 65.1513 32.3878 65.3899 32.2798C65.6314 32.169 65.8331 32.0128 65.995 31.8111C66.1598 31.6094 66.2706 31.3693 66.3274 31.0909H67.0945C67.0376 31.4858 66.897 31.8381 66.6726 32.1477C66.451 32.4545 66.1626 32.696 65.8075 32.8722C65.4553 33.0483 65.0518 33.1364 64.5973 33.1364ZM69.4105 30.5284L69.402 29.5355H69.5724L72.6406 26.4545H73.5994L70.5696 29.4886L70.5014 29.5014L69.4105 30.5284ZM68.7202 33V24.2727H69.4787V33H68.7202ZM72.7983 33L70.1392 29.6378L70.6847 29.1136L73.7699 33H72.7983ZM78.0067 28.9006V29.6165H74.3761V28.9006H78.0067ZM82.5579 33.1364C81.9471 33.1364 81.4187 32.9943 80.9727 32.7102C80.5266 32.4233 80.1815 32.027 79.9371 31.5213C79.6957 31.0128 79.5749 30.4276 79.5749 29.7656C79.5749 29.1065 79.6957 28.5213 79.9371 28.0099C80.1815 27.4957 80.5181 27.0937 80.9471 26.804C81.3789 26.5114 81.8775 26.3651 82.4428 26.3651C82.7979 26.3651 83.1403 26.4304 83.4698 26.5611C83.7994 26.6889 84.0948 26.8864 84.3562 27.1534C84.6204 27.4176 84.8292 27.7514 84.9826 28.1548C85.136 28.5554 85.2127 29.0298 85.2127 29.5781V29.9531H80.0991V29.2841H84.4371C84.4371 28.8636 84.3519 28.4858 84.1815 28.1506C84.0138 27.8125 83.7795 27.5455 83.4783 27.3494C83.18 27.1534 82.8349 27.0554 82.4428 27.0554C82.0281 27.0554 81.663 27.1662 81.3477 27.3878C81.0323 27.6094 80.7852 27.902 80.6062 28.2656C80.43 28.6293 80.3406 29.027 80.3377 29.4588V29.8594C80.3377 30.3793 80.4272 30.8338 80.6062 31.223C80.788 31.6094 81.0451 31.9091 81.3775 32.1222C81.7099 32.3352 82.1033 32.4418 82.5579 32.4418C82.8675 32.4418 83.1388 32.3935 83.3718 32.2969C83.6076 32.2003 83.805 32.071 83.9641 31.9091C84.1261 31.7443 84.2482 31.5639 84.3306 31.3679L85.0508 31.6023C84.9513 31.8778 84.788 32.1321 84.5607 32.3651C84.3363 32.598 84.055 32.7855 83.717 32.9276C83.3817 33.0668 82.9954 33.1364 82.5579 33.1364ZM87.6428 28.9091V33H86.8842V26.4545H87.6214V27.4815H87.6896C87.843 27.1463 88.0817 26.8778 88.4055 26.6761C88.7322 26.4716 89.1357 26.3693 89.6158 26.3693C90.0561 26.3693 90.4425 26.4616 90.7749 26.6463C91.1101 26.8281 91.37 27.0966 91.5547 27.4517C91.7422 27.8068 91.8359 28.2429 91.8359 28.7599V33H91.0774V28.8068C91.0774 28.2699 90.9268 27.8452 90.6257 27.5327C90.3274 27.2202 89.9268 27.0639 89.424 27.0639C89.0803 27.0639 88.7749 27.1378 88.5078 27.2855C88.2408 27.4332 88.0291 27.6463 87.8729 27.9247C87.7195 28.2003 87.6428 28.5284 87.6428 28.9091ZM96.19 33.1364C95.6531 33.1364 95.1829 32.9943 94.7795 32.7102C94.3761 32.4261 94.0607 32.0298 93.8335 31.5213C93.609 31.0128 93.4968 30.4205 93.4968 29.7443C93.4968 29.071 93.609 28.4815 93.8335 27.9759C94.0607 27.4673 94.3775 27.0724 94.7837 26.7912C95.19 26.5071 95.663 26.3651 96.2028 26.3651C96.6005 26.3651 96.9315 26.4361 97.1957 26.5781C97.4599 26.7173 97.6715 26.8906 97.8306 27.098C97.9897 27.3054 98.1133 27.5071 98.2013 27.7031H98.2695V24.2727H99.0323V33H98.2908V31.7855H98.2013C98.1133 31.9844 97.9883 32.1889 97.8263 32.3991C97.6644 32.6065 97.4499 32.7812 97.1829 32.9233C96.9187 33.0653 96.5877 33.1364 96.19 33.1364ZM96.2795 32.4418C96.7028 32.4418 97.0636 32.3267 97.3619 32.0966C97.6602 31.8636 97.8874 31.544 98.0437 31.1378C98.2028 30.7287 98.2823 30.2599 98.2823 29.7315C98.2823 29.2088 98.2042 28.7472 98.0479 28.3466C97.8917 27.9432 97.6644 27.6278 97.3661 27.4006C97.0678 27.1705 96.7056 27.0554 96.2795 27.0554C95.842 27.0554 95.4727 27.1747 95.1715 27.4134C94.8732 27.6491 94.646 27.9687 94.4897 28.3722C94.3363 28.7756 94.2596 29.2287 94.2596 29.7315C94.2596 30.2401 94.3377 30.6989 94.494 31.108C94.6502 31.517 94.8775 31.8423 95.1758 32.0838C95.4769 32.3224 95.8448 32.4418 96.2795 32.4418Z" fill="white"/>
</svg>
