<svg width="38" height="38" viewBox="0 0 38 38" fill="none" xmlns="http://www.w3.org/2000/svg">
<circle cx="18.5" cy="19.5" r="13.5" fill="#007AFF"/>
<path d="M26.7107 15.6182L16.2523 25.7214C16.1612 25.8097 16.0529 25.8798 15.9337 25.9276C15.8146 25.9754 15.6868 26 15.5577 26C15.4287 26 15.3009 25.9754 15.1817 25.9276C15.0626 25.8798 14.9543 25.8097 14.8632 25.7214L10.2877 21.3012C10.1965 21.2131 10.1241 21.1085 10.0748 20.9934C10.0254 20.8783 10 20.7549 10 20.6303C10 20.5057 10.0254 20.3823 10.0748 20.2672C10.1241 20.1521 10.1965 20.0475 10.2877 19.9594C10.3789 19.8713 10.4872 19.8014 10.6063 19.7537C10.7255 19.706 10.8532 19.6815 10.9822 19.6815C11.1112 19.6815 11.2389 19.706 11.358 19.7537C11.4772 19.8014 11.5855 19.8713 11.6767 19.9594L15.5586 23.7094L25.3233 14.2779C25.5075 14.1 25.7573 14 26.0178 14C26.2783 14 26.5281 14.1 26.7123 14.2779C26.8965 14.4558 27 14.6972 27 14.9488C27 15.2005 26.8965 15.4418 26.7123 15.6197L26.7107 15.6182Z" fill="white"/>
</svg>
