<svg width="429" height="121" viewBox="0 0 429 121" fill="none" xmlns="http://www.w3.org/2000/svg">
<rect width="429" height="121" fill="white"/>
<rect x="20" y="10" width="148" height="102" rx="10" fill="#D9D9D9"/>
<rect x="20" y="10" width="148" height="102" rx="10" fill="#C4C4C4"/>
<path d="M185.658 28V18.1818H187.972V28H185.658ZM186.821 16.7884C186.455 16.7884 186.139 16.6669 185.875 16.424C185.611 16.1768 185.479 15.8807 185.479 15.5355C185.479 15.1861 185.611 14.8899 185.875 14.647C186.139 14.3999 186.455 14.2763 186.821 14.2763C187.192 14.2763 187.507 14.3999 187.767 14.647C188.031 14.8899 188.163 15.1861 188.163 15.5355C188.163 15.8807 188.031 16.1768 187.767 16.424C187.507 16.6669 187.192 16.7884 186.821 16.7884ZM192.665 22.2472V28H190.351V18.1818H192.563V19.8501H192.678C192.904 19.3004 193.264 18.8636 193.758 18.5398C194.257 18.2159 194.872 18.054 195.605 18.054C196.283 18.054 196.873 18.1989 197.376 18.4886C197.883 18.7784 198.275 19.1982 198.552 19.7479C198.833 20.2976 198.972 20.9645 198.968 21.7486V28H196.654V22.1065C196.654 21.4503 196.483 20.9368 196.142 20.5661C195.806 20.1953 195.339 20.0099 194.742 20.0099C194.338 20.0099 193.977 20.0994 193.662 20.2784C193.351 20.4531 193.106 20.7067 192.927 21.0391C192.752 21.3714 192.665 21.7741 192.665 22.2472ZM206.222 18.1818V19.9716H200.578V18.1818H206.222ZM201.972 15.8295H204.286V25.0469C204.286 25.358 204.333 25.5966 204.426 25.7628C204.524 25.9247 204.652 26.0355 204.81 26.0952C204.968 26.1548 205.142 26.1847 205.334 26.1847C205.479 26.1847 205.611 26.174 205.73 26.1527C205.854 26.1314 205.948 26.1122 206.012 26.0952L206.401 27.9041C206.278 27.9467 206.101 27.9936 205.871 28.0447C205.645 28.0959 205.368 28.1257 205.04 28.1342C204.46 28.1513 203.938 28.0639 203.474 27.8722C203.009 27.6761 202.641 27.3736 202.368 26.9645C202.1 26.5554 201.968 26.044 201.972 25.4304V15.8295ZM212.399 28.1918C211.414 28.1918 210.564 27.9872 209.848 27.5781C209.137 27.1648 208.589 26.581 208.206 25.8267C207.822 25.0682 207.63 24.1754 207.63 23.1484C207.63 22.1385 207.822 21.2521 208.206 20.4893C208.593 19.7223 209.135 19.1257 209.829 18.6996C210.524 18.2692 211.34 18.054 212.277 18.054C212.882 18.054 213.453 18.152 213.99 18.348C214.532 18.5398 215.009 18.8381 215.422 19.2429C215.84 19.6477 216.168 20.1634 216.407 20.7898C216.645 21.4119 216.765 22.1534 216.765 23.0142V23.7237H208.717V22.1641H214.547C214.542 21.7209 214.446 21.3267 214.259 20.9815C214.071 20.6321 213.809 20.3572 213.473 20.157C213.14 19.9567 212.752 19.8565 212.309 19.8565C211.836 19.8565 211.421 19.9716 211.063 20.2017C210.705 20.4276 210.426 20.7259 210.225 21.0966C210.029 21.4631 209.929 21.8658 209.925 22.3047V23.6662C209.925 24.2372 210.029 24.7273 210.238 25.1364C210.447 25.5412 210.739 25.8523 211.114 26.0696C211.489 26.2827 211.928 26.3892 212.431 26.3892C212.767 26.3892 213.072 26.3423 213.345 26.2486C213.618 26.1506 213.854 26.0078 214.054 25.8203C214.255 25.6328 214.406 25.4006 214.508 25.1236L216.669 25.3665C216.532 25.9375 216.272 26.4361 215.889 26.8622C215.51 27.2841 215.024 27.6122 214.431 27.8466C213.839 28.0767 213.162 28.1918 212.399 28.1918ZM222.992 31.8864C222.161 31.8864 221.447 31.7734 220.851 31.5476C220.254 31.326 219.775 31.0277 219.412 30.6527C219.05 30.2777 218.799 29.8622 218.658 29.4062L220.742 28.9013C220.836 29.093 220.972 29.2827 221.151 29.4702C221.33 29.6619 221.571 29.8196 221.873 29.9432C222.18 30.071 222.566 30.1349 223.03 30.1349C223.687 30.1349 224.23 29.9751 224.66 29.6555C225.091 29.3402 225.306 28.8203 225.306 28.0959V26.2358H225.191C225.072 26.4744 224.897 26.7195 224.667 26.9709C224.441 27.2223 224.14 27.4332 223.765 27.6037C223.395 27.7741 222.928 27.8594 222.366 27.8594C221.611 27.8594 220.927 27.6825 220.314 27.3288C219.704 26.9709 219.219 26.4382 218.856 25.7308C218.498 25.0192 218.319 24.1286 218.319 23.0589C218.319 21.9808 218.498 21.071 218.856 20.3295C219.219 19.5838 219.706 19.0192 220.32 18.6357C220.934 18.2479 221.618 18.054 222.372 18.054C222.947 18.054 223.42 18.152 223.791 18.348C224.166 18.5398 224.464 18.772 224.686 19.0447C224.907 19.3132 225.076 19.5668 225.191 19.8054H225.319V18.1818H227.601V28.1598C227.601 28.9993 227.4 29.6939 227 30.2436C226.599 30.7933 226.052 31.2045 225.357 31.4773C224.662 31.75 223.874 31.8864 222.992 31.8864ZM223.011 26.044C223.501 26.044 223.919 25.9247 224.264 25.6861C224.609 25.4474 224.871 25.1044 225.05 24.657C225.229 24.2095 225.319 23.6726 225.319 23.0462C225.319 22.4283 225.229 21.8871 225.05 21.4226C224.876 20.9581 224.616 20.598 224.27 20.3423C223.93 20.0824 223.51 19.9524 223.011 19.9524C222.496 19.9524 222.065 20.0866 221.72 20.3551C221.375 20.6236 221.115 20.9922 220.94 21.4609C220.765 21.9254 220.678 22.4538 220.678 23.0462C220.678 23.647 220.765 24.1733 220.94 24.625C221.119 25.0724 221.381 25.4219 221.726 25.6733C222.076 25.9205 222.504 26.044 223.011 26.044ZM229.972 28V18.1818H232.216V19.8182H232.318C232.497 19.2514 232.804 18.8146 233.238 18.5078C233.677 18.1967 234.178 18.0412 234.741 18.0412C234.868 18.0412 235.011 18.0476 235.169 18.0604C235.331 18.0689 235.465 18.0838 235.572 18.1051V20.2337C235.474 20.1996 235.318 20.1697 235.105 20.1442C234.896 20.1143 234.694 20.0994 234.498 20.0994C234.076 20.0994 233.697 20.1911 233.36 20.3743C233.028 20.5533 232.765 20.8026 232.574 21.1222C232.382 21.4418 232.286 21.8104 232.286 22.228V28H229.972ZM239.758 28.1982C239.136 28.1982 238.576 28.0874 238.077 27.8658C237.583 27.6399 237.191 27.3075 236.901 26.8686C236.616 26.4297 236.473 25.8885 236.473 25.245C236.473 24.6911 236.575 24.233 236.78 23.8707C236.984 23.5085 237.263 23.2188 237.617 23.0014C237.971 22.7841 238.369 22.62 238.812 22.5092C239.26 22.3942 239.722 22.3111 240.199 22.2599C240.775 22.2003 241.241 22.147 241.599 22.1001C241.957 22.049 242.217 21.9723 242.379 21.87C242.545 21.7635 242.628 21.5994 242.628 21.3778V21.3395C242.628 20.858 242.486 20.4851 242.2 20.2209C241.915 19.9567 241.503 19.8246 240.966 19.8246C240.4 19.8246 239.95 19.9482 239.618 20.1953C239.29 20.4425 239.068 20.7344 238.953 21.071L236.792 20.7642C236.963 20.1676 237.244 19.669 237.636 19.2685C238.028 18.8636 238.508 18.5611 239.074 18.3608C239.641 18.1562 240.268 18.054 240.954 18.054C241.427 18.054 241.898 18.1094 242.366 18.2202C242.835 18.331 243.263 18.5142 243.651 18.7699C244.039 19.0213 244.35 19.3643 244.584 19.799C244.823 20.2337 244.942 20.777 244.942 21.429V28H242.718V26.6513H242.641C242.501 26.924 242.302 27.1797 242.047 27.4183C241.795 27.6527 241.478 27.8423 241.094 27.9872C240.715 28.1278 240.27 28.1982 239.758 28.1982ZM240.359 26.4979C240.824 26.4979 241.226 26.4062 241.567 26.223C241.908 26.0355 242.17 25.7884 242.354 25.4815C242.541 25.1747 242.635 24.8402 242.635 24.478V23.321C242.562 23.3807 242.439 23.4361 242.264 23.4872C242.094 23.5384 241.902 23.5831 241.689 23.6214C241.476 23.6598 241.265 23.6939 241.056 23.7237C240.847 23.7536 240.666 23.7791 240.513 23.8004C240.167 23.8473 239.858 23.924 239.586 24.0305C239.313 24.1371 239.098 24.2862 238.94 24.478C238.782 24.6655 238.704 24.9084 238.704 25.2067C238.704 25.6328 238.859 25.9545 239.17 26.1719C239.481 26.3892 239.878 26.4979 240.359 26.4979ZM252.172 18.1818V19.9716H246.528V18.1818H252.172ZM247.921 15.8295H250.235V25.0469C250.235 25.358 250.282 25.5966 250.376 25.7628C250.474 25.9247 250.601 26.0355 250.759 26.0952C250.917 26.1548 251.091 26.1847 251.283 26.1847C251.428 26.1847 251.56 26.174 251.68 26.1527C251.803 26.1314 251.897 26.1122 251.961 26.0952L252.351 27.9041C252.227 27.9467 252.05 27.9936 251.82 28.0447C251.594 28.0959 251.317 28.1257 250.989 28.1342C250.41 28.1513 249.888 28.0639 249.423 27.8722C248.959 27.6761 248.59 27.3736 248.317 26.9645C248.049 26.5554 247.917 26.044 247.921 25.4304V15.8295ZM254.107 28V18.1818H256.421V28H254.107ZM255.27 16.7884C254.904 16.7884 254.588 16.6669 254.324 16.424C254.06 16.1768 253.928 15.8807 253.928 15.5355C253.928 15.1861 254.06 14.8899 254.324 14.647C254.588 14.3999 254.904 14.2763 255.27 14.2763C255.641 14.2763 255.956 14.3999 256.216 14.647C256.48 14.8899 256.613 15.1861 256.613 15.5355C256.613 15.8807 256.48 16.1768 256.216 16.424C255.956 16.6669 255.641 16.7884 255.27 16.7884ZM263.083 28.1918C262.124 28.1918 261.293 27.9808 260.59 27.5589C259.887 27.1371 259.341 26.5469 258.954 25.7884C258.57 25.0298 258.378 24.1435 258.378 23.1293C258.378 22.1151 258.57 21.2266 258.954 20.4638C259.341 19.701 259.887 19.1087 260.59 18.6868C261.293 18.2649 262.124 18.054 263.083 18.054C264.042 18.054 264.873 18.2649 265.576 18.6868C266.279 19.1087 266.822 19.701 267.206 20.4638C267.594 21.2266 267.787 22.1151 267.787 23.1293C267.787 24.1435 267.594 25.0298 267.206 25.7884C266.822 26.5469 266.279 27.1371 265.576 27.5589C264.873 27.9808 264.042 28.1918 263.083 28.1918ZM263.096 26.3381C263.616 26.3381 264.05 26.1953 264.4 25.9098C264.749 25.62 265.009 25.2322 265.18 24.7464C265.354 24.2607 265.442 23.7195 265.442 23.1229C265.442 22.522 265.354 21.9787 265.18 21.4929C265.009 21.0028 264.749 20.6129 264.4 20.3232C264.05 20.0334 263.616 19.8885 263.096 19.8885C262.563 19.8885 262.12 20.0334 261.766 20.3232C261.417 20.6129 261.155 21.0028 260.98 21.4929C260.809 21.9787 260.724 22.522 260.724 23.1229C260.724 23.7195 260.809 24.2607 260.98 24.7464C261.155 25.2322 261.417 25.62 261.766 25.9098C262.12 26.1953 262.563 26.3381 263.096 26.3381ZM272.065 22.2472V28H269.751V18.1818H271.963V19.8501H272.078C272.304 19.3004 272.664 18.8636 273.158 18.5398C273.657 18.2159 274.273 18.054 275.006 18.054C275.683 18.054 276.273 18.1989 276.776 18.4886C277.283 18.7784 277.675 19.1982 277.952 19.7479C278.234 20.2976 278.372 20.9645 278.368 21.7486V28H276.054V22.1065C276.054 21.4503 275.884 20.9368 275.543 20.5661C275.206 20.1953 274.739 20.0099 274.143 20.0099C273.738 20.0099 273.378 20.0994 273.062 20.2784C272.751 20.4531 272.506 20.7067 272.327 21.0391C272.153 21.3714 272.065 21.7741 272.065 22.2472Z" fill="black"/>
<path d="M191.648 46.4205C191.588 45.8826 191.338 45.4659 190.898 45.1705C190.459 44.8712 189.906 44.7216 189.239 44.7216C188.762 44.7216 188.349 44.7973 188.001 44.9489C187.652 45.0966 187.381 45.3011 187.188 45.5625C186.999 45.8201 186.904 46.1136 186.904 46.4432C186.904 46.7197 186.969 46.9583 187.097 47.1591C187.23 47.3598 187.402 47.5284 187.614 47.6648C187.83 47.7973 188.061 47.9091 188.308 48C188.554 48.0871 188.79 48.1591 189.018 48.2159L190.154 48.5114C190.525 48.6023 190.906 48.7254 191.296 48.8807C191.686 49.036 192.048 49.2405 192.381 49.4943C192.715 49.7481 192.984 50.0625 193.188 50.4375C193.397 50.8125 193.501 51.2614 193.501 51.7841C193.501 52.4432 193.33 53.0284 192.989 53.5398C192.652 54.0511 192.162 54.4545 191.518 54.75C190.878 55.0455 190.103 55.1932 189.194 55.1932C188.323 55.1932 187.569 55.0549 186.933 54.7784C186.296 54.5019 185.798 54.1098 185.438 53.6023C185.078 53.0909 184.879 52.4848 184.842 51.7841H186.603C186.637 52.2045 186.773 52.5549 187.012 52.8352C187.254 53.1117 187.563 53.3182 187.938 53.4545C188.317 53.5871 188.732 53.6534 189.183 53.6534C189.679 53.6534 190.12 53.5758 190.506 53.4205C190.897 53.2614 191.203 53.0417 191.427 52.7614C191.65 52.4773 191.762 52.1458 191.762 51.767C191.762 51.4223 191.664 51.1402 191.467 50.9205C191.273 50.7008 191.01 50.5189 190.677 50.375C190.347 50.2311 189.974 50.1042 189.558 49.9943L188.183 49.6193C187.251 49.3655 186.512 48.9924 185.967 48.5C185.425 48.0076 185.154 47.3561 185.154 46.5455C185.154 45.875 185.336 45.2898 185.7 44.7898C186.063 44.2898 186.556 43.9015 187.177 43.625C187.798 43.3447 188.499 43.2045 189.279 43.2045C190.067 43.2045 190.762 43.3428 191.364 43.6193C191.97 43.8958 192.448 44.2765 192.796 44.7614C193.145 45.2424 193.326 45.7955 193.342 46.4205H191.648ZM199.224 55.1761C198.364 55.1761 197.623 54.9924 197.002 54.625C196.385 54.2538 195.907 53.733 195.57 53.0625C195.237 52.3883 195.07 51.5985 195.07 50.6932C195.07 49.7992 195.237 49.0114 195.57 48.3295C195.907 47.6477 196.377 47.1155 196.979 46.733C197.585 46.3504 198.294 46.1591 199.104 46.1591C199.597 46.1591 200.074 46.2405 200.536 46.4034C200.998 46.5663 201.413 46.822 201.781 47.1705C202.148 47.5189 202.438 47.9716 202.65 48.5284C202.862 49.0814 202.968 49.7538 202.968 50.5455V51.1477H196.031V49.875H201.303C201.303 49.428 201.212 49.0322 201.031 48.6875C200.849 48.339 200.593 48.0644 200.263 47.8636C199.938 47.6629 199.555 47.5625 199.116 47.5625C198.638 47.5625 198.222 47.6799 197.866 47.9148C197.513 48.1458 197.241 48.4489 197.048 48.8239C196.858 49.1951 196.763 49.5985 196.763 50.0341V51.0284C196.763 51.6117 196.866 52.108 197.07 52.517C197.279 52.9261 197.568 53.2386 197.94 53.4545C198.311 53.6667 198.745 53.7727 199.241 53.7727C199.563 53.7727 199.856 53.7273 200.121 53.6364C200.387 53.5417 200.616 53.4015 200.809 53.2159C201.002 53.0303 201.15 52.8011 201.252 52.5284L202.86 52.8182C202.731 53.2917 202.5 53.7064 202.167 54.0625C201.837 54.4148 201.423 54.6894 200.923 54.8864C200.426 55.0795 199.86 55.1761 199.224 55.1761ZM208.529 55.1761C207.684 55.1761 206.957 54.9848 206.347 54.6023C205.741 54.2159 205.275 53.6837 204.95 53.0057C204.624 52.3277 204.461 51.5511 204.461 50.6761C204.461 49.7898 204.628 49.0076 204.961 48.3295C205.294 47.6477 205.764 47.1155 206.37 46.733C206.976 46.3504 207.69 46.1591 208.512 46.1591C209.175 46.1591 209.766 46.2822 210.285 46.5284C210.804 46.7708 211.222 47.1117 211.54 47.5511C211.862 47.9905 212.054 48.5038 212.114 49.0909H210.461C210.37 48.6818 210.162 48.3295 209.836 48.0341C209.514 47.7386 209.082 47.5909 208.54 47.5909C208.067 47.5909 207.652 47.7159 207.296 47.9659C206.944 48.2121 206.669 48.5644 206.472 49.0227C206.275 49.4773 206.177 50.0152 206.177 50.6364C206.177 51.2727 206.273 51.822 206.467 52.2841C206.66 52.7462 206.933 53.1042 207.285 53.358C207.641 53.6117 208.059 53.7386 208.54 53.7386C208.862 53.7386 209.154 53.6799 209.415 53.5625C209.681 53.4413 209.902 53.2689 210.08 53.0455C210.262 52.822 210.389 52.553 210.461 52.2386H212.114C212.054 52.803 211.87 53.3068 211.563 53.75C211.256 54.1932 210.845 54.5417 210.33 54.7955C209.819 55.0492 209.219 55.1761 208.529 55.1761ZM218.005 46.2727V47.6364H213.238V46.2727H218.005ZM214.516 44.1818H216.215V52.4375C216.215 52.767 216.264 53.0152 216.363 53.1818C216.461 53.3447 216.588 53.4564 216.744 53.517C216.903 53.5739 217.075 53.6023 217.261 53.6023C217.397 53.6023 217.516 53.5928 217.619 53.5739C217.721 53.5549 217.8 53.5398 217.857 53.5284L218.164 54.9318C218.066 54.9697 217.925 55.0076 217.744 55.0455C217.562 55.0871 217.335 55.1098 217.062 55.1136C216.615 55.1212 216.198 55.0417 215.812 54.875C215.425 54.7083 215.113 54.4508 214.874 54.1023C214.636 53.7538 214.516 53.3163 214.516 52.7898V44.1818ZM219.884 55V46.2727H221.583V55H219.884ZM220.742 44.9261C220.447 44.9261 220.193 44.8277 219.981 44.6307C219.772 44.4299 219.668 44.1913 219.668 43.9148C219.668 43.6345 219.772 43.3958 219.981 43.1989C220.193 42.9981 220.447 42.8977 220.742 42.8977C221.038 42.8977 221.29 42.9981 221.498 43.1989C221.71 43.3958 221.816 43.6345 221.816 43.9148C221.816 44.1913 221.71 44.4299 221.498 44.6307C221.29 44.8277 221.038 44.9261 220.742 44.9261ZM227.545 55.1761C226.727 55.1761 226.013 54.9886 225.403 54.6136C224.793 54.2386 224.319 53.714 223.982 53.0398C223.645 52.3655 223.477 51.5777 223.477 50.6761C223.477 49.7708 223.645 48.9792 223.982 48.3011C224.319 47.6231 224.793 47.0966 225.403 46.7216C226.013 46.3466 226.727 46.1591 227.545 46.1591C228.363 46.1591 229.077 46.3466 229.687 46.7216C230.297 47.0966 230.77 47.6231 231.107 48.3011C231.444 48.9792 231.613 49.7708 231.613 50.6761C231.613 51.5777 231.444 52.3655 231.107 53.0398C230.77 53.714 230.297 54.2386 229.687 54.6136C229.077 54.9886 228.363 55.1761 227.545 55.1761ZM227.55 53.75C228.081 53.75 228.52 53.6098 228.869 53.3295C229.217 53.0492 229.475 52.6761 229.641 52.2102C229.812 51.7443 229.897 51.2311 229.897 50.6705C229.897 50.1136 229.812 49.6023 229.641 49.1364C229.475 48.6667 229.217 48.2898 228.869 48.0057C228.52 47.7216 228.081 47.5795 227.55 47.5795C227.016 47.5795 226.573 47.7216 226.221 48.0057C225.872 48.2898 225.613 48.6667 225.442 49.1364C225.276 49.6023 225.192 50.1136 225.192 50.6705C225.192 51.2311 225.276 51.7443 225.442 52.2102C225.613 52.6761 225.872 53.0492 226.221 53.3295C226.573 53.6098 227.016 53.75 227.55 53.75ZM235.208 49.8182V55H233.509V46.2727H235.14V47.6932H235.248C235.449 47.2311 235.763 46.8598 236.191 46.5795C236.623 46.2992 237.166 46.1591 237.822 46.1591C238.416 46.1591 238.937 46.2841 239.384 46.5341C239.831 46.7803 240.178 47.1477 240.424 47.6364C240.67 48.125 240.793 48.7292 240.793 49.4489V55H239.094V49.6534C239.094 49.0208 238.93 48.5265 238.6 48.1705C238.271 47.8106 237.818 47.6307 237.242 47.6307C236.848 47.6307 236.498 47.7159 236.191 47.8864C235.888 48.0568 235.647 48.3068 235.469 48.6364C235.295 48.9621 235.208 49.3561 235.208 49.8182ZM247.283 55V53.7273L251.221 49.6477C251.641 49.2045 251.988 48.8163 252.261 48.483C252.537 48.1458 252.744 47.8258 252.88 47.5227C253.016 47.2197 253.085 46.8977 253.085 46.5568C253.085 46.1705 252.994 45.8371 252.812 45.5568C252.63 45.2727 252.382 45.0549 252.067 44.9034C251.753 44.7481 251.399 44.6705 251.005 44.6705C250.588 44.6705 250.225 44.7557 249.914 44.9261C249.603 45.0966 249.365 45.3371 249.198 45.6477C249.031 45.9583 248.948 46.322 248.948 46.7386H247.272C247.272 46.0303 247.435 45.411 247.761 44.8807C248.086 44.3504 248.533 43.9394 249.102 43.6477C249.67 43.3523 250.316 43.2045 251.039 43.2045C251.77 43.2045 252.414 43.3504 252.971 43.642C253.531 43.9299 253.969 44.3239 254.283 44.8239C254.598 45.3201 254.755 45.8807 254.755 46.5057C254.755 46.9375 254.674 47.3598 254.511 47.7727C254.352 48.1856 254.073 48.6458 253.675 49.1534C253.278 49.6572 252.725 50.2689 252.016 50.9886L249.704 53.4091V53.4943H254.942V55H247.283Z" fill="#3A3A3A"/>
<path d="M188.511 67.8182V78H187.581V68.7926H187.522L185.135 70.3786V69.4141L187.541 67.8182H188.511ZM196.282 76.4737C196.086 76.4737 195.917 76.4041 195.774 76.2649C195.635 76.1224 195.566 75.9534 195.566 75.7578C195.566 75.5589 195.635 75.3899 195.774 75.2507C195.917 75.1115 196.086 75.0419 196.282 75.0419C196.48 75.0419 196.649 75.1115 196.789 75.2507C196.928 75.3899 196.997 75.5589 196.997 75.7578C196.997 75.8871 196.964 76.0064 196.898 76.1158C196.835 76.2251 196.749 76.313 196.639 76.3793C196.533 76.4422 196.414 76.4737 196.282 76.4737ZM196.282 71.3082C196.086 71.3082 195.917 71.2386 195.774 71.0994C195.635 70.9569 195.566 70.7879 195.566 70.5923C195.566 70.3968 195.635 70.2294 195.774 70.0902C195.917 69.9477 196.086 69.8764 196.282 69.8764C196.48 69.8764 196.649 69.9477 196.789 70.0902C196.928 70.2294 196.997 70.3968 196.997 70.5923C196.997 70.7216 196.964 70.8409 196.898 70.9503C196.835 71.0597 196.749 71.1475 196.639 71.2138C196.533 71.2768 196.414 71.3082 196.282 71.3082ZM206.544 78.1392C205.918 78.1392 205.358 78.0265 204.864 77.8011C204.37 77.5724 203.979 77.2559 203.69 76.8516C203.402 76.4472 203.25 75.9815 203.233 75.4545H204.173C204.189 75.8258 204.304 76.1506 204.516 76.429C204.728 76.7041 205.01 76.9195 205.361 77.0753C205.712 77.2277 206.103 77.304 206.534 77.304C207.005 77.304 207.419 77.2161 207.777 77.0405C208.138 76.8648 208.42 76.6245 208.622 76.3196C208.828 76.0114 208.93 75.6634 208.93 75.2756C208.93 74.8646 208.826 74.5017 208.617 74.1868C208.408 73.8719 208.109 73.6267 207.717 73.451C207.33 73.2753 206.866 73.1875 206.325 73.1875H205.729V72.3523H206.325C206.766 72.3523 207.156 72.2727 207.494 72.1136C207.835 71.9512 208.104 71.7242 208.299 71.4325C208.495 71.1409 208.592 70.7978 208.592 70.4034C208.592 70.0289 208.508 69.6991 208.339 69.4141C208.17 69.129 207.931 68.9053 207.623 68.7429C207.318 68.5805 206.962 68.4993 206.554 68.4993C206.16 68.4993 205.798 68.5755 205.47 68.728C205.142 68.8804 204.877 69.0959 204.675 69.3743C204.476 69.6527 204.37 69.9825 204.357 70.3636H203.457C203.47 69.8333 203.616 69.3677 203.894 68.9666C204.176 68.5623 204.549 68.2474 205.013 68.022C205.48 67.7933 205.997 67.679 206.564 67.679C207.164 67.679 207.683 67.8016 208.12 68.0469C208.558 68.2921 208.896 68.6186 209.134 69.0263C209.376 69.4306 209.497 69.8764 209.497 70.3636C209.497 70.9437 209.34 71.4408 209.025 71.8551C208.71 72.2661 208.286 72.5511 207.752 72.7102V72.7749C208.402 72.9041 208.912 73.1925 209.283 73.6399C209.658 74.084 209.845 74.6293 209.845 75.2756C209.845 75.8191 209.703 76.308 209.418 76.7422C209.133 77.1731 208.742 77.5144 208.244 77.7663C207.751 78.0149 207.184 78.1392 206.544 78.1392ZM215.205 78.1392C214.489 78.1392 213.877 77.9337 213.37 77.5227C212.866 77.1084 212.479 76.5102 212.207 75.728C211.938 74.9458 211.804 74.0062 211.804 72.9091C211.804 71.8153 211.938 70.879 212.207 70.1001C212.479 69.3179 212.868 68.7197 213.375 68.3054C213.886 67.8878 214.495 67.679 215.205 67.679C215.914 67.679 216.522 67.8878 217.029 68.3054C217.54 68.7197 217.929 69.3179 218.198 70.1001C218.469 70.879 218.605 71.8153 218.605 72.9091C218.605 74.0062 218.469 74.9458 218.198 75.728C217.929 76.5102 217.541 77.1084 217.034 77.5227C216.53 77.9337 215.921 78.1392 215.205 78.1392ZM215.205 77.304C215.99 77.304 216.603 76.9212 217.044 76.1555C217.485 75.3866 217.705 74.3045 217.705 72.9091C217.705 71.9811 217.604 71.1889 217.402 70.5327C217.203 69.8731 216.917 69.3693 216.542 69.0213C216.171 68.6733 215.725 68.4993 215.205 68.4993C214.426 68.4993 213.814 68.8871 213.37 69.6626C212.926 70.4349 212.704 71.517 212.704 72.9091C212.704 73.8371 212.803 74.6293 213.002 75.2855C213.204 75.9418 213.491 76.4422 213.862 76.7869C214.237 77.1316 214.684 77.304 215.205 77.304ZM224.785 67.8182H225.859L229.553 76.6875H229.642L233.336 67.8182H234.41V78H233.535V69.782H233.455L230.02 78H229.175L225.739 69.782H225.66V78H224.785V67.8182Z" fill="#3A3A3A"/>
<circle cx="395" cy="61" r="16" fill="#2F3FFF"/>
<path d="M404.174 55.922L392.174 67.922C392.069 68.0268 391.945 68.11 391.808 68.1668C391.672 68.2236 391.525 68.2528 391.377 68.2528C391.229 68.2528 391.082 68.2236 390.946 68.1668C390.809 68.11 390.685 68.0268 390.58 67.922L385.33 62.672C385.225 62.5673 385.142 62.4431 385.086 62.3063C385.029 62.1696 385 62.0231 385 61.8751C385 61.7271 385.029 61.5805 385.086 61.4438C385.142 61.3071 385.225 61.1828 385.33 61.0782C385.435 60.9736 385.559 60.8905 385.696 60.8339C385.832 60.7773 385.979 60.7481 386.127 60.7481C386.275 60.7481 386.421 60.7773 386.558 60.8339C386.695 60.8905 386.819 60.9736 386.924 61.0782L391.378 65.5323L402.582 54.3301C402.793 54.1187 403.08 54 403.379 54C403.678 54 403.964 54.1187 404.176 54.3301C404.387 54.5414 404.506 54.8281 404.506 55.127C404.506 55.4258 404.387 55.7125 404.176 55.9238L404.174 55.922Z" fill="white"/>
<path d="M358.694 45.5V59.825H364.85L355 70.9L345.156 59.825H351.312V45.5C344.256 47.1687 339 53.4937 339 61.0562C339 69.8937 346.163 77.0562 355 77.0562C363.837 77.0562 371 69.8937 371 61.0562C371 53.4937 365.744 47.1687 358.694 45.5Z" fill="#898888"/>
</svg>
