<svg width="429" height="304" viewBox="0 0 429 304" fill="none" xmlns="http://www.w3.org/2000/svg">
<g filter="url(#filter0_d_746_1794)">
<mask id="path-1-inside-1_746_1794" fill="white">
<path fill-rule="evenodd" clip-rule="evenodd" d="M29.9184 29.9999H26.2843H24.9417H24.4379H23.4415H22.55H20.5H17.6805C7.91582 29.9999 0 37.9157 0 47.6803V295.73H429V0C429 16.5685 415.569 30 399 30H30C29.9728 30 29.9456 29.9999 29.9184 29.9999Z"/>
</mask>
<path fill-rule="evenodd" clip-rule="evenodd" d="M29.9184 29.9999H26.2843H24.9417H24.4379H23.4415H22.55H20.5H17.6805C7.91582 29.9999 0 37.9157 0 47.6803V295.73H429V0C429 16.5685 415.569 30 399 30H30C29.9728 30 29.9456 29.9999 29.9184 29.9999Z" fill="#22548D"/>
<path d="M29.9184 29.9999L29.921 28.9999H29.9184V29.9999ZM0 295.73H-1V296.73H0V295.73ZM429 295.73V296.73H430V295.73H429ZM26.2843 30.9999H29.9184V28.9999H26.2843V30.9999ZM24.9417 30.9999H26.2843V28.9999H24.9417V30.9999ZM24.4379 30.9999H24.9417V28.9999H24.4379V30.9999ZM23.4415 30.9999H24.4379V28.9999H23.4415V30.9999ZM22.55 30.9999H23.4415V28.9999H22.55V30.9999ZM20.5 30.9999H22.55V28.9999H20.5V30.9999ZM17.6805 30.9999H20.5V28.9999H17.6805V30.9999ZM1 47.6803C1 38.468 8.4681 30.9999 17.6805 30.9999V28.9999C7.36353 28.9999 -1 37.3634 -1 47.6803H1ZM1 295.73V47.6803H-1V295.73H1ZM429 294.73H0V296.73H429V294.73ZM428 0V295.73H430V0H428ZM428 0C428 16.0163 415.016 29 399 29V31C416.121 31 430 17.1208 430 0H428ZM399 29H30V31H399V29ZM30 29C29.9737 29 29.9473 28.9999 29.921 28.9999L29.9157 30.9999C29.9438 30.9999 29.9719 31 30 31V29Z" fill="black" mask="url(#path-1-inside-1_746_1794)"/>
</g>
<defs>
<filter id="filter0_d_746_1794" x="-4" y="0" width="437" height="303.73" filterUnits="userSpaceOnUse" color-interpolation-filters="sRGB">
<feFlood flood-opacity="0" result="BackgroundImageFix"/>
<feColorMatrix in="SourceAlpha" type="matrix" values="0 0 0 0 0 0 0 0 0 0 0 0 0 0 0 0 0 0 127 0" result="hardAlpha"/>
<feOffset dy="4"/>
<feGaussianBlur stdDeviation="2"/>
<feComposite in2="hardAlpha" operator="out"/>
<feColorMatrix type="matrix" values="0 0 0 0 0 0 0 0 0 0 0 0 0 0 0 0 0 0 0.25 0"/>
<feBlend mode="normal" in2="BackgroundImageFix" result="effect1_dropShadow_746_1794"/>
<feBlend mode="normal" in="SourceGraphic" in2="effect1_dropShadow_746_1794" result="shape"/>
</filter>
</defs>
</svg>
