<svg width="42" height="42" viewBox="0 0 42 42" fill="none" xmlns="http://www.w3.org/2000/svg">
<path d="M39.5944 0.39188C38.1148 0.137483 36.6166 0.00640508 35.1152 6.66221e-06C29.9933 -0.00360969 24.9782 1.4651 20.6674 4.2312C15.0341 0.696649 8.29405 -0.633462 1.74032 0.496043C1.25563 0.579198 0.816616 0.832861 0.502506 1.21125C0.188395 1.58964 0.019875 2.06784 0.0273506 2.55956V27.3283C0.0234139 27.5993 0.0728964 27.8684 0.172976 28.1203C0.273056 28.3721 0.421774 28.6018 0.61063 28.7962C0.799486 28.9906 1.02478 29.1459 1.27365 29.2532C1.52253 29.3605 1.7901 29.4177 2.06109 29.4216C2.18855 29.4249 2.316 29.4149 2.44138 29.3918C5.39962 28.8797 8.43044 28.9648 11.3553 29.642C14.2801 30.3193 17.0399 31.575 19.4719 33.3353L19.7199 33.4792H19.9465C20.1753 33.5749 20.4209 33.6243 20.669 33.6243C20.9171 33.6243 21.1627 33.5749 21.3916 33.4792H21.6181L21.8661 33.3353C24.2809 31.5351 27.0327 30.2384 29.9582 29.522C32.8837 28.8057 35.9234 28.6844 38.8967 29.1653C39.1637 29.2114 39.4373 29.2044 39.7016 29.1447C39.966 29.085 40.216 28.9739 40.4375 28.8176C40.6589 28.6613 40.8473 28.4629 40.992 28.2337C41.1368 28.0046 41.2349 27.7492 41.2809 27.4821C41.3024 27.3565 41.3124 27.2292 41.3107 27.1018V2.33799C41.2899 1.86638 41.1083 1.4161 40.796 1.06204C40.4838 0.707983 40.0597 0.471485 39.5944 0.39188ZM18.5956 27.8244C14.7767 25.8158 10.5262 24.7671 6.21125 24.7688H4.15436V4.12868C4.84217 4.089 5.53171 4.089 6.21952 4.12868C10.623 4.12344 14.9304 5.41567 18.6039 7.844L18.5956 27.8244ZM37.1721 24.8481H35.1152C30.7994 24.8464 26.5481 25.8963 22.7292 27.907V7.844C26.4026 5.41567 30.7101 4.12344 35.1136 4.12868C35.8014 4.089 36.4909 4.089 37.1787 4.12868L37.1721 24.8481ZM39.5944 33.423C33.0273 32.2789 26.2702 33.649 20.6674 37.2606C15.0646 33.649 8.30742 32.2789 1.74032 33.423C1.47262 33.4652 1.21588 33.5598 0.984775 33.7014C0.753675 33.843 0.552749 34.0287 0.393498 34.248C0.234248 34.4673 0.119794 34.7159 0.0566826 34.9794C-0.00642876 35.243 -0.016958 35.5164 0.0256956 35.7841V35.7957C0.130533 36.3315 0.443456 36.8039 0.895927 37.1095C1.3484 37.4151 1.90353 37.5289 2.43973 37.426C5.39796 36.9138 8.42878 36.9989 11.3536 37.6761C14.2785 38.3534 17.0382 39.6092 19.4703 41.3695C19.82 41.6179 20.2384 41.7514 20.6674 41.7514C21.0964 41.7514 21.5148 41.6179 21.8645 41.3695C24.2965 39.6092 27.0562 38.3534 29.9811 37.6761C32.906 36.9989 35.9368 36.9138 38.895 37.426C39.1625 37.4846 39.4391 37.4886 39.7081 37.4377C39.9772 37.3869 40.2332 37.2822 40.4609 37.13C40.6885 36.9778 40.8831 36.7811 41.0329 36.5519C41.1827 36.3227 41.2846 36.0656 41.3326 35.796C41.3806 35.5264 41.3737 35.2499 41.3123 34.983C41.2508 34.7162 41.1361 34.4645 40.975 34.243C40.814 34.0216 40.6098 33.8349 40.3748 33.6943C40.1399 33.5537 39.8789 33.4619 39.6076 33.4246L39.5944 33.423Z" fill="#22548D"/>
</svg>
